<?xml version="1.0" encoding="utf-8"?>
<!-- Generator: Adobe Illustrator 21.1.0, SVG Export Plug-In . SVG Version: 6.00 Build 0)  -->
<svg version="1.1" id="Layer_1" xmlns="http://www.w3.org/2000/svg" xmlns:xlink="http://www.w3.org/1999/xlink" x="0px" y="0px"
	 viewBox="0 0 96 96" style="enable-background:new 0 0 96 96;" xml:space="preserve">
<path d="M7,35.1c0,2.6,0.7,0.7-1.4,3.4c-0.3,0.4-0.7,1.1-1,1.6c-0.5,0.4-1,0.8-1,1.6c0,0.7,0.7,0.8,0.7,1.7c0,0.8-2.7,3.5-3.4,4.3
	c-1.6,1.4-1.4,1.9,0.7,3.1c2.1,1.4,1.9,1.3,3,0.5C6,50,7.8,49.2,6,52c-0.2,0.4-0.8,1-0.8,1.3c0,3.4,5,0.4,6.1,0.2
	c2.3-0.8,2.1,1.1,4,1.1c0-1.3,0-1.4,1.3-2.1c3.8-2.7,3.4-1.6,6.2-3.1l1.4-0.8c0.4-0.4,2.8-1.4,2.8,0c0,1-0.3,2.6-0.7,3.4
	c-1.4,2.3,0.2,3.7-3.4,7.2c-3.5,3.4-3.4,5.6-4.9,5.9c-0.7,0.2-1.9-0.2-3.1-0.2c-0.7,0-3.5,2.9-3.8,4c0.5,0,0.7,0,1,0.1v1.1h0.4
	c0.2-0.4,0.2-0.3,0.4-0.8c0.8-1.1,0.8,0,1.1,0.8c1.1-0.3,1.6-1.9,2.6,0c0.7-0.1,0.2-0.1,1-0.3c0.4-0.1,0,0,0.8-0.1
	c4-0.2,4-0.3,7.2-2.3c2.4-1.6,4.7-3.2,6.9-4.9l1.3-1.1c0.3-0.4,0.8-0.7,1.1-1.1c0.4-0.4,0.8-0.7,1.3-1.1s0.7-0.7,1.1-1.3
	c0.3-0.7,0.4-1,0.8-1.6c1.6-2.6,2.4-0.1,4.8,2.1l0.4,0.4c1.1,1,5.3,3.7,2.6,4.3c-0.4,0-0.8,0-1.3,0.2c-1.9,0.4-3.8,2.4-3.8,4.6
	c0.8-0.1,0.4-0.4,1.1-0.7c0.8-0.3,0.3,0.2,1.1,0.3c0.2-1.1,1.1-1.1,1.4,0c1-0.3,0.2-0.7,1.1-1c0.4,0,1.6,0,2.1,0
	c0.7,0,3.2-0.3,3.5-0.4c0.4-0.2,0.8-0.7,1-1.1c1.6-2.7,3.2-4.5,1.9-6.8c-0.3-0.4-0.4-0.8-0.7-1.4c-0.3-0.4-0.4-0.8-0.7-1.3
	c-0.1-0.4-0.4-1-0.7-1.4c-1.1-1.9,2.3-0.7,3.7-0.7c0.8,0,3.7-0.3,4,0c0.3,0.4-0.1,1-0.1,1.9c0,5.3,2.7,8.3-1.1,8.6
	c-1.6,0.1-2.9,0.3-4.1,1.3l-1.4,1.3c-0.4,0.4-1.1,0.8-1.1,1.6c0.4,0,1-0.4,1.4-0.7c1.3,0.8,0.1,0.4,1.4,0.8c0.7,0,0,0.2,0.7,0.2
	c1,0,0.3-0.4,1.7-0.2c1.4,0.2,2.8-0.1,4.1-0.1c0.7,0,1.4,0,2.1,0c1.6,0,2.6-0.2,3.2-1.1c3.5-4.8,4.4-4.8,8.6-8.3
	c0.8-0.7,1.4-1.6,2.4-1.7c1.6,1.1-0.3,2.7,4.5,3.8c1.4,0.3,9.6,1.1,4.8,3.5c-1,0.3-1.4,0.1-2.3,0.4c-1.1,0.4-2.7,1.4-2.7,2.8
	c0,1,0.8-0.2,1.6-0.2c0.3,0,0.4,0.7,0.7,0.8c1.6-0.8,1.1-0.3,2.1,0.3c1.3-1,0.3-0.7,3.2-0.7c1.6,0,1.9-0.1,2.9-0.8
	c0.7-0.4,1.4-1,2.1-1.6c3.1-2.9-0.8-5.9-2.1-8.5c-1.6-3.4-0.8-4.3-1.1-7.9c-0.3-4.7-1.6-4.9-1.9-7.1c-0.1-0.4,0-1.3,0.1-1.7
	c0.3-0.7,0.3-0.8,0-1.6c-0.3-1.1-0.8-2.1-1.4-3.1c-0.4-0.7-1.1-1.3-1.4-1.9c-0.8-1.9-1.1-1.7-2.4-3.2c-2.1-2.1-3.7-3.5-6.2-4.9
	c-1.6-0.8-3.2-1.4-4.8-1.9c-2-0.4-3.8-0.8-5.9-0.8c-1,0-1-0.3-1.9-0.3c-2.6,0-4.8,0.7-7.2,1.1c-2.3,0.4-4.3,1.4-6.8,1.4
	c-8,0-7.2-3.8-11.8-3.8c-1.7,0-6.9,0.8-8.3,1.4l-6.4,2.7c-0.4,0.3-1,0.7-1.4,1c-0.7,0.3-1,0.3-1.6,0.7c-0.8,0.3-1.7,1.6-2.4,2.1
	l-2.3,2.3c-1.9,1.4-1.6-0.2-3.1-0.2c-1.3,0-1.3,2.4-2.8,2.4c-0.7,0-1.3-0.8-2.1-0.8C8.1,32.9,7,34.1,7,35.1z"/>
</svg>
