<?xml version="1.0" encoding="utf-8"?>
<!-- Generator: Adobe Illustrator 21.1.0, SVG Export Plug-In . SVG Version: 6.00 Build 0)  -->
<svg version="1.1" id="Layer_1" xmlns="http://www.w3.org/2000/svg" xmlns:xlink="http://www.w3.org/1999/xlink" x="0px" y="0px"
	 viewBox="0 0 123.7 100" style="enable-background:new 0 0 123.7 100;" xml:space="preserve">
<polygon points="93.8,59.4 89.7,63.5 89.7,39.5 85.7,39.5 85.7,63.5 81.5,59.3 78.7,62.2 87.8,71.2 96.7,62.2 "/>
<g transform="translate(0,-952.36218)">
	<path d="M48.4,982.9c-13.7,0-24.9,11.1-24.9,24.9s11.1,24.9,24.9,24.9c13.7,0,24.9-11.1,24.9-24.9S62.1,982.9,48.4,982.9z
		 M48.4,988.5c0.7,0,1.2,0.6,1.2,1.2v17.3l13.9,8c0.6,0.3,0.8,1.1,0.5,1.7c-0.3,0.6-1.1,0.8-1.7,0.4c-4.8-2.8-9.7-5.6-14.5-8.4
		c-0.4-0.2-0.6-0.6-0.6-1.1v-18C47.1,989,47.7,988.5,48.4,988.5L48.4,988.5z"/>
</g>
</svg>
