<?xml version="1.0" encoding="utf-8"?>
<!-- Generator: Adobe Illustrator 21.1.0, SVG Export Plug-In . SVG Version: 6.00 Build 0)  -->
<svg version="1.1" id="Layer_1" xmlns="http://www.w3.org/2000/svg" xmlns:xlink="http://www.w3.org/1999/xlink" x="0px" y="0px"
	 viewBox="0 0 123.7 100" style="enable-background:new 0 0 123.7 100;" xml:space="preserve">
<g>
	<path d="M36.5,76.8c-2.1,0.6-4.5,0.9-6.9,0.9c-4.5,0-8.8-1.1-12-3.1c-1.3-0.7-2.3-1.6-3.1-2.5v0.3c0,2.3,1.5,4.4,4.2,6.1
		c2.9,1.7,6.8,2.7,10.9,2.7c2.5,0,4.9-0.3,7-1c0-0.2,0-0.4-0.1-0.5V76.8z"/>
	<path d="M17.7,68.6c-1.2-0.8-2.3-1.6-3.1-2.5v0.3c0,2.3,1.5,4.4,4.2,6.1c2.9,1.8,6.7,2.7,10.9,2.7c2.5,0,4.8-0.3,6.9-1v-1.3v-2.1
		c-2.2,0.6-4.5,0.9-6.9,0.9C25.2,71.7,20.9,70.6,17.7,68.6z"/>
	<path d="M18.8,60.7c2.9,1.8,6.7,2.7,10.9,2.7c4.1,0,8-1,10.9-2.7c2.7-1.7,4.2-3.8,4.2-6.1v-0.3c-0.8,0.9-1.8,1.8-3.1,2.5
		c-3.2,2-7.5,3.1-12,3.1s-8.8-1.1-12-3.1c-1.2-0.8-2.3-1.6-3.1-2.5v0.3C14.6,56.9,16.1,59.1,18.8,60.7z"/>
	<path d="M18.8,55.1c2.9,1.7,6.8,2.7,10.9,2.7c4.2,0,8-0.9,10.9-2.7c2.7-1.7,4.2-3.9,4.2-6.1c0-2.3-1.5-4.4-4.2-6.1
		c-2.9-1.7-6.8-2.7-10.9-2.7c-4.2,0-8,0.9-10.9,2.7c-2.7,1.7-4.2,3.9-4.2,6.1S16.1,53.4,18.8,55.1z"/>
	<path d="M65.8,76.1c-3.2,2-7.5,3.1-12,3.1s-8.8-1.1-12-3.1c-1.2-0.8-2.3-1.6-3.1-2.5v0.3c0,2.2,1.5,4.4,4.2,6.1
		c2.9,1.8,6.7,2.7,10.9,2.7c4.2,0,8-1,10.9-2.7c2.7-1.7,4.2-3.8,4.2-6.1v-0.3C68.1,74.5,67.1,75.4,65.8,76.1z"/>
	<path d="M17.7,62.6c-1.2-0.8-2.3-1.6-3.1-2.5v0.3c0,2.3,1.5,4.4,4.2,6.1c2.9,1.8,6.7,2.7,10.9,2.7c2.5,0,4.8-0.3,6.9-1v-0.4
		c0.1-1.2,0.4-2.3,1-3.3c-2.4,0.8-5.1,1.2-7.9,1.2C25.2,65.7,20.9,64.6,17.7,62.6z"/>
	<path d="M65.8,81.9c-3.2,2-7.5,3.1-12,3.1s-8.8-1.1-12-3.1c-1.2-0.8-2.3-1.6-3.1-2.5v0.3c0,2.2,1.5,4.4,4.2,6.1
		c2.9,1.8,6.7,2.7,10.9,2.7c4.1,0,8-1,10.9-2.7c2.7-1.7,4.2-3.8,4.2-6.1v-0.3C68.1,80.3,67.1,81.2,65.8,81.9z"/>
	<path d="M66.3,26.1c-8.6-4.6-16.8-0.6-16.8-0.6h-1.9v34.7c-1.7,0.5-3.3,1.1-4.7,1.9c-2.7,1.7-4.2,3.9-4.2,6.1
		c0,2.3,1.5,4.4,4.2,6.1C45.8,76,49.7,77,53.8,77c4.2,0,8-1,10.9-2.7c2.7-1.7,4.2-3.9,4.2-6.1c0-2.3-1.5-4.4-4.2-6.1
		c-2.9-1.7-6.8-2.7-10.9-2.7c-0.9,0-1.7,0.1-2.6,0.1V48.9l0.1-0.1v0c2.4-1.4,7.1-2.9,12.9,0.1c8.6,4.6,16.8,0.6,16.8,0.6V47V25
		C81,25,74.8,30.7,66.3,26.1z"/>
</g>
<polygon points="103.6,59.4 99.5,63.5 99.5,39.5 95.5,39.5 95.5,63.5 91.3,59.3 88.5,62.2 97.5,71.2 106.4,62.2 "/>
</svg>
