<?xml version="1.0" encoding="utf-8"?>
<!-- Generator: Adobe Illustrator 21.1.0, SVG Export Plug-In . SVG Version: 6.00 Build 0)  -->
<svg version="1.1" id="Layer_1" xmlns="http://www.w3.org/2000/svg" xmlns:xlink="http://www.w3.org/1999/xlink" x="0px" y="0px"
	 viewBox="0 0 100 100" style="enable-background:new 0 0 100 100;" xml:space="preserve">
<g>
	<g>
		<path d="M53.8,59.4c4.1,0,8,1,10.9,2.7c2.7,1.7,4.2,3.8,4.2,6.1c0,2.2-1.5,4.4-4.2,6.1C61.8,76,58,77,53.8,77c-4.1,0-8-1-10.9-2.7
			c-2.7-1.7-4.2-3.8-4.2-6.1c0-2.2,1.5-4.4,4.2-6.1C45.9,60.4,49.7,59.4,53.8,59.4L53.8,59.4L53.8,59.4z M65.8,76.1
			c-3.2,2-7.5,3.1-12,3.1c-4.5,0-8.8-1.1-12-3.1c-1.2-0.8-2.3-1.6-3.1-2.5v0.3c0,2.2,1.5,4.4,4.2,6.1c2.9,1.8,6.7,2.7,10.9,2.7
			s8-1,10.9-2.7c2.7-1.7,4.2-3.8,4.2-6.1v-0.3C68.1,74.5,67.1,75.4,65.8,76.1L65.8,76.1L65.8,76.1z M68.9,79.4
			c-0.8,0.9-1.8,1.8-3.1,2.5c-3.2,2-7.5,3.1-12,3.1c-4.5,0-8.8-1.1-12-3.1c-1.2-0.8-2.3-1.6-3.1-2.5v0.3c0,2.2,1.5,4.4,4.2,6.1
			c2.9,1.8,6.7,2.7,10.9,2.7c4.1,0,8-1,10.9-2.7c2.7-1.7,4.2-3.8,4.2-6.1V79.4L68.9,79.4z M14.6,49c0-2.2,1.5-4.4,4.2-6.1
			c2.9-1.8,6.7-2.7,10.9-2.7c4.1,0,8,1,10.9,2.7c2.7,1.7,4.2,3.8,4.2,6.1c0,2.2-1.5,4.4-4.2,6.1c-2.9,1.8-6.7,2.7-10.9,2.7
			c-4.1,0-8-1-10.9-2.7C16.1,53.4,14.6,51.2,14.6,49L14.6,49L14.6,49z M18.8,60.7c2.9,1.8,6.7,2.7,10.9,2.7c4.1,0,8-1,10.9-2.7
			c2.7-1.7,4.2-3.8,4.2-6.1v-0.3c-0.8,0.9-1.8,1.8-3.1,2.5c-3.2,2-7.5,3.1-12,3.1c-4.5,0-8.8-1.1-12-3.1c-1.2-0.8-2.3-1.6-3.1-2.5
			v0.3C14.6,56.9,16.1,59.1,18.8,60.7L18.8,60.7L18.8,60.7z M18.8,66.5c2.9,1.8,6.7,2.7,10.9,2.7c2.5,0,4.8-0.3,6.9-1v-0.4h0
			c0.1-1.2,0.4-2.3,1-3.3c-2.4,0.8-5.1,1.2-7.9,1.2c-4.5,0-8.8-1.1-12-3.1c-1.2-0.8-2.3-1.6-3.1-2.5v0.3
			C14.6,62.7,16.1,64.8,18.8,66.5L18.8,66.5L18.8,66.5z M18.8,72.5c2.9,1.8,6.7,2.7,10.9,2.7c2.5,0,4.8-0.3,6.9-1v-1.3v-2.1
			c-2.2,0.6-4.5,0.9-6.9,0.9c-4.5,0-8.8-1.1-12-3.1c-1.2-0.8-2.3-1.6-3.1-2.5v0.3C14.6,68.7,16.1,70.8,18.8,72.5L18.8,72.5
			L18.8,72.5z M36.6,80.2c-2.1,0.7-4.5,1-7,1c-4.1,0-8-1-10.9-2.7c-2.7-1.7-4.2-3.8-4.2-6.1v-0.3c0.8,0.9,1.8,1.8,3.1,2.5
			c3.2,2,7.5,3.1,12,3.1c2.4,0,4.8-0.3,6.9-0.9v2.9C36.6,79.8,36.6,80,36.6,80.2L36.6,80.2L36.6,80.2z"/>
	</g>
	<g>
		<g>
			<rect x="47.6" y="25.5" width="3.6" height="39.4"/>
		</g>
		<path d="M66.3,26.1c-8.6-4.6-16.8-0.6-16.8-0.6h1.8v23.4c2.4-1.4,7.1-2.9,12.9,0.1c8.6,4.6,16.8,0.6,16.8,0.6v-2.6h0V25
			C81,25,74.8,30.7,66.3,26.1z"/>
	</g>
</g>
</svg>
