<?xml version="1.0" encoding="utf-8"?>
<!-- Generator: Adobe Illustrator 21.1.0, SVG Export Plug-In . SVG Version: 6.00 Build 0)  -->
<svg version="1.1" id="Layer_1" xmlns="http://www.w3.org/2000/svg" xmlns:xlink="http://www.w3.org/1999/xlink" x="0px" y="0px"
	 viewBox="0 0 200 200" style="enable-background:new 0 0 200 200;" xml:space="preserve">
<path d="M92.9,76.7v11.6c0,7.4-18.9,13.5-42.2,13.5s-42.2-6-42.2-13.5V76.7c0-7.4,18.9-13.5,42.2-13.5S92.9,69.3,92.9,76.7z
	 M50.7,114.6c-15.3,0-31.2-2.3-42-8c-0.2,0.5-0.3,1-0.3,1.5v11.6c0,7.4,18.9,13.5,42.2,13.5s42.2-6,42.2-13.5V108
	c0-0.5-0.1-1-0.3-1.5C82,112.3,66,114.6,50.7,114.6z M50.7,146c-15.3,0-31.2-2.3-42-8c-0.2,0.5-0.3,1-0.3,1.5V151
	c0,7.4,18.9,13.5,42.2,13.5s42.2-6,42.2-13.5v-11.6c0-0.5-0.1-1-0.3-1.5C82,143.7,66,146,50.7,146L50.7,146z M50.7,177.4
	c-15.3,0-31.2-2.3-42-8c-0.2,0.5-0.3,1-0.3,1.5v11.6c0,7.6,18.9,13.6,42.3,13.6s42.2-6,42.2-13.5v-11.6c0-0.5-0.1-1-0.3-1.5
	C82,175.1,66,177.4,50.7,177.4L50.7,177.4z M149.3,94.6c-23.3,0-42.2,6-42.2,13.5v11.6c0,7.4,18.9,13.5,42.2,13.5s42.2-6,42.2-13.5
	v-11.6C191.5,100.7,172.6,94.6,149.3,94.6L149.3,94.6z M149.3,146c-15.3,0-31.3-2.3-42-8c-0.2,0.5-0.3,1-0.3,1.5v11.6
	c0,7.4,18.9,13.5,42.2,13.5s42.2-6,42.2-13.5v-11.6c0-0.5-0.1-1-0.3-1.5C180.5,143.7,164.6,146,149.3,146L149.3,146z M134.1,82
	c0.4,1,1,1.9,1.8,2.6c0.8,0.8,1.7,1.4,2.6,1.8c1.1,0.4,2.2,0.7,3.4,0.7h14.6c1.1,0,2.3-0.2,3.3-0.7c1-0.4,1.9-1,2.7-1.8
	c0.8-0.7,1.4-1.6,1.8-2.6c0.4-1,0.6-2.1,0.6-3.2l-1.2-34.2h9.8c0.7,0,1.3-0.1,2-0.2c0.7-0.1,1.4-0.3,2-0.6c0.6-0.2,1.2-0.5,1.7-0.9
	c0.5-0.4,1-0.8,1.4-1.3c0.5-0.6,0.9-1.4,1.2-2.2c0.2-0.7,0.3-1.5,0.3-2.3c-0.1-0.8-0.3-1.6-0.6-2.3c-0.4-0.7-0.8-1.4-1.4-2
	L155.6,6.6c-0.4-0.4-0.8-0.8-1.3-1.1c-0.5-0.3-1-0.6-1.6-0.8c-0.6-0.2-1.1-0.4-1.7-0.5c-1.2-0.2-2.5-0.2-3.7,0
	c-0.6,0.1-1.2,0.3-1.7,0.5c-0.5,0.2-1.1,0.5-1.5,0.8c-0.5,0.3-0.9,0.7-1.3,1.1L118.5,33c-0.3,0.3-0.5,0.6-0.8,1
	c-0.2,0.3-0.4,0.7-0.6,1c-0.2,0.4-0.3,0.7-0.4,1.1c-0.1,0.4-0.2,0.8-0.2,1.1c-0.1,0.9,0,1.8,0.3,2.6c0.1,0.3,0.2,0.5,0.4,0.8
	c0.3,0.6,0.7,1.2,1.2,1.7c0.5,0.5,1.1,0.9,1.7,1.3c0.6,0.4,1.3,0.6,2,0.8c0.8,0.2,1.6,0.3,2.4,0.3h10.2l-1.2,34.2
	C133.5,79.9,133.7,81,134.1,82z M149.3,177.4c-15.3,0-31.2-2.3-42-8c-0.2,0.5-0.3,1-0.3,1.5v11.6c0,7.6,19,13.6,42.3,13.6
	s42.2-6,42.2-13.5v-11.6c0-0.5-0.1-1-0.3-1.5C180.5,175.1,164.6,177.4,149.3,177.4z"/>
</svg>
