<?xml version="1.0" encoding="utf-8"?>
<!-- Generator: Adobe Illustrator 21.1.0, SVG Export Plug-In . SVG Version: 6.00 Build 0)  -->
<svg version="1.1" id="Layer_1" xmlns="http://www.w3.org/2000/svg" xmlns:xlink="http://www.w3.org/1999/xlink" x="0px" y="0px"
	 viewBox="0 0 96 96" style="enable-background:new 0 0 96 96;" xml:space="preserve">
<path d="M52.8,48.3l-2.7-2.7l2.7-2.7c0.5-0.5,0.5-1.3,0-1.8l-0.2-0.2c-0.5-0.5-1.3-0.5-1.8,0L48,43.5l-2.7-2.7
	c-0.5-0.5-1.3-0.5-1.8,0L43.2,41c-0.5,0.5-0.5,1.3,0,1.8l2.7,2.7l-2.7,2.7c-0.5,0.5-0.5,1.3,0,1.8l0.2,0.2c0.5,0.5,1.3,0.5,1.8,0
	l2.7-2.7l2.7,2.7c0.5,0.5,1.3,0.5,1.8,0l0.2-0.2C53.3,49.7,53.3,48.8,52.8,48.3z"/>
<path d="M6.2,48.6c1.2-1.1,2.8-0.9,3.5,0.5V57c0,1.9,1.5,3.4,3.4,3.4h6.3c2.6,0,3.2,2.2,1.9,3.7c-2.3,2.5-1.1,6.4,3,6.5
	c4-0.1,5.2-4,3-6.5c-1.3-1.5-0.8-3.7,1.9-3.7h6.4c2,0,3.5-1.6,3.5-3.5v-6.5c-0.1-2.5-2.3-3.1-3.7-1.8c-2.5,2.3-6.4,1.1-6.6-3
	c0.1-4,4-5.2,6.6-3c1.5,1.3,3.7,0.8,3.7-1.8v-6.5c0-1.9-1.5-3.4-3.4-3.4h-6.4c-2.6,0-3.2-2.2-1.9-3.7c2.3-2.5,1.1-6.4-3-6.6
	c-4,0.1-5.2,4-3,6.5c1.3,1.5,0.8,3.7-1.9,3.7h-6.3c-1.9,0-3.4,1.5-3.4,3.4v8c-0.7,1.3-2.3,1.4-3.4,0.4c-2.5-2.3-6.4-1.1-6.6,3
	C-0.2,49.7,3.7,50.9,6.2,48.6z"/>
<path d="M89.8,42.6c-1.2,1.1-2.8,0.9-3.5-0.5v-7.9c0-1.9-1.5-3.4-3.4-3.4h-6.3c-2.6,0-3.2-2.2-1.9-3.7c2.3-2.5,1.1-6.4-3-6.5
	c-4,0.1-5.2,4-3,6.5c1.3,1.5,0.8,3.7-1.9,3.7h-6.4c-2,0-3.5,1.6-3.5,3.5v6.5c0.1,2.5,2.3,3.1,3.7,1.8c2.5-2.3,6.4-1.1,6.6,3
	c-0.1,4-4,5.2-6.6,3c-1.5-1.3-3.7-0.8-3.7,1.8v6.5c0,1.9,1.5,3.4,3.4,3.4h6.4c2.6,0,3.2,2.2,1.9,3.7c-2.3,2.5-1.1,6.4,3,6.6
	c4-0.1,5.2-4,3-6.5c-1.3-1.5-0.8-3.7,1.9-3.7h6.3c1.9,0,3.4-1.5,3.4-3.4v-8c0.7-1.3,2.3-1.4,3.4-0.4c2.5,2.3,6.4,1.1,6.6-3
	C96.2,41.5,92.3,40.3,89.8,42.6z"/>
</svg>
