<?xml version="1.0" encoding="utf-8"?>
<!-- Generator: Adobe Illustrator 21.1.0, SVG Export Plug-In . SVG Version: 6.00 Build 0)  -->
<svg version="1.1" id="Capa_1" xmlns="http://www.w3.org/2000/svg" xmlns:xlink="http://www.w3.org/1999/xlink" x="0px" y="0px"
	 viewBox="-49 141 512 512" style="enable-background:new -49 141 512 512;" xml:space="preserve">
<path d="M463,355.9V241c0-55-45-100-100-100H51c-55,0-100,45-100,100v312c0,55,45,100,100,100h312c55,0,100-45,100-100V367.6
	C463.8,363.7,463.8,359.8,463,355.9z M22.8,212.8C30.4,205.2,40.4,201,51,201h312c10.6,0,20.6,4.2,28.2,11.8
	c7.6,7.6,11.8,17.6,11.8,28.2v62.7l-78.1-54.6l-139,142L69.6,345.6L11,411.4V241C11,230.4,15.2,220.4,22.8,212.8z M391.2,581.2
	c-7.6,7.6-17.6,11.8-28.2,11.8H51c-10.6,0-20.6-4.2-28.2-11.8C15.2,573.6,11,563.6,11,553v-51.4l75.6-84.9l114.4,44.7l131.2-134
	L403,377v176C403,563.6,398.8,573.6,391.2,581.2z"/>
</svg>
