<?xml version="1.0" encoding="utf-8"?>
<!-- Generator: Adobe Illustrator 21.1.0, SVG Export Plug-In . SVG Version: 6.00 Build 0)  -->
<svg version="1.1" id="Layer_1" xmlns="http://www.w3.org/2000/svg" xmlns:xlink="http://www.w3.org/1999/xlink" x="0px" y="0px"
	 viewBox="0 0 362.8 362.8" style="enable-background:new 0 0 362.8 362.8;" xml:space="preserve">
<g>
	<path d="M274.7,76.2h-149c-9.8,0-17.9,8-17.9,17.9c0,9.8,8,17.9,17.9,17.9h149c9.8,0,17.9-8,17.9-17.9
		C292.6,84.3,284.5,76.2,274.7,76.2L274.7,76.2z M274.7,76.2"/>
	<path d="M274.7,141.8h-149c-9.8,0-17.9,8-17.9,17.9c0,9.8,8,17.9,17.9,17.9h149c9.8,0,17.9-8,17.9-17.9
		C292.6,149.8,284.5,141.8,274.7,141.8L274.7,141.8z M274.7,141.8"/>
	<path d="M274.7,207.4h-149c-9.8,0-17.9,8-17.9,17.9c0,9.8,8,17.9,17.9,17.9h149c9.8,0,17.9-8,17.9-17.9
		C292.6,215.4,284.5,207.4,274.7,207.4L274.7,207.4z M274.7,207.4"/>
</g>
</svg>
