<svg width='200' height='200' fill="#000000" xmlns="http://www.w3.org/2000/svg" xmlns:xlink="http://www.w3.org/1999/xlink" version="1.1" x="0px" y="0px" viewBox="0 0 100 100" style="enable-background:new 0 0 100 100;" xml:space="preserve"><g><path d="M45.6,79.1c8,0,15.3-2.8,21.1-7.5L82,86.9c0.7,0.7,1.6,1,2.5,1s1.8-0.3,2.5-1c1.4-1.4,1.4-3.6,0-5L71.6,66.7   c4.7-5.8,7.5-13.1,7.5-21.1c0-18.5-15-33.5-33.5-33.5s-33.5,15-33.5,33.5C12.1,64.1,27.1,79.1,45.6,79.1z M45.6,19.1   c14.6,0,26.5,11.9,26.5,26.5c0,14.6-11.9,26.5-26.5,26.5c-14.6,0-26.5-11.9-26.5-26.5C19.1,31,31,19.1,45.6,19.1z"/></g></svg>