<svg fill="#000000" xmlns:dc="http://purl.org/dc/elements/1.1/" xmlns:cc="http://creativecommons.org/ns#" xmlns:rdf="http://www.w3.org/1999/02/22-rdf-syntax-ns#" xmlns:svg="http://www.w3.org/2000/svg" xmlns="http://www.w3.org/2000/svg" xmlns:sodipodi="http://sodipodi.sourceforge.net/DTD/sodipodi-0.dtd" xmlns:inkscape="http://www.inkscape.org/namespaces/inkscape" version="1.1" x="0px" y="0px" viewBox="0 0 100 100"><g transform="translate(0,-952.36218)"><path style="color:#000000;enable-background:accumulate;" d="m 50,962.36218 c -22.09128,0 -40,17.9087 -40,40.00002 0,22.0913 17.90872,40 40,40 22.0913,0 40,-17.9087 40,-40 0,-22.09132 -17.9087,-40.00002 -40,-40.00002 z m 0,9 c 1.1046,0 2,0.8954 2,2 l 0,27.84372 22.375,12.9375 c 0.9566,0.5523 1.3023,1.7622 0.75,2.7188 -0.5523,0.9566 -1.7934,1.271 -2.75,0.7187 -7.7867,-4.4975 -15.6035,-9.0133 -23.375,-13.5 -0.5969,-0.346 -1,-0.9791 -1,-1.7187 l 0,-29.00002 c 0,-1.1046 0.8954,-2 2,-2 z" fill="#000000" stroke="none" marker="none" visibility="visible" display="inline" overflow="visible"/></g></svg>