<svg x="0px" y="0px" viewBox="0 0 543 262"><path d="M25.15,260.5A23.18,23.18,0,0,1,9.85,219.91L248.72,9.9a35.83,35.83,0,0,1,45.91,0l238.87,210A23.18,23.18,0,0,1,518.2,260.5Z"/><path d="M271.67,2.08a34.12,34.12,0,0,1,22.63,8.2l131.38,115.5,107.49,94.51a22.68,22.68,0,0,1-15,39.72h-493a22.68,22.68,0,0,1-15-39.72l107.49-94.51L249,10.28a34.12,34.12,0,0,1,22.63-8.2m0-1a35.28,35.28,0,0,0-23.29,8.44L117,125,9.52,219.53C-6.88,234,3.31,261,25.15,261h493c21.84,0,32-27,15.64-41.47L426.34,125,295,9.53a35.28,35.28,0,0,0-23.29-8.44Z"/></svg>