<?xml version="1.0" encoding="utf-8"?>
<!-- Generator: Adobe Illustrator 21.1.0, SVG Export Plug-In . SVG Version: 6.00 Build 0)  -->
<svg version="1.1" id="Layer_1" xmlns="http://www.w3.org/2000/svg" xmlns:xlink="http://www.w3.org/1999/xlink" x="0px" y="0px"
	 viewBox="0 0 28.1 20.9" style="enable-background:new 0 0 28.1 20.9;" xml:space="preserve">
<style type="text/css">
	.st0{fill-rule:evenodd;clip-rule:evenodd;}
</style>
<g>
	<g>
		<path class="st0" d="M27.4,9.1c-1.4-6.3-3.3-7.8-4.5-8.5c-1.9-1-4.1-0.4-4.8,0c-0.8,0.4-1.4,1.2-2.2,1.6c-1,0.4-2.3,0.5-3.3,0
			c-0.8-0.4-1.5-1.2-2.4-1.6C9,0.1,6.9-0.6,4.9,0.9C4.5,1.2,1.1,4,0.1,12.9c-0.6,5.4,2.4,7.2,2.3,7.1c0.8,0.5,2.5,1.5,4.8,0
			c1.6-1,2.8-2.9,2.8-2.9s0.6-1.1,1.3-1.5c0.5-0.3,1.3-0.1,1.3-0.1h2.8c0,0,0.9-0.1,1.5,0.2c0.6,0.3,0.9,0.9,0.9,0.9
			s1.8,2.4,3.6,3.6c0.8,0.5,3.8,1.1,5.3-0.8C27.9,18.2,28.6,14.3,27.4,9.1L27.4,9.1z M12.4,8.5c0,0.5-0.4,0.9-0.9,0.9H9.5v2.2
			c0,0.5-0.4,0.9-0.8,0.9H8c-0.5,0-0.9-0.4-0.9-0.9V9.4H5C4.5,9.4,4.2,9,4.2,8.5V7.8C4.2,7.4,4.5,7,5,7h2.1V4.8
			c0-0.5,0.4-0.9,0.8-0.9h0.6c0.5,0,0.9,0.4,0.9,0.9V7h2.1c0.5,0,0.9,0.4,0.9,0.9V8.5z M18.4,11.5c-0.9,0-1.6-0.7-1.6-1.6
			c0-0.9,0.7-1.6,1.6-1.6C19.3,8.3,20,9,20,9.9C20,10.8,19.3,11.5,18.4,11.5L18.4,11.5z M21.3,7.9c-0.9,0-1.6-0.7-1.6-1.6
			c0-0.9,0.7-1.6,1.6-1.6c0.9,0,1.6,0.7,1.6,1.6C22.9,7.2,22.2,7.9,21.3,7.9L21.3,7.9z M21.3,7.9"/>
	</g>
</g>
</svg>
