<?xml version="1.0" encoding="utf-8"?>
<!-- Generator: Adobe Illustrator 21.1.0, SVG Export Plug-In . SVG Version: 6.00 Build 0)  -->
<svg version="1.1" id="Layer_1" xmlns="http://www.w3.org/2000/svg" xmlns:xlink="http://www.w3.org/1999/xlink" x="0px" y="0px"
	 viewBox="0 0 57.2 56.9" style="enable-background:new 0 0 57.2 56.9;" xml:space="preserve">
<style type="text/css">
	.st0{fill:#FFFFFF;}
	.st1{fill:#1A1A1A;}
</style>
<circle class="st0" cx="29.1" cy="28.9" r="28.1"/>
<g>
	<g>
		<path class="st1" d="M18.1,2.1c-3.6,1.5-6.8,3.6-9.6,6.4c-2.8,2.8-4.9,6-6.4,9.6C0.7,21.5,0,25.1,0,28.9c0,3.8,0.7,7.4,2.1,10.9
			c1.5,3.6,3.6,6.8,6.4,9.6c2.8,2.8,6,4.9,9.6,6.4c3.5,1.4,7.1,2.1,10.9,2.1c3.8,0,7.4-0.7,10.9-2.1c3.6-1.5,6.8-3.6,9.6-6.4
			c2.8-2.8,4.9-6,6.4-9.6c1.4-3.5,2.1-7.1,2.1-10.9c0-3.8-0.7-7.4-2.1-10.9c-1.5-3.6-3.6-6.8-6.4-9.6c-2.8-2.8-6-4.9-9.6-6.4
			c-3.5-1.4-7.1-2.1-10.9-2.1C25.2-0.1,21.5,0.7,18.1,2.1L18.1,2.1z M7.2,41.1c-1.4-0.9-2.7-1.9-3.8-3.1c-1.7-4.9-2-10.2-0.9-15.2
			c0.5-1.1,1.2-2.1,1.9-3.1c0.2-0.3,0.4-0.6,0.6-0.9l6.5,3.9v0.2c0,3.5,0.3,7,1.1,10.4c0,0,0,0,0,0l-5.1,7.9
			C7.5,41.2,7.3,41.1,7.2,41.1L7.2,41.1z M26.7,54.5c1.1,0.6,2.3,1.1,3.5,1.5c-5.1,0.2-10.2-1-14.7-3.6l10.9,2
			C26.5,54.4,26.6,54.5,26.7,54.5L26.7,54.5z M26.6,52.5l-12.9-2.3c-1.5-1.8-2.9-3.8-4-5.9c-0.3-0.5-0.6-1-0.9-1.6l5.1-7.9
			c0.1,0,0.2,0.1,0.4,0.1c3.2,0.8,6.4,1.4,9.6,1.9c0.2,0,0.3,0.1,0.5,0.1l6.1,10.5c-1.1,1.5-2.1,3-3.2,4.4
			C27,52.1,26.8,52.3,26.6,52.5L26.6,52.5z M48.1,48.1c-1,1-2.1,2-3.3,2.8c-0.2-1.5-0.5-3-1-4.4l6.5-12.1c1.8-0.8,3.5-1.7,5.1-2.9
			c0.2-0.1,0.4-0.3,0.5-0.5C55.5,37.2,52.9,43.3,48.1,48.1L48.1,48.1z M47.8,32.4c0.2,0.5,0.5,0.9,0.7,1.4l-6.3,11.7
			c0,0-0.1,0-0.1,0c-3.4,0.6-6.8,1-10.2,1l-6.2-10.8c1-1.8,1.9-3.6,2.9-5.4c0.6-1.2,1.3-2.5,1.9-3.7l12.9-1.3
			C45,27.5,46.5,29.9,47.8,32.4L47.8,32.4z M45.2,18.6c-0.6,1.6-1.3,3.2-1.9,4.8l-12.6,1.3c-0.2-0.2-0.3-0.4-0.5-0.6
			c-1.5-1.7-3-3.4-4.5-5c0,0,0,0,0,0c-0.6-0.6-1.2-1.2-1.8-1.8l3.5-10.5c0.2-0.1,0.5-0.1,0.7-0.1C30.1,6.3,32,6.1,34,6
			c1.2-0.1,2.3-0.1,3.5,0l8.7,9.8C45.9,16.7,45.6,17.6,45.2,18.6L45.2,18.6z M48.1,9.7c2.4,2.4,4.2,5.1,5.6,8
			c-1.6-1.1-3.4-2-5.2-2.8c-0.3-0.1-0.6-0.2-0.9-0.3L39.1,5c0.1-0.4,0.1-0.8,0.1-1.3C42.4,5.1,45.5,7.1,48.1,9.7L48.1,9.7z
			 M20.3,3.3C20.3,3.3,20.3,3.3,20.3,3.3c2,0.7,3.8,1.7,5.5,2.9L22.5,16c0,0,0,0-0.1,0c-0.7,0.3-1.4,0.5-2,0.8
			c-2.7,1.2-5.4,2.6-7.9,4.2l-6.5-3.8c0-0.2,0-0.4,0.1-0.6c0.4-1.2,0.9-2.3,1.4-3.5c0.4-0.9,0.8-1.7,1.3-2.5c0.3-0.3,0.6-0.7,1-1
			C12.8,6.7,16.5,4.5,20.3,3.3C20.3,3.2,20.3,3.3,20.3,3.3L20.3,3.3z M20.3,3.3"/>
	</g>
</g>
</svg>
