<?xml version="1.0" encoding="utf-8"?>
<!-- Generator: Adobe Illustrator 21.1.0, SVG Export Plug-In . SVG Version: 6.00 Build 0)  -->
<svg version="1.1" id="Layer_1" xmlns="http://www.w3.org/2000/svg" xmlns:xlink="http://www.w3.org/1999/xlink" x="0px" y="0px"
	 viewBox="0 0 133.6 140.7" style="fill: rgba(256,256,256,.5);" xml:space="preserve">
<g>
	<path d="M122.4,0H11.2C5,0,0,5,0,11.2v111.2c0,5.9,4.6,10.8,10.4,11.2v3.1c0,2.2,1.8,4,4,4h11.3c2.2,0,4-1.8,4-4v-3.1h72.9v3.1
		c0,2.2,1.8,4,4,4H118c2.2,0,4-1.8,4-4v-3.1h0.4c6.2,0,11.2-5,11.2-11.2V11.2C133.6,5,128.6,0,122.4,0L122.4,0z M122,111.4
		c0,5.8-4.8,10.6-10.6,10.6H21c-5.8,0-10.6-4.8-10.6-10.6v-90c0-5.8,4.8-10.6,10.6-10.6h90.4c5.8,0,10.6,4.8,10.6,10.6V111.4z
		 M52.8,66.6c0,5.1-4.1,9.2-9.2,9.2c-5.1,0-9.2-4.1-9.2-9.2c0-5.1,4.1-9.2,9.2-9.2C48.7,57.4,52.8,61.5,52.8,66.6L52.8,66.6z
		 M111.4,18.8H21c-1.4,0-2.6,1.2-2.6,2.6v90c0,1.4,1.2,2.6,2.6,2.6h90.4c1.4,0,2.6-1.2,2.6-2.6v-90C114,20,112.8,18.8,111.4,18.8
		L111.4,18.8z M43.6,83.8c-9.5,0-17.2-7.7-17.2-17.2c0-9.5,7.7-17.2,17.2-17.2c9.5,0,17.2,7.7,17.2,17.2
		C60.8,76.1,53.1,83.8,43.6,83.8L43.6,83.8z M75.3,83.9h-1.9c-2.2,0-4-1.8-4-4c0-2.2,1.8-4,4-4h1.9c2.2,0,4,1.8,4,4
		C79.3,82.1,77.6,83.9,75.3,83.9L75.3,83.9z M75.3,70.8h-1.9c-2.2,0-4-1.8-4-4c0-2.2,1.8-4,4-4h1.9c2.2,0,4,1.8,4,4
		C79.3,69,77.6,70.8,75.3,70.8L75.3,70.8z M75.3,57.7h-1.9c-2.2,0-4-1.8-4-4c0-2.2,1.8-4,4-4h1.9c2.2,0,4,1.8,4,4
		C79.3,55.9,77.6,57.7,75.3,57.7L75.3,57.7z M88.9,83.9H87c-2.2,0-4-1.8-4-4c0-2.2,1.8-4,4-4h1.9c2.2,0,4,1.8,4,4
		C92.9,82.1,91.2,83.9,88.9,83.9L88.9,83.9z M88.9,70.8H87c-2.2,0-4-1.8-4-4c0-2.2,1.8-4,4-4h1.9c2.2,0,4,1.8,4,4
		C92.9,69,91.2,70.8,88.9,70.8L88.9,70.8z M88.9,57.7H87c-2.2,0-4-1.8-4-4c0-2.2,1.8-4,4-4h1.9c2.2,0,4,1.8,4,4
		C92.9,55.9,91.2,57.7,88.9,57.7L88.9,57.7z M102.5,83.9h-1.9c-2.2,0-4-1.8-4-4c0-2.2,1.8-4,4-4h1.9c2.2,0,4,1.8,4,4
		C106.5,82.1,104.8,83.9,102.5,83.9L102.5,83.9z M102.5,70.8h-1.9c-2.2,0-4-1.8-4-4c0-2.2,1.8-4,4-4h1.9c2.2,0,4,1.8,4,4
		C106.5,69,104.8,70.8,102.5,70.8L102.5,70.8z M102.5,57.7h-1.9c-2.2,0-4-1.8-4-4c0-2.2,1.8-4,4-4h1.9c2.2,0,4,1.8,4,4
		C106.5,55.9,104.8,57.7,102.5,57.7L102.5,57.7z M102.5,57.7"/>
</g>
</svg>
