<?xml version="1.0" encoding="utf-8"?>
<!-- Generator: Adobe Illustrator 20.1.0, SVG Export Plug-In . SVG Version: 6.00 Build 0)  -->
<svg version="1.1" id="Layer_1" xmlns="http://www.w3.org/2000/svg" xmlns:xlink="http://www.w3.org/1999/xlink" x="0px" y="0px"
	 viewBox="0 0 80 77" style="enable-background:new 0 0 80 77;" xml:space="preserve">
<style type="text/css">
	.st0{opacity:0.25;}
	.st1{fill:#FFFFFF;}
	.st2{fill:url(#SVGID_1_);}
	.st3{fill:url(#SVGID_2_);}
	.st4{fill-rule:evenodd;clip-rule:evenodd;fill:#00A526;}
	.st5{fill:none;}
	.st6{fill:#020202;}
	.st7{fill-rule:evenodd;clip-rule:evenodd;fill:#FF8A00;}
	.st8{fill-rule:evenodd;clip-rule:evenodd;}
	.st9{fill-rule:evenodd;clip-rule:evenodd;fill:#FFFFFF;}
</style>
<g>
	<g class="st0">
		<path class="st1" d="M40.5,9L21.7,41.5L3,74h75L40.5,9z M23.5,42.5l17-29.5l34,59H6.5L23.5,42.5z"/>
	</g>
	<g>
		<path d="M40.5,8L21.7,40.5L3,73h75L40.5,8z M23.5,41.5l17-29.5l34,59H6.5L23.5,41.5z"/>
	</g>
</g>
<g>
	<g class="st0">
		<polygon class="st1" points="6.5,72 23.5,42.5 40.5,13 74.5,72 		"/>
	</g>
	<g>
		<linearGradient id="SVGID_1_" gradientUnits="userSpaceOnUse" x1="40.499" y1="-59" x2="40.499" y2="78.3155">
			<stop  offset="0" style="stop-color:#FFFFFF"/>
			<stop  offset="1" style="stop-color:#FFFFFF;stop-opacity:0"/>
		</linearGradient>
		<polygon class="st2" points="6.5,71 23.5,41.5 40.5,12 74.5,71 		"/>
	</g>
</g>
<path class="st4" d="M72,58.1c0,0-0.7-2-2.2-3.7c-0.6-0.9,0.6-2.2-2.5-3.2c-0.7-0.4-2.1-0.1-2.3-0.3c-0.5,0.2-0.6-0.9-0.6-0.9
	s2-2.8-1.1-4.5c-2.2-1.4-3.9-3.9-3.9-3.9s10.5-1.1,9-9.1c-3,3.7-8,3.2-9.1,3.2c0.6-0.4,8-3.4,4.9-9.7c0,0-1.3,4.2-7.6,3.2
	c-6.2-1-12.3,2.2-13.1,4.6c-1,1.9-0.8,2.6-0.8,2.6s-6.1-2-19.3,6.2C13.3,58.7,7,71,7,71h40c0,0-3.3-5.9,0-8.1
	c0.7,0.2,1.2-0.2,1.2-0.2s2.1,1.7,3.6,3.2c1.3,1.4,1.5,0.6,3.4,4.2c3.3,3.2,6.9,0.8,7.1,0.2c0.2-0.6,3.8,0.9,2.3-3.7
	c-0.2-0.9,0.6-0.5,0.6-0.5s2.9,2.4,3.2-1.5C72.2,61,72,58.1,72,58.1z"/>
<g>
	<path class="st5" d="M55.8,49c0,0,1.6-0.3,2.4,0c-0.5-0.8,0.2-1.6,0.2-1.6s-1.2-0.4-2.4,0.5C55.5,48.9,55.8,49,55.8,49z"/>
	<path class="st5" d="M59.8,60.9c0,0-0.8,0-1.1,1.3c0.7,1.5,5.2,4.1,5.2,4.1l0.6-0.6l-4.7-3.2c0,0,2.2,0,5.5,2.5
		C63.2,62.2,59.8,60.9,59.8,60.9z"/>
	<path class="st5" d="M64.2,27.8c0,0-0.6,2.8-10.3,1.7c-10.7,0.4-11.6,8.1-8.4,11.9c2.2,0.8,3.3,2.2,3.3,2.2s2.3,0.6,3.8-2.2
		c0.5,1.4-1.1,2.9-2.2,3.5c7.3-2.4,1.3-7.1,1.3-7.1s-0.9-0.2-0.2,2.2c-1.7-1-1.8-3.8,0.2-4.6C55.4,34.6,63.1,34.5,64.2,27.8z"/>
	<path class="st5" d="M67.9,34.3c0,0-4,3-7.1,2.1c-3.1-0.9-6.2,0-6.2,0c3.6,0.8,4.5,2.4,4.4,3.3C67.3,39.2,67.9,34.3,67.9,34.3z"/>
	<path class="st6" d="M36.8,70.5c0-3.2,0.2-9.4,0.9-13.3c-1.7,3.5-2,8.7-2.2,13.3L36.8,70.5z"/>
	<path class="st6" d="M27.5,63.5c-5,3.3-10.2,4.3-10.5-2.5c-1.6,9.7,9.1,6.1,12.9,1.4c-1.7,3.1-3.2,6.1-4.2,8l1.2,0l8.8-16.2
		C35.7,54.2,30.8,60.3,27.5,63.5z"/>
	<path class="st6" d="M28.7,48.4c-1.9,0.1-5.5,6.3-5.5,6.3C24.2,54.3,30.7,48.3,28.7,48.4z"/>
	<path class="st6" d="M56.6,44.9c3-2.6-0.7-6.1-0.7-6.1C57.4,42.2,55.7,44.2,56.6,44.9z"/>
	<path class="st6" d="M50.4,57.3c7-0.2,8.4-3,8.4-3s-0.3,0.2-0.6,0c0.6-0.9-0.2-1.7-0.2-1.7s-0.3,1.4-2.2,2.7
		C51.9,55.7,50.4,57.3,50.4,57.3z"/>
	<path class="st6" d="M51.1,62.7c2.6-1.6,4-3.2,4-3.2S51.5,59,51.1,62.7z"/>
	<path class="st6" d="M67.2,54.6c0,0-2.2,0.9-1.3,4.3c0.9,3.4,3.5,1.7,3.5,1.7l-0.8-0.5c0,0,0.4-3.4-1.4-4
		C67,55.3,67.4,54.4,67.2,54.6z"/>
	<path class="st6" d="M38.6,39.9c0,0,2.4,0.2,3.5-0.6C40,38.5,38.6,39.9,38.6,39.9z"/>
	<path class="st6" d="M53.7,52.6c3.9-4.3,5.9-2.6,7.2-2.7c1.2-0.1,0.7-1,0.7-1s-0.2-0.3-0.5-0.7c0.8-2.5-2.8-3.6-3.6-3
		c1.1,0,2.3,1.6,2.3,1.6s-1.1-1-2.6-0.7c-3.5,0.5-3.1,4.1-3.1,4.1l1-1.4l0.1,1.3C55.2,50.2,54.7,50.2,53.7,52.6z M56,47.9
		c1.2-0.9,2.4-0.5,2.4-0.5s-0.7,0.8-0.2,1.6c-0.7-0.3-2.4,0-2.4,0S55.5,48.9,56,47.9z"/>
	<path class="st6" d="M37.7,40.2c-3.9,0.7-9.1,1.4-17.8,8.6L18.1,52C20.8,49.7,29.4,42.7,37.7,40.2z"/>
	<path class="st6" d="M72.6,58c0,0-0.7-2-2.2-3.8c-0.6-0.9,0.6-2.2-2.5-3.3c-0.8-0.4-2.2-0.1-2.4-0.3c-0.5,0.2-0.6-0.9-0.6-0.9
		s2-2.8-1.1-4.6c-2.2-1.4-3.9-4-3.9-4s10.8-1.2,9.2-9.3c-3.1,3.8-8.1,3.2-9.3,3.3c0.6-0.4,8.2-3.4,5.1-10c0,0-1.4,4.3-7.7,3.3
		c-6.4-1-12.5,2.2-13.4,4.7c-1,1.9-0.8,2.7-0.8,2.7s-6.9-0.6-19.1,6.4l-1.3,2.3c2.5-1.5,14.2-8,20.4-7.4c0.3,2.5,0.9,3.8,0.9,3.8
		s-5.1-1-7.5,1.4c0.4,2,0.8,3.1,0.8,3.1s-3.2,0.2-4.9,2.4c4.2-1.4,5.7-0.8,5.7-0.8s1.4,3.4,4.4,3.3c-1.3,0.6-1.4,1.3-1.4,1.3
		s4-1,5.2-0.8C46.8,50.7,47,50,47,50s0.1-0.7-0.9-0.8c-0.7,0.1-6.1,2.4-8.5-5c1.3,1.1,1.3,1.3,1.3,1.3s0.3,2.7,3,1.7
		c-0.8-0.6-1.3-1.3-1.3-1.3s5.4-0.3,6.1,0.8c-2.7,0.3-3.5,1.6-3.5,1.6s2.2-0.2,3.5-0.2c0.5,0.3,0.5,0.8,0.5,0.8s2.2-4.1-2.5-4.1
		c-4.7,0-5.2,0.3-6.8-1.9c1.9-1.2,9.1-0.9,11.5,4.1c0.3,1.2,0,2,0,2s1.5-0.6,1.1-2.7c0.8-0.1,9.2-3.8,2-9.4c0.2-0.3,0.6-0.2,0.6-0.2
		s4.2,1,5,3.9c2.5,3.4,4.6,5.3,4.6,5.3s2.7,1.3,0.8,3c-1.6,0.2-1.4,1.1-1.3,1.4c0.9-0.5,1.3,0,1.3,0l0.9,0.6c0,0-1.8,0.6-2.2,2.8
		c-3.4,2.3-4.2,3.6-4.2,3.6s2.7-0.5,3.9-2.2c0.3,0.8,0.6,1.4,0.6,1.4s0.2-4.3,3.3-5c3.6-0.2,3.3,2.5,3.3,2.5s2.9,3.2,2,4.9
		c-0.8,1.7,0.1,1.6-2.7,4.2c-0.7,0.9-0.5,3.7-2,1.6c-1.6-2.4-2.2-2.6-6.1-5c0.9-1.2,1.7-1.6,1.7-1.6s-7,1.7-8.5,5.5
		c4.3-3.3,4.2-2.5,4.2-2.5s-0.8,0.9,0.6,2c1.4,1.1,3.8,3.2,5.2,3.9c1.4,0.8,0,2.6-1.1,1.6c-1.1-1.1-4.4-2.4-5.3-2.8
		c-1-0.4,2.6,2.8,4.2,3.5c-0.4,0.9-1.5,2-3,1.1C56,69.8,55,67,52,64.3c-2.9-2.7-5.2-3.9-5.2-3.9s0.9,3.3-3-0.2
		C40.3,56.4,44,52,44,52s-5,0.8-3.1,12.4c1.1-2.6,0.9-5,0.9-5s0.6,1.8,1.7,2.4c-0.4,1.7-2.2,4.2-2.4,6.3c1.7-1.8,3-4.5,3.5-5.3
		c0.8,0.1,0.6,0.2,0.6,0.2s-1.2,2.2-1.1,3.9c0.1,1.1,0.3,2.5,0.8,3.7l1.6,0c0,0-2.9-5.4,0.5-7.6c0.7,0.2,1.3-0.2,1.3-0.2
		s2.1,1.7,3.6,3.3c1.3,1.4,1.5,0.6,3.5,4.3c3.4,3.3,7.1,0.8,7.3,0.2c0.2-0.6,3.9,0.9,2.4-3.8c-0.2-1,0.6-0.5,0.6-0.5s3,2.4,3.3-1.6
		C72.8,60.9,72.6,58,72.6,58z M51.7,35.4c-1.9,0.7-1.9,3.6-0.2,4.6c-0.7-2.4,0.2-2.2,0.2-2.2s6,4.7-1.3,7.1c1.1-0.6,2.7-2,2.2-3.5
		c-1.5,2.8-3.8,2.2-3.8,2.2s-1.1-1.4-3.3-2.2c-3.2-3.7-2.4-11.5,8.4-11.9c9.7,1.1,10.3-1.7,10.3-1.7C63.1,34.5,55.4,34.6,51.7,35.4z
		 M54.6,36.4c0,0,3.1-0.9,6.2,0c3.1,0.9,7.1-2.1,7.1-2.1s-0.5,4.9-8.8,5.4C59.1,38.8,58.2,37.2,54.6,36.4z M59.8,62.5l4.7,3.2
		l-0.6,0.6c0,0-4.5-2.6-5.2-4.1c0.3-1.3,1.1-1.3,1.1-1.3s3.5,1.3,5.5,4.1C62,62.5,59.8,62.5,59.8,62.5z"/>
</g>
<path class="st1" d="M59.8,62.5l4.7,3.2l-0.6,0.6c0,0-4.5-2.6-5.2-4.1c0.3-1.3,1.1-1.3,1.1-1.3s3.5,1.3,5.5,4.1
	C62,62.5,59.8,62.5,59.8,62.5z"/>
<path class="st1" d="M56,47.9c1.2-0.9,2.4-0.5,2.4-0.5s-0.7,0.8-0.2,1.6c-0.7-0.3-2.4,0-2.4,0S55.5,48.9,56,47.9z"/>
</svg>