<?xml version="1.0" encoding="utf-8"?>
<!-- Generator: Adobe Illustrator 21.1.0, SVG Export Plug-In . SVG Version: 6.00 Build 0)  -->
<svg version="1.1" id="Layer_1" xmlns="http://www.w3.org/2000/svg" xmlns:xlink="http://www.w3.org/1999/xlink" x="0px" y="0px"
	 viewBox="0 0 100 56.5" style="enable-background:new 0 0 100 56.5;" xml:space="preserve">
<style type="text/css">
	.st0{fill:#FFFFFF;}
</style>
<path class="st0" d="M100,28.1c0,0,0-0.1,0-0.1c0,0,0,0,0-0.1c0,0,0-0.1,0-0.1c0,0,0-0.1,0-0.1c0,0,0,0,0,0c-0.1-0.8-0.5-1.5-1-2.1
	c-3.2-3.8-7-7.1-10.8-10.2C79.8,8.8,70.2,3.3,59.8,1c-6.1-1.3-12.2-1.3-18.3-0.3c-5.5,1-10.9,3.1-15.9,5.6c-7.8,4-15,9.5-21.2,15.7
	c-1.2,1.1-2.3,2.3-3.3,3.6c-1.4,1.7-1.4,3.6,0,5.3c3.2,3.8,7,7.1,10.8,10.2c8.3,6.6,17.8,12.2,28.3,14.4c6.1,1.3,12.2,1.3,18.3,0.3
	c5.5-1,10.9-3.1,15.9-5.6c7.8-4,15-9.5,21.2-15.7c1.2-1.1,2.3-2.3,3.3-3.6c0.6-0.6,0.9-1.3,1-2.1c0,0,0,0,0,0c0,0,0-0.1,0-0.1
	c0,0,0-0.1,0-0.1c0,0,0,0,0-0.1c0,0,0-0.1,0-0.1c0-0.1,0-0.1,0-0.2S100,28.1,100,28.1z M50,47.5c-10.6,0-19.2-8.6-19.2-19.2
	C30.8,17.6,39.4,9,50,9s19.2,8.6,19.2,19.2S60.6,47.5,50,47.5z"/>
<circle class="st0" cx="50" cy="28.3" r="6.4"/>
</svg>
