<?xml version="1.0" encoding="utf-8"?>
<!-- Generator: Adobe Illustrator 20.1.0, SVG Export Plug-In . SVG Version: 6.00 Build 0)  -->
<svg version="1.1" id="Layer_1" xmlns="http://www.w3.org/2000/svg" xmlns:xlink="http://www.w3.org/1999/xlink" x="0px" y="0px"
	 viewBox="0 0 80 77" style="enable-background:new 0 0 80 77;" xml:space="preserve">
<style type="text/css">
	.st0{opacity:0.25;}
	.st1{fill:#FFFFFF;}
	.st2{fill:url(#SVGID_1_);}
	.st3{fill:url(#SVGID_2_);}
	.st4{fill-rule:evenodd;clip-rule:evenodd;fill:#00A526;}
	.st5{fill:none;}
	.st6{fill:#020202;}
	.st7{fill-rule:evenodd;clip-rule:evenodd;fill:#FF8A00;}
	.st8{fill-rule:evenodd;clip-rule:evenodd;}
	.st9{fill-rule:evenodd;clip-rule:evenodd;fill:#FFFFFF;}
</style>
<g>
	<g class="st0">
		<path class="st1" d="M40.5,75l18.8-32.5L78,10H3L40.5,75z M57.5,41.5L40.5,71l-34-59h68.1L57.5,41.5z"/>
	</g>
	<g>
		<path d="M40.5,74l18.8-32.5L78,9H3L40.5,74z M57.5,40.5L40.5,70l-34-59h68.1L57.5,40.5z"/>
	</g>
</g>
<g>
	<g class="st0">
		<polygon class="st1" points="74.5,12 57.5,41.5 40.5,71 6.5,12 		"/>
	</g>
	<g>
		<linearGradient id="SVGID_1_" gradientUnits="userSpaceOnUse" x1="40.501" y1="-34.3333" x2="40.501" y2="89.6366">
			<stop  offset="0" style="stop-color:#FFFFFF"/>
			<stop  offset="1" style="stop-color:#FFFFFF;stop-opacity:0"/>
		</linearGradient>
		<polygon class="st2" points="74.5,11 57.5,40.5 40.5,70 6.5,11 		"/>
	</g>
</g>
<path class="st7" d="M68.6,21.5c0,0-2.2-2.5-4-4.5c-0.5-0.6,0.1-1.2-1.3-1.4c-4.1-0.4-3.5-1.6-4-1.8c-0.5-0.2-3.5-2.7-5.1-3
	c-0.5-0.4,0.6-1.5-1.1-1.3c-1.7,0.2-5.3,0.3-7.5-1C44.3,8.1,40,8.3,40,8.3s1-2.4-3-4.1s-6.7-0.3-6.7-0.3s-1.5,2.9-1.1,3.8
	s-1.5-2.5-3.7-2.5s-4.8,1-5.6,3.2s-0.2,3.3,1.8,4.8c-1.5,1.2-2.1,2.2-3.2,3.5c-1.1,1.3-2.6,2.5-1.8,3.8c-0.2,0.6-0.8,2.3,1.9,2.7
	c0.5-0.1,0.2,0.5,0.2,0.5s-1.2,0.6-0.8,1.6c-0.6,0.9-0.6,1.4-0.6,1.4s-2.8,0.1-3,1.6c-0.7-0.2-1.6,1-1.6,1s-4.3,0.7-3.2,3.5
	c1.4,1.8,2.7,2.7,2.7,2.7s-0.2,1.2,2.1,2.4c0.5,1.4,1.1,1.7,2.1,1.8c0.2,0.8,2.2,1.2,3.2-0.2c0.5,0.1,0.6,0.5,0.6,0.5
	s-0.4,0.9,0.5,1.4C20.5,42.1,21,43,21,43s-0.6,2.9,3.5,1.9c1.7,0.1,3.7,1,3.7,1h1.1c0,0,1.2,3.7,0.8,6.5c-0.3,0.8,0.2,1.1,0.2,1.1
	L40,69.3L68.6,21.5z"/>
<g>
	<path class="st8" d="M57.1,15.9c0.6,1.6,5.8,10.2,7.2,12.6l0.9-1.5C61.6,20.7,56.4,14.1,57.1,15.9z"/>
	<path class="st8" d="M44.8,41.2c0,0,1.4,2.5,1.8,4.2c1.4,7.7-2.1,12.4-2.1,12.4s-3.6,6.5-8.5,0c0.9,1.9,1.3,3,3.5,3.6
		c5.4,1.6,8.1-8.1,8.1-8.1l-0.4,4.4l1.5-2.6C49.8,44.6,44.8,41.2,44.8,41.2z"/>
	<path class="st8" d="M64.7,16.4c-0.6-0.6,0.1-1.2-1.3-1.5c-4.2-0.4-3.5-1.6-4-1.8c-0.5-0.2-3.6-2.7-5.2-3.1
		c-0.5-0.4,0.6-1.5-1.1-1.3c-1.7,0.2-5.3,0.3-7.6-1c-1.4-0.5-5.8-0.3-5.8-0.3s1-2.4-3.1-4.2C32.5,1.6,29.8,3,29.8,3
		s-1.6,2.9-1.1,3.9c0.4,0.9-1.5-2.5-3.7-2.6c-2.2-0.1-4.9,1-5.6,3.2c-0.8,2.2-0.2,3.4,1.8,4.8c-1.6,1.3-2.1,2.3-3.2,3.5
		s-2.6,2.5-1.8,3.9c-0.2,0.6-0.9,2.3,1.9,2.7c0.5-0.1,0.2,0.5,0.2,0.5s-1.2,0.7-0.8,1.6c-0.6,1-0.6,1.5-0.6,1.5s-2.8,0.1-3.1,1.6
		c-0.8-0.2-1.6,1-1.6,1s-4.4,0.7-3.2,3.5c1.5,1.8,2.7,2.7,2.7,2.7s-0.2,1.2,2.1,2.4c0.5,1.4,1.1,1.7,2.1,1.8
		c0.2,0.8,2.2,1.3,3.2-0.2c0.5,0.1,0.6,0.5,0.6,0.5s-0.4,1,0.5,1.5c-0.2,0.8,0.3,1.8,0.3,1.8s-0.6,3,3.5,1.9c1.7,0.1,3.7,1,3.7,1
		h1.1c0,0,1.9,2.2,1.5,5.1c-0.3,0.8,0.2,1.1,0.2,1.1l1.1,1.8c0.5-4.6-1.6-8.4-1.6-8.4s0.3-0.4,0.6-0.6c1.3,1.9,1.8,6.6,1.8,6.6
		s1-3.9-0.8-7.7c0.6-0.9,3.9-3.7,3.9-3.7s1.9,0.6,3.9,14.5c1.1-10.8-2.7-16-2.7-16s0.7-0.6,1-0.8c3.7-2.6,7-0.5,7.7,0.3
		c0.2-1.6-2.4-2.7-2.4-2.7s1.1-0.4,1.9-0.8c2.2,1.1,8,6.4,7.7,5.5c-0.3-0.9-6.5-6.5-6.5-6.5s1.6-1.3,2.6-2.4
		c0.8,1.3,3.7,3.9,3.7,3.9s1.9,1.3,2.3-0.6c1.9-4.4,0.3-10.5,0.3-10.5s-0.5,7.7-1.3,10.2c-2.9-1.4-4.2-4.4-4.2-4.4s1.8-3.8,1.5-6
		c-2.9,8.8-7.6,10.2-9.7,10.8c2.1-2,1.1-3.9,1.1-3.9s-0.2,1.7-2.7,3.7c-4.8,3-5,5.2-6.1,5.8c-1.1,0.6-4.7,4-4.7,4s-0.9,1.3-3.5-0.3
		c2.1-1.3,2.4-3.1,2.4-3.1s-2.1,1.5-4,2.9c-2.4,0.9-1.9-1-1.9-1s0.7-0.1,0.6,0c1.2-1.6,1.2-1.1,3.9-2.7c4-2.7,4.5-4.4,4.5-4.4l0.8,1
		c0,0-0.1,0.6-0.8,1.8c5.2-3.6,0.2-5.2,0.2-5.2s1.6,1.2,1,2.6c-2.2-3.4-5.3-4.5-5.3-4.5s3.3-1.1,4-2.4c-9.4,2.4-13.3,7.7-13.5,8.4
		c-0.3,0.7-1.3-0.2-1.3-0.2s-0.3,0.3-0.5,0.8c-0.1-0.6-2.6-2.4-2.6-2.4s0.4-0.5,0.8-0.6c3.3-3.8,1.4-5.7,1.6-6.5s3.8-0.8,3.4-1.3
		c-0.2-0.2-0.4-0.3-0.5-0.3c0-0.1,0.1-1.6,0.8-1.8c0.8-0.2,3.3,0.3,3.2,0c-0.1-0.3-1-1.2-1.3-1.3c-0.3-0.1-0.3-0.3,0-0.5
		c0.3-0.2,0.2-1,0.2-1s-0.1-0.7-1.5-0.8c-2.2,0-2.1-0.7-2.3-1.6c-0.2-1,1.3-2.4,2.1-3.4c0.8-1,3.1-3.2,5.6-4.8
		c2.5-1.6,3.2-1.4,4-1.8c0.8-0.4,0.5-0.6,0.6-2.6c0.1-1.9,0.1-2.7,2.3-3.1c2.1-0.3,3,0.6,4.4,1s1.9,1.3,1.9,1.3s0.6,1.9-0.2,2.9
		c-0.8,1-1.2,2.1-1,2.1c0.3,0,1.8-1,1.8-1c1.9,2.4,1.7,0.8,1.3,0.3C39.8,9.9,39.5,9.2,41,9c1.4-0.3,2.8,0.1,6.5,1
		c3.7,0.8,4.8,0.2,4.8,0.2s-0.2,1.4,0,1.6c2.1-1.3,3.8,0.8,5.8,2.3s4.4,2.1,5,2.3c0.6,0.2,0.6,0.6,0.6,1c0.5,0.4,3.4,3.7,4.3,4.8
		l0.7-1.1C68.7,20.9,66.4,18.3,64.7,16.4z M26.9,32.7c0,0,2.4,1.3,2.6,2.1c0.1,0.8-3.6,3.3-4.8,4.2c-1.2,0.9-1.9,2-3.4,1.9
		c-0.1-0.8,0-1.1,0-1.1s4.6-3.3,4.7-5.3c-1.3,0.8-5.3,4-5.3,4L20,38c0,0,1.3-0.8,2.3-2.3C24,34.3,26.9,32.7,26.9,32.7z M18.1,37.5
		c2.2-3.4,5.5-5.2,6.5-5.6c0.9-0.4,1,0,1,0s0.7,0.1-0.8,0.8c-2.7,1.5-6.2,5.2-6.9,6c-0.7,0.7-1.3-0.5-1.3-0.5
		C18,38.3,17.6,38,18.1,37.5z M13.6,32.5c-0.7,1.8-1.4,1.1-1.5,1c0-0.1-1.1-1.2-1.5-1.5c-0.3-0.2-0.7-0.3,0.2-1.1s3.2-1.3,3.2-1.3
		S14.2,30.7,13.6,32.5z M24.4,10.4c0,0-0.4,0.4-1.3-1.6c-0.6-0.8-0.8,0.3-0.8,0.3s0.1,1.6,0.8,2.1c-0.3,0.3-1,0.8-1,0.8
		s-2-0.9-1.6-3.9c0.3-2.3,2.9-2.4,2.9-2.4s3-1,4.4,3.2C26.5,9.2,24.4,10.4,24.4,10.4z"/>
	<path class="st8" d="M29.7,9.9c0.9-0.2,3.1-0.1,4.2,0.5c1.1,0.6,2.4,0.5,2.1,0.3c-0.3-0.2-0.2-0.2-0.5-0.5c-0.2,0,0.2-2.3,0.2-2.9
		s-0.1-1.1-1-1.8s-3.2-0.3-3.2-0.3s-0.9,1-0.8,3.5C30.1,9.7,29.7,9.9,29.7,9.9z M32.1,6.4c0,0,1.6-0.5,2.4,0.5
		c0.4,1.1,0.2,2.6,0.2,2.6S33.5,8.6,31.8,9C31.5,7.3,32.1,6.4,32.1,6.4z"/>
	<path class="st8" d="M45.7,14.1c1.9,0.7,1.3,0.2,2.9,3.2c1.6,3,3.5,2.2,3.5,2.2s-1.8-1-2.8-3.6C48.3,13.4,45.7,14.1,45.7,14.1z"/>
	<path class="st8" d="M45,25.3c-0.3-4.5-2.4-6.5-2.4-6.5c1.5,5.7,0.2,9.5,0.2,9.5s1.2-0.8,1.3-2.1c0.4,0.8,0.3,2.6,0.3,2.6
		S45.1,27,45,25.3z"/>
	<path class="st8" d="M17.3,30.7c0.3-0.9,3.7-2.3,3.5-2.3c-0.2,0-2.2-0.3-3.5,0.8c-0.2-1.2-1.1-1.1-1.1-1.1c0.2,2,0.1,3.5-1,5.6
		C17.1,32.4,17,31.6,17.3,30.7z"/>
	<path class="st8" d="M35.8,18.7c1.7,4.7-5.2,8.9-5.2,8.9s1.1,0.6,2.7-0.6c-0.1,2.6,0.6,2.9,1.6,3.4c-1.1-2.3,0-4.4,0-4.4
		S39,21.7,35.8,18.7z"/>
	<path class="st8" d="M39.4,12.7c-0.1,0.1-2.3,0-2.3,0s-1.4-1.3-2.6-1.1c-5.2,0.4-5.6,2.1-5.6,2.1c2.3-0.9,5.5-1,5.5-1
		s1.4,0.9,1.8,1C38.4,13.5,39.5,12.6,39.4,12.7z"/>
	<path class="st8" d="M29.7,23.7c-0.8-1.1-1.9-1.5-3.2-1.6c1.7-1.5,0.2-3.1,0.2-3.1s1.2-0.6,1.9-1.1c-1.3-0.2-2.1,0.2-2.1,0.2
		l0.2-1.3c0,0-3,3.3-3.4,3.4c-0.4,0.1-1.1-0.2-0.6-2.4c0,0-2.3,2.1-0.6,3.2c0.4,0,0.5,0.2,0.5,0.2s-0.2,1.2,0.8,1.8
		c-1.4,1.1,0.3,1.6,0.3,1.6s0.6,0.5,1.8,0.6c-0.7-0.7-1-1.1-1-1.1l1-0.6C25.3,23.3,29.1,23.2,29.7,23.7z M24.2,20.7l1.6-1.3
		c0,0,1.4,1.7-1.1,2.7C25.2,20.8,24.2,20.7,24.2,20.7z"/>
	<path class="st8" d="M23.7,25.4c-0.1,0.7,1,0.7,1.1,0.6c0.1,0,0.5-0.2-0.2-0.6C24.1,25,23.7,25.4,23.7,25.4z"/>
</g>
<path class="st9" d="M24.2,20.7l1.6-1.3c0,0,1.4,1.7-1.1,2.7C25.2,20.8,24.2,20.7,24.2,20.7z"/>
<path class="st9" d="M26.9,32.7c0,0,2.4,1.3,2.6,2.1c0.1,0.8-3.6,3.3-4.8,4.2c-1.2,0.9-1.9,2-3.4,1.9c-0.1-0.8,0-1.1,0-1.1
	s4.6-3.3,4.7-5.3c-1.3,0.8-5.3,4-5.3,4L20,38c0,0,1.3-0.8,2.3-2.3C24,34.3,26.9,32.7,26.9,32.7z"/>
</svg>