<svg xmlns="http://www.w3.org/2000/svg" xmlns:xlink="http://www.w3.org/1999/xlink" width="166" height="140" viewBox="0 0 166 140"><image overflow="visible" opacity=".42" width="204" height="208" xlink:href="6048083EABFDBD1A.png" transform="translate(-23 -15)"/><defs><path id="a" d="M0 0h166v140h-166z"/></defs><clipPath><use xlink:href="#a" overflow="visible"/></clipPath><defs><path id="b" d="M0 0h166v140h-166z"/></defs><clipPath id="c"><use xlink:href="#b" overflow="visible"/></clipPath><g clip-path="url(#c)"><path fill="#FF8A00" d="M113 22.3c2.5-7.3-3.7-6.7-4.8-6.9-1.1-.1-3.4 1.4-3.4 3.2 2.3.6 7.8 4.9 7.8 4.9s-.1 0 .4-1.2zM22.9 86.6c4.5-1.2 3 1.3 6.4 1.2 3.5-.2 4.3-3.2 4.3-3.2s-6.3-3.9-10.7-4.5c-3.1 1.5-4.4-1.2-4.4-1.2s2.5 7.6 4.4 7.7z"/><path fill="#fff" d="M119 82s-1.3-.2-3.3-3.5c-1.4-2.1-2.2-.6-2.2-.6s-1.7-6.3-2.8-2.9c-1.7-1-.2-6.2-3.4-4.4-1.6-.6-1.1-8.8-3.9-3.5-3.6.3-.6 2.8.5 2.8.9 2.1.9 3.4 2.8 3.1 1.8-.4 1.5 2.6 2.6 3.3-1 .2-2.3-.5-2.9-1.9-1.2.4-3.5-2.3-3.5-2.3s-1.3 1.6-3.5-3.3c-1.9-1.5-1.1 1.5 0 2.5s3.6 5.8 6.9 6.1c3.3.3 3.3.4 2.9 1.1-.3.7 3.4-.8 3.1 2.1 2 .7 6.7 1.4 6.7 1.4z"/><path fill="#FF8A00" d="M127.8 65.2c-.4 4.1.8 7.6.8 7.6s-3.9.6-4.5 1.8c1-2.2-.3-2.7 1.3-3.6 1.7-.9 1.4-8.1-4.5-10.8 6.9.4 4.3 3.9 13.3 1.6-8.7-1.6-9.4-7.6-14.2-6.8 0 0-1.3-1.9-2.8-3.4l1.2-.9s-1.7-1.7-2.5-1.2c.2-1.6 4.8-.4 4-3.1s3 1.5 1.1 3c.6 1.7 3.6 1.7 4.4-.1.8-1.8-1.2.4-2.3-6-2.2-4.4-9.1-8.3-9.1-8.3s3.8-.3 5.1 1c1.3 1.3-5.4-11.5-14.7-13.3-.4.9 3.4 5.1 3.4 5.1s-2.7.2-9.8-5.8c-3.9-3.8-11.7-3.6-11.7-3.6s.9 2.9 5.5 5.1c2.2 1.4 1.3 2.2 1.3 2.2s-3.4-1.2-4.1-2.5c-.4 1.1.9 1.6.3 2.7-.6 1.1-3.9-1.9-4.2-3.6-.7.4-1.1 2.3-1.1 2.3s-2.2-.4-3.4-7.2c-.3-4.7-4.9-5.1-4.9-5.1s-6.1-2.6-8.2-1.6c0 0-7.6 3.5-7.3 5.7.3 2.2-.9 5.4-.9 5.4s1.6.1 1.9-.9c.3-1 .7 3.5-.7 5.9l1.8-.9s-1 10.4-6.5 13l1.3-5.9s-1.7 1.2-2.9 1.1 2.8-5.7 3-8.9c-2.7.1-8.4 4.8-10.2 5-1.8.2-8.5 3.7-10.5 13-.7-1.1-1.7-2.8-1.7-2.8s-6.3 4.8-7.4 4.8-2 6.9-7.7 12.9c5.9-2.5 10.5-6.6 10.7-8.3 2.1 1 10.4 1.3 10.4 1.3s-7.9 8.9-5.4 13.9c2.6 5-.2 7.8 5.1 15.9 1.9-2.8 1.7-7.3 6.3-8.7.3 8.3-3.8 8.4-.7 18.3 2.6 6-1 8.5-1.7 9.8 1.1.9 1.6 2.7 1.3 4.6-.8 1.6-.1-3.2 25.3-1.3-9 4.7-13.7 4.7-13.7 4.7s17.8.1 21 3c-7.5 1.7-8.9.4-13.1 2.9 1.3.8 10.8 1 10.8 1s9.7 7.8 18.1 11.2c-7.4 0-11.4-2.1-11.4-2.1s-11.9 4.2-10.5 6.8c4 2.7 9.4 2.7 9.4 2.7s14.8-1.7 21.2 3.7c-9.3.7-12.3-.4-19.6 1.7 1.2 3.7 3.4 7.2 3.4 7.2s-18.8-11.7-26-13.4c0 0 2.9 8.9 4.1 10.4-4.5-2.9-10.6-8.2-10.8-9.4.4-2.5-17.8-16-24-19.7 5 .8 12.5 5.1 12.5 5.1s-4.8-7.8-6.8-8.9c.4-1.1-1.2-4.5-1.2-4.5s6-3.4 3.5-10c0-2.4 3.8 1.7 3.8 1.7s3.7.3-1.7-5.1c-6.9-5.7-6.6-.4-6 0 .6.4 2.5 3.2 2.1 6.3-2.3-2.5-5.3-5.9-9.1-7.6-5 .1-9.5-1.6-14.4-7.4 2 .4 4.2.9 4.2.9s-5.1-6.5-6-6.6c-.9-.1-8.7-1.7-11 6.4 2.7 1.1 2.6 1.8 2.6 1.8s1.7-3.2 5.3-2.6c-1.6 2.8-2.6 5.9-2.6 5.9s6.3 4.1 5.6 6.9c-2.1.4-4.8-2.1-4.8-2.1s-1.3 4.8-3.5 5.9c-.8-1.2 1-6.5-2.6-10.6-1.7 1.3-4.8 1.9-4.8 1.9s1.9 10.1 4.8 12.5c-.5 1.9-1.8 3.8-1.8 3.8s-3.5-5.4-5.6-3.2c-2.1 2.1 5.4 9.3 5.4 9.3s6.8 7.9-.6 3.8c.3 3 2.3 7.7 2.3 7.7l2-.4s1.1 8.7 10.8 15.9c-7.4-11.6-6.6-16.8-6.6-16.8s4.7 3.4 7.8 9.1c3.1 5.7 13 8.7 13 8.7s7 15 8.1 17.4c1 2.5-6.2-4.6-7.5-8.7-1.3-4.1 2.1 19.9 26.6 23.2 17.8 3 .2-9.1.2-9.1l-8.3-7s9.7 4.2 16.4 3.8c1-.2-10.5-9.1-10.5-9.1s24.9 10.2 38.1 13.4c-9.1 3-18.4 6.2-18.4 6.2s-3.9 5.7 1 5.7 10.3 1.5 16.7-2.7c-.1-.9-5.7-.4-5.7-.4s16.3-7.3 20.6-11.1c-2 0-7.2-1.1-7.2-1.1s15.2-3.1 26.1-16.3c1-1.2-13.6 4.1-13.6 4.1s34.1-19 18.6-33c3.7-.3 4.6 1.2 4.6 1.2s-1.1-6.4-7.4-8.1c2.6-.4 9.8-.9 13 5.3.9-1.8.6-8.3-4.5-8.8 1.6-.6 4.8-.7 4.8-.7s-3.6-5.3-20.5-2.6c2.7-3.5 4.6-1 6.6-3s4-.1 7.5-.4c.4-1.9-1.3-2-.2-4.6-1.2.9-4.5 4.1-9.2 2-2.3.7 2.9 8.3-19.8-1.7-3.7-1.6-9.3.4-9.3.4s-5 2.5-11.9-4.2c-11.3.9-15.7-.8-15.7-.8s10.3-2.1 12.4-1.3c2.1.8-1.2-4-19.2-1.8 8.6-3.7 15.5-4.2 15.5-4.2s-4.4-.2-11.2-6c.3 2.4 2.3 4.9 2.3 4.9s-8.6-.6-9.7-14.7c-1.2 3.7-3.1 4.6-3.1 4.6s.2-11.5 4-17.6c3.5-7.9-.3-1.6-3.4-1 1-1.5 3.5-6 4.7-11.5 3.2-1.1 7.9-6.9 7.9-6.9s-5.7 10.1-4.9 13.1l2.5-4.5s2.2 8.3.9 10.3c-1.3 2-3.3 3.2-3 6.3.3 3 0 9.8 7.6 13.6.8-1 0-2.1-.4-2.7 1.5 1.5 7.6 7.3 11.1 6 .7-1.2-1.6-3.6-1.6-3.6s4.9 2.5 7 2.1-4.8-4.5-1.3-8.4c3.5-3.9 7.2-7.8 8.4-7.5.6 2.3-1.8 6.5-4.6 8.6l4.8 9.1s1.9-.9-.4-3.7c1.8.2 6.2 4.1 7 9.3.9 5.1 12.6 7.5 14.3 8.1 1.7.6 5.1 5.1 8.7 3.1s2 3.9 5.8-2.8c-1.9-1.7-13.3 0-15.7-6.2 1-.2 23 8.6 21.5 1.5-3.1-1.9-23.2 1.3-36.6-15.4-.9-2.6-5.5.3-5.5.3s3.7-7.7 6-8.1l3.7-2.1s-1.5-.8-2.3-.3c-.9.4 3-2.9 8.1-1.2 2.2 3.5 6.3 7.9 7.5 9.6-2.2-.2-2.2-.2-3.2-1.7.7 2.3-1.2 3.1 6.3 5.3 8.4 9.2 12.6 13 19 6.9-.7-2.6-1.6-4.1 2.5-8.5.8-.9-1.1-2.3 2.7-4 1.8-1.1-5.8-7.9-14-3.2zm-107.5 36.4s-9.5 7.9-10.4 12.3c0 0-.2 2.1-1.8 4-.9-4.4-.6-6.7.9-9.3 1.5-2.6 3.2-6.6 8.2-10-1.6 2.5-2 4.1-2 4.1s5.4-8.5 15.7-2.5c-7.9-.3-10.6 1.4-10.6 1.4zm92 4.3c-7.2 4.9-19.4 1-23.6-.8 10.4-1.6 23.6.8 23.6.8zm-40.5-42.4c-1.4-.4-2.7 4.6-4 5.5-.4-4.1 0-9.6 1.1-10.1s.1-8.7.1-8.7-.5-4 2.4-7.8c0 0 0 9 3.2 12.3 1.3 3.6-1.5 7 1.3 16.1-1.4-.5-4.5-3.3-4.1-7.3zm-2-36c-2.6 1.3-.8-1.6-4.2-2.9 1.9 0 2.7.3 3.4.2.7-.1 3.2-1.3 3.5-2.5.3-1.2-1.5-5.1-2.9-5-1.5.1-3.7-.4-5.1 1.2 1-3.6 2.1-3.1 2.1-3.1s1.4-.2.7-1.4c0 0 3.6 2.2 5.4 1.8 2 1.9 3.4 5.9 3.4 5.9s1-.6.6-2.8c1.7 1.4 3.5 3.5 3 5.1-.5 1.7.1 1.7.1 1.7s-7.4.5-10 1.8zm42.3 24.9c-3.1-1.5-1.2 1.4-1.2 1.4s-3.7-1.4-4.6-1.2c-11.8 3.6-15.7-2.2-15.7-2.2s3.8.7 5.5 0c-2.8-1.8-1.8-6.6-1.8-6.6s-2.6 0-5.9.5c1.5-2.5 5.7-3.1 5.7-3.1s-1.3-1.2-5.1-1.8c5.2-2 14.6 2.3 17.7 7.2l3.9-.2c3 1.9.9 4.8.9 4.8s1.2.9.6 1.2zm20.2 21.6c1.7-.9 1.6-1.9 1.6-1.9s-3.5.7-2.5-3.9c-.2-1.3-1.7.2-1.7.2s-.7-4.5 3.6-2.1c4.3 2.5 3.2 7.7-1 7.7z"/></g><defs><path id="d" d="M0 0h166v140h-166z"/></defs><clipPath><use xlink:href="#d" overflow="visible"/></clipPath><path fill="#fff" d="M104 48.2c-1.2 2.3-3.9.6-3.3-.3 2.1-.1.7-1.6.7-1.6s-.9-2.8-2.3-.1c-2.2 4.3 2.8 4.7 4.8 4 2.1-.7.1-2 .1-2z"/></svg>