<svg xmlns="http://www.w3.org/2000/svg" xmlns:xlink="http://www.w3.org/1999/xlink" width="166.5" height="140" viewBox="0 0 166.5 140"><image overflow="visible" opacity=".42" width="204" height="208" xlink:href="3D1BB5254F220765.png" transform="translate(-22.5 -172.107)"/><defs><path id="a" d="M.5-157.1h166v140h-166z"/></defs><clipPath id="b"><use xlink:href="#a" overflow="visible"/></clipPath><path fill="#FF8A00" d="M128.3-91.9c-.4 4.1.8 7.6.8 7.6s-3.9.6-4.5 1.8c1-2.2-.3-2.7 1.3-3.6s1.4-8.1-4.5-10.8c6.9.4 4.3 3.9 13.3 1.6-8.7-1.6-9.4-7.6-14.2-6.8 0 0-1.3-1.9-2.8-3.4l1.2-.9s-1.7-1.7-2.5-1.2c.2-1.6 4.8-.4 4-3.1s3 1.5 1.1 3c.6 1.7 3.6 1.7 4.4-.1s-1.2.4-2.3-6c-2.2-4.4-9.1-8.3-9.1-8.3s3.8-.3 5.1 1c1.3 1.3-5.4-11.5-14.7-13.3-.4.9 3.4 5.1 3.4 5.1s-2.8.1-10-5.9c-3.9-3.8-11.7-3.6-11.7-3.6s.9 2.9 5.5 5.1c2.2 1.4 1.3 2.2 1.3 2.2s-3.4-1.2-4.1-2.5c-.4 1.1.9 1.6.3 2.7s-3.9-1.9-4.2-3.6c-.7.4-1.1 2.3-1.1 2.3s-2.2-.4-3.4-7.2c-.3-4.7-4.9-5.1-4.9-5.1s-6.1-2.6-8.2-1.6c0 0-7.6 3.5-7.3 5.7.3 2.2-.9 5.4-.9 5.4s1.6.1 1.9-.9.7 3.5-.7 5.9c-1.3 2.5 1.8-.9 1.8-.9s-1 10.4-6.5 13l1.3-5.9s-1.7 1.2-2.9 1.1c-1.2-.1 2.8-5.7 3-8.9-2.7.1-8.4 4.8-10.2 5-1.8.2-8.5 3.7-10.5 13-.7-1.1-1.7-2.8-1.7-2.8s-6.3 4.8-7.4 4.8-2 6.9-7.7 12.9c5.9-2.5 10.5-6.6 10.7-8.3 2.1 1 10.4 1.3 10.4 1.3s-8.1 8.7-5.5 13.8c2.6 5-.2 7.8 5.1 15.9 1.9-2.8 1.7-7.3 6.3-8.7.3 8.3-3.8 8.4-.7 18.3 2.6 6-1 8.5-1.7 9.8 1.1.9 1.6 2.7 1.3 4.6-.8 1.6-.1-3.2 25.3-1.3-9 4.7-13.7 4.7-13.7 4.7s17.8.1 21 3c-7.5 1.7-8.9.4-13.1 2.9 1.3.8 10.8 1 10.8 1s9.7 7.8 18.1 11.2c-7.4 0-11.4-2.1-11.4-2.1s-11.3 4.4-9.9 7c4 2.7 9.4 2.7 9.4 2.7s14.8-1.7 21.2 3.7c-9.3.7-12.3-.4-19.6 1.7 1.2 3.7 3.4 7.2 3.4 7.2s-19.1-11.7-26.3-13.4c0 0 2.9 8.9 4.1 10.4-4.5-2.9-10.6-8.2-10.8-9.4.4-2.5-17.8-16-24-19.7 5 .8 12.5 5.1 12.5 5.1s-4.8-7.8-6.8-8.9c.4-1.1-1.2-4.5-1.2-4.5s6-3.4 3.5-10c0-2.4 3.8 1.7 3.8 1.7s3.7.3-1.7-5.1c-6.9-5.7-6.6-.4-6 0 .6.4 2.5 3.2 2.1 6.3-2.3-2.5-5.3-5.9-9.1-7.6-5 .1-9.5-1.6-14.4-7.4 2 .4 4.2.9 4.2.9s-5.1-6.5-6-6.6c-.9-.1-8.7-1.7-11 6.4 2.7 1.1 2.6 1.8 2.6 1.8s1.7-3.2 5.3-2.6c-1.6 2.8-2.6 5.9-2.6 5.9s6.3 4.1 5.6 6.9c-2.1.4-4.8-2.1-4.8-2.1s-1.3 4.8-3.5 5.9c-.8-1.2 1-6.5-2.6-10.6-1.7 1.3-4.8 1.9-4.8 1.9s1.9 10.1 4.8 12.5c-.6 1.8-1.9 3.7-1.9 3.7s-3.5-5.4-5.6-3.2c-2.1 2.1 5.4 9.3 5.4 9.3s6.8 7.9-.6 3.8c.3 3 2.3 7.7 2.3 7.7l2-.4s1.1 8.7 10.8 15.9c-7.2-11.7-6.4-16.8-6.4-16.8s4.7 3.4 7.8 9.1l13 8.7s7 15 8.1 17.4c1 2.5-6.2-4.6-7.5-8.7s2.1 19.9 26.6 23.2c17.8 3 .2-9.1.2-9.1l-8.3-7s9.7 4.2 16.4 3.8c1-.2-10.5-9.1-10.5-9.1s25 10.1 38.2 13.4c-9.1 3-18.4 6.2-18.4 6.2s-3.9 5.7 1 5.7 10.3 1.5 16.7-2.7c-.1-.9-5.7-.4-5.7-.4s16.3-7.3 20.6-11.1c-2 0-7.2-1.1-7.2-1.1s15.2-3.1 26.1-16.3c1-1.2-13.6 4.1-13.6 4.1s34.1-19 18.6-33c3.7-.3 4.6 1.2 4.6 1.2s-1.1-6.4-7.4-8.1c2.6-.4 9.8-.9 13 5.3.9-1.8.6-8.3-4.5-8.8 1.6-.6 4.8-.7 4.8-.7s-3.6-5.3-20.5-2.6c2.7-3.5 4.6-1 6.6-3s4-.1 7.5-.4c.4-1.9-1.3-2-.2-4.6-1.2.9-4.5 4.1-9.2 2-2.3.7 2.9 8.3-19.8-1.7-3.7-1.6-9.3.4-9.3.4s-5 2.5-11.9-4.2c-11.3.9-15.7-.8-15.7-.8s10.3-2.1 12.4-1.3c2.1.8-1.2-4-19.2-1.8 8.6-3.7 15.5-4.2 15.5-4.2s-4.4-.2-11.2-6c.3 2.4 2.3 4.9 2.3 4.9s-8.6-.6-9.7-14.7c-1.2 3.7-3.1 4.6-3.1 4.6s.2-11.5 4-17.6c3.5-7.9-.3-1.6-3.4-1 1-1.5 3.5-6 4.7-11.5 3.2-1.1 7.9-6.9 7.9-6.9s-6 10.3-5.1 13.3l2.5-4.5s2.2 8.3.9 10.3-3.2 3.2-2.9 6.2c.3 3 0 9.8 7.6 13.6.8-1 0-2.1-.4-2.7 1.5 1.5 7.6 7.3 11.1 6 .7-1.2-1.6-3.6-1.6-3.6s4.9 2.5 7 2.1-4.8-4.5-1.3-8.4c3.5-3.9 7.2-7.8 8.4-7.5.6 2.3-1.8 6.5-4.6 8.6-2.8 2.1 4.8 9.1 4.8 9.1s1.9-.9-.4-3.7c1.8.2 6.2 4.1 7 9.3.9 5.1 12.6 7.5 14.3 8.1 1.7.6 5.1 5.1 8.7 3.1 3.6-2 2 3.9 5.8-2.8-1.9-1.7-13.3 0-15.7-6.2 1-.2 23 8.6 21.5 1.5-3.1-1.9-23.2 1.3-36.6-15.4-.9-2.6-5.5.3-5.5.3s3.7-7.7 6-8.1l3.7-2.1s-1.5-.8-2.3-.3c-.9.4 3-2.9 8.1-1.2 2.2 3.5 6.3 7.9 7.5 9.6-2.2-.2-2.2-.2-3.2-1.7.7 2.3-1.2 3.1 6.3 5.3 8.4 9.2 12.6 13 19 6.9-.7-2.6-1.6-4.1 2.5-8.5.8-.9-1.1-2.3 2.7-4 1.7-1.2-5.9-7.9-14.1-3.2zm-107.5 36.4s-9.5 7.9-10.4 12.3c0 0-.2 2.1-1.8 4-.9-4.4-.6-6.7.9-9.3 1.5-2.6 3.2-6.6 8.2-10-1.6 2.5-2 4.1-2 4.1s5.4-8.5 15.7-2.5c-7.9-.3-10.6 1.4-10.6 1.4zm92 4.3c-7.2 4.9-19.4 1-23.6-.8 10.4-1.6 23.6.8 23.6.8zm-40.5-42.4c-1.4-.4-2.7 4.6-4 5.5-.4-4.1 0-9.6 1.1-10.1s.1-8.7.1-8.7-.5-4 2.4-7.8c0 0 0 9 3.2 12.3 1.3 3.6-1.5 7 1.3 16.1-1.4-.5-4.5-3.4-4.1-7.3zm-2-36c-2.6 1.3-.8-1.6-4.2-2.9 1.9 0 2.7.3 3.4.2s3.2-1.3 3.5-2.5c.3-1.2-1.5-5.1-2.9-5-1.5.1-3.7-.4-5.1 1.2 1-3.6 2.1-3.1 2.1-3.1s1.4-.2.7-1.4c0 0 3.6 2.2 5.4 1.8 2 1.9 3.4 5.9 3.4 5.9s1-.6.6-2.8c1.7 1.4 3.5 3.5 3 5.1-.5 1.7.1 1.7.1 1.7s-7.4.5-10 1.8zm42.3 24.9c-3.1-1.5-1.2 1.4-1.2 1.4s-3.7-1.4-4.6-1.2c-11.8 3.6-15.7-2.2-15.7-2.2s3.8.7 5.5 0c-2.8-1.8-1.8-6.6-1.8-6.6s-2.6 0-5.9.5c1.5-2.5 5.7-3.1 5.7-3.1s-1.3-1.1-5.1-1.7c5.2-2 14.6 2.3 17.7 7.2 3.1 4.9 3.9-.2 3.9-.2 3 1.9.9 4.8.9 4.8s1.2.8.6 1.1zm20.2 21.6c1.7-.9 1.6-1.9 1.6-1.9s-3.5.7-2.5-3.9c-.2-1.3-1.7.2-1.7.2s-.7-4.5 3.6-2.1c4.3 2.5 3.2 7.7-1 7.7z" clip-path="url(#b)"/><image overflow="visible" opacity=".42" width="211" height="229" xlink:href="3D1BB5254F220767.png" transform="translate(-15.5 -17.107)"/><defs><path id="c" d="M-.5-.1h181v140h-181z"/></defs><clipPath><use xlink:href="#c" overflow="visible"/></clipPath><defs><path id="d" d="M-.5-.1h181v140h-181z"/></defs><clipPath id="e"><use xlink:href="#d" overflow="visible"/></clipPath><g clip-path="url(#e)"><linearGradient id="f" gradientUnits="userSpaceOnUse" x1="81.522" y1="17.674" x2="100.878" y2="17.674"><stop offset="0" stop-color="#007C1C"/><stop offset="1" stop-color="#00A526"/></linearGradient><path fill="url(#f)" d="M84 12c5.4 4.5 6.2 8.7 6.2 8.7s1.3-.6-.2-4.5c1.5-.2 5.5 5 1.2 8.1-5.7 3.5-6.3 5.5-6.3 5.5s2.9 7.1 6 6.8c3.1-.3 14.2-5.4 8.1-16.1-6-10.6-13.1-9.7-16.8-21.7 0 0-2.4 9.7 1.8 13.2z"/><linearGradient id="g" gradientUnits="userSpaceOnUse" x1="10.237" y1="25.102" x2="40.341" y2="25.102"><stop offset="0" stop-color="#007C1C"/><stop offset="1" stop-color="#00A526"/></linearGradient><path fill="url(#g)" d="M19.1 44.7c5 4 14.5 1.7 14.5 1.7s2.2-.3 3.5-8.1c4.2 5.5-1.1 9 1.1 8.3 4.6-4.9.5-11.1-2-13-2.5-1.9-13.3-.5-17.5-.9-4.2-.5-4.8-4.4-4.3-5.7 1.3 1.1 1.7 2.8 3.3 2.3-2.8-2.8 1.7-8 5.4-13.1l-2.4-13c-.2 9.3.3 7.1-7.4 19-7.6 14.6.7 20 5.8 22.5z"/><linearGradient id="h" gradientUnits="userSpaceOnUse" x1="7.115" y1="57.181" x2="30.889" y2="57.181"><stop offset="0" stop-color="#007C1C"/><stop offset="1" stop-color="#00A526"/></linearGradient><path fill="url(#h)" d="M27.7 63c0-2-9-1.4-9-1.4s2.7-3.4 5.4-3.6c2.8-.3-4.8-1.4-8.3 0 1.6-2.3 4.6-3.9 4.6-3.9s6-.4 10.6 1.2c0 0-3.7-3.8-10.1-4.8-6.2 4.5-13.8 9.1-13.8 9.1s7.3 6.9 20.6 3.4z"/><path fill="#fff" d="M85.1 87.2c6.8 3.9 19.7-.5 19.7-1.8s-1.2-1.4-1.2-1.4c-6.2 4.4-9.8.6-9.8.6s-1.2 1.2-4.4.9c-2.3-2.1-3.1-1.6-5.3-1s-4.6-3.6-4.1-3.5c.5.1 2.8 2 4.1 1.5 2.1-1.8 5.1-.3 5.1-.3.6 0 5.3 2.2 5.5 0-4.2-5.8-6.4-2.5-6.4-2.5s-2.9-3.4-4.6-3.3c-1.7.1-2.6 2-2.6 2s-.8-2-3.2-2.7c-2.8.2-3.5 6.7-3.5 6.7s-2.8-2.6-2.1-1c.6 1.6-.5 4.5-.5 4.5s6.5-2.7 13.3 1.3z"/><linearGradient id="i" gradientUnits="userSpaceOnUse" x1="1.395" y1="110.863" x2="155.758" y2="110.863"><stop offset="0" stop-color="#007C1C"/><stop offset="1" stop-color="#00A526"/></linearGradient><path fill="url(#i)" d="M152.9 114.6c2.5-1.8 2.5-6.3 2.8-7.9.3-1.6-2.7-5.5-2.9-4 .2 3.2-2 9.8-2.7 8.6-.7-1.2-.8-9.6-.7-11.5.1-1.9 2.3-1.7.8-4-1.5-2.3-5-1.1-5-1.1s-3.1-2.4-5.8-4.3c-4.6 3.3-5.7.9-6.2 2l-3.7 3.7s-2.1 1.4-2.5 3.7c2.6 1.1 6.7-4.2 6.7-4.2s6.1-2 7.1-.2-2.3 3.8-2.3 3.8-2.3-.7-5.3 3.3c-3.1 4-6.2 4-6.9 3.3-.7-.7-5.9-.6-4.4.1s1.2 6.9 1.1 8.5c-.1 1.6 4.9 4.9 9.4 3.6 4.5-1.2 4.9-.2 4.9-.2s-4 2.8-5.3 5.1c4.1 6.3-11.1 25.9-16.6 26.3-5.5.5-13.8 7.8-13.8 7.8s-3.3 4.7-12.4 4.5c-7 7.7-14.8 10.2-14.8 10.2s.1-4.3 6.8-10.3c-19.8 0-21.7-13.5-19.7-10.4 2 3.1 26.2 13.5 28 3.4 1.8-10.1-10.1-14.1-17.9-17.5-5.1-10.7-8-12.4-14.5-16.5 10.5.3 19.2 12.8 19.2 12.8 14.6.8 18.9 9.3 20.2 10.3 5.3-6.4-5-23.4-5-23.4s5.5 1.6 8 5.9c4.9-3.4-.7-20.7-.8-18.2-.1 2.5-1.7 7-5.1 5.9-3.4-1.1-6.8 1.8-8.6 3.6-1.8 1.8-4.4 0-4.4 0s-1.2-5.1-4.4-5.4c-3.2-.3-2.6-4.9-2.6-4.9s-8.2-4.2-10.2-3.6c4.9 4.9 2.1 9 2.1 9s-1.9-2.7-6.3-6.3c-4.4-3.6-14-6.2-13.7-6.1.3.1 2 2.1 3.7 5.2-8.4 0-9-8-11.5-10.1-2.8 4.7-5.8 5-5.8 5-.9-1.9 2.6-15.2 5.8-20 4-2 4.6-11.1 4.6-11.1s1.9 1.2 2.1 8.3c.2 7 2.3 8.1 5.3 12.7 3.1 4.5 15.7 3.2 14 2.8-1.7-.3-2.7-1.9-3.1-4.2-.3-4.4.9-5.4 2.4-6.2-.9 3.1.3 5.1 2.5 7.6 2.3 3.1 16.4 6.9 16.4 6.9s15.4 4.2 17.2 1.5c1.8-2.7 3.3-2.6 3.3-2.6s4-1.7.8-2.3c-7.5 3.5-8.4 2-10.6 1.8-4.3 1.2-13-3.7-8.5-3.1 16.3 2.7 20.6-1.9 20.6-1.9 2.4 0 4.5-5.5 1.8-3.7-6 6.8-19.8 3.8-20.1 3.8-.3 0-6.2-3.6-13.7-2.4-7.5 1.2-5.1-3.2-5.1-3.2s2.2-1.9 2.3-7.8c.1-5.9 3.5-8.1 4-8.8.5-.7 7.2-1.8 12.2 3.6 5 5.4 8.3 5.7 14.7 7.8 6.4 2.1 6-2.3 5.3-1.9-3.3 2.3-11-2.4-7.9-2.8 13.7 1.5 10.1-3.4 12.4-5.9 3.6-3.2 1.6-4.7.7-7 .1-3.4-1.4-4-2.6-4.3 3.9 3.3-.1 6-.1 6 .8-2.5-2-5.2-2-5.2s-8.6-6.6-14.9-9.2c-3.4-1.8-10.2 3.6-11.2 5.7-1.4-1 .3-4 .3-4s-1.2 0-3.6 2.3c-.7-3.4 3.7-5 3.7-5s7.2-.9 4.9-2.4c-4.5-1.5-5.3 1.2-5.7 1.1-.3-.2-1.2-.2-1-1.4s-2.7-4.2-.9-3.3c1.8.9 6.8 0 6.8 0s4.4-2.9 2.8-3.2c-1.6-.2-3.3-3.4-3.3-3.4s-2.1-5.4-4.3-5.4c-2.1 0-5.9-1.8-9.7-4-3.8-2.1-7.5.3-8 1.5 3.7-.3 4.6.7 4.6.7s-2.5 4.5-9.5 2c-11.9-6.4-17.4 0-17.4 0 3.6 2.6 3.9 2.1 5.7 8.1.5 5.3-5.7 9.8-4.2 13.5 3.3 1.9 2.4 4.9 2.4 4.9s-6.1-4.2-8.1-4.3c5.1 5.2-3.6 13.1-3.6 13.1s-12.9 12.1-12.3 18.8c6.4-6.4 15.2-10.5 15.2-10.5s-7 8.8-11.1 15.2c-8.8 4.4-7.6 10.2-7.6 10.2s-10.9 2.1-12 10.1c-3.1 1.5-3.2 6.2-3.2 6.2s5.3-6.3 12.2-7.3c12.3-12 24.2 7.5 24.2 7.5s-4.3-5-19-2.8c-14.7 2.1-8.6 15.4-13 19.6s-4.2 11.6-2.5 18.2c1.2 8.7 21.6 18 14.7 12.8s-6.3-9.9-7.2-12.8c-.9-2.8.8-13 4.3-16.1.6 9.9 2.1 13.6 7 17.1 3.4 7.6 17.2 4 17.2 4s13.9-4.3 11.6-2.5c-2.3 1.8-13.1 9.3-9.4 7.7 3.7-1.6 14.7-4.2 14.7-4.2s-2 5.9-8.4 9c5.8 7.8 17.6 18.4 17.6 18.4-7.2 1.8-22.5-14.2-22.5-14.2s-3.5 1.9-3.2 2.6c9.6 21.8 28.6 23.4 28.6 23.4s-2.3-2.6-3.8-3.3c8.9-2.3 21.2 1 21.2 1s2.2 1.1 12.2-.3c10.1-1.4 19.8-10.6 23.3-12.2-.7 3.9-2 4.8-3.3 5.9l5.4-1.8s9.9-4.2 13.7-14.3c-3.8 1.3-9.3 7.8-12.4 5.7 20.4-11.9 18.7-21.9 16.7-21.9-33.9 46.4-55.9 24.8-53.3 25.7 2.6.9 3.6.1 3.6.1s-1.9-.6-3.7-2.6c12.7 2.1 27.9-8.4 27.9-8.4l-4.1 4.7c12.9-1.7 25.2-18.7 27.4-22.5 2.1-3.8-.5-9.7-1.8-12.2 3.3.3 7.3 6.9 7.3 6.9s1.8-4.4.6-6.6c-1.2-2.1-1.2-6.4-1.2-6.4s5.5 6.4 6.3 4.3c-.9-5.2-5.7-6.7-9.9-7.1 5.8-2.9 9.7.2 11-.1 1.2-.3 1.2-3.2 1.2-3.2s-.9-4.5-14.4-4.9c9-5.8 16.3-.3 16.3-.3s1-5.3.2-6.3c-1.8 1-4.3.3-1.8-1.5zm-58.8-44.9s5.5-.1 5.9-3.5c.9 1.1 1.6 8.8-5.9 3.5zm-1.6-12.3s-4.1 2.4 5.4 6.1c.7.3 1.5.5 2.3.8-1.8 4.9-8.4 4.2-9.5 2.3 0 0-1.7.4-2.4-3.9 1.5.8 2.9.8 2.9.8s-7.9-7 1.3-6.1zm-34.2 28.6c-2.2-6.1 3.1-9.5 3.1-9.5s-.7 6.3-3.1 9.5zm19.3-21.6c-4 .8-5.9.5-5.9.5s-4 3.3-3.9 5.2c0 .2-2.2-6.2 4.2-9.1 1.4-.7 1.9-2.8 1.9-2.8s1 2.9-.7 3.6c-1.8.7 3.5.7 4.4 2.6zm-24.4-26.5s3-.4 5.9.8c2.8 1.2 9.2 5.5 9.2 5.5s4.9 3.7 7.6-1.9c2.9 1.9-2.6 7.2-2.6 7.2s-4.4 6.9-7.7 6.6c1.6-1.7 2.8-5.1 2.8-5.1s-12.2 5.8-14-3.5c3.6 3.4 6.2 2.9 6.2 2.9s-4.8-2.5-3.7-9.2c-1.9-1.2-2.6 2.4-2.5 2.7 0-.1-2-2-1.2-6zm-2.9 9.6s-2 10.2 10 7.2c-17 8.9-10-7.2-10-7.2zm-3.3 16s3.3 5.4 9.1 7.4c-1.4 5.9-3.6 12.9-3.6 12.9s-2.2-7.4-.1-11.5c-7.5-3.7-5.4-8.8-5.4-8.8zm-7.2 84.5c4.4-6.1 3.2-13.4 3.2-13.4.3-.1 9.1 11.5-3.2 13.4zm9.2-3.3c2.7-10.1-5.9-22.2-5.9-22.2s17.6 11.5 5.9 22.2zm95.4-34.6c-4.2-3.4-2.5-10.6-2.5-10.6s3.1 4.5 2.5 10.6z"/></g><defs><path id="j" d="M-.5-.1h181v140h-181z"/></defs><clipPath><use xlink:href="#j" overflow="visible"/></clipPath><path fill="#fff" d="M62.6 48.9c5.1.7 3.4-1.9 3.4-1.9s-2.8 2.9-3.7-.9c2.4-.3 1.2-2.1 1.2-2.1s-1.9-.5-2-1.3c-.1-.8-2.2 5 1.1 6.2z"/></svg>