<?xml version="1.0" encoding="utf-8"?>
<!-- Generator: Adobe Illustrator 21.1.0, SVG Export Plug-In . SVG Version: 6.00 Build 0)  -->
<svg version="1.1" id="Layer_1" xmlns="http://www.w3.org/2000/svg" xmlns:xlink="http://www.w3.org/1999/xlink" x="0px" y="0px"
	 viewBox="0 0 237.7 238.9" style="enable-background:new 0 0 237.7 238.9;" xml:space="preserve">
<g>
	<path d="M125,26.4v47.3l39.2,28.5l38.7-22.5V35.6c-10.4-10.4-22.7-18.8-36.6-24.9L125,26.4z M125,26.4"/>
	<g>
		<path d="M118.8,84.6L81,112.1l14.4,44.4h46.7l14.4-44.4L118.8,84.6z M118.8,84.6"/>
		<path d="M150.4,234.5l22-35.4L144,168.9H93.6L65.2,199l22.1,35.5C108,240.2,129.7,240.2,150.4,234.5L150.4,234.5z M150.4,234.5"/>
	</g>
	<path d="M89.7,4.4l29,11l29.1-11c-9.6-2.4-19.3-3.6-29-3.6C109.1,0.8,99.3,2,89.7,4.4L89.7,4.4z M89.7,4.4"/>
	<path d="M207.8,91.3l-38.7,22.5l-15.3,47.2l28.2,29.8l42.4-16.3c1.4-2.7,2.7-5.5,3.9-8.4c5.4-12.8,8.5-26.1,9.3-39.5L207.8,91.3z
		 M207.8,91.3"/>
	<path d="M83.8,161.1l-15.3-47.2L29.8,91.3L0,126.8c0.8,12.7,3.6,25.4,8.5,37.5c1.4,3.4,2.9,6.7,4.6,9.9l42.6,16.6L83.8,161.1z
		 M83.8,161.1"/>
	<path d="M213.2,192.3l-28.7,11l-14.9,24.1C186.9,219.2,201.7,207.2,213.2,192.3L213.2,192.3z M213.2,192.3"/>
	<path d="M215.4,50.3v30.6l21.6,25.6c-1.2-10.6-3.9-21.1-8-31.3C225.5,66.3,220.9,58,215.4,50.3L215.4,50.3z M215.4,50.3"/>
	<path d="M68.1,227.4l-14.9-24.1l-28.7-11C35.8,207.2,50.7,219.2,68.1,227.4L68.1,227.4z M68.1,227.4"/>
	<path d="M73.3,102.2l39.2-28.5V26.4L71.3,10.8c-13.8,6-26.2,14.5-36.6,24.9v44.1L73.3,102.2z M73.3,102.2"/>
	<path d="M0.5,106.5l21.6-25.6V50.3c-5.1,7.1-9.4,14.8-12.9,23C4.7,84.1,1.8,95.2,0.5,106.5L0.5,106.5z M0.5,106.5"/>
</g>
</svg>
