<?xml version="1.0" encoding="utf-8"?>
<!-- Generator: Adobe Illustrator 21.1.0, SVG Export Plug-In . SVG Version: 6.00 Build 0)  -->
<svg version="1.1" id="Layer_1" xmlns="http://www.w3.org/2000/svg" xmlns:xlink="http://www.w3.org/1999/xlink" x="0px" y="0px"
	 viewBox="0 0 200 200" style="enable-background:new 0 0 200 200;" xml:space="preserve">
<style type="text/css">
	.st0{fill:#FA3936;}
</style>
<path class="st0" d="M138.3,47.5c-6.7-4.9-14.2-8.4-22.3-10.5c-5.3-1.3-10.7-2-16-2c-16.5,0-32.1,6.4-43.9,17.2
	c-0.1,0.1-0.2,0.1-0.3,0.2c-0.1,0.1-0.1,0.2-0.2,0.3c-7,6.5-12.5,14.5-16.1,23.7c-1,2.5-1.8,5.1-2.5,7.7c-8.8,34.7,12.3,70.1,47,79
	c5.3,1.3,10.7,2,16,2c29.7,0,55.6-20.2,62.9-49C169.5,90.1,159.9,63.3,138.3,47.5z M85.5,157.2c-31.5-8-50.7-40.1-42.7-71.7
	c0.6-2.4,1.4-4.7,2.2-7c2.9-7.4,7.3-14,12.7-19.6l79.4,86.9c-10.2,8.3-23.2,13.2-37.1,13.2C95.2,159,90.3,158.4,85.5,157.2z
	 M157.1,114.5c-2.7,10.6-8.2,19.9-15.6,27.3L62.2,54.9C72.6,46.2,85.9,41,99.9,41c4.9,0,9.8,0.6,14.6,1.8c7.4,1.9,14.2,5.1,20.3,9.5
	C154.3,66.6,163.1,91,157.1,114.5z"/>
</svg>
