<?xml version="1.0" encoding="utf-8"?>
<!-- Generator: Adobe Illustrator 21.1.0, SVG Export Plug-In . SVG Version: 6.00 Build 0)  -->
<svg version="1.1"
	 id="Layer_1" xmlns:cc="http://creativecommons.org/ns#" xmlns:dc="http://purl.org/dc/elements/1.1/" xmlns:inkscape="http://www.inkscape.org/namespaces/inkscape" xmlns:rdf="http://www.w3.org/1999/02/22-rdf-syntax-ns#" xmlns:sodipodi="http://sodipodi.sourceforge.net/DTD/sodipodi-0.dtd" xmlns:svg="http://www.w3.org/2000/svg"
	 xmlns="http://www.w3.org/2000/svg" xmlns:xlink="http://www.w3.org/1999/xlink" x="0px" y="0px" viewBox="0 0 100 100"
	 style="enable-background:new 0 0 100 100;" xml:space="preserve">
<style type="text/css">
	.st0{fill:#27EE4C;}
</style>
<g transform="translate(0,-952.36218)">
	<path class="st0" d="M46,963.4c-2.8,0.1-5.7,0.5-8.5,1.2c-20.9,5.2-33.6,26.4-28.3,47.3c5.2,20.9,26.5,33.6,47.3,28.3
		s33.6-26.4,28.3-47.3c-0.1-0.5-0.6-0.9-1.2-0.8s-0.9,0.6-0.8,1.2c0,0.1,0,0.1,0,0.2c5,19.8-7,39.9-26.9,44.9
		c-19.8,5-39.9-7-44.9-26.9c-5-19.8,7-39.9,26.9-44.9c10.6-2.7,21.9-0.5,30.8,6c0.5,0.3,1.1,0.1,1.4-0.4c0.2-0.4,0.2-0.9-0.2-1.2
		C63,965.8,54.5,963.2,46,963.4z M90.9,967.3c-0.2,0-0.4,0.1-0.6,0.3c-11,11.5-31.1,33.6-42.3,45.3l-16.3-14.4c-0.4-0.4-1-0.4-1.4,0
		c-0.4,0.4-0.4,1,0,1.4c0,0,0.1,0.1,0.1,0.1l17,15c0.4,0.3,1,0.3,1.4-0.1c11.1-11.6,31.9-34.4,43-46c0.4-0.4,0.4-1,0-1.4
		C91.5,967.4,91.2,967.3,90.9,967.3L90.9,967.3z"/>
</g>
</svg>
