<?xml version="1.0" encoding="utf-8"?>
<!-- Generator: Adobe Illustrator 21.1.0, SVG Export Plug-In . SVG Version: 6.00 Build 0)  -->
<svg version="1.1"
	 id="Layer_1" xmlns:cc="https://creativecommons.org/ns#" xmlns:dc="http://purl.org/dc/elements/1.1/" xmlns:inkscape="http://www.inkscape.org/namespaces/inkscape" xmlns:rdf="http://www.w3.org/1999/02/22-rdf-syntax-ns#" xmlns:sodipodi="http://sodipodi.sourceforge.net/DTD/sodipodi-0.dtd" xmlns:svg="http://www.w3.org/2000/svg"
	 xmlns="http://www.w3.org/2000/svg" xmlns:xlink="http://www.w3.org/1999/xlink" x="0px" y="0px" viewBox="0 0 100 100"
	 style="enable-background:new 0 0 100 100;" xml:space="preserve">
<style type="text/css">
	.st0{fill:#49B65D;}
</style>
<g transform="translate(0,-952.36218)">
	<path class="st0" d="M36,982.4c-1.6,0-3,1.4-3,3v34c0,1.6,1.4,3,3,3h56c1.6,0,3-1.4,3-3v-34c0-1.6-1.4-3-3-3H36z M36.8,984.4h54.5
		L64,1008L36.8,984.4z M35,985.5l18.9,16.4L35,1019V985.5z M93,985.5v33.5l-18.9-17.1L93,985.5z M6,989.4c-0.6,0-1,0.4-1,1
		s0.4,1,1,1h20c0.6,0,1-0.4,1-1s-0.4-1-1-1H6z M10,1001.4c-0.6,0-1,0.4-1,1s0.4,1,1,1h16c0.6,0,1-0.4,1-1s-0.4-1-1-1H10z
		 M55.4,1003.2l7.9,6.9c0.4,0.3,0.9,0.3,1.3,0l7.9-6.9l19,17.2H36.4L55.4,1003.2z M14,1013.4c-0.6,0-1,0.4-1,1s0.4,1,1,1h12
		c0.6,0,1-0.4,1-1s-0.4-1-1-1H14z"/>
</g>
</svg>
