<?xml version="1.0" encoding="UTF-8" standalone="no"?>
<svg width="34px" height="34px" viewBox="0 0 34 34" version="1.1" xmlns="http://www.w3.org/2000/svg" xmlns:xlink="http://www.w3.org/1999/xlink">
    <!-- Generator: Sketch 45.1 (43504) - http://www.bohemiancoding.com/sketch -->
    <title>arrow-white</title>
    <desc>Created with Sketch.</desc>
    <defs></defs>
    <g id="User-Profile" stroke="none" stroke-width="1" fill="none" fill-rule="evenodd">
        <g id="Profile" transform="translate(-866.000000, -2090.000000)" fill="#FFFFFF">
            <g id="saving-copy" transform="translate(661.000000, 1752.000000)">
                <g id="Avatar_crop" transform="translate(32.000000, 163.000000)">
                    <path d="M190.0005,175.5002 C190.0005,175.5002 191.0005,178.5002 192.0005,180.5002 L194.0005,184.5002 L191.0005,182.2502 L191.0005,191.0002 L199.7505,191.0002 L197.5005,188.0002 L201.5005,190.0002 C203.5005,191.0002 206.5005,192.0002 206.5005,192.0002 C206.5005,192.0002 203.5005,193.0002 201.5005,194.0002 L197.5005,196.0002 L199.7505,193.0002 L191.0005,193.0002 L191.0005,202.2502 L194.0005,200.0002 L192.0005,204.0002 C191.0005,206.0002 190.0005,209.0002 190.0005,209.0002 C190.0005,209.0002 189.0005,206.0002 188.0005,204.0002 L186.0005,200.0002 L189.0005,202.2502 L189.0005,193.0002 L180.2505,193.0002 L182.5005,196.0002 L178.5005,194.0002 C176.5005,193.0002 173.5005,192.0002 173.5005,192.0002 C173.5005,192.0002 176.5005,191.0002 178.5005,190.0002 L182.5005,188.0002 L180.2505,191.0002 L189.0005,191.0002 L189.0005,182.2502 L186.0005,184.5002 L188.0005,180.5002 C189.0005,178.5002 190.0005,175.5002 190.0005,175.5002" id="arrow-white"></path>
                </g>
            </g>
        </g>
    </g>
</svg>