<?xml version="1.0" encoding="utf-8"?>
<!-- Generator: Adobe Illustrator 21.1.0, SVG Export Plug-In . SVG Version: 6.00 Build 0)  -->
<svg version="1.1" id="Layer_1" xmlns="http://www.w3.org/2000/svg" xmlns:xlink="http://www.w3.org/1999/xlink" x="0px" y="0px"
	 viewBox="0 0 26.4 20.5" style="enable-background:new 0 0 26.4 20.5;" xml:space="preserve">
<style type="text/css">
	.st0{fill:#262626;}
</style>
<g>
	<path class="st0" d="M13.2,11.5C5.9,11.5,0,9.2,0,6.2v8.6h0c0,3.1,5.9,5.7,13.1,5.7c7.3,0,13.1-2.5,13.1-5.7h0V6.2
		C26.4,9.2,20.5,11.5,13.2,11.5L13.2,11.5z M13.2,11.5"/>
	<path class="st0" d="M26.4,5.3c0,2.9-5.9,5.3-13.2,5.3C5.9,10.6,0,8.2,0,5.3C0,2.4,5.9,0,13.2,0C20.5,0,26.4,2.4,26.4,5.3L26.4,5.3
		z M26.4,5.3"/>
</g>
</svg>
