<?xml version="1.0" encoding="utf-8"?>
<!-- Generator: Adobe Illustrator 21.1.0, SVG Export Plug-In . SVG Version: 6.00 Build 0)  -->
<svg version="1.1" id="Слой_1" xmlns="http://www.w3.org/2000/svg" xmlns:xlink="http://www.w3.org/1999/xlink" x="0px" y="0px"
	 viewBox="0 0 62.7 62.7" style="enable-background:new 0 0 62.7 62.7;" xml:space="preserve">
<style type="text/css">
	.st0{fill:none;}
	.st1{fill:#FFFFFF;}
	.st2{fill:#C1272D;}
	.st3{fill:#A82227;}
	.st4{fill:#333333;}
	.st5{fill:#9C999C;}
	.st6{fill:#838183;}
	.st7{fill:#405063;}
	.st8{fill:#00A652;}
</style>
<polygon class="st0" points="-787.6,-35.2 -787.5,-35.2 -787.6,-35.3 "/>
<polygon class="st1" points="-709.4,27.1 -708.9,27.9 -708.7,27.7 "/>
<circle class="st2" cx="-787" cy="-277.7" r="31.4"/>
<g>
	<g>
		<path class="st1" d="M-791.9-274.7h2.1v1.4h-3.8v-7.2h1.7V-274.7z"/>
		<path class="st1" d="M-787.1-278.8c0.3,0,0.5,0,0.8,0.1c0.2,0.1,0.5,0.2,0.6,0.3c0.2,0.2,0.3,0.4,0.4,0.6c0.1,0.3,0.1,0.6,0.1,1
			v1.6c0,0.4,0,0.7-0.1,1c-0.1,0.3-0.2,0.5-0.4,0.6c-0.2,0.2-0.4,0.3-0.6,0.4c-0.2,0.1-0.5,0.1-0.8,0.1c-0.3,0-0.6,0-0.8-0.1
			c-0.2-0.1-0.5-0.2-0.6-0.3s-0.3-0.4-0.4-0.6c-0.1-0.3-0.2-0.6-0.2-1v-1.6c0-0.4,0-0.7,0.2-1c0.1-0.3,0.2-0.5,0.4-0.6
			c0.2-0.2,0.4-0.3,0.6-0.3C-787.7-278.8-787.4-278.8-787.1-278.8z M-787.1-277.6c-0.2,0-0.3,0.1-0.3,0.2s-0.1,0.2-0.1,0.4v2.2
			c0,0.2,0,0.3,0.1,0.4c0.1,0.1,0.2,0.1,0.3,0.1c0.1,0,0.2,0,0.3-0.1c0.1-0.1,0.1-0.2,0.1-0.4v-2.2
			C-786.7-277.4-786.9-277.6-787.1-277.6z"/>
		<path class="st1" d="M-780.4-278.7v5.5c0,0.3-0.1,0.6-0.2,0.9c-0.1,0.2-0.2,0.4-0.4,0.5c-0.2,0.1-0.4,0.2-0.6,0.3
			s-0.5,0.1-0.7,0.1c-0.7,0-1.2-0.1-1.5-0.4c-0.4-0.2-0.5-0.7-0.5-1.2h1.5v0.1c0,0.3,0.2,0.5,0.5,0.5c0.2,0,0.3,0,0.3-0.1
			c0.1-0.1,0.1-0.2,0.1-0.4v-1c-0.1,0.2-0.3,0.3-0.5,0.4c-0.2,0.1-0.4,0.2-0.7,0.2c-0.2,0-0.3,0-0.5-0.1c-0.2-0.1-0.3-0.1-0.4-0.3
			c-0.1-0.1-0.2-0.3-0.3-0.5c-0.1-0.2-0.1-0.4-0.1-0.7v-2.5c0-0.2,0-0.4,0.1-0.6s0.2-0.3,0.3-0.4c0.1-0.1,0.3-0.2,0.4-0.3
			c0.2-0.1,0.3-0.1,0.5-0.1c0.2,0,0.5,0.1,0.7,0.2c0.2,0.1,0.4,0.3,0.5,0.6v-0.6H-780.4z M-781.9-277c0-0.4-0.2-0.6-0.5-0.6
			c-0.3,0-0.5,0.2-0.5,0.6v1.7c0,0.4,0.2,0.6,0.5,0.6c0.1,0,0.3,0,0.3-0.1c0.1-0.1,0.1-0.2,0.1-0.5V-277z"/>
	</g>
</g>
<path class="st3" d="M-772.5-259.2h-28.8l7.1,12c2.3,0.5,4.7,0.9,7.2,0.9c12.3,0,22.8-7.1,28-17.4l-13.5-22.9V-259.2z"/>
<path class="st1" d="M-781.4-296.1h-20v36.6v0.3h0.2h28.8v-27.4v-0.6l-0.9-0.9L-781.4-296.1z M-780.7-291.8l4.2,4.2h-4.2V-291.8z
	 M-775-261.7h-23.9v-31.9h15.7v8.5h8.2V-261.7z"/>
<circle class="st2" cx="-864.9" cy="-277.7" r="31.4"/>
<g>
	<path class="st1" d="M-870-273.3h-1.7v-7.2h4v1.4h-2.3v1.4h2.1v1.4h-2.1V-273.3z"/>
	<path class="st1" d="M-866.9-280.6h1.5v1.3h-1.5V-280.6z M-865.4-273.3h-1.5v-5.4h1.5V-273.3z"/>
	<path class="st1" d="M-862.9-273.3h-1.5v-7.2h1.5V-273.3z"/>
	<path class="st1" d="M-860.5-275.8v0.8c0,0.2,0,0.4,0.1,0.5c0.1,0.1,0.2,0.2,0.4,0.2s0.3-0.1,0.4-0.2s0.1-0.3,0.1-0.5v-0.3h1.4v0.4
		c0,0.3-0.1,0.6-0.2,0.8c-0.1,0.2-0.3,0.4-0.5,0.5c-0.2,0.1-0.4,0.2-0.6,0.3c-0.2,0.1-0.5,0.1-0.7,0.1c-0.2,0-0.5,0-0.7-0.1
		c-0.2-0.1-0.4-0.2-0.6-0.3c-0.2-0.1-0.3-0.3-0.5-0.5s-0.2-0.5-0.2-0.8v-2.2c0-0.3,0.1-0.6,0.2-0.8s0.3-0.4,0.5-0.5
		c0.2-0.1,0.4-0.2,0.6-0.3c0.2-0.1,0.5-0.1,0.7-0.1c0.2,0,0.5,0,0.7,0.1c0.2,0.1,0.4,0.2,0.6,0.3c0.2,0.1,0.3,0.3,0.5,0.5
		c0.1,0.2,0.2,0.5,0.2,0.8v1.3H-860.5z M-859.5-276.8v-0.2c0-0.3,0-0.5-0.1-0.6c-0.1-0.1-0.2-0.2-0.4-0.2c-0.2,0-0.3,0.1-0.4,0.2
		s-0.1,0.3-0.1,0.6v0.2H-859.5z"/>
</g>
<path class="st3" d="M-850.5-259.2h-28.4l7.2,12.1c2.2,0.5,4.4,0.8,6.8,0.8c12.3,0,22.8-7.1,28-17.5l-13.5-22.9V-259.2z"/>
<path class="st1" d="M-859.4-296.1h-20v36v0.9h0.5h28.4v-27.5v-0.5l-0.8-0.8L-859.4-296.1z M-858.6-291.8l4.2,4.2h-4.2V-291.8z
	 M-853-261.7h-23.9v-31.9h15.7v8.5h8.2V-261.7z"/>
<circle class="st2" cx="-864.9" cy="102.3" r="31.4"/>
<polygon class="st0" points="-850.5,92.8 -850.5,92.6 -859.4,83.8 -879.4,83.8 -879.4,120.6 -879.3,120.7 -850.5,120.7 "/>
<path class="st3" d="M-850.5,120.7h-28.8l7.2,12c2.3,0.5,4.7,0.9,7.2,0.9c12.5,0,23.2-7.4,28.2-17.9l-13.8-22.9V120.7z"/>
<path class="st1" d="M-879.4,83.8v36.9h28.9v-28l-8.9-8.9H-879.4z M-853,118.2h-23.9V86.3h15.7v8.5h8.2V118.2z M-858.6,88.1l4.2,4.2
	h-4.2V88.1z"/>
<rect x="-872.9" y="96.8" class="st1" width="8.6" height="2.5"/>
<rect x="-872.9" y="103.2" class="st1" width="16" height="2.5"/>
<rect x="-872.9" y="109.6" class="st1" width="16" height="2.5"/>
<polygon class="st1" points="-728.3,27.6 -728.2,27.5 -728.3,27.4 "/>
<circle class="st2" cx="-709.1" cy="7.3" r="31.4"/>
<polygon class="st0" points="-696.7,-0.1 -696.8,-0.2 -696.7,0 "/>
<path class="st3" d="M-692.4,24L-692.4,24l-2.5,0v-2.7l-7.5-1.7v5.6h-16.6l8,13.2c0.7,0,1.4,0.2,2.1,0.2c8,0,15.2-3.1,20.7-8
	c4.9-4.3,8.4-10.1,9.9-16.6l-14-23.4V24z"/>
<path class="st1" d="M-694.9-6.7l-30.8,7.3v13.6l5.9,1.3V24v1.3h0.8h16.6v-5.6l7.5,1.7V24h2.5v0V-9.4h-2.5V-6.7z M-705,22.7h-12.4
	v-6.5L-705,19V22.7z M-694.9,18.7l-28.3-6.4V2.6l28.3-6.7V18.7z"/>
<circle class="st2" cx="-787" cy="7.3" r="31.4"/>
<path class="st3" d="M-772.6,22.5c1.2-1.2,1.2-3.2,0-4.4c-0.6-0.6-1.4-0.9-2.2-0.9s-1.6,0.3-2.2,0.9c-1.2,1.2-1.2,3.2,0,4.4
	S-773.8,23.7-772.6,22.5z"/>
<path class="st3" d="M-782,7.8l-1.5-1.6l-1.8,1.7l7.6,7.6c2.2-1.3,5-1.2,6.9,0.7c2.2,2.2,2.2,5.8,0,8c-1.1,1.1-2.5,1.6-4,1.6
	s-2.9-0.5-4-1.6c-1.9-1.9-2-4.7-0.7-6.9l-7.7-7.7l-14.8,14.1l0.5,0.5l-1.2,0.2l-0.1,0.1l-0.1-0.1l-2.9,0.5l6.6,11.1
	c3.7,1.6,7.9,2.5,12.2,2.5c15,0,27.4-10.5,30.6-24.5l-9.9-16.8L-782,7.8z"/>
<path class="st1" d="M-775.5-12.4l-11.2,15.2l1.5,1.6l-1.9,1.8l-5.1-5.1c2.1-2.9,1.9-6.9-0.7-9.6c-2.4-2.4-6.1-2.9-9-1.3l1.2,2.2
	c1.9-1.1,4.4-0.7,6,0.8c2,2,1.9,5.1,0,7.1c-2,2-5.1,1.9-7.1,0c-1.1-1.1-1.7-2.7-1.4-4.3l-2.5-0.4c-0.4,2.4,0.4,4.8,2.1,6.5
	c1.5,1.5,3.4,2.2,5.3,2.2c1.5,0,3-0.6,4.3-1.5l5.1,5.1L-803.7,22l-1-1l-1.1,3.9l0,0.1l0.1,0l2.9-0.5l0.1,0.1l0.1-0.1l1.2-0.2
	l-0.5-0.5l14.8-14.1l7.7,7.7c-1.3,2.2-1.2,5,0.7,6.9c1.1,1.1,2.5,1.6,4,1.6s2.9-0.5,4-1.6c2.2-2.2,2.2-5.8,0-8
	c-1.9-1.9-4.7-2.1-6.9-0.7l-7.6-7.6l1.8-1.7l1.5,1.6l15.6-10.4l0.1-0.1l-0.4-0.4L-775.5-12.4z M-777,18.1c0.6-0.6,1.4-0.9,2.2-0.9
	s1.6,0.3,2.2,0.9c1.2,1.2,1.2,3.2,0,4.4c-1.2,1.2-3.2,1.2-4.4,0S-778.2,19.3-777,18.1z M-781.6,4.5l-1.9-2l8.2-11.1l5.2,5.4
	L-781.6,4.5z"/>
<circle class="st2" cx="-864.9" cy="7.3" r="31.4"/>
<path class="st3" d="M-848,8c-0.3,0.4-7.6,8.8-16.9,8.8s-16.6-8.5-16.9-8.8l-0.3-0.3l17.7,30.9c11.1-0.2,20.7-6.1,26.1-15l-9.3-16.2
	L-848,8z"/>
<path class="st1" d="M-848,6.6c-0.3-0.4-7.6-8.8-16.9-8.8s-16.6,8.5-16.9,8.8l-0.5,0.6l-0.1,0.1l0.3,0.4l0.3,0.3
	c0.3,0.4,7.6,8.8,16.9,8.8S-848.4,8.4-848,8l0.5-0.6l0.1-0.1L-848,6.6L-848,6.6z M-879.4,7.3c1.3-1.3,4.5-4.1,8.4-5.9
	c-1.5,1.5-2.4,3.6-2.4,5.9s0.9,4.3,2.4,5.9C-875,11.4-878.1,8.6-879.4,7.3z M-864.9,13.6c-3.5,0-6.3-2.8-6.3-6.3s2.8-6.3,6.3-6.3
	s6.3,2.8,6.3,6.3S-861.5,13.6-864.9,13.6z M-858.8,13.1c1.5-1.5,2.4-3.6,2.4-5.9s-0.9-4.3-2.4-5.9c3.9,1.7,7.1,4.5,8.4,5.9
	C-851.7,8.6-854.9,11.4-858.8,13.1z"/>
<polygon class="st1" points="-844.3,6.5 -844.2,6.4 -844.6,6 "/>
<circle class="st2" cx="-864.9" cy="-87.7" r="31.4"/>
<path class="st0" d="M-864.9-76.4c8.7,0,15.8-5.6,15.8-12.6c0-0.8-0.1-1.6-0.3-2.4l-0.3-0.4l0.3,0.4c-1.4-5.8-7.8-10.2-15.4-10.2
	c-8.7,0-15.7,5.6-15.7,12.6c0,3.4,1.8,6.7,4.9,9l-3.1,7l0,0.1l9.9-4C-867.5-76.5-866.2-76.4-864.9-76.4z"/>
<polygon class="st0" points="-879,-72.8 -878.9,-72.8 -878.9,-72.9 "/>
<path class="st3" d="M-849.2-88.9c0,6.9-7.1,12.6-15.8,12.6c-1.3,0-2.6-0.2-4-0.5l-9.9,4l9.4,16.1c1.5,0.2,3,0.5,4.5,0.5
	c11.5,0,21.4-6.2,26.9-15.4l-11.4-19.6C-849.3-90.5-849.2-89.8-849.2-88.9z"/>
<path class="st1" d="M-864.9-101.5c-8.7,0-15.7,5.6-15.7,12.6c0,3.4,1.8,6.7,4.9,9l-3.2,7.1l10-4.1c1.5,0.3,2.8,0.5,4,0.5
	c8.7,0,15.8-5.6,15.8-12.6S-856.2-101.5-864.9-101.5z M-864.9-78.9c-1.2,0-2.4-0.2-3.9-0.5l-0.4-0.1l-5,2l1.5-3.4l-0.9-0.6
	c-2.9-1.9-4.6-4.7-4.6-7.5c0-5.5,5.9-10.1,13.2-10.1s13.2,4.5,13.2,10.1C-851.7-83.4-857.6-78.9-864.9-78.9z"/>
<circle class="st2" cx="-787" cy="-87.7" r="31.4"/>
<path class="st3" d="M-769.3-71.4l-1.6,1.6l-15.6-15.6c-2.1,1.6-4.5,2.6-7,2.6c-2.9,0-5.8-1.1-8.1-3.3c-0.8-0.8-1.2-1.7-1.7-2.6
	l18.3,32.1c7.5-0.5,14.3-3.5,19.4-8.4L-769.3-71.4z"/>
<path class="st1" d="M-769.8-72.2l-14.9-14.9c1.6-2,2.5-4.3,2.6-6.8c0.1-3-1-6-3.3-8.3c-4.5-4.5-11.7-4.5-16.1,0
	c-3.3,3.3-4.1,8-2.6,12.1l0.9,1.5c0.5,0.9,0.9,1.8,1.7,2.6c2.2,2.2,5.1,3.3,8.1,3.3c2.5,0,4.9-1,7-2.6l15.6,15.6l1.6-1.6l0.2-0.2
	L-769.8-72.2z M-787.2-87.9c-3.5,3.5-9.1,3.5-12.6,0c-3.5-3.5-3.5-9.1,0-12.6c1.7-1.7,4-2.6,6.3-2.6c2.3,0,4.6,0.9,6.3,2.6
	C-783.7-97-783.7-91.3-787.2-87.9z"/>
<circle class="st2" cx="-864.9" cy="-372.6" r="31.4"/>
<path class="st3" d="M-846-361h-37.6l10.7,18.6c2.6,0.7,5.2,1.2,8,1.2c9.7,0,18.2-4.5,24-11.4l-5-8.8V-361z"/>
<path class="st1" d="M-848.1-363.5c0.1-0.4,0.1-0.9,0.2-1.3c0.2-1.9,0.2-3.9-0.8-4.8c-0.6-0.6-2.2-1.5-3.2-2.1
	c-0.1-0.1-0.3-0.2-0.4-0.2l-0.5-1.4l-5.6-14.3h-2.7c0.1-0.4,0.3-0.8,0.3-1.3c0-2.3-1.8-4.1-4.1-4.1c-2.3,0-4.1,1.8-4.1,4.1
	c0,0.5,0.2,0.9,0.4,1.3h-2.8l-6.2,15.7c-1,0.6-3,1.7-3.6,2.3c-1.1,1.1-1,3.9-0.6,6.1h-2.1v2v0.5h0.3h37.6v-0.4v-2.1h-1.2H-848.1z
	 M-864.9-390.6c0.9,0,1.6,0.7,1.6,1.6c0,0.5-0.3,1-0.7,1.3h-1.7c-0.5-0.3-0.8-0.8-0.8-1.3C-866.5-389.9-865.8-390.6-864.9-390.6z
	 M-850.6-363.5h-28.6c-0.3-2-0.4-3.9-0.2-4.4c0.3-0.3,2-1.4,3.4-2.1l0.4-0.2l5.9-15h9.5l5.9,15l0.4,0.2c1.4,0.8,3.1,1.8,3.4,2.1
	C-850.2-367.4-850.3-365.5-850.6-363.5z"/>
<circle class="st2" cx="-709.1" cy="-87.7" r="31.4"/>
<path class="st3" d="M-693.1-75.5h-31.7l10.7,18.7c1.6,0.3,3.3,0.5,5,0.5c8.6,0,16.4-3.5,22-9.1l-6-10.5V-75.5z"/>
<path class="st1" d="M-699.2-94.2c0-5.4-4.4-9.9-9.9-10c-5.4,0.1-9.9,4.6-9.9,10c0,1.3,0.3,2.5,0.9,3.8l-7,5.6v8.8v0.4h0.3h31.7
	v-0.4v-8.9l-7-5.6C-699.4-91.7-699.2-93-699.2-94.2z M-695.6-83.6v5.5h-27v-5.5l7.7-6.1l-0.5-0.9c-0.7-1.3-1.1-2.4-1.1-3.6
	c0-4.1,3.3-7.4,7.3-7.5c4.2,0.1,7.4,3.4,7.4,7.5c0,1.1-0.3,2.3-1.1,3.6l-0.5,0.9L-695.6-83.6z"/>
<circle class="st2" cx="-709.1" cy="-182.7" r="31.4"/>
<path class="st3" d="M-694.9-179.9l-14.1-14.9l-14.1,14.9l-1.6-1.6l4.2,7.1l11.5-12.2l15.9,16.8l-1.8,1.7l-14.1-14.9l-10.2,10.7
	l-3.9,4.1l-1.3-1.2l10.2,17.3c1.7,0.3,3.4,0.5,5.2,0.5c0.6,0,1.3-0.2,1.9-0.2c9.8-0.6,18.4-5.6,23.8-13.2l-9.9-16.8L-694.9-179.9z"
	/>
<polygon class="st1" points="-709.1,-198.4 -724.9,-181.7 -725,-181.6 -724.8,-181.4 -723.2,-179.9 -709.1,-194.7 -694.9,-179.9 
	-693.3,-181.5 -693.1,-181.6 -693.8,-182.3 "/>
<polygon class="st1" points="-720.6,-174.3 -724.8,-169.8 -725,-169.7 -724.4,-169.1 -723.2,-167.9 -719.3,-172 -709.1,-182.8 
	-694.9,-167.9 -693.1,-169.7 -709.1,-186.4 "/>
<circle class="st2" cx="-709.1" cy="102.3" r="31.4"/>
<path class="st3" d="M-687.4,90.4l-0.1,2.2c-0.8,2.3-2.5,3.6-3.9,4.6c-0.7,0.4-1.3,1-1.9,1.4c-1.5,1.2-1.9,2.4-1.4,3.9
	c0.3,0.9,0.8,1.8,1.5,2.5c2.5,2.8,2.5,5.7,0,8.3c-1.2,1.2-2.7,2.4-4.3,3.5c-5.9,3.9-11.5,5.7-17.2,5.7c-0.8,0-1.5,0-2.3-0.1
	c-3.9-0.3-6.9-1.7-9.3-4l8,13.6c2.9,0.9,6,1.5,9.2,1.5c16,0,29.1-12.1,31-27.6l-9.3-15.9L-687.4,90.4z"/>
<path class="st1" d="M-687.5,89.9c-0.3-0.5-0.6-0.9-0.9-1.4c-2.2-3.3-5.5-5.4-10.1-6.2c-7-1.2-13.7,0.6-20.4,5.5
	c-5.1,3.7-8.7,8.3-10.5,13.7c-1.3,3.8-1.6,7.1-0.8,10.3c0.3,1,0.6,2,1.1,2.9c0.8,1.5,1.8,2.8,2.9,3.9c2.3,2.2,5.4,3.6,9.3,4
	c0.8,0.1,1.5,0.1,2.3,0.1c5.7,0,11.3-1.9,17.2-5.7c1.6-1.1,3.1-2.3,4.3-3.5c2.6-2.6,2.6-5.5,0-8.3c-0.7-0.8-1.2-1.7-1.5-2.5
	c-0.5-1.5-0.1-2.8,1.4-3.9c0.6-0.5,1.3-1,1.9-1.4c1.4-0.9,3.1-2.3,3.9-4.6l0.1-2.2l0-0.2L-687.5,89.9z M-689.6,92
	c-0.5,1.2-1.4,2.3-3,3.3c-0.7,0.5-1.4,1-2.3,1.7c-2,1.6-2.7,3.7-1.9,6.1c0.4,1.2,1.1,2.3,2,3.4c1.7,2,1.7,3.5,0,5.3
	c-1.1,1.1-2.5,2.2-4,3.2c-6.3,4.1-12,5.8-18,5.3c-5-0.5-8.4-2.6-10.4-6.6c-1.7-3.4-1.8-7.2-0.2-11.5c1.8-5,5-9.1,9.8-12.6
	c5-3.6,9.9-5.4,15-5.4c1.2,0,2.5,0.1,3.7,0.3c4.5,0.8,7.6,2.8,9.4,6.1V92z"/>
<path class="st1" d="M-722.7,104c-2.4,0-4.4,2-4.4,4.4c0,2.4,2,4.4,4.4,4.4c2.4,0,4.4-2,4.4-4.4C-718.4,105.9-720.3,104-722.7,104z
	 M-722.7,110.5c-1.2,0-2.1-1-2.1-2.1s1-2.1,2.1-2.1c1.2,0,2.1,1,2.1,2.1S-721.6,110.5-722.7,110.5z"/>
<path class="st1" d="M-719.1,94.2c-2.4,0-4.4,2-4.4,4.4c0,2.4,2,4.3,4.4,4.3c2.4,0,4.4-2,4.4-4.3C-714.7,96.1-716.7,94.2-719.1,94.2
	z M-719.1,100.7c-1.2,0-2.1-1-2.1-2.1s1-2.1,2.1-2.1c1.2,0,2.1,1,2.1,2.1S-717.9,100.7-719.1,100.7z"/>
<path class="st1" d="M-711.1,87.4c-2.4,0-4.3,2-4.3,4.3c0,2.4,2,4.4,4.3,4.4c2.4,0,4.4-2,4.4-4.4C-706.7,89.3-708.6,87.4-711.1,87.4
	z M-711.1,93.9c-1.2,0-2.1-1-2.1-2.1c0-1.2,1-2.1,2.1-2.1c1.2,0,2.1,1,2.1,2.1C-708.9,92.9-709.9,93.9-711.1,93.9z"/>
<circle class="st2" cx="-787" cy="-372.6" r="31.4"/>
<path class="st3" d="M-785.6-387.9l21.5,36.5c0.5-0.5,0.9-1.1,1.4-1.7l-22.9-38.9V-387.9z"/>
<path class="st3" d="M-785.6-357.7h-2.8l9.1,15.4c5-1.3,9.4-3.7,13.1-7l-19.3-32.8V-357.7z"/>
<polygon class="st1" points="-788.4,-392.1 -788.4,-387.8 -785.6,-387.8 -785.6,-387.9 -785.6,-391.9 -785.6,-392.1 -785.7,-392.1 
	"/>
<polygon class="st1" points="-788.4,-382.5 -788.4,-357.7 -785.6,-357.7 -785.6,-382.1 -785.6,-382.5 -785.8,-382.5 "/>
<circle class="st2" cx="-864.9" cy="-182.7" r="31.4"/>
<path class="st3" d="M-856.7-178.1l-8.2,8.6l-14.3-15.1l10.8,18.4h18.7h1.6v2.5h-0.1h-18.7h-14.6l6.2,10.5c3.3,1.2,6.7,1.9,10.4,1.9
	c1.7,0,3.4-0.2,5-0.5c5.6-0.9,10.6-3.3,14.8-6.7c2.5-2,4.7-4.4,6.5-7.1l-11.5-19.5L-856.7-178.1z"/>
<polygon class="st1" points="-864.9,-169.5 -856.7,-178.1 -850.1,-185.1 -850,-185.3 -850.5,-185.8 -851.8,-187 -858.1,-180.4 
	-863.7,-174.5 -863.7,-200.4 -866.2,-200.4 -866.2,-174.5 -878,-187 -879.7,-185.4 -879.9,-185.3 -879.2,-184.6 "/>
<polygon class="st1" points="-868.4,-166.2 -881.7,-166.2 -881.7,-164.1 -881.7,-163.7 -881.5,-163.7 -866.9,-163.7 -848.3,-163.7 
	-848.1,-163.7 -848.1,-166.2 -849.7,-166.2 "/>
<circle class="st2" cx="-709.1" cy="-372.6" r="31.4"/>
<path class="st3" d="M-707.9-354.2h-2.5l7.3,12.4c1.2-0.2,2.4-0.7,3.6-1l-8.4-14.3V-354.2z"/>
<path class="st3" d="M-697.9-381.8c0,1.6-0.3,3-0.9,4.2c-0.6,1.2-1.6,2.5-2.9,3.7l-1.3,1.2c-3.3,3-5,5.6-5,7.9l0,2.6h-0.1l10.9,18.6
	c6.4-2.6,11.7-7.4,15.1-13.3l-16.5-27.9C-698.2-383.9-697.9-382.9-697.9-381.8z"/>
<path class="st1" d="M-700.2-387.7c-0.2-0.3-0.3-0.6-0.6-0.9c-1.9-1.7-4.5-2.5-7.7-2.5c-3.6,0-6.5,1-8.4,2.9c-1.9,1.9-3,4.8-3.3,8.2
	l3.2,0.2c0.1-2.9,0.8-5.1,2.2-6.6c1.4-1.5,3.5-2.2,6.2-2.2c2.3,0,4.2,0.6,5.5,1.9c1.3,1.2,2,3,2,5.2c0,2.1-1.4,4.5-4.2,7.2l-1.8,1.8
	c-1.4,1.5-2.4,2.7-2.9,3.7c-0.3,0.7-0.4,1.7-0.5,2.6c0,0.4-0.2,0.6-0.2,1l0,3h2.5h0.1l0-2.6c0-2.3,1.7-4.9,5-7.9l1.3-1.2
	c1.3-1.2,2.3-2.5,2.9-3.7c0.6-1.2,0.9-2.7,0.9-4.2c0-1.2-0.3-2.2-0.6-3.1C-698.9-385.9-699.4-386.9-700.2-387.7z"/>
<polygon class="st1" points="-710.6,-357.5 -710.6,-354.6 -710.6,-354.2 -710.4,-354.2 -707.9,-354.2 -707.9,-357.2 -707.9,-357.5 
	-708.1,-357.5 "/>
<circle class="st2" cx="-787" cy="-182.7" r="31.4"/>
<path class="st3" d="M-787-178.9l-15.7-16.5l12.9,21.9l2.8,3l14.1-14.9l1.8,1.7l-15.3,16.1l-0.7,0.7l-15.5-16.3l18.6,31.6
	c2.1-0.2,4.2-0.6,6.2-1.3c9.4-3,16.9-10.2,20.1-19.4l-13.7-23.2L-787-178.9z"/>
<polygon class="st1" points="-787,-170.6 -789.8,-173.6 -801.1,-185.5 -802.8,-183.9 -802.9,-183.7 -802.4,-183.2 -787,-167 
	-786.3,-167.7 -771,-183.7 -772.9,-185.5 "/>
<polygon class="st1" points="-772.9,-197.4 -787,-182.6 -801.1,-197.4 -802.9,-195.7 -802.9,-195.7 -802.7,-195.5 -787,-178.9 
	-771.2,-195.6 -771,-195.7 -771.5,-196.2 "/>
<circle class="st2" cx="-787" cy="102.3" r="31.4"/>
<path class="st3" d="M-767.1,98.5c1.1,7.4,2.2,14.4-0.5,17.4c-0.9,1-2.1,1.6-3.7,1.6c-1.8,0-3.4-1.7-5.2-3.7c-1.4-1.5-3-3.2-4.3-3.5
	c-1.9-0.4-4.5-0.7-6.3-0.9c-1.6,0.1-4.2,0.4-6.1,0.9c-1.3,0.3-2.9,2-4.3,3.6c-1.8,2-3.4,3.7-5.2,3.7c-1.3,0-2.4-0.5-3.2-1.3
	l8.9,15.6c3.2,1.1,6.5,1.8,10,1.8c13.7,0,25.3-8.9,29.5-21.2l-10.9-19C-767.8,94.9-767.4,96.6-767.1,98.5z"/>
<path class="st1" d="M-768.3,93.5l-2.1-3.7c-1.6-1.8-3.6-2.7-6.1-2.7c-0.1,0-0.2,0-0.4,0c-2.6,0.1-4.6,1.6-5.4,2.3h-9.3
	c-0.8-0.7-2.8-2.2-5.4-2.3c-0.1,0-0.2,0-0.4,0c-5.2,0-8.3,3.7-9.5,11.4c-0.9,6.1-1.7,11.8-0.5,15.4c0.3,0.7,0.5,1.5,0.9,2.1
	c0.1,0.1,0.3,0.2,0.4,0.3c0.9,0.8,1.9,1.3,3.2,1.3c1.8,0,3.4-1.7,5.2-3.7c1.4-1.5,3-3.2,4.3-3.6c1.9-0.4,4.5-0.7,6.1-0.9
	c1.8,0.1,4.4,0.4,6.3,0.9c1.3,0.3,2.9,2,4.3,3.5c1.8,2,3.4,3.7,5.2,3.7c1.5,0,2.8-0.5,3.7-1.6c2.7-3.1,1.6-10.1,0.5-17.4
	C-767.4,96.6-767.8,94.9-768.3,93.5z M-769.5,114.3c-0.3,0.3-0.7,0.7-1.8,0.7c-0.7,0-2.3-1.7-3.4-2.9c-1.7-1.9-3.5-3.8-5.6-4.3
	c-2.1-0.5-4.8-0.8-6.8-0.9c-1.9,0.2-4.6,0.4-6.6,0.9c-2.1,0.5-3.9,2.4-5.6,4.3c-1.1,1.2-2.7,2.9-3.4,2.9c-1,0-1.5-0.4-1.8-0.7
	c-1.9-2.2-0.8-9.5,0.1-15.4c1.4-9.5,5.5-9.3,7.3-9.3c2.3,0.1,4.1,1.9,4.1,1.9l0.4,0.4l11.4,0l0.4-0.4c0,0,1.8-1.8,4.1-1.9
	c1.7-0.1,5.8-0.2,7.3,9.3C-768.7,104.7-767.6,112.1-769.5,114.3z"/>
<circle class="st2" cx="-709.1" cy="-277.7" r="31.4"/>
<path class="st3" d="M-691.6-282l-3.3,2.8v3.3l3.2,2.8l-5,8.4l-4-1.5l-2.9,1.8l-0.8,3.9h-9.8l-0.7-4.1l-2.9-1.7l-3.9,1.4l6.2,10.6
	l4.6,7.8c0.6,0,1.1,0.2,1.6,0.2c12.4,0,23-7.3,28.1-17.7l-7.7-13.1L-691.6-282z"/>
<path class="st1" d="M-709-287.5C-709-287.5-709.1-287.5-709-287.5c-2.6,0-5,1-6.9,2.9c-1.9,1.9-2.9,4.3-2.9,6.9
	c0,5.4,4.4,9.8,9.8,9.8c0,0,0,0,0,0c2.6,0,5.1-1,7-2.9c1.9-1.9,2.9-4.3,2.9-6.9C-699.2-283-703.7-287.5-709-287.5z M-703.7-272.4
	c-1.5,1.5-3.4,2.3-5.4,2.3c0,0,0,0,0,0c-4.2,0-7.6-3.4-7.6-7.6c0-2,0.8-3.9,2.3-5.4c1.4-1.4,3.3-2.2,5.3-2.2c0,0,0,0,0,0
	c4.1,0,7.6,3.5,7.6,7.6C-701.4-275.7-702.2-273.8-703.7-272.4z"/>
<path class="st1" d="M-696.5-290.5l-3.9,1.4l-2.9-1.7l-0.7-4.1h-9.8l-0.8,4l-2.9,1.7l-4-1.5l-4.9,8.5l3.2,2.8v3.3l-3.3,2.8v0l0,0
	l4.9,8.5l0.1,0l3.9-1.4l2.9,1.7l0.7,4.1h9.8l0.8-3.9l2.9-1.8l4,1.5l5-8.4l-3.2-2.8v-3.3l3.3-2.8v0l0,0L-696.5-290.5L-696.5-290.5z
	 M-697.1-280.3v5.3l2.6,2.3l-3.1,5.3l-3.2-1.2l-4.6,2.6l-0.7,3.3h-6.1l-0.6-3.3l-4.7-2.7l-3.2,1.2l-3.1-5.3l2.7-2.3v-5.3l-2.6-2.3
	l3.1-5.3l3.2,1.2l4.7-2.7l0.6-3.2h6.2l0.6,3.3l4.6,2.7l3.2-1.2l3.1,5.3L-697.1-280.3z"/>
<circle class="st4" cx="-579.3" cy="-277.7" r="31.4"/>
<g>
	<g>
		<path class="st1" d="M-584.2-274.7h2.1v1.4h-3.8v-7.2h1.7V-274.7z"/>
		<path class="st1" d="M-579.5-278.8c0.3,0,0.5,0,0.8,0.1c0.2,0.1,0.5,0.2,0.6,0.3c0.2,0.2,0.3,0.4,0.4,0.6c0.1,0.3,0.1,0.6,0.1,1
			v1.6c0,0.4,0,0.7-0.1,1c-0.1,0.3-0.2,0.5-0.4,0.6c-0.2,0.2-0.4,0.3-0.6,0.4c-0.2,0.1-0.5,0.1-0.8,0.1c-0.3,0-0.6,0-0.8-0.1
			c-0.2-0.1-0.5-0.2-0.6-0.3s-0.3-0.4-0.4-0.6c-0.1-0.3-0.2-0.6-0.2-1v-1.6c0-0.4,0-0.7,0.2-1c0.1-0.3,0.2-0.5,0.4-0.6
			c0.2-0.2,0.4-0.3,0.6-0.3C-580-278.8-579.7-278.8-579.5-278.8z M-579.5-277.6c-0.2,0-0.3,0.1-0.3,0.2s-0.1,0.2-0.1,0.4v2.2
			c0,0.2,0,0.3,0.1,0.4c0.1,0.1,0.2,0.1,0.3,0.1c0.1,0,0.2,0,0.3-0.1c0.1-0.1,0.1-0.2,0.1-0.4v-2.2
			C-579-277.4-579.2-277.6-579.5-277.6z"/>
		<path class="st1" d="M-572.7-278.7v5.5c0,0.3-0.1,0.6-0.2,0.9c-0.1,0.2-0.2,0.4-0.4,0.5c-0.2,0.1-0.4,0.2-0.6,0.3
			s-0.5,0.1-0.7,0.1c-0.7,0-1.2-0.1-1.5-0.4c-0.4-0.2-0.5-0.7-0.5-1.2h1.5v0.1c0,0.3,0.2,0.5,0.5,0.5c0.2,0,0.3,0,0.3-0.1
			c0.1-0.1,0.1-0.2,0.1-0.4v-1c-0.1,0.2-0.3,0.3-0.5,0.4c-0.2,0.1-0.4,0.2-0.7,0.2c-0.2,0-0.3,0-0.5-0.1c-0.2-0.1-0.3-0.1-0.4-0.3
			c-0.1-0.1-0.2-0.3-0.3-0.5c-0.1-0.2-0.1-0.4-0.1-0.7v-2.5c0-0.2,0-0.4,0.1-0.6s0.2-0.3,0.3-0.4c0.1-0.1,0.3-0.2,0.4-0.3
			c0.2-0.1,0.3-0.1,0.5-0.1c0.2,0,0.5,0.1,0.7,0.2c0.2,0.1,0.4,0.3,0.5,0.6v-0.6H-572.7z M-574.2-277c0-0.4-0.2-0.6-0.5-0.6
			c-0.3,0-0.5,0.2-0.5,0.6v1.7c0,0.4,0.2,0.6,0.5,0.6c0.1,0,0.3,0,0.3-0.1c0.1-0.1,0.1-0.2,0.1-0.5V-277z"/>
	</g>
</g>
<path d="M-564.8-259.2h-28.8l7.1,12c2.3,0.5,4.7,0.9,7.2,0.9c12.3,0,22.8-7.1,28-17.4l-13.5-22.9V-259.2z"/>
<path class="st1" d="M-573.7-296.1h-20v36.6v0.3h0.2h28.8v-27.4v-0.6l-0.9-0.9L-573.7-296.1z M-573-291.8l4.2,4.2h-4.2V-291.8z
	 M-567.3-261.7h-23.9v-31.9h15.7v8.5h8.2V-261.7z"/>
<circle class="st4" cx="-500" cy="-277.7" r="31.4"/>
<g>
	<path class="st1" d="M-505.1-273.3h-1.7v-7.2h4v1.4h-2.3v1.4h2.1v1.4h-2.1V-273.3z"/>
	<path class="st1" d="M-502-280.6h1.5v1.3h-1.5V-280.6z M-500.5-273.3h-1.5v-5.4h1.5V-273.3z"/>
	<path class="st1" d="M-497.9-273.3h-1.5v-7.2h1.5V-273.3z"/>
	<path class="st1" d="M-495.6-275.8v0.8c0,0.2,0,0.4,0.1,0.5c0.1,0.1,0.2,0.2,0.4,0.2s0.3-0.1,0.4-0.2s0.1-0.3,0.1-0.5v-0.3h1.4v0.4
		c0,0.3-0.1,0.6-0.2,0.8c-0.1,0.2-0.3,0.4-0.5,0.5c-0.2,0.1-0.4,0.2-0.6,0.3c-0.2,0.1-0.5,0.1-0.7,0.1c-0.2,0-0.5,0-0.7-0.1
		c-0.2-0.1-0.4-0.2-0.6-0.3c-0.2-0.1-0.3-0.3-0.5-0.5s-0.2-0.5-0.2-0.8v-2.2c0-0.3,0.1-0.6,0.2-0.8s0.3-0.4,0.5-0.5
		c0.2-0.1,0.4-0.2,0.6-0.3c0.2-0.1,0.5-0.1,0.7-0.1c0.2,0,0.5,0,0.7,0.1c0.2,0.1,0.4,0.2,0.6,0.3c0.2,0.1,0.3,0.3,0.5,0.5
		c0.1,0.2,0.2,0.5,0.2,0.8v1.3H-495.6z M-494.6-276.8v-0.2c0-0.3,0-0.5-0.1-0.6c-0.1-0.1-0.2-0.2-0.4-0.2c-0.2,0-0.3,0.1-0.4,0.2
		s-0.1,0.3-0.1,0.6v0.2H-494.6z"/>
</g>
<path d="M-485.5-259.2h-28.4l7.2,12.1c2.2,0.5,4.4,0.8,6.8,0.8c12.3,0,22.8-7.1,28-17.5l-13.5-22.9V-259.2z"/>
<path class="st1" d="M-494.4-296.1h-20v36v0.9h0.5h28.4v-27.5v-0.5l-0.8-0.8L-494.4-296.1z M-493.7-291.8l4.2,4.2h-4.2V-291.8z
	 M-488-261.7h-23.9v-31.9h15.7v8.5h8.2V-261.7z"/>
<circle class="st4" cx="-579.3" cy="102.3" r="31.4"/>
<polygon class="st0" points="-564.8,92.8 -564.9,92.6 -573.7,83.8 -593.8,83.8 -593.8,120.6 -593.7,120.7 -564.8,120.7 "/>
<path d="M-564.8,120.7h-28.8l7.2,12c2.3,0.5,4.7,0.9,7.2,0.9c12.5,0,23.2-7.4,28.2-17.9l-13.8-22.9V120.7z"/>
<path class="st1" d="M-593.8,83.8v36.9h28.9v-28l-8.9-8.9H-593.8z M-567.3,118.2h-23.9V86.3h15.7v8.5h8.2V118.2z M-573,88.1l4.2,4.2
	h-4.2V88.1z"/>
<rect x="-587.3" y="96.8" class="st1" width="8.6" height="2.5"/>
<rect x="-587.3" y="103.2" class="st1" width="16" height="2.5"/>
<rect x="-587.3" y="109.6" class="st1" width="16" height="2.5"/>
<polygon class="st1" points="-483.5,-24 -483.4,-24 -483.4,-24.1 "/>
<circle class="st4" cx="-420.7" cy="7.3" r="31.4"/>
<polygon class="st0" points="-408.4,-0.1 -408.5,-0.2 -408.4,0 "/>
<path d="M-404,24L-404,24l-2.5,0v-2.7l-7.5-1.7v5.6h-16.6l8,13.2c0.7,0,1.4,0.2,2.1,0.2c8,0,15.2-3.1,20.7-8
	c4.9-4.3,8.4-10.1,9.9-16.6l-14-23.4V24z"/>
<path class="st1" d="M-406.6-6.7l-30.8,7.3v13.6l5.9,1.3V24v1.3h0.8h16.6v-5.6l7.5,1.7V24h2.5v0V-9.4h-2.5V-6.7z M-416.6,22.7H-429
	v-6.5l12.4,2.8V22.7z M-406.6,18.7l-28.3-6.4V2.6l28.3-6.7V18.7z"/>
<circle class="st4" cx="-500" cy="7.3" r="31.4"/>
<path d="M-485.6,22.5c1.2-1.2,1.2-3.2,0-4.4c-0.6-0.6-1.4-0.9-2.2-0.9c-0.8,0-1.6,0.3-2.2,0.9c-1.2,1.2-1.2,3.2,0,4.4
	S-486.8,23.7-485.6,22.5z"/>
<path d="M-495,7.8l-1.5-1.6l-1.8,1.7l7.6,7.6c2.2-1.3,5-1.2,6.9,0.7c2.2,2.2,2.2,5.8,0,8c-1.1,1.1-2.5,1.6-4,1.6s-2.9-0.5-4-1.6
	c-1.9-1.9-2-4.7-0.7-6.9l-7.7-7.7l-14.8,14.1l0.5,0.5l-1.2,0.2l-0.1,0.1l-0.1-0.1l-2.9,0.5l6.6,11.1c3.7,1.6,7.9,2.5,12.2,2.5
	c15,0,27.4-10.5,30.6-24.5l-9.9-16.8L-495,7.8z"/>
<path class="st1" d="M-488.5-12.4l-11.2,15.2l1.5,1.6l-1.9,1.8l-5.1-5.1c2.1-2.9,1.9-6.9-0.7-9.6c-2.4-2.4-6.1-2.9-9-1.3l1.2,2.2
	c1.9-1.1,4.4-0.7,6,0.8c2,2,1.9,5.1,0,7.1c-2,2-5.1,1.9-7.1,0c-1.1-1.1-1.7-2.7-1.4-4.3l-2.5-0.4c-0.4,2.4,0.4,4.8,2.1,6.5
	c1.5,1.5,3.4,2.2,5.3,2.2c1.5,0,3-0.6,4.3-1.5l5.1,5.1L-516.7,22l-1-1l-1.1,3.9l0,0.1l0.1,0l2.9-0.5l0.1,0.1l0.1-0.1l1.2-0.2
	l-0.5-0.5l14.8-14.1l7.7,7.7c-1.3,2.2-1.2,5,0.7,6.9c1.1,1.1,2.5,1.6,4,1.6s2.9-0.5,4-1.6c2.2-2.2,2.2-5.8,0-8
	c-1.9-1.9-4.7-2.1-6.9-0.7l-7.6-7.6l1.8-1.7l1.5,1.6l15.6-10.4l0.1-0.1l-0.4-0.4L-488.5-12.4z M-490,18.1c0.6-0.6,1.4-0.9,2.2-0.9
	c0.8,0,1.6,0.3,2.2,0.9c1.2,1.2,1.2,3.2,0,4.4c-1.2,1.2-3.2,1.2-4.4,0S-491.2,19.3-490,18.1z M-494.6,4.5l-1.9-2l8.2-11.1l5.2,5.4
	L-494.6,4.5z"/>
<circle class="st4" cx="-579.3" cy="7.3" r="31.4"/>
<path d="M-562.4,8c-0.3,0.4-7.6,8.8-16.9,8.8s-16.6-8.5-16.9-8.8l-0.3-0.3l17.7,30.9c11.1-0.2,20.7-6.1,26.1-15l-9.3-16.2L-562.4,8z
	"/>
<path class="st1" d="M-562.4,6.6c-0.3-0.4-7.6-8.8-16.9-8.8s-16.6,8.5-16.9,8.8l-0.5,0.6l-0.1,0.1l0.3,0.4l0.3,0.3
	c0.3,0.4,7.6,8.8,16.9,8.8s16.6-8.5,16.9-8.8l0.5-0.6l0.1-0.1L-562.4,6.6L-562.4,6.6z M-593.8,7.3c1.3-1.3,4.5-4.1,8.4-5.9
	c-1.5,1.5-2.4,3.6-2.4,5.9s0.9,4.3,2.4,5.9C-589.3,11.4-592.5,8.6-593.8,7.3z M-579.3,13.6c-3.5,0-6.3-2.8-6.3-6.3s2.8-6.3,6.3-6.3
	s6.3,2.8,6.3,6.3S-575.8,13.6-579.3,13.6z M-573.2,13.1c1.5-1.5,2.4-3.6,2.4-5.9s-0.9-4.3-2.4-5.9c3.9,1.7,7.1,4.5,8.4,5.9
	C-566.1,8.6-569.2,11.4-573.2,13.1z"/>
<polygon class="st1" points="-558.6,6.5 -558.6,6.4 -558.9,6 "/>
<circle class="st4" cx="-579.3" cy="-87.7" r="31.4"/>
<path class="st0" d="M-579.3-76.4c8.7,0,15.8-5.6,15.8-12.6c0-0.8-0.1-1.6-0.3-2.4l-0.3-0.4l0.3,0.4c-1.4-5.8-7.8-10.2-15.4-10.2
	c-8.7,0-15.7,5.6-15.7,12.6c0,3.4,1.8,6.7,4.9,9l-3.1,7l0,0.1l9.9-4C-581.9-76.5-580.6-76.4-579.3-76.4z"/>
<polygon class="st0" points="-593.3,-72.8 -593.2,-72.8 -593.3,-72.9 "/>
<path d="M-563.5-88.9c0,6.9-7.1,12.6-15.8,12.6c-1.3,0-2.6-0.2-4-0.5l-9.9,4l9.4,16.1c1.5,0.2,3,0.5,4.5,0.5
	c11.5,0,21.4-6.2,26.9-15.4l-11.4-19.6C-563.7-90.5-563.5-89.8-563.5-88.9z"/>
<path class="st1" d="M-579.3-101.5c-8.7,0-15.7,5.6-15.7,12.6c0,3.4,1.8,6.7,4.9,9l-3.2,7.1l10-4.1c1.5,0.3,2.8,0.5,4,0.5
	c8.7,0,15.8-5.6,15.8-12.6S-570.6-101.5-579.3-101.5z M-579.3-78.9c-1.2,0-2.4-0.2-3.9-0.5l-0.4-0.1l-5,2l1.5-3.4l-0.9-0.6
	c-2.9-1.9-4.6-4.7-4.6-7.5c0-5.5,5.9-10.1,13.2-10.1s13.2,4.5,13.2,10.1C-566.1-83.4-572-78.9-579.3-78.9z"/>
<circle class="st4" cx="-500" cy="-87.7" r="31.4"/>
<path d="M-482.3-71.4l-1.6,1.6l-15.6-15.6c-2.1,1.6-4.5,2.6-7,2.6c-2.9,0-5.8-1.1-8.1-3.3c-0.8-0.8-1.2-1.7-1.7-2.6l18.3,32.1
	c7.5-0.5,14.3-3.5,19.4-8.4L-482.3-71.4z"/>
<path class="st1" d="M-482.8-72.2l-14.9-14.9c1.6-2,2.5-4.3,2.6-6.8c0.1-3-1-6-3.3-8.3c-4.5-4.5-11.7-4.5-16.1,0
	c-3.3,3.3-4.1,8-2.6,12.1l0.9,1.5c0.5,0.9,0.9,1.8,1.7,2.6c2.2,2.2,5.1,3.3,8.1,3.3c2.5,0,4.9-1,7-2.6l15.6,15.6l1.6-1.6l0.2-0.2
	L-482.8-72.2z M-500.2-87.9c-3.5,3.5-9.1,3.5-12.6,0c-3.5-3.5-3.5-9.1,0-12.6c1.7-1.7,4-2.6,6.3-2.6c2.3,0,4.6,0.9,6.3,2.6
	C-496.7-97-496.7-91.3-500.2-87.9z"/>
<circle class="st4" cx="-579.3" cy="-372.6" r="31.4"/>
<path d="M-560.3-361H-598l10.7,18.6c2.6,0.7,5.2,1.2,8,1.2c9.7,0,18.2-4.5,24-11.4l-5-8.8V-361z"/>
<path class="st1" d="M-562.4-363.5c0.1-0.4,0.1-0.9,0.2-1.3c0.2-1.9,0.2-3.9-0.8-4.8c-0.6-0.6-2.2-1.5-3.2-2.1
	c-0.1-0.1-0.3-0.2-0.4-0.2l-0.5-1.4l-5.6-14.3h-2.7c0.1-0.4,0.3-0.8,0.3-1.3c0-2.3-1.8-4.1-4.1-4.1c-2.3,0-4.1,1.8-4.1,4.1
	c0,0.5,0.2,0.9,0.4,1.3h-2.8l-6.2,15.7c-1,0.6-3,1.7-3.6,2.3c-1.1,1.1-1,3.9-0.6,6.1h-2.1v2v0.5h0.3h37.6v-0.4v-2.1h-1.2H-562.4z
	 M-579.3-390.6c0.9,0,1.6,0.7,1.6,1.6c0,0.5-0.3,1-0.7,1.3h-1.7c-0.5-0.3-0.8-0.8-0.8-1.3C-580.9-389.9-580.2-390.6-579.3-390.6z
	 M-565-363.5h-28.6c-0.3-2-0.4-3.9-0.2-4.4c0.3-0.3,2-1.4,3.4-2.1l0.4-0.2l5.9-15h9.5l5.9,15l0.4,0.2c1.4,0.8,3.1,1.8,3.4,2.1
	C-564.6-367.4-564.7-365.5-565-363.5z"/>
<circle class="st4" cx="-420.7" cy="-87.7" r="31.4"/>
<path d="M-404.7-75.5h-31.7l10.7,18.7c1.6,0.3,3.3,0.5,5,0.5c8.6,0,16.4-3.5,22-9.1l-6-10.5V-75.5z"/>
<path class="st1" d="M-410.8-94.2c0-5.4-4.4-9.9-9.9-10c-5.4,0.1-9.9,4.6-9.9,10c0,1.3,0.3,2.5,0.9,3.8l-7,5.6v8.8v0.4h0.3h31.7
	v-0.4v-8.9l-7-5.6C-411.1-91.7-410.8-93-410.8-94.2z M-407.2-83.6v5.5h-27v-5.5l7.7-6.1l-0.5-0.9c-0.7-1.3-1.1-2.4-1.1-3.6
	c0-4.1,3.3-7.4,7.3-7.5c4.2,0.1,7.4,3.4,7.4,7.5c0,1.1-0.3,2.3-1.1,3.6l-0.5,0.9L-407.2-83.6z"/>
<circle class="st4" cx="-420.7" cy="-182.7" r="31.4"/>
<path d="M-406.6-179.9l-14.1-14.9l-14.1,14.9l-1.6-1.6l4.2,7.1l11.5-12.2l15.9,16.8l-1.8,1.7l-14.1-14.9l-10.2,10.7l-3.9,4.1
	l-1.3-1.2l10.2,17.3c1.7,0.3,3.4,0.5,5.2,0.5c0.6,0,1.3-0.2,1.9-0.2c9.8-0.6,18.4-5.6,23.8-13.2l-9.9-16.8L-406.6-179.9z"/>
<polygon class="st1" points="-420.7,-198.4 -436.6,-181.7 -436.6,-181.6 -436.5,-181.4 -434.8,-179.9 -420.7,-194.7 -406.6,-179.9 
	-404.9,-181.5 -404.8,-181.6 -405.4,-182.3 "/>
<polygon class="st1" points="-432.2,-174.3 -436.5,-169.8 -436.6,-169.7 -436.1,-169.1 -434.8,-167.9 -430.9,-172 -420.7,-182.8 
	-406.6,-167.9 -404.8,-169.7 -420.7,-186.4 "/>
<circle class="st4" cx="-420.7" cy="102.3" r="31.4"/>
<path d="M-399,90.4l-0.1,2.2c-0.8,2.3-2.5,3.6-3.9,4.6c-0.7,0.4-1.3,1-1.9,1.4c-1.5,1.2-1.9,2.4-1.4,3.9c0.3,0.9,0.8,1.8,1.5,2.5
	c2.5,2.8,2.5,5.7,0,8.3c-1.2,1.2-2.7,2.4-4.3,3.5c-5.9,3.9-11.5,5.7-17.2,5.7c-0.8,0-1.5,0-2.3-0.1c-3.9-0.3-6.9-1.7-9.3-4l8,13.6
	c2.9,0.9,6,1.5,9.2,1.5c16,0,29.1-12.1,31-27.6l-9.3-15.9L-399,90.4z"/>
<path class="st1" d="M-399.1,89.9c-0.3-0.5-0.6-0.9-0.9-1.4c-2.2-3.3-5.5-5.4-10.1-6.2c-7-1.2-13.7,0.6-20.4,5.5
	c-5.1,3.7-8.7,8.3-10.5,13.7c-1.3,3.8-1.6,7.1-0.8,10.3c0.3,1,0.6,2,1.1,2.9c0.8,1.5,1.8,2.8,2.9,3.9c2.3,2.2,5.4,3.6,9.3,4
	c0.8,0.1,1.5,0.1,2.3,0.1c5.7,0,11.3-1.9,17.2-5.7c1.6-1.1,3.1-2.3,4.3-3.5c2.6-2.6,2.6-5.5,0-8.3c-0.7-0.8-1.2-1.7-1.5-2.5
	c-0.5-1.5-0.1-2.8,1.4-3.9c0.6-0.5,1.3-1,1.9-1.4c1.4-0.9,3.1-2.3,3.9-4.6l0.1-2.2l0-0.2L-399.1,89.9z M-401.2,92
	c-0.5,1.2-1.4,2.3-3,3.3c-0.7,0.5-1.4,1-2.3,1.7c-2,1.6-2.7,3.7-1.9,6.1c0.4,1.2,1.1,2.3,2,3.4c1.7,2,1.7,3.5,0,5.3
	c-1.1,1.1-2.5,2.2-4,3.2c-6.3,4.1-12,5.8-18,5.3c-5-0.5-8.4-2.6-10.4-6.6c-1.7-3.4-1.8-7.2-0.2-11.5c1.8-5,5-9.1,9.8-12.6
	c5-3.6,9.9-5.4,15-5.4c1.2,0,2.5,0.1,3.7,0.3c4.5,0.8,7.6,2.8,9.4,6.1V92z"/>
<path class="st1" d="M-434.4,104c-2.4,0-4.4,2-4.4,4.4c0,2.4,2,4.4,4.4,4.4s4.4-2,4.4-4.4C-430,105.9-432,104-434.4,104z
	 M-434.4,110.5c-1.2,0-2.1-1-2.1-2.1s1-2.1,2.1-2.1s2.1,1,2.1,2.1S-433.2,110.5-434.4,110.5z"/>
<path class="st1" d="M-430.7,94.2c-2.4,0-4.4,2-4.4,4.4c0,2.4,2,4.3,4.4,4.3s4.4-2,4.4-4.3C-426.4,96.1-428.3,94.2-430.7,94.2z
	 M-430.7,100.7c-1.2,0-2.1-1-2.1-2.1s1-2.1,2.1-2.1s2.1,1,2.1,2.1S-429.5,100.7-430.7,100.7z"/>
<path class="st1" d="M-422.7,87.4c-2.4,0-4.3,2-4.3,4.3c0,2.4,2,4.4,4.3,4.4c2.4,0,4.4-2,4.4-4.4C-418.3,89.3-420.3,87.4-422.7,87.4
	z M-422.7,93.9c-1.2,0-2.1-1-2.1-2.1c0-1.2,1-2.1,2.1-2.1s2.1,1,2.1,2.1C-420.6,92.9-421.5,93.9-422.7,93.9z"/>
<circle class="st4" cx="-500" cy="-372.6" r="31.4"/>
<path d="M-498.6-387.9l21.5,36.5c0.5-0.5,0.9-1.1,1.4-1.7l-22.9-38.9V-387.9z"/>
<path d="M-498.6-357.7h-2.8l9.1,15.4c5-1.3,9.4-3.7,13.1-7l-19.3-32.8V-357.7z"/>
<polygon class="st1" points="-501.4,-392.1 -501.4,-387.8 -498.6,-387.8 -498.6,-387.9 -498.6,-391.9 -498.6,-392.1 -498.7,-392.1 
	"/>
<polygon class="st1" points="-501.4,-382.5 -501.4,-357.7 -498.6,-357.7 -498.6,-382.1 -498.6,-382.5 -498.8,-382.5 "/>
<circle class="st4" cx="-579.3" cy="-182.7" r="31.4"/>
<path d="M-571.1-178.1l-8.2,8.6l-14.3-15.1l10.8,18.4h18.7h1.6v2.5h-0.1h-18.7h-14.6l6.2,10.5c3.3,1.2,6.7,1.9,10.4,1.9
	c1.7,0,3.4-0.2,5-0.5c5.6-0.9,10.6-3.3,14.8-6.7c2.5-2,4.7-4.4,6.5-7.1l-11.5-19.5L-571.1-178.1z"/>
<polygon class="st1" points="-579.3,-169.5 -571.1,-178.1 -564.5,-185.1 -564.4,-185.3 -564.9,-185.8 -566.2,-187 -572.4,-180.4 
	-578,-174.5 -578,-200.4 -580.5,-200.4 -580.5,-174.5 -592.4,-187 -594.1,-185.4 -594.2,-185.3 -593.6,-184.6 "/>
<polygon class="st1" points="-582.8,-166.2 -596.1,-166.2 -596.1,-164.1 -596.1,-163.7 -595.9,-163.7 -581.3,-163.7 -562.6,-163.7 
	-562.5,-163.7 -562.5,-166.2 -564.1,-166.2 "/>
<circle class="st4" cx="-420.7" cy="-372.6" r="31.4"/>
<path d="M-419.6-354.2h-2.5l7.3,12.4c1.2-0.2,2.4-0.7,3.6-1l-8.4-14.3V-354.2z"/>
<path d="M-409.6-381.8c0,1.6-0.3,3-0.9,4.2c-0.6,1.2-1.6,2.5-2.9,3.7l-1.3,1.2c-3.3,3-5,5.6-5,7.9l0,2.6h-0.1l10.9,18.6
	c6.4-2.6,11.7-7.4,15.1-13.3l-16.5-27.9C-409.8-383.9-409.6-382.9-409.6-381.8z"/>
<path class="st1" d="M-411.8-387.7c-0.2-0.3-0.3-0.6-0.6-0.9c-1.9-1.7-4.5-2.5-7.7-2.5c-3.6,0-6.5,1-8.4,2.9c-1.9,1.9-3,4.8-3.3,8.2
	l3.2,0.2c0.1-2.9,0.8-5.1,2.2-6.6c1.4-1.5,3.5-2.2,6.2-2.2c2.3,0,4.2,0.6,5.5,1.9c1.3,1.2,2,3,2,5.2c0,2.1-1.4,4.5-4.2,7.2l-1.8,1.8
	c-1.4,1.5-2.4,2.7-2.9,3.7c-0.3,0.7-0.4,1.7-0.5,2.6c0,0.4-0.2,0.6-0.2,1l0,3h2.5h0.1l0-2.6c0-2.3,1.7-4.9,5-7.9l1.3-1.2
	c1.3-1.2,2.3-2.5,2.9-3.7c0.6-1.2,0.9-2.7,0.9-4.2c0-1.2-0.3-2.2-0.6-3.1C-410.5-385.9-411.1-386.9-411.8-387.7z"/>
<polygon class="st1" points="-422.3,-357.5 -422.3,-354.6 -422.3,-354.2 -422.1,-354.2 -419.6,-354.2 -419.6,-357.2 -419.6,-357.5 
	-419.8,-357.5 "/>
<circle class="st4" cx="-500" cy="-182.7" r="31.4"/>
<path d="M-500-178.9l-15.7-16.5l12.9,21.9l2.8,3l14.1-14.9l1.8,1.7l-15.3,16.1l-0.7,0.7l-15.5-16.3l18.6,31.6
	c2.1-0.2,4.2-0.6,6.2-1.3c9.4-3,16.9-10.2,20.1-19.4l-13.7-23.2L-500-178.9z"/>
<polygon class="st1" points="-500,-170.6 -502.8,-173.6 -514.1,-185.5 -515.8,-183.9 -515.9,-183.7 -515.5,-183.2 -500,-167 
	-499.3,-167.7 -484.1,-183.7 -485.9,-185.5 "/>
<polygon class="st1" points="-485.9,-197.4 -500,-182.6 -514.1,-197.4 -515.9,-195.7 -515.9,-195.7 -515.7,-195.5 -500,-178.9 
	-484.2,-195.6 -484.1,-195.7 -484.5,-196.2 "/>
<circle class="st4" cx="-500" cy="102.3" r="31.4"/>
<path d="M-480.1,98.5c1.1,7.4,2.2,14.4-0.5,17.4c-0.9,1-2.1,1.6-3.7,1.6c-1.8,0-3.4-1.7-5.2-3.7c-1.4-1.5-3-3.2-4.3-3.5
	c-1.9-0.4-4.5-0.7-6.3-0.9c-1.6,0.1-4.2,0.4-6.1,0.9c-1.3,0.3-2.9,2-4.3,3.6c-1.8,2-3.4,3.7-5.2,3.7c-1.3,0-2.4-0.5-3.2-1.3
	l8.9,15.6c3.2,1.1,6.5,1.8,10,1.8c13.7,0,25.3-8.9,29.5-21.2l-10.9-19C-480.8,94.9-480.4,96.6-480.1,98.5z"/>
<path class="st1" d="M-481.3,93.5l-2.1-3.7c-1.6-1.8-3.6-2.7-6.1-2.7c-0.1,0-0.2,0-0.4,0c-2.6,0.1-4.6,1.6-5.4,2.3h-9.3
	c-0.8-0.7-2.8-2.2-5.4-2.3c-0.1,0-0.2,0-0.4,0c-5.2,0-8.3,3.7-9.5,11.4c-0.9,6.1-1.7,11.8-0.5,15.4c0.3,0.7,0.5,1.5,0.9,2.1
	c0.1,0.1,0.3,0.2,0.4,0.3c0.9,0.8,1.9,1.3,3.2,1.3c1.8,0,3.4-1.7,5.2-3.7c1.4-1.5,3-3.2,4.3-3.6c1.9-0.4,4.5-0.7,6.1-0.9
	c1.8,0.1,4.4,0.4,6.3,0.9c1.3,0.3,2.9,2,4.3,3.5c1.8,2,3.4,3.7,5.2,3.7c1.5,0,2.8-0.5,3.7-1.6c2.7-3.1,1.6-10.1,0.5-17.4
	C-480.4,96.6-480.8,94.9-481.3,93.5z M-482.5,114.3c-0.3,0.3-0.7,0.7-1.8,0.7c-0.7,0-2.3-1.7-3.4-2.9c-1.7-1.9-3.5-3.8-5.6-4.3
	c-2.1-0.5-4.8-0.8-6.8-0.9c-1.9,0.2-4.6,0.4-6.6,0.9c-2.1,0.5-3.9,2.4-5.6,4.3c-1.1,1.2-2.7,2.9-3.4,2.9c-1,0-1.5-0.4-1.8-0.7
	c-1.9-2.2-0.8-9.5,0.1-15.4c1.4-9.5,5.5-9.3,7.3-9.3c2.3,0.1,4.1,1.9,4.1,1.9l0.4,0.4l11.4,0l0.4-0.4c0,0,1.8-1.8,4.1-1.9
	c1.7-0.1,5.8-0.2,7.3,9.3C-481.7,104.7-480.6,112.1-482.5,114.3z"/>
<circle class="st4" cx="-420.7" cy="-277.7" r="31.4"/>
<path d="M-403.2-282l-3.3,2.8v3.3l3.2,2.8l-5,8.4l-4-1.5l-2.9,1.8l-0.8,3.9h-9.8l-0.7-4.1l-2.9-1.7l-3.9,1.4l6.2,10.6l4.6,7.8
	c0.6,0,1.1,0.2,1.6,0.2c12.4,0,23-7.3,28.1-17.7l-7.7-13.1L-403.2-282z"/>
<path class="st1" d="M-420.7-287.5C-420.7-287.5-420.7-287.5-420.7-287.5c-2.6,0-5,1-6.9,2.9c-1.9,1.9-2.9,4.3-2.9,6.9
	c0,5.4,4.4,9.8,9.8,9.8c0,0,0,0,0,0c2.6,0,5.1-1,7-2.9c1.9-1.9,2.9-4.3,2.9-6.9C-410.9-283-415.4-287.5-420.7-287.5z M-415.3-272.4
	c-1.5,1.5-3.4,2.3-5.4,2.3c0,0,0,0,0,0c-4.2,0-7.6-3.4-7.6-7.6c0-2,0.8-3.9,2.3-5.4c1.4-1.4,3.3-2.2,5.3-2.2c0,0,0,0,0,0
	c4.1,0,7.6,3.5,7.6,7.6C-413.1-275.7-413.9-273.8-415.3-272.4z"/>
<path class="st1" d="M-408.2-290.5l-3.9,1.4l-2.9-1.7l-0.7-4.1h-9.8l-0.8,4l-2.9,1.7l-4-1.5l-4.9,8.5l3.2,2.8v3.3l-3.3,2.8v0l0,0
	l4.9,8.5l0.1,0l3.9-1.4l2.9,1.7l0.7,4.1h9.8l0.8-3.9l2.9-1.8l4,1.5l5-8.4l-3.2-2.8v-3.3l3.3-2.8v0l0,0L-408.2-290.5L-408.2-290.5z
	 M-408.7-280.3v5.3l2.6,2.3l-3.1,5.3l-3.2-1.2l-4.6,2.6l-0.7,3.3h-6.1l-0.6-3.3l-4.7-2.7l-3.2,1.2l-3.1-5.3l2.7-2.3v-5.3l-2.6-2.3
	l3.1-5.3l3.2,1.2l4.7-2.7l0.6-3.2h6.2l0.6,3.3l4.6,2.7l3.2-1.2l3.1,5.3L-408.7-280.3z"/>
<circle class="st5" cx="-300.2" cy="-277.7" r="31.4"/>
<g>
	<g>
		<path class="st1" d="M-305.1-274.7h2.1v1.4h-3.8v-7.2h1.7V-274.7z"/>
		<path class="st1" d="M-300.4-278.8c0.3,0,0.5,0,0.8,0.1c0.2,0.1,0.5,0.2,0.6,0.3c0.2,0.2,0.3,0.4,0.4,0.6c0.1,0.3,0.1,0.6,0.1,1
			v1.6c0,0.4,0,0.7-0.1,1c-0.1,0.3-0.2,0.5-0.4,0.6c-0.2,0.2-0.4,0.3-0.6,0.4c-0.2,0.1-0.5,0.1-0.8,0.1c-0.3,0-0.6,0-0.8-0.1
			c-0.2-0.1-0.5-0.2-0.6-0.3s-0.3-0.4-0.4-0.6c-0.1-0.3-0.2-0.6-0.2-1v-1.6c0-0.4,0-0.7,0.2-1c0.1-0.3,0.2-0.5,0.4-0.6
			c0.2-0.2,0.4-0.3,0.6-0.3C-301-278.8-300.7-278.8-300.4-278.8z M-300.4-277.6c-0.2,0-0.3,0.1-0.3,0.2s-0.1,0.2-0.1,0.4v2.2
			c0,0.2,0,0.3,0.1,0.4c0.1,0.1,0.2,0.1,0.3,0.1c0.1,0,0.2,0,0.3-0.1c0.1-0.1,0.1-0.2,0.1-0.4v-2.2
			C-300-277.4-300.1-277.6-300.4-277.6z"/>
		<path class="st1" d="M-293.6-278.7v5.5c0,0.3-0.1,0.6-0.2,0.9c-0.1,0.2-0.2,0.4-0.4,0.5c-0.2,0.1-0.4,0.2-0.6,0.3
			s-0.5,0.1-0.7,0.1c-0.7,0-1.2-0.1-1.5-0.4c-0.4-0.2-0.5-0.7-0.5-1.2h1.5v0.1c0,0.3,0.2,0.5,0.5,0.5c0.2,0,0.3,0,0.3-0.1
			c0.1-0.1,0.1-0.2,0.1-0.4v-1c-0.1,0.2-0.3,0.3-0.5,0.4c-0.2,0.1-0.4,0.2-0.7,0.2c-0.2,0-0.3,0-0.5-0.1c-0.2-0.1-0.3-0.1-0.4-0.3
			c-0.1-0.1-0.2-0.3-0.3-0.5c-0.1-0.2-0.1-0.4-0.1-0.7v-2.5c0-0.2,0-0.4,0.1-0.6s0.2-0.3,0.3-0.4c0.1-0.1,0.3-0.2,0.4-0.3
			c0.2-0.1,0.3-0.1,0.5-0.1c0.2,0,0.5,0.1,0.7,0.2c0.2,0.1,0.4,0.3,0.5,0.6v-0.6H-293.6z M-295.1-277c0-0.4-0.2-0.6-0.5-0.6
			c-0.3,0-0.5,0.2-0.5,0.6v1.7c0,0.4,0.2,0.6,0.5,0.6c0.1,0,0.3,0,0.3-0.1c0.1-0.1,0.1-0.2,0.1-0.5V-277z"/>
	</g>
</g>
<path class="st6" d="M-285.8-259.2h-28.8l7.1,12c2.3,0.5,4.7,0.9,7.2,0.9c12.3,0,22.8-7.1,28-17.4l-13.5-22.9V-259.2z"/>
<path class="st1" d="M-294.7-296.1h-20v36.6v0.3h0.2h28.8v-27.4v-0.6l-0.9-0.9L-294.7-296.1z M-293.9-291.8l4.2,4.2h-4.2V-291.8z
	 M-288.3-261.7h-23.9v-31.9h15.7v8.5h8.2V-261.7z"/>
<circle class="st5" cx="-223.2" cy="-277.7" r="31.4"/>
<g>
	<path class="st1" d="M-228.2-273.3h-1.7v-7.2h4v1.4h-2.3v1.4h2.1v1.4h-2.1V-273.3z"/>
	<path class="st1" d="M-225.2-280.6h1.5v1.3h-1.5V-280.6z M-223.7-273.3h-1.5v-5.4h1.5V-273.3z"/>
	<path class="st1" d="M-221.1-273.3h-1.5v-7.2h1.5V-273.3z"/>
	<path class="st1" d="M-218.7-275.8v0.8c0,0.2,0,0.4,0.1,0.5c0.1,0.1,0.2,0.2,0.4,0.2s0.3-0.1,0.4-0.2s0.1-0.3,0.1-0.5v-0.3h1.4v0.4
		c0,0.3-0.1,0.6-0.2,0.8c-0.1,0.2-0.3,0.4-0.5,0.5c-0.2,0.1-0.4,0.2-0.6,0.3c-0.2,0.1-0.5,0.1-0.7,0.1c-0.2,0-0.5,0-0.7-0.1
		c-0.2-0.1-0.4-0.2-0.6-0.3c-0.2-0.1-0.3-0.3-0.5-0.5s-0.2-0.5-0.2-0.8v-2.2c0-0.3,0.1-0.6,0.2-0.8s0.3-0.4,0.5-0.5
		c0.2-0.1,0.4-0.2,0.6-0.3c0.2-0.1,0.5-0.1,0.7-0.1c0.2,0,0.5,0,0.7,0.1c0.2,0.1,0.4,0.2,0.6,0.3c0.2,0.1,0.3,0.3,0.5,0.5
		c0.1,0.2,0.2,0.5,0.2,0.8v1.3H-218.7z M-217.8-276.8v-0.2c0-0.3,0-0.5-0.1-0.6c-0.1-0.1-0.2-0.2-0.4-0.2c-0.2,0-0.3,0.1-0.4,0.2
		s-0.1,0.3-0.1,0.6v0.2H-217.8z"/>
</g>
<path class="st6" d="M-208.7-259.2h-28.4l7.2,12.1c2.2,0.5,4.4,0.8,6.8,0.8c12.3,0,22.8-7.1,28-17.5l-13.5-22.9V-259.2z"/>
<path class="st1" d="M-217.6-296.1h-20v36v0.9h0.5h28.4v-27.5v-0.5l-0.8-0.8L-217.6-296.1z M-216.9-291.8l4.2,4.2h-4.2V-291.8z
	 M-211.2-261.7h-23.9v-31.9h15.7v8.5h8.2V-261.7z"/>
<circle class="st5" cx="-300.2" cy="102.3" r="31.4"/>
<polygon class="st0" points="-285.8,92.8 -285.9,92.6 -294.7,83.8 -314.7,83.8 -314.7,120.6 -314.6,120.7 -285.8,120.7 "/>
<path class="st1" d="M-314.7,83.8v36.9h28.9v-28l-8.9-8.9H-314.7z M-288.3,118.2h-23.9V86.3h15.7v8.5h8.2V118.2z M-293.9,88.1
	l4.2,4.2h-4.2V88.1z"/>
<rect x="-308.3" y="96.8" class="st1" width="8.6" height="2.5"/>
<rect x="-308.3" y="103.2" class="st1" width="16" height="2.5"/>
<rect x="-308.3" y="109.6" class="st1" width="16" height="2.5"/>
<circle class="st7" cx="134.6" cy="-24.1" r="31.4"/>
<polygon class="st0" points="149.1,-33.6 149,-33.7 140.2,-42.5 120.2,-42.5 120.2,-5.8 120.2,-5.7 149.1,-5.7 "/>
<path class="st1" d="M120.2-42.5v36.9h28.9v-28l-8.9-8.9H120.2z M146.6-8.2h-23.9V-40h15.7v8.5h8.2V-8.2z M140.9-38.3l4.2,4.2h-4.2
	V-38.3z"/>
<rect x="126.6" y="-29.6" class="st1" width="8.6" height="2.5"/>
<rect x="126.6" y="-23.2" class="st1" width="16" height="2.5"/>
<rect x="126.6" y="-16.7" class="st1" width="16" height="2.5"/>
<polygon class="st1" points="-143.7,-32.7 -143.6,-32.8 -143.7,-32.8 "/>
<circle class="st5" cx="-146.1" cy="7.3" r="31.4"/>
<polygon class="st0" points="-133.8,-0.1 -133.9,-0.2 -133.8,0 "/>
<path class="st6" d="M-129.5,24L-129.5,24l-2.5,0v-2.7l-7.5-1.7v5.6h-16.6l8,13.2c0.7,0,1.4,0.2,2.1,0.2c8,0,15.2-3.1,20.7-8
	c4.9-4.3,8.4-10.1,9.9-16.6l-14-23.4V24z"/>
<path class="st1" d="M-132-6.7l-30.8,7.3v13.6l5.9,1.3V24v1.3h0.8h16.6v-5.6l7.5,1.7V24h2.5v0V-9.4h-2.5V-6.7z M-142,22.7h-12.4
	v-6.5L-142,19V22.7z M-132,18.7l-28.3-6.4V2.6l28.3-6.7V18.7z"/>
<circle class="st5" cx="-223.2" cy="7.3" r="31.4"/>
<path class="st6" d="M-208.8,22.5c1.2-1.2,1.2-3.2,0-4.4c-0.6-0.6-1.4-0.9-2.2-0.9c-0.8,0-1.6,0.3-2.2,0.9c-1.2,1.2-1.2,3.2,0,4.4
	S-210,23.7-208.8,22.5z"/>
<path class="st6" d="M-218.1,7.8l-1.5-1.6l-1.8,1.7l7.6,7.6c2.2-1.3,5-1.2,6.9,0.7c2.2,2.2,2.2,5.8,0,8c-1.1,1.1-2.5,1.6-4,1.6
	c-1.4,0-2.9-0.5-4-1.6c-1.9-1.9-2-4.7-0.7-6.9l-7.7-7.7l-14.8,14.1l0.5,0.5l-1.2,0.2l-0.1,0.1l-0.1-0.1l-2.9,0.5l6.6,11.1
	c3.7,1.6,7.9,2.5,12.2,2.5c15,0,27.4-10.5,30.6-24.5l-9.9-16.8L-218.1,7.8z"/>
<path class="st1" d="M-211.7-12.4l-11.2,15.2l1.5,1.6l-1.9,1.8l-5.1-5.1c2.1-2.9,1.9-6.9-0.7-9.6c-2.4-2.4-6.1-2.9-9-1.3l1.2,2.2
	c1.9-1.1,4.4-0.7,6,0.8c2,2,1.9,5.1,0,7.1c-2,2-5.1,1.9-7.1,0c-1.1-1.1-1.7-2.7-1.4-4.3l-2.5-0.4c-0.4,2.4,0.4,4.8,2.1,6.5
	c1.5,1.5,3.4,2.2,5.3,2.2c1.5,0,3-0.6,4.3-1.5l5.1,5.1L-239.9,22l-1-1L-242,25l0,0.1l0.1,0l2.9-0.5l0.1,0.1l0.1-0.1l1.2-0.2
	l-0.5-0.5l14.8-14.1l7.7,7.7c-1.3,2.2-1.2,5,0.7,6.9c1.1,1.1,2.5,1.6,4,1.6c1.4,0,2.9-0.5,4-1.6c2.2-2.2,2.2-5.8,0-8
	c-1.9-1.9-4.7-2.1-6.9-0.7l-7.6-7.6l1.8-1.7l1.5,1.6l15.6-10.4l0.1-0.1l-0.4-0.4L-211.7-12.4z M-213.2,18.1c0.6-0.6,1.4-0.9,2.2-0.9
	c0.8,0,1.6,0.3,2.2,0.9c1.2,1.2,1.2,3.2,0,4.4s-3.2,1.2-4.4,0S-214.4,19.3-213.2,18.1z M-217.8,4.5l-1.9-2l8.2-11.1l5.2,5.4
	L-217.8,4.5z"/>
<circle class="st5" cx="-300.2" cy="7.3" r="31.4"/>
<path class="st6" d="M-283.4,8c-0.3,0.4-7.6,8.8-16.9,8.8s-16.6-8.5-16.9-8.8l-0.3-0.3l17.7,30.9c11.1-0.2,20.7-6.1,26.1-15
	l-9.3-16.2L-283.4,8z"/>
<path class="st1" d="M-283.4,6.6c-0.3-0.4-7.6-8.8-16.9-8.8s-16.6,8.5-16.9,8.8l-0.5,0.6l-0.1,0.1l0.3,0.4l0.3,0.3
	c0.3,0.4,7.6,8.8,16.9,8.8s16.6-8.5,16.9-8.8l0.5-0.6l0.1-0.1L-283.4,6.6L-283.4,6.6z M-314.8,7.3c1.3-1.3,4.5-4.1,8.4-5.9
	c-1.5,1.5-2.4,3.6-2.4,5.9s0.9,4.3,2.4,5.9C-310.3,11.4-313.5,8.6-314.8,7.3z M-300.2,13.6c-3.5,0-6.3-2.8-6.3-6.3s2.8-6.3,6.3-6.3
	c3.5,0,6.3,2.8,6.3,6.3S-296.8,13.6-300.2,13.6z M-294.1,13.1c1.5-1.5,2.4-3.6,2.4-5.9s-0.9-4.3-2.4-5.9c3.9,1.7,7.1,4.5,8.4,5.9
	C-287,8.6-290.2,11.4-294.1,13.1z"/>
<polygon class="st1" points="-279.6,6.5 -279.5,6.4 -279.9,6 "/>
<circle class="st5" cx="-300.2" cy="-87.7" r="31.4"/>
<path class="st0" d="M-300.2-76.4c8.7,0,15.8-5.6,15.8-12.6c0-0.8-0.1-1.6-0.3-2.4l-0.3-0.4l0.3,0.4c-1.4-5.8-7.8-10.2-15.4-10.2
	c-8.7,0-15.7,5.6-15.7,12.6c0,3.4,1.8,6.7,4.9,9l-3.1,7l0,0.1l9.9-4C-302.8-76.5-301.5-76.4-300.2-76.4z"/>
<polygon class="st0" points="-314.3,-72.8 -314.2,-72.8 -314.2,-72.9 "/>
<path class="st6" d="M-284.5-88.9c0,6.9-7.1,12.6-15.8,12.6c-1.3,0-2.6-0.2-4-0.5l-9.9,4l9.4,16.1c1.5,0.2,3,0.5,4.5,0.5
	c11.5,0,21.4-6.2,26.9-15.4l-11.4-19.6C-284.6-90.5-284.5-89.8-284.5-88.9z"/>
<path class="st1" d="M-300.2-101.5c-8.7,0-15.7,5.6-15.7,12.6c0,3.4,1.8,6.7,4.9,9l-3.2,7.1l10-4.1c1.5,0.3,2.8,0.5,4,0.5
	c8.7,0,15.8-5.6,15.8-12.6S-291.6-101.5-300.2-101.5z M-300.2-78.9c-1.2,0-2.4-0.2-3.9-0.5l-0.4-0.1l-5,2l1.5-3.4l-0.9-0.6
	c-2.9-1.9-4.6-4.7-4.6-7.5c0-5.5,5.9-10.1,13.2-10.1c7.3,0,13.2,4.5,13.2,10.1C-287-83.4-292.9-78.9-300.2-78.9z"/>
<circle class="st5" cx="-223.2" cy="-87.7" r="31.4"/>
<path class="st1" d="M60.6,57.7L35.4,32.5c2.7-3.4,4.3-7.3,4.4-11.4c0.1-5.1-1.7-10.2-5.6-14C26.7-0.5,14.5-0.5,7,7
	c-5.5,5.5-6.9,13.5-4.3,20.4L4.1,30C4.9,31.5,5.7,33,7,34.3c3.8,3.8,8.7,5.6,13.6,5.6c4.2,0,8.3-1.7,11.8-4.4l26.3,26.3l2.7-2.7
	l0.3-0.3L60.6,57.7z M31.2,31.3c-5.9,5.9-15.4,5.8-21.3,0C4.1,25.4,4.1,15.9,10,10c2.9-2.9,6.8-4.4,10.6-4.4c3.8,0,7.7,1.5,10.6,4.4
	C37.1,15.9,37.1,25.4,31.2,31.3z"/>
<circle class="st5" cx="-300.2" cy="-372.6" r="31.4"/>
<path class="st6" d="M-281.3-361h-37.6l10.7,18.6c2.6,0.7,5.2,1.2,8,1.2c9.7,0,18.2-4.5,24-11.4l-5-8.8V-361z"/>
<path class="st1" d="M-283.4-363.5c0.1-0.4,0.1-0.9,0.2-1.3c0.2-1.9,0.2-3.9-0.8-4.8c-0.6-0.6-2.2-1.5-3.2-2.1
	c-0.1-0.1-0.3-0.2-0.4-0.2l-0.5-1.4l-5.6-14.3h-2.7c0.1-0.4,0.3-0.8,0.3-1.3c0-2.3-1.8-4.1-4.1-4.1c-2.3,0-4.1,1.8-4.1,4.1
	c0,0.5,0.2,0.9,0.4,1.3h-2.8l-6.2,15.7c-1,0.6-3,1.7-3.6,2.3c-1.1,1.1-1,3.9-0.6,6.1h-2.1v2v0.5h0.3h37.6v-0.4v-2.1h-1.2H-283.4z
	 M-300.2-390.6c0.9,0,1.6,0.7,1.6,1.6c0,0.5-0.3,1-0.7,1.3h-1.7c-0.5-0.3-0.8-0.8-0.8-1.3C-301.8-389.9-301.1-390.6-300.2-390.6z
	 M-286-363.5h-28.6c-0.3-2-0.4-3.9-0.2-4.4c0.3-0.3,2-1.4,3.4-2.1l0.4-0.2l5.9-15h9.5l5.9,15l0.4,0.2c1.4,0.8,3.1,1.8,3.4,2.1
	C-285.5-367.4-285.6-365.5-286-363.5z"/>
<circle class="st5" cx="-146.1" cy="-87.7" r="31.4"/>
<path class="st1" d="M-136.2-94.2c0-5.4-4.4-9.9-9.9-10c-5.4,0.1-9.9,4.6-9.9,10c0,1.3,0.3,2.5,0.9,3.8l-7,5.6v8.8v0.4h0.3h31.7
	v-0.4v-8.9l-7-5.6C-136.5-91.7-136.2-93-136.2-94.2z M-132.6-83.6v5.5h-27v-5.5l7.7-6.1l-0.5-0.9c-0.7-1.3-1.1-2.4-1.1-3.6
	c0-4.1,3.3-7.4,7.3-7.5c4.2,0.1,7.4,3.4,7.4,7.5c0,1.1-0.3,2.3-1.1,3.6l-0.5,0.9L-132.6-83.6z"/>
<circle class="st7" cx="-12.1" cy="-87.7" r="31.4"/>
<circle class="st5" cx="-12.1" cy="-163.7" r="31.4"/>
<circle class="st5" cx="-146.1" cy="-182.7" r="31.4"/>
<path class="st6" d="M-132-179.9l-14.1-14.9l-14.1,14.9l-1.6-1.6l4.2,7.1l11.5-12.2l15.9,16.8l-1.8,1.7l-14.1-14.9l-10.2,10.7
	l-3.9,4.1l-1.3-1.2l10.2,17.3c1.7,0.3,3.4,0.5,5.2,0.5c0.6,0,1.3-0.2,1.9-0.2c9.8-0.6,18.4-5.6,23.8-13.2l-9.9-16.8L-132-179.9z"/>
<polygon class="st1" points="-146.1,-198.4 -162,-181.7 -162.1,-181.6 -161.9,-181.4 -160.2,-179.9 -146.1,-194.7 -132,-179.9 
	-130.3,-181.5 -130.2,-181.6 -130.8,-182.3 "/>
<polygon class="st1" points="-157.7,-174.3 -161.9,-169.8 -162.1,-169.7 -161.5,-169.1 -160.2,-167.9 -156.3,-172 -146.1,-182.8 
	-132,-167.9 -130.2,-169.7 -146.1,-186.4 "/>
<circle class="st5" cx="-146.1" cy="102.3" r="31.4"/>
<path class="st6" d="M-124.4,90.4l-0.1,2.2c-0.8,2.3-2.5,3.6-3.9,4.6c-0.7,0.4-1.3,1-1.9,1.4c-1.5,1.2-1.9,2.4-1.4,3.9
	c0.3,0.9,0.8,1.8,1.5,2.5c2.5,2.8,2.5,5.7,0,8.3c-1.2,1.2-2.7,2.4-4.3,3.5c-5.9,3.9-11.5,5.7-17.2,5.7c-0.8,0-1.5,0-2.3-0.1
	c-3.9-0.3-6.9-1.7-9.3-4l8,13.6c2.9,0.9,6,1.5,9.2,1.5c16,0,29.1-12.1,31-27.6l-9.3-15.9L-124.4,90.4z"/>
<path class="st1" d="M-124.6,89.9c-0.3-0.5-0.6-0.9-0.9-1.4c-2.2-3.3-5.5-5.4-10.1-6.2c-7-1.2-13.7,0.6-20.4,5.5
	c-5.1,3.7-8.7,8.3-10.5,13.7c-1.3,3.8-1.6,7.1-0.8,10.3c0.3,1,0.6,2,1.1,2.9c0.8,1.5,1.8,2.8,2.9,3.9c2.3,2.2,5.4,3.6,9.3,4
	c0.8,0.1,1.5,0.1,2.3,0.1c5.7,0,11.3-1.9,17.2-5.7c1.6-1.1,3.1-2.3,4.3-3.5c2.6-2.6,2.6-5.5,0-8.3c-0.7-0.8-1.2-1.7-1.5-2.5
	c-0.5-1.5-0.1-2.8,1.4-3.9c0.6-0.5,1.3-1,1.9-1.4c1.4-0.9,3.1-2.3,3.9-4.6l0.1-2.2l0-0.2L-124.6,89.9z M-126.7,92
	c-0.5,1.2-1.4,2.3-3,3.3c-0.7,0.5-1.4,1-2.3,1.7c-2,1.6-2.7,3.7-1.9,6.1c0.4,1.2,1.1,2.3,2,3.4c1.7,2,1.7,3.5,0,5.3
	c-1.1,1.1-2.5,2.2-4,3.2c-6.3,4.1-12,5.8-18,5.3c-5-0.5-8.4-2.6-10.4-6.6c-1.7-3.4-1.8-7.2-0.2-11.5c1.8-5,5-9.1,9.8-12.6
	c5-3.6,9.9-5.4,15-5.4c1.2,0,2.5,0.1,3.7,0.3c4.5,0.8,7.6,2.8,9.4,6.1V92z"/>
<path class="st1" d="M-159.8,104c-2.4,0-4.4,2-4.4,4.4c0,2.4,2,4.4,4.4,4.4c2.4,0,4.4-2,4.4-4.4C-155.5,105.9-157.4,104-159.8,104z
	 M-159.8,110.5c-1.2,0-2.1-1-2.1-2.1s1-2.1,2.1-2.1s2.1,1,2.1,2.1S-158.6,110.5-159.8,110.5z"/>
<path class="st1" d="M-156.2,94.2c-2.4,0-4.4,2-4.4,4.4c0,2.4,2,4.3,4.4,4.3c2.4,0,4.4-2,4.4-4.3C-151.8,96.1-153.8,94.2-156.2,94.2
	z M-156.2,100.7c-1.2,0-2.1-1-2.1-2.1s1-2.1,2.1-2.1c1.2,0,2.1,1,2.1,2.1S-155,100.7-156.2,100.7z"/>
<path class="st1" d="M-148.1,87.4c-2.4,0-4.3,2-4.3,4.3c0,2.4,2,4.4,4.3,4.4c2.4,0,4.4-2,4.4-4.4C-143.8,89.3-145.7,87.4-148.1,87.4
	z M-148.1,93.9c-1.2,0-2.1-1-2.1-2.1c0-1.2,1-2.1,2.1-2.1s2.1,1,2.1,2.1C-146,92.9-147,93.9-148.1,93.9z"/>
<circle class="st5" cx="-223.2" cy="-372.6" r="31.4"/>
<path class="st6" d="M-221.8-387.9l21.5,36.5c0.5-0.5,0.9-1.1,1.4-1.7l-22.9-38.9V-387.9z"/>
<path class="st6" d="M-221.8-357.7h-2.8l9.1,15.4c5-1.3,9.4-3.7,13.1-7l-19.3-32.8V-357.7z"/>
<polygon class="st1" points="-224.6,-392.1 -224.6,-387.8 -221.8,-387.8 -221.8,-387.9 -221.8,-391.9 -221.8,-392.1 -221.9,-392.1 
	"/>
<polygon class="st1" points="-224.6,-382.5 -224.6,-357.7 -221.8,-357.7 -221.8,-382.1 -221.8,-382.5 -222,-382.5 "/>
<circle class="st5" cx="-300.2" cy="-182.7" r="31.4"/>
<path class="st6" d="M-292.1-178.1l-8.2,8.6l-14.3-15.1l10.8,18.4h18.7h1.6v2.5h-0.1h-18.7h-14.6l6.2,10.5c3.3,1.2,6.7,1.9,10.4,1.9
	c1.7,0,3.4-0.2,5-0.5c5.6-0.9,10.6-3.3,14.8-6.7c2.5-2,4.7-4.4,6.5-7.1l-11.5-19.5L-292.1-178.1z"/>
<polygon class="st1" points="-300.2,-169.5 -292.1,-178.1 -285.5,-185.1 -285.3,-185.3 -285.9,-185.8 -287.1,-187 -293.4,-180.4 
	-299,-174.5 -299,-200.4 -301.5,-200.4 -301.5,-174.5 -313.3,-187 -315,-185.4 -315.2,-185.3 -314.6,-184.6 "/>
<polygon class="st1" points="-303.7,-166.2 -317,-166.2 -317,-164.1 -317,-163.7 -316.8,-163.7 -302.3,-163.7 -283.6,-163.7 
	-283.4,-163.7 -283.4,-166.2 -285.1,-166.2 "/>
<circle class="st5" cx="-146.1" cy="-372.6" r="31.4"/>
<path class="st6" d="M-145-354.2h-2.5l7.3,12.4c1.2-0.2,2.4-0.7,3.6-1l-8.4-14.3V-354.2z"/>
<path class="st6" d="M-135-381.8c0,1.6-0.3,3-0.9,4.2c-0.6,1.2-1.6,2.5-2.9,3.7l-1.3,1.2c-3.3,3-5,5.6-5,7.9l0,2.6h-0.1l10.9,18.6
	c6.4-2.6,11.7-7.4,15.1-13.3l-16.5-27.9C-135.3-383.9-135-382.9-135-381.8z"/>
<path class="st1" d="M-137.2-387.7c-0.2-0.3-0.3-0.6-0.6-0.9c-1.9-1.7-4.5-2.5-7.7-2.5c-3.6,0-6.5,1-8.4,2.9c-1.9,1.9-3,4.8-3.3,8.2
	l3.2,0.2c0.1-2.9,0.8-5.1,2.2-6.6c1.4-1.5,3.5-2.2,6.2-2.2c2.3,0,4.2,0.6,5.5,1.9c1.3,1.2,2,3,2,5.2c0,2.1-1.4,4.5-4.2,7.2l-1.8,1.8
	c-1.4,1.5-2.4,2.7-2.9,3.7c-0.3,0.7-0.4,1.7-0.5,2.6c0,0.4-0.2,0.6-0.2,1l0,3h2.5h0.1l0-2.6c0-2.3,1.7-4.9,5-7.9l1.3-1.2
	c1.3-1.2,2.3-2.5,2.9-3.7c0.6-1.2,0.9-2.7,0.9-4.2c0-1.2-0.3-2.2-0.6-3.1C-135.9-385.9-136.5-386.9-137.2-387.7z"/>
<polygon class="st1" points="-147.7,-357.5 -147.7,-354.6 -147.7,-354.2 -147.5,-354.2 -145,-354.2 -145,-357.2 -145,-357.5 
	-145.2,-357.5 "/>
<circle class="st5" cx="-223.2" cy="-182.7" r="31.4"/>
<path class="st6" d="M-223.2-178.9l-15.7-16.5l12.9,21.9l2.8,3l14.1-14.9l1.8,1.7l-15.3,16.1l-0.7,0.7l-15.5-16.3l18.6,31.6
	c2.1-0.2,4.2-0.6,6.2-1.3c9.4-3,16.9-10.2,20.1-19.4l-13.7-23.2L-223.2-178.9z"/>
<polygon class="st1" points="-223.2,-170.6 -226,-173.6 -237.3,-185.5 -239,-183.9 -239.1,-183.7 -238.6,-183.2 -223.2,-167 
	-222.5,-167.7 -207.2,-183.7 -209.1,-185.5 "/>
<polygon class="st1" points="-209.1,-197.4 -223.2,-182.6 -237.3,-197.4 -239.1,-195.7 -239.1,-195.7 -238.9,-195.5 -223.2,-178.9 
	-207.4,-195.6 -207.2,-195.7 -207.7,-196.2 "/>
<circle class="st5" cx="-223.2" cy="102.3" r="31.4"/>
<path class="st6" d="M-203.3,98.5c1.1,7.4,2.2,14.4-0.5,17.4c-0.9,1-2.1,1.6-3.7,1.6c-1.8,0-3.4-1.7-5.2-3.7c-1.4-1.5-3-3.2-4.3-3.5
	c-1.9-0.4-4.5-0.7-6.3-0.9c-1.6,0.1-4.2,0.4-6.1,0.9c-1.3,0.3-2.9,2-4.3,3.6c-1.8,2-3.4,3.7-5.2,3.7c-1.3,0-2.4-0.5-3.2-1.3
	l8.9,15.6c3.2,1.1,6.5,1.8,10,1.8c13.7,0,25.3-8.9,29.5-21.2l-10.9-19C-204,94.9-203.6,96.6-203.3,98.5z"/>
<path class="st1" d="M-204.5,93.5l-2.1-3.7c-1.6-1.8-3.6-2.7-6.1-2.7c-0.1,0-0.2,0-0.4,0c-2.6,0.1-4.6,1.6-5.4,2.3h-9.3
	c-0.8-0.7-2.8-2.2-5.4-2.3c-0.1,0-0.2,0-0.4,0c-5.2,0-8.3,3.7-9.5,11.4c-0.9,6.1-1.7,11.8-0.5,15.4c0.3,0.7,0.5,1.5,0.9,2.1
	c0.1,0.1,0.3,0.2,0.4,0.3c0.9,0.8,1.9,1.3,3.2,1.3c1.8,0,3.4-1.7,5.2-3.7c1.4-1.5,3-3.2,4.3-3.6c1.9-0.4,4.5-0.7,6.1-0.9
	c1.8,0.1,4.4,0.4,6.3,0.9c1.3,0.3,2.9,2,4.3,3.5c1.8,2,3.4,3.7,5.2,3.7c1.5,0,2.8-0.5,3.7-1.6c2.7-3.1,1.6-10.1,0.5-17.4
	C-203.6,96.6-204,94.9-204.5,93.5z M-205.7,114.3c-0.3,0.3-0.7,0.7-1.8,0.7c-0.7,0-2.3-1.7-3.4-2.9c-1.7-1.9-3.5-3.8-5.6-4.3
	c-2.1-0.5-4.8-0.8-6.8-0.9c-1.9,0.2-4.6,0.4-6.6,0.9c-2.1,0.5-3.9,2.4-5.6,4.3c-1.1,1.2-2.7,2.9-3.4,2.9c-1,0-1.5-0.4-1.8-0.7
	c-1.9-2.2-0.8-9.5,0.1-15.4c1.4-9.5,5.5-9.3,7.3-9.3c2.3,0.1,4.1,1.9,4.1,1.9l0.4,0.4l11.4,0l0.4-0.4c0,0,1.8-1.8,4.1-1.9
	c1.7-0.1,5.8-0.2,7.3,9.3C-204.9,104.7-203.8,112.1-205.7,114.3z"/>
<circle class="st5" cx="-146.1" cy="-277.7" r="31.4"/>
<path class="st6" d="M-128.6-282l-3.3,2.8v3.3l3.2,2.8l-5,8.4l-4-1.5l-2.9,1.8l-0.8,3.9h-9.8l-0.7-4.1l-2.9-1.7l-3.9,1.4l6.2,10.6
	l4.6,7.8c0.6,0,1.1,0.2,1.6,0.2c12.4,0,23-7.3,28.1-17.7l-7.7-13.1L-128.6-282z"/>
<path class="st1" d="M-146.1-287.5C-146.1-287.5-146.1-287.5-146.1-287.5c-2.6,0-5,1-6.9,2.9c-1.9,1.9-2.9,4.3-2.9,6.9
	c0,5.4,4.4,9.8,9.8,9.8c0,0,0,0,0,0c2.6,0,5.1-1,7-2.9c1.9-1.9,2.9-4.3,2.9-6.9C-136.3-283-140.8-287.5-146.1-287.5z M-140.7-272.4
	c-1.5,1.5-3.4,2.3-5.4,2.3c0,0,0,0,0,0c-4.2,0-7.6-3.4-7.6-7.6c0-2,0.8-3.9,2.3-5.4c1.4-1.4,3.3-2.2,5.3-2.2c0,0,0,0,0,0
	c4.1,0,7.6,3.5,7.6,7.6C-138.5-275.7-139.3-273.8-140.7-272.4z"/>
<path class="st1" d="M-133.6-290.5l-3.9,1.4l-2.9-1.7l-0.7-4.1h-9.8l-0.8,4l-2.9,1.7l-4-1.5l-4.9,8.5l3.2,2.8v3.3l-3.3,2.8v0l0,0
	l4.9,8.5l0.1,0l3.9-1.4l2.9,1.7l0.7,4.1h9.8l0.8-3.9l2.9-1.8l4,1.5l5-8.4l-3.2-2.8v-3.3l3.3-2.8v0l0,0L-133.6-290.5L-133.6-290.5z
	 M-134.1-280.3v5.3l2.6,2.3l-3.1,5.3l-3.2-1.2l-4.6,2.6l-0.7,3.3h-6.1l-0.6-3.3l-4.7-2.7l-3.2,1.2l-3.1-5.3l2.7-2.3v-5.3l-2.6-2.3
	l3.1-5.3l3.2,1.2l4.7-2.7l0.6-3.2h6.2l0.6,3.3l4.6,2.7l3.2-1.2l3.1,5.3L-134.1-280.3z"/>
<g>
	<path d="M-893.1-329l1.3,2.9c0.2,0.4,0.3,0.8,0.5,1.2h0c0.1-0.3,0.3-0.7,0.4-1.2l1.1-2.9h0.9l-1.4,3.5c-0.4,0.9-0.8,1.9-1.3,2.5
		c-0.4,0.5-0.9,0.8-1.5,0.8c-0.2,0-0.4,0-0.5-0.1l0.1-0.7c0.1,0,0.2,0,0.3,0c0.7,0,1.1-0.7,1.3-1.1c0.1-0.1,0-0.3,0-0.4l-2.2-4.6
		H-893.1z"/>
	<path d="M-888.4-327c0.4-0.1,1-0.1,1.5-0.1c0.8,0,2.2,0.1,2.2,1.2c0,0.6-0.5,1-1,1.1v0c0.7,0.1,1.2,0.5,1.2,1.2
		c0,1.3-1.6,1.4-2.5,1.4c-0.5,0-1.1,0-1.4-0.1V-327z M-887.6-322.8c0.3,0,0.4,0,0.7,0c0.6,0,1.5-0.1,1.5-0.8c0-0.7-0.7-0.8-1.5-0.8
		h-0.6V-322.8z M-887.6-325h0.7c0.6,0,1.3-0.2,1.3-0.8c0-0.5-0.4-0.7-1.3-0.7c-0.3,0-0.5,0-0.7,0V-325z"/>
	<path d="M-882.9-324.5c0,1.2,0.8,1.7,1.7,1.7c0.6,0,1-0.1,1.3-0.3l0.2,0.6c-0.3,0.1-0.8,0.3-1.6,0.3c-1.5,0-2.4-1-2.4-2.4
		c0-1.5,0.9-2.6,2.3-2.6c1.6,0,2,1.4,2,2.3c0,0.2,0,0.3,0,0.4H-882.9z M-880.3-325.1c0-0.5-0.2-1.4-1.2-1.4c-0.9,0-1.3,0.8-1.3,1.4
		H-880.3z"/>
	<path d="M-874.6-327.1v4.2l0.5,0l0,2.2h-0.7l0-1.5h-3.3l0,1.5h-0.7l0-2.2l0.4,0c0.2-0.3,0.4-0.6,0.5-1c0.2-0.6,0.3-1.2,0.3-1.9
		v-1.3H-874.6z M-877.1-325.6c0,0.6-0.1,1.3-0.3,1.8c-0.1,0.3-0.2,0.6-0.4,0.9h2.2v-3.5h-1.6V-325.6z"/>
	<path d="M-868.7-324.7c0,1.8-1.3,2.6-2.4,2.6c-1.3,0-2.3-1-2.3-2.5c0-1.6,1.1-2.6,2.4-2.6C-869.7-327.2-868.7-326.1-868.7-324.7z
		 M-872.6-324.6c0,1.1,0.6,1.9,1.5,1.9c0.8,0,1.5-0.8,1.5-1.9c0-0.8-0.4-1.8-1.4-1.8C-872.1-326.5-872.6-325.5-872.6-324.6z"/>
	<path d="M-867.6-327.1h1.1l0.9,2.4c0.1,0.4,0.3,0.9,0.4,1.3h0c0.1-0.4,0.4-1.1,0.6-1.7l0.8-2.1h1.1l0.3,4.8h-0.8l-0.1-2.3
		c0-0.5-0.1-1.1-0.1-1.7h0c-0.1,0.4-0.3,0.8-0.5,1.6l-0.9,2.4h-0.6l-0.9-2.4c-0.2-0.4-0.4-1.1-0.5-1.6h0c0,0.6,0,1.2-0.1,1.7
		l-0.1,2.3h-0.8L-867.6-327.1z"/>
	<path d="M-857.5-327.1v4.8h-0.9v-4.1h-1.7v1.2c0,1.4-0.1,2.3-0.8,2.7c-0.2,0.2-0.5,0.3-1,0.3l-0.1-0.7c0.2,0,0.4-0.1,0.5-0.2
		c0.4-0.3,0.5-1,0.5-2.1v-1.9H-857.5z"/>
	<path d="M-855.5-324.5c0,1.2,0.8,1.7,1.7,1.7c0.6,0,1-0.1,1.3-0.3l0.2,0.6c-0.3,0.1-0.8,0.3-1.6,0.3c-1.5,0-2.4-1-2.4-2.4
		c0-1.5,0.9-2.6,2.3-2.6c1.6,0,2,1.4,2,2.3c0,0.2,0,0.3,0,0.4H-855.5z M-853-325.1c0-0.5-0.2-1.4-1.2-1.4c-0.9,0-1.3,0.8-1.3,1.4
		H-853z"/>
	<path d="M-850.2-327.1v1.9h2.3v-1.9h0.9v4.8h-0.9v-2.2h-2.3v2.2h-0.9v-4.8H-850.2z"/>
	<path d="M-844.7-327.1v2c0,0.8,0,1.2-0.1,1.9l0,0c0.3-0.6,0.5-0.9,0.8-1.5l1.5-2.5h1v4.8h-0.8v-2c0-0.8,0-1.2,0.1-2h0
		c-0.3,0.6-0.5,1-0.8,1.5c-0.5,0.8-1,1.7-1.5,2.5h-1v-4.8H-844.7z"/>
	<path d="M-839.5-324.5c0,1.2,0.8,1.7,1.7,1.7c0.6,0,1-0.1,1.3-0.3l0.2,0.6c-0.3,0.1-0.8,0.3-1.6,0.3c-1.5,0-2.4-1-2.4-2.4
		c0-1.5,0.9-2.6,2.3-2.6c1.6,0,2,1.4,2,2.3c0,0.2,0,0.3,0,0.4H-839.5z M-836.9-325.1c0-0.5-0.2-1.4-1.2-1.4c-0.9,0-1.3,0.8-1.3,1.4
		H-836.9z"/>
</g>
<g>
	<path d="M-875.5-234.2v0.6c1.4,0.1,2.8,0.9,2.8,3c0,2.1-1.4,2.9-2.8,3v0.6h-0.8v-0.6c-1.4-0.1-2.8-0.8-2.8-3c0-2.2,1.5-3,2.8-3.1
		v-0.6H-875.5z M-876.4-233c-0.9,0-1.9,0.7-1.9,2.4c0,1.6,0.9,2.3,1.9,2.4V-233z M-875.5-228.2c1-0.1,1.9-0.7,1.9-2.4
		c0-1.7-1-2.3-1.9-2.4V-228.2z"/>
	<path d="M-868.2-228.4c0,0.4,0,0.8,0.1,1.2h-0.8l-0.1-0.6h0c-0.3,0.4-0.8,0.7-1.5,0.7c-1,0-1.5-0.7-1.5-1.4c0-1.2,1-1.8,2.9-1.8
		v-0.1c0-0.4-0.1-1.1-1.1-1.1c-0.5,0-0.9,0.1-1.3,0.4l-0.2-0.6c0.4-0.3,1-0.4,1.6-0.4c1.5,0,1.8,1,1.8,2V-228.4z M-869.1-229.7
		c-1,0-2,0.1-2,1.1c0,0.6,0.4,0.8,0.8,0.8c0.6,0,1-0.4,1.2-0.8c0-0.1,0-0.2,0-0.3V-229.7z"/>
	<path d="M-866-232.1v2c0,0.8,0,1.2-0.1,1.9l0,0c0.3-0.6,0.5-0.9,0.8-1.5l1.5-2.5h1v4.8h-0.8v-2c0-0.8,0-1.2,0.1-2h0
		c-0.3,0.6-0.5,1-0.8,1.5c-0.5,0.8-1,1.7-1.5,2.5h-1v-4.8H-866z M-865.4-234c0,0.4,0.2,0.8,0.6,0.8c0.4,0,0.6-0.3,0.7-0.8h0.6
		c0,0.8-0.6,1.2-1.3,1.2c-0.9,0-1.2-0.6-1.3-1.2H-865.4z"/>
	<path d="M-857.6-232.1v4.8h-0.9v-4.1h-1.7v1.2c0,1.4-0.1,2.3-0.8,2.7c-0.2,0.2-0.5,0.3-1,0.3l-0.1-0.7c0.2,0,0.4-0.1,0.5-0.2
		c0.4-0.3,0.5-1,0.5-2.1v-1.9H-857.6z"/>
	<path d="M-855.3-232.1v1.6c0.2,0,0.5-0.1,0.8-0.1c1,0,2.1,0.4,2.1,1.6c0,0.5-0.2,0.9-0.5,1.1c-0.5,0.4-1.3,0.6-1.9,0.6
		c-0.5,0-0.9,0-1.3-0.1v-4.8H-855.3z M-855.3-227.9c0.2,0,0.4,0,0.6,0c0.7,0,1.4-0.3,1.4-1c0-0.8-0.7-1-1.4-1c-0.3,0-0.5,0-0.6,0.1
		V-227.9z M-851-232.1v4.8h-0.9v-4.8H-851z"/>
</g>
<g>
	<path d="M-876.6-132.5c-0.3,0.2-1,0.3-1.8,0.3c-1.9,0-3.3-1.2-3.3-3.4c0-2.1,1.4-3.5,3.5-3.5c0.8,0,1.4,0.2,1.6,0.3l-0.2,0.7
		c-0.3-0.2-0.8-0.3-1.3-0.3c-1.6,0-2.6,1-2.6,2.8c0,1.7,0.9,2.7,2.6,2.7c0.5,0,1.1-0.1,1.4-0.3L-876.6-132.5z"/>
	<path d="M-874.7-137.1v2.1h0.2l1.8-2.1h1.1l-2.1,2.2c0.8,0.1,1.2,0.6,1.6,1.5c0.1,0.3,0.3,0.8,0.5,1.2h-0.9c-0.1-0.2-0.3-0.6-0.4-1
		c-0.3-0.8-0.8-1.1-1.6-1.1h-0.2v2.1h-0.9v-4.8H-874.7z"/>
	<path d="M-867.2-133.4c0,0.4,0,0.8,0.1,1.2h-0.8l-0.1-0.6h0c-0.3,0.4-0.8,0.7-1.5,0.7c-1,0-1.5-0.7-1.5-1.4c0-1.2,1-1.8,2.9-1.8
		v-0.1c0-0.4-0.1-1.1-1.1-1.1c-0.5,0-0.9,0.1-1.3,0.4l-0.2-0.6c0.4-0.3,1-0.4,1.6-0.4c1.5,0,1.8,1,1.8,2V-133.4z M-868.1-134.7
		c-1,0-2,0.1-2,1.1c0,0.6,0.4,0.8,0.8,0.8c0.6,0,1-0.4,1.2-0.8c0-0.1,0-0.2,0-0.3V-134.7z"/>
	<path d="M-865.2-137.1v1.6c0,0.6,0.2,1,1,1c0.4,0,0.8-0.1,1-0.3v-2.3h0.9v4.9h-0.9v-1.9h0c-0.3,0.2-0.9,0.4-1.3,0.4
		c-0.9,0-1.6-0.5-1.6-1.6v-1.7H-865.2z"/>
	<path d="M-857.4-133.4c0,0.4,0,0.8,0.1,1.2h-0.8l-0.1-0.6h0c-0.3,0.4-0.8,0.7-1.5,0.7c-1,0-1.5-0.7-1.5-1.4c0-1.2,1-1.8,2.9-1.8
		v-0.1c0-0.4-0.1-1.1-1.1-1.1c-0.5,0-0.9,0.1-1.3,0.4l-0.2-0.6c0.4-0.3,1-0.4,1.6-0.4c1.5,0,1.8,1,1.8,2V-133.4z M-858.3-134.7
		c-1,0-2,0.1-2,1.1c0,0.6,0.4,0.8,0.8,0.8c0.6,0,1-0.4,1.2-0.8c0-0.1,0-0.2,0-0.3V-134.7z"/>
	<path d="M-852.8-137.1v0.7h-1.5v4.1h-0.9v-4.1h-1.5v-0.7H-852.8z"/>
	<path d="M-851.2-137.1v1.6c0.2,0,0.5-0.1,0.8-0.1c1.1,0,2.2,0.4,2.2,1.6c0,0.5-0.2,0.8-0.5,1.1c-0.5,0.4-1.4,0.6-2.1,0.6
		c-0.5,0-0.9,0-1.3-0.1v-4.8H-851.2z M-851.2-132.9c0.2,0,0.4,0,0.7,0c0.6,0,1.5-0.2,1.5-1c0-0.8-0.9-1-1.5-1c-0.2,0-0.4,0-0.6,0.1
		V-132.9z"/>
</g>
<g>
	<path d="M-893.1-44v3h0.3l2.3-3h1l-2.5,3.1c1.1,0.1,1.5,0.8,1.9,1.7c0.3,0.7,0.4,1.3,0.7,1.9h-0.9c-0.3-0.5-0.4-1.1-0.6-1.6
		c-0.3-0.9-0.7-1.5-1.9-1.5h-0.3v3.1h-0.9V-44H-893.1z"/>
	<path d="M-884.3-39.7c0,1.8-1.3,2.6-2.4,2.6c-1.3,0-2.3-1-2.3-2.5c0-1.6,1.1-2.6,2.4-2.6C-885.2-42.2-884.3-41.2-884.3-39.7z
		 M-888.1-39.7c0,1.1,0.6,1.9,1.5,1.9c0.8,0,1.5-0.8,1.5-1.9c0-0.8-0.4-1.8-1.4-1.8C-887.6-41.5-888.1-40.6-888.1-39.7z"/>
	<path d="M-883.1-42.1h1.1l0.9,2.4c0.1,0.4,0.3,0.9,0.4,1.3h0c0.1-0.4,0.4-1.1,0.6-1.7l0.8-2.1h1.1l0.3,4.8h-0.8l-0.1-2.3
		c0-0.5-0.1-1.1-0.1-1.7h0c-0.1,0.4-0.3,0.8-0.5,1.6l-0.9,2.4h-0.6l-0.9-2.4c-0.2-0.4-0.4-1.1-0.5-1.6h0c0,0.6,0,1.2-0.1,1.7
		l-0.1,2.3h-0.8L-883.1-42.1z"/>
	<path d="M-876.7-42.1h1.1l0.9,2.4c0.1,0.4,0.3,0.9,0.4,1.3h0c0.1-0.4,0.4-1.1,0.6-1.7l0.8-2.1h1.1l0.3,4.8h-0.8l-0.1-2.3
		c0-0.5-0.1-1.1-0.1-1.7h0c-0.1,0.4-0.3,0.8-0.5,1.6l-0.9,2.4h-0.6l-0.9-2.4c-0.2-0.4-0.4-1.1-0.5-1.6h0c0,0.6,0,1.2-0.1,1.7
		l-0.1,2.3h-0.8L-876.7-42.1z"/>
	<path d="M-869.9-39.5c0,1.2,0.8,1.7,1.7,1.7c0.6,0,1-0.1,1.3-0.3l0.2,0.6c-0.3,0.1-0.8,0.3-1.6,0.3c-1.5,0-2.4-1-2.4-2.4
		c0-1.5,0.9-2.6,2.3-2.6c1.6,0,2,1.4,2,2.3c0,0.2,0,0.3,0,0.4H-869.9z M-867.3-40.2c0-0.5-0.2-1.4-1.2-1.4c-0.9,0-1.3,0.8-1.3,1.4
		H-867.3z"/>
	<path d="M-864.5-42.1v1.9h2.3v-1.9h0.9v4.8h-0.9v-2.2h-2.3v2.2h-0.9v-4.8H-864.5z"/>
	<path d="M-856.7-42.1v0.7h-1.5v4.1h-0.9v-4.1h-1.5v-0.7H-856.7z"/>
	<path d="M-852.6-38.4c0,0.4,0,0.8,0.1,1.2h-0.8l-0.1-0.6h0c-0.3,0.4-0.8,0.7-1.5,0.7c-1,0-1.5-0.7-1.5-1.4c0-1.2,1-1.8,2.9-1.8
		v-0.1c0-0.4-0.1-1.1-1.1-1.1c-0.5,0-0.9,0.1-1.3,0.4l-0.2-0.6c0.4-0.3,1-0.4,1.6-0.4c1.5,0,1.8,1,1.8,2V-38.4z M-853.4-39.7
		c-1,0-2,0.2-2,1.1c0,0.6,0.4,0.8,0.8,0.8c0.6,0,1-0.4,1.2-0.8c0-0.1,0-0.2,0-0.3V-39.7z"/>
	<path d="M-851.1-40.5c0-0.6,0-1.1,0-1.6h0.8l0.1,0.8h0c0.3-0.6,0.9-0.9,1.7-0.9c1.2,0,2.1,1,2.1,2.4c0,1.7-1.1,2.6-2.2,2.6
		c-0.6,0-1.2-0.3-1.5-0.8h0v2.6h-0.9V-40.5z M-850.3-39.2c0,0.1,0,0.3,0,0.4c0.2,0.6,0.7,1,1.3,1c0.9,0,1.5-0.8,1.5-1.9
		c0-1-0.5-1.8-1.4-1.8c-0.6,0-1.2,0.4-1.3,1.1c0,0.1-0.1,0.2-0.1,0.3V-39.2z"/>
	<path d="M-844.6-42.1v2c0,0.8,0,1.2-0.1,1.9l0,0c0.3-0.6,0.5-0.9,0.8-1.5l1.5-2.5h1v4.8h-0.8v-2c0-0.8,0-1.2,0.1-2h0
		c-0.3,0.6-0.5,1-0.8,1.5c-0.5,0.8-1,1.7-1.5,2.5h-1v-4.8H-844.6z"/>
	<path d="M-839.1-42.1v2c0,0.8,0,1.2-0.1,1.9l0,0c0.3-0.6,0.5-0.9,0.8-1.5l1.5-2.5h1v4.8h-0.8v-2c0-0.8,0-1.2,0.1-2h0
		c-0.3,0.6-0.5,1-0.8,1.5c-0.5,0.8-1,1.7-1.5,2.5h-1v-4.8H-839.1z"/>
</g>
<g>
	<path d="M-872.2,54.3c0,2.3-1.4,3.5-3.1,3.5c-1.8,0-3-1.4-3-3.4c0-2.1,1.3-3.5,3.1-3.5C-873.4,50.9-872.2,52.3-872.2,54.3z
		 M-877.5,54.4c0,1.4,0.8,2.7,2.2,2.7c1.4,0,2.2-1.3,2.2-2.8c0-1.3-0.7-2.7-2.1-2.7S-877.5,52.9-877.5,54.4z"/>
	<path d="M-867.5,51.2c-0.2,0.1-0.7,0.2-1,0.2c-0.8,0.1-1.4,0.4-1.7,0.9c-0.3,0.4-0.5,1.1-0.5,1.6h0c0.3-0.7,1-1.1,1.7-1.1
		c1.2,0,2.1,0.8,2.1,2.4c0,1.6-0.8,2.6-2.2,2.6c-1.7,0-2.3-1.6-2.3-3.2c0-1.1,0.2-2,0.8-2.7c0.5-0.7,1.1-1,2.1-1.1
		c0.4-0.1,0.9-0.2,1.2-0.3L-867.5,51.2z M-869.2,53.5c-0.5,0-0.9,0.3-1.1,0.7c-0.2,0.3-0.2,0.6-0.2,1c0,0.8,0.4,2,1.4,2
		c1,0,1.3-0.9,1.3-1.8C-867.9,54.5-868.2,53.5-869.2,53.5z"/>
	<path d="M-865.5,54.9h0.4c0.7,0,1.2-0.3,1.2-0.8c0-0.4-0.4-0.7-0.9-0.7c-0.4,0-0.8,0.1-1.2,0.3l-0.2-0.5c0.5-0.3,1-0.4,1.6-0.4
		c0.7,0,1.6,0.3,1.6,1.3c0,0.6-0.5,1-1.1,1.1v0c0.7,0.1,1.3,0.5,1.3,1.2c0,1-1.1,1.4-2.1,1.4c-0.6,0-1.1-0.1-1.6-0.4l0.2-0.6
		c0.3,0.2,0.8,0.3,1.3,0.3c0.7,0,1.2-0.3,1.2-0.8c0-0.6-0.7-0.8-1.4-0.8h-0.4L-865.5,54.9z"/>
	<path d="M-857.2,55.3c0,1.8-1.3,2.6-2.4,2.6c-1.3,0-2.3-1-2.3-2.5c0-1.6,1.1-2.6,2.4-2.6C-858.1,52.8-857.2,53.8-857.2,55.3z
		 M-861,55.3c0,1.1,0.6,1.9,1.5,1.9c0.8,0,1.5-0.8,1.5-1.9c0-0.8-0.4-1.8-1.4-1.8C-860.5,53.4-861,54.4-861,55.3z"/>
	<path d="M-856.1,54.5c0-0.6,0-1.1,0-1.6h0.8l0.1,0.8h0c0.3-0.6,0.9-0.9,1.7-0.9c1.2,0,2.1,1,2.1,2.4c0,1.7-1.1,2.6-2.2,2.6
		c-0.6,0-1.2-0.3-1.5-0.8h0v2.6h-0.9V54.5z M-855.2,55.7c0,0.1,0,0.2,0,0.4c0.2,0.6,0.7,1,1.3,1c0.9,0,1.5-0.8,1.5-1.9
		c0-1-0.5-1.8-1.4-1.8c-0.6,0-1.2,0.4-1.3,1.1c0,0.1-0.1,0.2-0.1,0.3V55.7z"/>
</g>
<g>
	<path d="M-799.5-329.7c0,2.3-1.4,3.5-3.1,3.5c-1.8,0-3-1.4-3-3.4c0-2.1,1.3-3.5,3.1-3.5C-800.7-333.1-799.5-331.7-799.5-329.7z
		 M-804.7-329.6c0,1.4,0.8,2.7,2.2,2.7c1.4,0,2.2-1.3,2.2-2.8c0-1.3-0.7-2.7-2.1-2.7S-804.7-331.1-804.7-329.6z"/>
	<path d="M-794.4-331.1v4.8h-0.9v-4.1h-2.2v4.1h-0.9v-4.8H-794.4z"/>
	<path d="M-792.1-331.1v2c0,0.8,0,1.2-0.1,1.9l0,0c0.3-0.6,0.5-0.9,0.8-1.5l1.5-2.5h1v4.8h-0.8v-2c0-0.8,0-1.2,0.1-2h0
		c-0.3,0.6-0.5,1-0.8,1.5c-0.5,0.8-1,1.7-1.5,2.5h-1v-4.8H-792.1z"/>
	<path d="M-784-326.4c-0.2,0.1-0.7,0.3-1.4,0.3c-1.5,0-2.4-1-2.4-2.5c0-1.5,1-2.6,2.6-2.6c0.5,0,1,0.1,1.2,0.3l-0.2,0.7
		c-0.2-0.1-0.5-0.2-1-0.2c-1.1,0-1.7,0.8-1.7,1.8c0,1.1,0.7,1.8,1.7,1.8c0.5,0,0.8-0.1,1.1-0.2L-784-326.4z"/>
	<path d="M-779.5-327.4c0,0.4,0,0.8,0.1,1.2h-0.8l-0.1-0.6h0c-0.3,0.4-0.8,0.7-1.5,0.7c-1,0-1.5-0.7-1.5-1.4c0-1.2,1-1.8,2.9-1.8
		v-0.1c0-0.4-0.1-1.1-1.1-1.1c-0.5,0-0.9,0.1-1.3,0.4l-0.2-0.6c0.4-0.3,1-0.4,1.6-0.4c1.5,0,1.8,1,1.8,2V-327.4z M-780.4-328.7
		c-1,0-2,0.1-2,1.1c0,0.6,0.4,0.8,0.8,0.8c0.6,0,1-0.4,1.2-0.8c0-0.1,0-0.2,0-0.3V-328.7z"/>
	<path d="M-777.2-331.1v1.9h2.3v-1.9h0.9v4.8h-0.9v-2.2h-2.3v2.2h-0.9v-4.8H-777.2z"/>
	<path d="M-771.8-331.1v2c0,0.8,0,1.2-0.1,1.9l0,0c0.3-0.6,0.5-0.9,0.8-1.5l1.5-2.5h1v4.8h-0.8v-2c0-0.8,0-1.2,0.1-2h0
		c-0.3,0.6-0.5,1-0.8,1.5c-0.5,0.8-1,1.7-1.5,2.5h-1v-4.8H-771.8z"/>
	<path d="M-766.6-328.5c0,1.2,0.8,1.7,1.7,1.7c0.6,0,1-0.1,1.3-0.3l0.2,0.6c-0.3,0.1-0.8,0.3-1.6,0.3c-1.5,0-2.4-1-2.4-2.4
		c0-1.5,0.9-2.6,2.3-2.6c1.6,0,2,1.4,2,2.3c0,0.2,0,0.3,0,0.4H-766.6z M-764-329.1c0-0.5-0.2-1.4-1.2-1.4c-0.9,0-1.3,0.8-1.3,1.4
		H-764z"/>
</g>
<g>
	<path d="M-799.5-233.9c0.4-0.1,1-0.1,1.6-0.1c0.9,0,1.4,0.1,1.8,0.5c0.3,0.3,0.6,0.7,0.6,1.2c0,0.7-0.4,1.2-1.1,1.5v0
		c0.6,0.1,1.4,0.7,1.4,1.7c0,0.6-0.2,1-0.6,1.3c-0.5,0.4-1.2,0.6-2.3,0.6c-0.6,0-1.1,0-1.3-0.1V-233.9z M-798.6-231.1h0.8
		c0.9,0,1.4-0.5,1.4-1.1c0-0.8-0.6-1.1-1.5-1.1c-0.4,0-0.6,0-0.8,0.1V-231.1z M-798.6-227.9c0.2,0,0.4,0,0.7,0
		c0.9,0,1.7-0.3,1.7-1.3c0-0.9-0.8-1.3-1.7-1.3h-0.7V-227.9z"/>
	<path d="M-793.6-229.5c0,1.2,0.8,1.7,1.7,1.7c0.6,0,1-0.1,1.3-0.3l0.2,0.6c-0.3,0.1-0.8,0.3-1.6,0.3c-1.5,0-2.4-1-2.4-2.4
		c0-1.5,0.9-2.6,2.3-2.6c1.6,0,2,1.4,2,2.3c0,0.2,0,0.3,0,0.4H-793.6z M-791-230.1c0-0.5-0.2-1.4-1.2-1.4c-0.9,0-1.3,0.8-1.3,1.4
		H-791z"/>
	<path d="M-789.1-230.5c0-0.6,0-1.1,0-1.6h0.8l0.1,0.8h0c0.3-0.6,0.9-0.9,1.7-0.9c1.2,0,2.1,1,2.1,2.4c0,1.7-1.1,2.6-2.2,2.6
		c-0.6,0-1.2-0.3-1.5-0.8h0v2.6h-0.9V-230.5z M-788.2-229.2c0,0.1,0,0.2,0,0.4c0.2,0.6,0.7,1,1.3,1c0.9,0,1.5-0.8,1.5-1.9
		c0-1-0.5-1.8-1.4-1.8c-0.6,0-1.2,0.4-1.3,1.1c0,0.1-0.1,0.2-0.1,0.3V-229.2z"/>
	<path d="M-779.9-227.4c-0.2,0.1-0.7,0.3-1.4,0.3c-1.5,0-2.4-1-2.4-2.5c0-1.5,1-2.6,2.6-2.6c0.5,0,1,0.1,1.2,0.3l-0.2,0.7
		c-0.2-0.1-0.5-0.2-1-0.2c-1.1,0-1.7,0.8-1.7,1.8c0,1.1,0.7,1.8,1.7,1.8c0.5,0,0.8-0.1,1.1-0.2L-779.9-227.4z"/>
	<path d="M-778.1-232.1v2c0,0.8,0,1.2-0.1,1.9l0,0c0.3-0.6,0.5-0.9,0.8-1.5l1.5-2.5h1v4.8h-0.8v-2c0-0.8,0-1.2,0.1-2h0
		c-0.3,0.6-0.5,1-0.8,1.5c-0.5,0.8-1,1.7-1.5,2.5h-1v-4.8H-778.1z"/>
	<path d="M-772.5-232.1v2c0,0.8,0,1.2-0.1,1.9l0,0c0.3-0.6,0.5-0.9,0.8-1.5l1.5-2.5h1v4.8h-0.8v-2c0-0.8,0-1.2,0.1-2h0
		c-0.3,0.6-0.5,1-0.8,1.5c-0.5,0.8-1,1.7-1.5,2.5h-1v-4.8H-772.5z"/>
</g>
<g>
	<path d="M-799.4-132.5c-0.3,0.2-1,0.3-1.8,0.3c-1.9,0-3.3-1.2-3.3-3.4c0-2.1,1.4-3.5,3.5-3.5c0.8,0,1.4,0.2,1.6,0.3l-0.2,0.7
		c-0.3-0.2-0.8-0.3-1.3-0.3c-1.6,0-2.6,1-2.6,2.8c0,1.7,0.9,2.7,2.6,2.7c0.5,0,1.1-0.1,1.4-0.3L-799.4-132.5z"/>
	<path d="M-798.3-137c0.4-0.1,1-0.1,1.5-0.1c0.8,0,2.2,0.1,2.2,1.2c0,0.6-0.5,1-1,1.1v0c0.7,0.1,1.2,0.5,1.2,1.2
		c0,1.3-1.6,1.4-2.5,1.4c-0.5,0-1.1,0-1.4-0.1V-137z M-797.5-132.8c0.3,0,0.4,0,0.7,0c0.6,0,1.5-0.1,1.5-0.8c0-0.7-0.7-0.8-1.5-0.8
		h-0.6V-132.8z M-797.5-135h0.7c0.6,0,1.3-0.2,1.3-0.8c0-0.5-0.4-0.7-1.3-0.7c-0.3,0-0.5,0-0.7,0V-135z"/>
	<path d="M-792.8-134.5c0,1.2,0.8,1.7,1.7,1.7c0.6,0,1-0.1,1.3-0.3l0.2,0.6c-0.3,0.1-0.8,0.3-1.6,0.3c-1.5,0-2.4-1-2.4-2.4
		c0-1.5,0.9-2.6,2.3-2.6c1.6,0,2,1.4,2,2.3c0,0.2,0,0.3,0,0.4H-792.8z M-790.2-135.1c0-0.5-0.2-1.4-1.2-1.4c-0.9,0-1.3,0.8-1.3,1.4
		H-790.2z"/>
	<path d="M-788.3-135.5c0-0.6,0-1.1,0-1.6h0.8l0.1,0.8h0c0.3-0.6,0.9-0.9,1.7-0.9c1.2,0,2.1,1,2.1,2.4c0,1.7-1.1,2.6-2.2,2.6
		c-0.6,0-1.2-0.3-1.5-0.8h0v2.6h-0.9V-135.5z M-787.4-134.2c0,0.1,0,0.2,0,0.4c0.2,0.6,0.7,1,1.3,1c0.9,0,1.5-0.8,1.5-1.9
		c0-1-0.5-1.8-1.4-1.8c-0.6,0-1.2,0.4-1.3,1.1c0,0.1-0.1,0.2-0.1,0.3V-134.2z"/>
	<path d="M-781.8-137.1v1.9h2.3v-1.9h0.9v4.8h-0.9v-2.2h-2.3v2.2h-0.9v-4.8H-781.8z"/>
	<path d="M-776.9-137.1l1,2.9c0.1,0.3,0.2,0.7,0.3,1h0c0.1-0.3,0.2-0.7,0.3-1l1-2.8h0.9l-1.3,3.4c-0.6,1.7-1.1,2.5-1.7,3
		c-0.4,0.4-0.9,0.5-1.1,0.6l-0.2-0.7c0.2-0.1,0.5-0.2,0.8-0.4c0.2-0.2,0.5-0.5,0.7-1c0-0.1,0.1-0.2,0.1-0.2s0-0.1-0.1-0.2l-1.8-4.5
		H-776.9z"/>
	<path d="M-769-137.1v0.7h-1.5v4.1h-0.9v-4.1h-1.5v-0.7H-769z"/>
	<path d="M-767.4-137.1v1.6c0.2,0,0.5-0.1,0.8-0.1c1.1,0,2.2,0.4,2.2,1.6c0,0.5-0.2,0.8-0.5,1.1c-0.5,0.4-1.4,0.6-2.1,0.6
		c-0.5,0-0.9,0-1.3-0.1v-4.8H-767.4z M-767.4-132.9c0.2,0,0.4,0,0.7,0c0.7,0,1.5-0.2,1.5-1c0-0.8-0.9-1-1.5-1c-0.2,0-0.4,0-0.6,0.1
		V-132.9z"/>
</g>
<g>
	<path d="M-792.1-44v6.7h-0.9v-6h-3.1v6h-0.9V-44H-792.1z"/>
	<path d="M-786.2-39.7c0,1.8-1.3,2.6-2.4,2.6c-1.3,0-2.3-1-2.3-2.5c0-1.6,1.1-2.6,2.4-2.6C-787.2-42.2-786.2-41.2-786.2-39.7z
		 M-790.1-39.7c0,1.1,0.6,1.9,1.5,1.9c0.8,0,1.5-0.8,1.5-1.9c0-0.8-0.4-1.8-1.4-1.8C-789.6-41.5-790.1-40.6-790.1-39.7z"/>
	<path d="M-784.3-42.1v2c0,0.8,0,1.2-0.1,1.9l0,0c0.3-0.6,0.5-0.9,0.8-1.5l1.5-2.5h1v4.8h-0.8v-2c0-0.8,0-1.2,0.1-2h0
		c-0.3,0.6-0.5,1-0.8,1.5c-0.5,0.8-1,1.7-1.5,2.5h-1v-4.8H-784.3z"/>
	<path d="M-776.1-37.4c-0.2,0.1-0.7,0.3-1.4,0.3c-1.5,0-2.4-1-2.4-2.5c0-1.5,1-2.6,2.6-2.6c0.5,0,1,0.1,1.2,0.3l-0.2,0.7
		c-0.2-0.1-0.5-0.2-1-0.2c-1.1,0-1.7,0.8-1.7,1.8c0,1.1,0.7,1.8,1.7,1.8c0.5,0,0.8-0.1,1.1-0.2L-776.1-37.4z"/>
	<path d="M-774.2-42.1v2.1h0.2l1.8-2.1h1.1l-2.1,2.2c0.8,0.1,1.2,0.6,1.6,1.5c0.1,0.3,0.3,0.8,0.5,1.2h-0.9c-0.1-0.2-0.3-0.6-0.4-1
		c-0.3-0.8-0.8-1.1-1.6-1.1h-0.2v2.1h-0.9v-4.8H-774.2z"/>
</g>
<g>
	<path d="M-787.3,54.8c0-0.9-0.1-2.1-0.1-2.9h0c-0.2,0.8-0.5,1.6-0.8,2.6l-1.2,3.3h-0.7l-1.1-3.2c-0.3-1-0.6-1.8-0.8-2.6h0
		c0,0.8-0.1,2-0.1,3l-0.2,2.9h-0.8l0.5-6.7h1.1l1.1,3.3c0.3,0.8,0.5,1.6,0.7,2.3h0c0.2-0.7,0.4-1.4,0.7-2.3l1.2-3.3h1.1l0.4,6.7
		h-0.9L-787.3,54.8z"/>
	<path d="M-780.6,55.3c0,1.8-1.3,2.6-2.4,2.6c-1.3,0-2.3-1-2.3-2.5c0-1.6,1.1-2.6,2.4-2.6C-781.6,52.8-780.6,53.8-780.6,55.3z
		 M-784.5,55.3c0,1.1,0.6,1.9,1.5,1.9c0.8,0,1.5-0.8,1.5-1.9c0-0.8-0.4-1.8-1.4-1.8C-784,53.4-784.5,54.4-784.5,55.3z"/>
	<path d="M-775.8,52.9v4.2l0.5,0l0,2.2h-0.7l0-1.5h-3.3l0,1.5h-0.7l0-2.2l0.4,0c0.2-0.3,0.4-0.6,0.5-1c0.2-0.6,0.3-1.2,0.3-1.9v-1.3
		H-775.8z M-778.3,54.3c0,0.6-0.1,1.3-0.3,1.8c-0.1,0.3-0.2,0.6-0.4,0.9h2.2v-3.5h-1.6V54.3z"/>
</g>
<g>
	<path d="M-718.6-333h3.6v0.7h-2.7v2.2h2.5v0.7h-2.5v3h-0.9V-333z"/>
	<path d="M-714.9-326.8c0-0.4,0.3-0.6,0.6-0.6s0.6,0.3,0.6,0.6c0,0.4-0.2,0.6-0.6,0.6C-714.7-326.1-714.9-326.4-714.9-326.8z"/>
	<path d="M-711.5-328.4l-0.7,2.1h-0.9l2.3-6.7h1l2.3,6.7h-0.9l-0.7-2.1H-711.5z M-709.3-329l-0.7-1.9c-0.2-0.4-0.3-0.8-0.4-1.2h0
		c-0.1,0.4-0.2,0.8-0.3,1.2l-0.7,1.9H-709.3z"/>
	<path d="M-706.7-326.8c0-0.4,0.3-0.6,0.6-0.6s0.6,0.3,0.6,0.6c0,0.4-0.2,0.6-0.6,0.6C-706.5-326.1-706.7-326.4-706.7-326.8z"/>
	<path d="M-698.9-325.3c-0.9-0.2-1.8-0.5-2.6-0.8c-0.2,0-0.3-0.1-0.4-0.1c-1.6-0.1-3-1.2-3-3.4c0-2.2,1.3-3.5,3.1-3.5
		c1.8,0,3,1.4,3,3.4c0,1.7-0.8,2.8-1.9,3.2v0c0.7,0.2,1.4,0.3,2,0.4L-698.9-325.3z M-699.6-329.6c0-1.4-0.7-2.7-2.1-2.7
		c-1.5,0-2.2,1.4-2.2,2.8c0,1.4,0.8,2.7,2.2,2.7C-700.4-326.8-699.6-328.1-699.6-329.6z"/>
	<path d="M-698.1-326.8c0-0.4,0.3-0.6,0.6-0.6s0.6,0.3,0.6,0.6c0,0.4-0.2,0.6-0.6,0.6C-697.9-326.1-698.1-326.4-698.1-326.8z"/>
</g>
<g>
	<path d="M-732.3-234v2.8c0,1.1,0,1.9-0.1,2.8l0,0c0.3-0.7,0.7-1.4,1.2-2.2l2.2-3.5h0.9v6.7h-0.8v-2.9c0-1.1,0-1.9,0.1-2.7l0,0
		c-0.3,0.7-0.8,1.5-1.2,2.3l-2.1,3.4h-0.9v-6.7H-732.3z"/>
	<path d="M-725.7-232.1v1.9h2.3v-1.9h0.9v4.8h-0.9v-2.2h-2.3v2.2h-0.9v-4.8H-725.7z"/>
	<path d="M-717.6-227.4c-0.2,0.1-0.7,0.3-1.4,0.3c-1.5,0-2.4-1-2.4-2.5c0-1.5,1-2.6,2.6-2.6c0.5,0,1,0.1,1.2,0.3l-0.2,0.7
		c-0.2-0.1-0.5-0.2-1-0.2c-1.1,0-1.7,0.8-1.7,1.8c0,1.1,0.7,1.8,1.7,1.8c0.5,0,0.8-0.1,1.1-0.2L-717.6-227.4z"/>
	<path d="M-713.2-232.1v0.7h-1.5v4.1h-0.9v-4.1h-1.5v-0.7H-713.2z"/>
	<path d="M-712.4-230.5c0-0.6,0-1.1,0-1.6h0.8l0.1,0.8h0c0.3-0.6,0.9-0.9,1.7-0.9c1.2,0,2.1,1,2.1,2.4c0,1.7-1.1,2.6-2.2,2.6
		c-0.6,0-1.2-0.3-1.5-0.8h0v2.6h-0.9V-230.5z M-711.5-229.2c0,0.1,0,0.2,0,0.4c0.2,0.6,0.7,1,1.3,1c0.9,0,1.5-0.8,1.5-1.9
		c0-1-0.5-1.8-1.4-1.8c-0.6,0-1.2,0.4-1.3,1.1c0,0.1-0.1,0.2-0.1,0.3V-229.2z"/>
	<path d="M-706.5-232.1l1,2.9c0.1,0.3,0.2,0.7,0.3,1h0c0.1-0.3,0.2-0.7,0.3-1l1-2.8h0.9l-1.3,3.4c-0.6,1.7-1.1,2.5-1.7,3
		c-0.4,0.4-0.9,0.5-1.1,0.6l-0.2-0.7c0.2-0.1,0.5-0.2,0.8-0.4c0.2-0.2,0.5-0.5,0.7-1c0-0.1,0.1-0.2,0.1-0.2s0-0.1-0.1-0.2l-1.8-4.5
		H-706.5z"/>
	<path d="M-701.2-232.1v2.1h0.2l1.8-2.1h1.1l-2.1,2.2c0.8,0.1,1.2,0.6,1.6,1.5c0.1,0.3,0.3,0.8,0.5,1.2h-0.9c-0.1-0.2-0.3-0.6-0.4-1
		c-0.3-0.8-0.8-1.1-1.6-1.1h-0.2v2.1h-0.9v-4.8H-701.2z"/>
	<path d="M-696.5-232.1v4.1h2.2v-4.1h0.9v4.2l0.5,0l0,2.2h-0.7l0-1.5h-3.7v-4.8H-696.5z"/>
	<path d="M-691-232.1v2c0,0.8,0,1.2-0.1,1.9l0,0c0.3-0.6,0.5-0.9,0.8-1.5l1.5-2.5h1v4.8h-0.8v-2c0-0.8,0-1.2,0.1-2h0
		c-0.3,0.6-0.5,1-0.8,1.5c-0.5,0.8-1,1.7-1.5,2.5h-1v-4.8H-691z"/>
	<path d="M-682.7-227.2h-0.9v-2h-0.6c-0.4,0-0.6,0.1-0.8,0.3c-0.4,0.3-0.5,0.9-0.7,1.3c-0.1,0.1-0.1,0.3-0.2,0.4h-0.9
		c0.1-0.2,0.2-0.3,0.3-0.5c0.2-0.5,0.3-1.1,0.8-1.5c0.2-0.1,0.3-0.2,0.5-0.3v0c-0.6-0.1-1.3-0.5-1.3-1.2c0-0.5,0.3-0.8,0.6-1
		c0.4-0.2,1-0.3,1.6-0.3c0.6,0,1.1,0,1.5,0.1V-227.2z M-683.6-231.5c-0.2,0-0.4,0-0.7,0c-0.6,0-1.3,0.2-1.3,0.8
		c0,0.6,0.8,0.8,1.3,0.8c0.4,0,0.5,0,0.7,0V-231.5z"/>
</g>
<g>
	<path d="M-731.8-138.9c0.4-0.1,1-0.1,1.7-0.1c0.9,0,1.5,0.2,1.9,0.6c0.4,0.3,0.6,0.8,0.6,1.4c0,0.6-0.2,1.1-0.5,1.4
		c-0.5,0.5-1.2,0.7-2.1,0.7c-0.3,0-0.5,0-0.7-0.1v2.7h-0.9V-138.9z M-730.9-135.7c0.2,0,0.4,0.1,0.7,0.1c1,0,1.7-0.5,1.7-1.4
		c0-0.9-0.6-1.3-1.6-1.3c-0.4,0-0.7,0-0.8,0.1V-135.7z"/>
	<path d="M-723.4-133.4c0,0.4,0,0.8,0.1,1.2h-0.8l-0.1-0.6h0c-0.3,0.4-0.8,0.7-1.5,0.7c-1,0-1.5-0.7-1.5-1.4c0-1.2,1-1.8,2.9-1.8
		v-0.1c0-0.4-0.1-1.1-1.1-1.1c-0.5,0-0.9,0.1-1.3,0.4l-0.2-0.6c0.4-0.3,1-0.4,1.6-0.4c1.5,0,1.8,1,1.8,2V-133.4z M-724.2-134.7
		c-1,0-2,0.1-2,1.1c0,0.6,0.4,0.8,0.8,0.8c0.6,0,1-0.4,1.2-0.8c0-0.1,0-0.2,0-0.3V-134.7z"/>
	<path d="M-721.6-135.1h0.4c0.7,0,1.2-0.3,1.2-0.8c0-0.4-0.4-0.7-0.9-0.7c-0.4,0-0.8,0.1-1.2,0.3l-0.2-0.5c0.5-0.3,1-0.4,1.6-0.4
		c0.7,0,1.6,0.3,1.6,1.3c0,0.6-0.5,1-1.1,1.1v0c0.7,0.1,1.3,0.5,1.3,1.2c0,1-1.1,1.4-2.1,1.4c-0.6,0-1.1-0.1-1.6-0.4l0.2-0.6
		c0.3,0.2,0.8,0.3,1.3,0.3c0.7,0,1.2-0.3,1.2-0.8c0-0.6-0.7-0.8-1.4-0.8h-0.4L-721.6-135.1z"/>
	<path d="M-717.7-137c0.4-0.1,1-0.1,1.5-0.1c0.8,0,2.2,0.1,2.2,1.2c0,0.6-0.5,1-1,1.1v0c0.7,0.1,1.2,0.5,1.2,1.2
		c0,1.3-1.6,1.4-2.5,1.4c-0.5,0-1.1,0-1.4-0.1V-137z M-716.8-132.8c0.3,0,0.4,0,0.7,0c0.6,0,1.5-0.1,1.5-0.8c0-0.7-0.7-0.8-1.5-0.8
		h-0.6V-132.8z M-716.8-135h0.7c0.6,0,1.3-0.2,1.3-0.8c0-0.5-0.4-0.7-1.3-0.7c-0.3,0-0.5,0-0.7,0V-135z"/>
	<path d="M-712.2-134.5c0,1.2,0.8,1.7,1.7,1.7c0.6,0,1-0.1,1.3-0.3l0.2,0.6c-0.3,0.1-0.8,0.3-1.6,0.3c-1.5,0-2.4-1-2.4-2.4
		c0-1.5,0.9-2.6,2.3-2.6c1.6,0,2,1.4,2,2.3c0,0.2,0,0.3,0,0.4H-712.2z M-709.6-135.1c0-0.5-0.2-1.4-1.2-1.4c-0.9,0-1.3,0.8-1.3,1.4
		H-709.6z"/>
	<path d="M-707.6-135.5c0-0.6,0-1.1,0-1.6h0.8l0.1,0.8h0c0.3-0.6,0.9-0.9,1.7-0.9c1.2,0,2.1,1,2.1,2.4c0,1.7-1.1,2.6-2.2,2.6
		c-0.6,0-1.2-0.3-1.5-0.8h0v2.6h-0.9V-135.5z M-706.8-134.2c0,0.1,0,0.2,0,0.4c0.2,0.6,0.7,1,1.3,1c0.9,0,1.5-0.8,1.5-1.9
		c0-1-0.5-1.8-1.4-1.8c-0.6,0-1.2,0.4-1.3,1.1c0,0.1-0.1,0.2-0.1,0.3V-134.2z"/>
	<path d="M-701.1-137.1v1.9h2.3v-1.9h0.9v4.8h-0.9v-2.2h-2.3v2.2h-0.9v-4.8H-701.1z"/>
	<path d="M-696.2-137.1l1,2.9c0.1,0.3,0.2,0.7,0.3,1h0c0.1-0.3,0.2-0.7,0.3-1l1-2.8h0.9l-1.3,3.4c-0.6,1.7-1.1,2.5-1.7,3
		c-0.4,0.4-0.9,0.5-1.1,0.6l-0.2-0.7c0.2-0.1,0.5-0.2,0.8-0.4c0.2-0.2,0.5-0.5,0.7-1c0-0.1,0.1-0.2,0.1-0.2s0-0.1-0.1-0.2l-1.8-4.5
		H-696.2z"/>
	<path d="M-688.3-137.1v0.7h-1.5v4.1h-0.9v-4.1h-1.5v-0.7H-688.3z"/>
	<path d="M-686.7-137.1v1.6c0.2,0,0.5-0.1,0.8-0.1c1.1,0,2.2,0.4,2.2,1.6c0,0.5-0.2,0.8-0.5,1.1c-0.5,0.4-1.4,0.6-2.1,0.6
		c-0.5,0-0.9,0-1.3-0.1v-4.8H-686.7z M-686.7-132.9c0.2,0,0.4,0,0.7,0c0.7,0,1.5-0.2,1.5-1c0-0.8-0.9-1-1.5-1c-0.2,0-0.4,0-0.6,0.1
		V-132.9z"/>
</g>
<g>
	<path d="M-732.6-44v6.7h-0.9v-6h-3.1v6h-0.9V-44H-732.6z"/>
	<path d="M-726.7-39.7c0,1.8-1.3,2.6-2.4,2.6c-1.3,0-2.3-1-2.3-2.5c0-1.6,1.1-2.6,2.4-2.6C-727.7-42.2-726.7-41.2-726.7-39.7z
		 M-730.5-39.7c0,1.1,0.6,1.9,1.5,1.9c0.8,0,1.5-0.8,1.5-1.9c0-0.8-0.4-1.8-1.4-1.8C-730.1-41.5-730.5-40.6-730.5-39.7z"/>
	<path d="M-721.9-42.1v4.8h-0.9v-4.1h-1.7v1.2c0,1.4-0.1,2.3-0.8,2.7c-0.2,0.2-0.5,0.3-1,0.3l-0.1-0.7c0.2,0,0.4-0.1,0.5-0.2
		c0.4-0.3,0.5-1,0.5-2.1v-1.9H-721.9z"/>
	<path d="M-719.6-42.1v1.6c0.2,0,0.5,0,0.8,0c1.1,0,2.2,0.3,2.2,1.6c0,0.5-0.2,0.8-0.5,1.1c-0.5,0.5-1.4,0.6-2.1,0.6
		c-0.5,0-0.9,0-1.3-0.1v-4.8H-719.6z M-719.6-37.9c0.2,0,0.4,0,0.7,0c0.7,0,1.5-0.2,1.5-1c0-0.8-0.9-1-1.5-1c-0.2,0-0.4,0-0.6,0.1
		V-37.9z"/>
	<path d="M-715.1-40.1h0.4c0.7,0,1.2-0.3,1.2-0.8c0-0.4-0.4-0.7-0.9-0.7c-0.4,0-0.8,0.1-1.2,0.3l-0.2-0.5c0.5-0.3,1-0.4,1.6-0.4
		c0.7,0,1.6,0.3,1.6,1.3c0,0.6-0.5,1-1.1,1.1v0c0.7,0.1,1.3,0.5,1.3,1.2c0,1-1.1,1.4-2.1,1.4c-0.6,0-1.1-0.2-1.6-0.4l0.2-0.6
		c0.3,0.2,0.8,0.3,1.3,0.3c0.7,0,1.2-0.3,1.2-0.8c0-0.6-0.7-0.8-1.4-0.8h-0.4L-715.1-40.1z"/>
	<path d="M-706.8-39.7c0,1.8-1.3,2.6-2.4,2.6c-1.3,0-2.3-1-2.3-2.5c0-1.6,1.1-2.6,2.4-2.6C-707.8-42.2-706.8-41.2-706.8-39.7z
		 M-710.7-39.7c0,1.1,0.6,1.9,1.5,1.9c0.8,0,1.5-0.8,1.5-1.9c0-0.8-0.4-1.8-1.4-1.8C-710.2-41.5-710.7-40.6-710.7-39.7z"/>
	<path d="M-705.7-42c0.4-0.1,1-0.1,1.5-0.1c0.8,0,2.2,0.1,2.2,1.2c0,0.6-0.5,1-1,1.1v0c0.7,0.1,1.2,0.5,1.2,1.2
		c0,1.3-1.6,1.4-2.5,1.4c-0.5,0-1.1,0-1.4-0.1V-42z M-704.9-37.8c0.3,0,0.4,0,0.7,0c0.6,0,1.5-0.1,1.5-0.8c0-0.7-0.7-0.8-1.5-0.8
		h-0.6V-37.8z M-704.9-40.1h0.7c0.6,0,1.3-0.2,1.3-0.8c0-0.5-0.4-0.7-1.3-0.7c-0.3,0-0.5,0-0.7,0V-40.1z"/>
	<path d="M-697.3-38.4c0,0.4,0,0.8,0.1,1.2h-0.8l-0.1-0.6h0c-0.3,0.4-0.8,0.7-1.5,0.7c-1,0-1.5-0.7-1.5-1.4c0-1.2,1-1.8,2.9-1.8
		v-0.1c0-0.4-0.1-1.1-1.1-1.1c-0.5,0-0.9,0.1-1.3,0.4l-0.2-0.6c0.4-0.3,1-0.4,1.6-0.4c1.5,0,1.8,1,1.8,2V-38.4z M-698.2-39.7
		c-1,0-2,0.2-2,1.1c0,0.6,0.4,0.8,0.8,0.8c0.6,0,1-0.4,1.2-0.8c0-0.1,0-0.2,0-0.3V-39.7z"/>
	<path d="M-692.7-42.1v0.7h-1.5v4.1h-0.9v-4.1h-1.5v-0.7H-692.7z"/>
	<path d="M-691.6-39.5c0,1.2,0.8,1.7,1.7,1.7c0.6,0,1-0.1,1.3-0.3l0.2,0.6c-0.3,0.1-0.8,0.3-1.6,0.3c-1.5,0-2.4-1-2.4-2.4
		c0-1.5,0.9-2.6,2.3-2.6c1.6,0,2,1.4,2,2.3c0,0.2,0,0.3,0,0.4H-691.6z M-689-40.2c0-0.5-0.2-1.4-1.2-1.4c-0.9,0-1.3,0.8-1.3,1.4
		H-689z"/>
	<path d="M-683.4-42.1v4.8h-0.9v-4.1h-1.7v1.2c0,1.4-0.1,2.3-0.8,2.7c-0.2,0.2-0.5,0.3-1,0.3l-0.1-0.7c0.2,0,0.4-0.1,0.5-0.2
		c0.4-0.3,0.5-1,0.5-2.1v-1.9H-683.4z"/>
	<path d="M-681.1-42.1v1.6c0.2,0,0.5,0,0.8,0c1.1,0,2.2,0.3,2.2,1.6c0,0.5-0.2,0.8-0.5,1.1c-0.5,0.5-1.4,0.6-2.1,0.6
		c-0.5,0-0.9,0-1.3-0.1v-4.8H-681.1z M-681.1-37.9c0.2,0,0.4,0,0.7,0c0.7,0,1.5-0.2,1.5-1c0-0.8-0.9-1-1.5-1c-0.2,0-0.4,0-0.6,0.1
		V-37.9z"/>
</g>
<g>
	<path d="M-724.4,51v2.8h3.3V51h0.9v6.7h-0.9v-3.2h-3.3v3.2h-0.9V51H-724.4z"/>
	<path d="M-714.4,55.3c0,1.8-1.3,2.6-2.4,2.6c-1.3,0-2.3-1-2.3-2.5c0-1.6,1.1-2.6,2.4-2.6C-715.3,52.8-714.4,53.8-714.4,55.3z
		 M-718.2,55.3c0,1.1,0.6,1.9,1.5,1.9c0.8,0,1.5-0.8,1.5-1.9c0-0.8-0.4-1.8-1.4-1.8C-717.8,53.4-718.2,54.4-718.2,55.3z"/>
	<path d="M-713.3,52.9c0.4-0.1,1-0.1,1.5-0.1c0.8,0,2.2,0.1,2.2,1.2c0,0.6-0.5,1-1,1.1v0c0.7,0.1,1.2,0.5,1.2,1.2
		c0,1.3-1.6,1.4-2.5,1.4c-0.5,0-1.1,0-1.4-0.1V52.9z M-712.5,57.1c0.3,0,0.4,0,0.7,0c0.6,0,1.5-0.1,1.5-0.8c0-0.7-0.7-0.8-1.5-0.8
		h-0.6V57.1z M-712.5,54.9h0.7c0.6,0,1.3-0.2,1.3-0.8c0-0.5-0.4-0.7-1.3-0.7c-0.3,0-0.5,0-0.7,0V54.9z"/>
	<path d="M-703.9,55.3c0,1.8-1.3,2.6-2.4,2.6c-1.3,0-2.3-1-2.3-2.5c0-1.6,1.1-2.6,2.4-2.6C-704.8,52.8-703.9,53.8-703.9,55.3z
		 M-707.7,55.3c0,1.1,0.6,1.9,1.5,1.9c0.8,0,1.5-0.8,1.5-1.9c0-0.8-0.4-1.8-1.4-1.8C-707.3,53.4-707.7,54.4-707.7,55.3z"/>
	<path d="M-699.3,57.5c-0.2,0.1-0.7,0.3-1.4,0.3c-1.5,0-2.4-1-2.4-2.5c0-1.5,1-2.6,2.6-2.6c0.5,0,1,0.1,1.2,0.3l-0.2,0.7
		c-0.2-0.1-0.5-0.2-1-0.2c-1.1,0-1.7,0.8-1.7,1.8c0,1.1,0.7,1.8,1.7,1.8c0.5,0,0.8-0.1,1.1-0.2L-699.3,57.5z"/>
	<path d="M-694.9,52.9v0.7h-1.5v4.1h-0.9v-4.1h-1.5v-0.7H-694.9z"/>
	<path d="M-693.3,52.9v1.6c0.2,0,0.5-0.1,0.8-0.1c1.1,0,2.2,0.4,2.2,1.6c0,0.5-0.2,0.8-0.5,1.1c-0.5,0.4-1.4,0.6-2.1,0.6
		c-0.5,0-0.9,0-1.3-0.1v-4.8H-693.3z M-693.3,57.1c0.2,0,0.4,0,0.7,0c0.6,0,1.5-0.2,1.5-1c0-0.8-0.9-1-1.5-1c-0.2,0-0.4,0-0.6,0.1
		V57.1z"/>
</g>
<g>
	<path d="M-873.5,152.5c-0.3,0.2-1,0.3-1.8,0.3c-1.9,0-3.3-1.2-3.3-3.4c0-2.1,1.4-3.5,3.5-3.5c0.8,0,1.4,0.2,1.6,0.3l-0.2,0.7
		c-0.3-0.2-0.8-0.3-1.3-0.3c-1.6,0-2.6,1-2.6,2.8c0,1.7,0.9,2.7,2.6,2.7c0.5,0,1.1-0.1,1.4-0.3L-873.5,152.5z"/>
	<path d="M-869.5,147.9v0.7h-1.5v4.1h-0.9v-4.1h-1.5v-0.7H-869.5z"/>
	<path d="M-865.4,151.5c0,0.4,0,0.8,0.1,1.2h-0.8l-0.1-0.6h0c-0.3,0.4-0.8,0.7-1.5,0.7c-1,0-1.5-0.7-1.5-1.4c0-1.2,1-1.8,2.9-1.8
		v-0.1c0-0.4-0.1-1.1-1.1-1.1c-0.5,0-0.9,0.1-1.3,0.4l-0.2-0.6c0.4-0.3,1-0.4,1.6-0.4c1.5,0,1.8,1,1.8,2V151.5z M-866.3,150.2
		c-1,0-2,0.1-2,1.1c0,0.6,0.4,0.8,0.8,0.8c0.6,0,1-0.4,1.2-0.8c0-0.1,0-0.2,0-0.3V150.2z"/>
	<path d="M-860.8,147.9v0.7h-1.5v4.1h-0.9v-4.1h-1.5v-0.7H-860.8z"/>
	<path d="M-859.2,147.9v1.6c0.2,0,0.5-0.1,0.8-0.1c1.1,0,2.2,0.4,2.2,1.6c0,0.5-0.2,0.8-0.5,1.1c-0.5,0.4-1.4,0.6-2.1,0.6
		c-0.5,0-0.9,0-1.3-0.1v-4.8H-859.2z M-859.2,152.1c0.2,0,0.4,0,0.7,0c0.7,0,1.5-0.2,1.5-1c0-0.8-0.9-1-1.5-1c-0.2,0-0.4,0-0.6,0.1
		V152.1z"/>
	<path d="M-851.5,152.7h-0.9v-2h-0.6c-0.4,0-0.6,0.1-0.8,0.3c-0.4,0.3-0.5,0.9-0.7,1.3c-0.1,0.2-0.1,0.3-0.2,0.4h-0.9
		c0.1-0.2,0.2-0.3,0.3-0.5c0.2-0.5,0.3-1.1,0.8-1.5c0.2-0.1,0.3-0.2,0.5-0.3v0c-0.6-0.1-1.3-0.5-1.3-1.2c0-0.5,0.3-0.8,0.6-1
		c0.4-0.2,1-0.3,1.6-0.3c0.6,0,1.1,0,1.5,0.1V152.7z M-852.4,148.4c-0.2,0-0.4,0-0.7,0c-0.6,0-1.3,0.2-1.3,0.8
		c0,0.6,0.8,0.8,1.3,0.8c0.4,0,0.5,0,0.7,0V148.4z"/>
</g>
<g>
	<path d="M-793.3,146v2.8c0,1.1,0,1.9-0.1,2.8l0,0c0.3-0.7,0.7-1.4,1.2-2.2l2.2-3.5h0.9v6.7h-0.8v-2.9c0-1.1,0-1.9,0.1-2.7l0,0
		c-0.3,0.7-0.8,1.5-1.2,2.3l-2.1,3.4h-0.9V146H-793.3z"/>
	<path d="M-784.6,147.9v0.7h-2.1v4.1h-0.9v-4.8H-784.6z"/>
	<path d="M-783.7,149.4c0-0.6,0-1.1,0-1.6h0.8l0.1,0.8h0c0.3-0.6,0.9-0.9,1.7-0.9c1.2,0,2.1,1,2.1,2.4c0,1.7-1.1,2.6-2.2,2.6
		c-0.6,0-1.2-0.3-1.5-0.8h0v2.6h-0.9V149.4z M-782.9,150.7c0,0.1,0,0.2,0,0.4c0.2,0.6,0.7,1,1.3,1c0.9,0,1.5-0.8,1.5-1.9
		c0-1-0.5-1.8-1.4-1.8c-0.6,0-1.2,0.4-1.3,1.1c0,0.1-0.1,0.2-0.1,0.3V150.7z"/>
	<path d="M-774.7,151.5c0,0.4,0,0.8,0.1,1.2h-0.8l-0.1-0.6h0c-0.3,0.4-0.8,0.7-1.5,0.7c-1,0-1.5-0.7-1.5-1.4c0-1.2,1-1.8,2.9-1.8
		v-0.1c0-0.4-0.1-1.1-1.1-1.1c-0.5,0-0.9,0.1-1.3,0.4l-0.2-0.6c0.4-0.3,1-0.4,1.6-0.4c1.5,0,1.8,1,1.8,2V151.5z M-775.5,150.2
		c-1,0-2,0.1-2,1.1c0,0.6,0.4,0.8,0.8,0.8c0.6,0,1-0.4,1.2-0.8c0-0.1,0-0.2,0-0.3V150.2z"/>
</g>
<g>
	<path d="M-730.8,146.7h-2V146h5v0.7h-2.1v6h-0.9V146.7z"/>
	<path d="M-727.8,147.9c0.4-0.1,1-0.1,1.5-0.1c0.8,0,2.2,0.1,2.2,1.2c0,0.6-0.5,1-1,1.1v0c0.7,0.1,1.2,0.5,1.2,1.2
		c0,1.3-1.6,1.4-2.5,1.4c-0.5,0-1.1,0-1.4-0.1V147.9z M-727,152.1c0.3,0,0.4,0,0.7,0c0.6,0,1.5-0.1,1.5-0.8c0-0.7-0.7-0.8-1.5-0.8
		h-0.6V152.1z M-726.9,149.9h0.7c0.6,0,1.3-0.2,1.3-0.8c0-0.5-0.4-0.7-1.3-0.7c-0.3,0-0.5,0-0.7,0V149.9z"/>
	<path d="M-718.4,150.2c0,1.8-1.3,2.6-2.4,2.6c-1.3,0-2.3-1-2.3-2.5c0-1.6,1.1-2.6,2.4-2.6C-719.3,147.8-718.4,148.8-718.4,150.2z
		 M-722.2,150.3c0,1.1,0.6,1.9,1.5,1.9c0.8,0,1.5-0.8,1.5-1.9c0-0.8-0.4-1.8-1.4-1.8C-721.8,148.4-722.2,149.4-722.2,150.3z"/>
	<path d="M-717.3,149.4c0-0.6,0-1.1,0-1.6h0.8l0.1,0.8h0c0.3-0.6,0.9-0.9,1.7-0.9c1.2,0,2.1,1,2.1,2.4c0,1.7-1.1,2.6-2.2,2.6
		c-0.6,0-1.2-0.3-1.5-0.8h0v2.6h-0.9V149.4z M-716.4,150.7c0,0.1,0,0.2,0,0.4c0.2,0.6,0.7,1,1.3,1c0.9,0,1.5-0.8,1.5-1.9
		c0-1-0.5-1.8-1.4-1.8c-0.6,0-1.2,0.4-1.3,1.1c0,0.1-0.1,0.2-0.1,0.3V150.7z"/>
	<path d="M-710.9,147.9v1.6c0,0.6,0.2,1,1,1c0.4,0,0.8-0.1,1-0.3v-2.3h0.9v4.9h-0.9v-1.9h0c-0.3,0.2-0.9,0.4-1.3,0.4
		c-0.9,0-1.6-0.5-1.6-1.6v-1.7H-710.9z"/>
	<path d="M-706,150.4c0,1.2,0.8,1.7,1.7,1.7c0.6,0,1-0.1,1.3-0.3l0.2,0.6c-0.3,0.1-0.8,0.3-1.6,0.3c-1.5,0-2.4-1-2.4-2.4
		s0.9-2.6,2.3-2.6c1.6,0,2,1.4,2,2.3c0,0.2,0,0.3,0,0.4H-706z M-703.5,149.8c0-0.5-0.2-1.4-1.2-1.4c-0.9,0-1.3,0.8-1.3,1.4H-703.5z"
		/>
	<path d="M-698.1,152.5c-0.2,0.1-0.7,0.3-1.4,0.3c-1.5,0-2.4-1-2.4-2.5c0-1.5,1-2.6,2.6-2.6c0.5,0,1,0.1,1.2,0.3l-0.2,0.7
		c-0.2-0.1-0.5-0.2-1-0.2c-1.1,0-1.7,0.8-1.7,1.8c0,1.1,0.7,1.8,1.7,1.8c0.5,0,0.8-0.1,1.1-0.2L-698.1,152.5z"/>
	<path d="M-693.6,147.9v0.7h-1.5v4.1h-0.9v-4.1h-1.5v-0.7H-693.6z"/>
	<path d="M-692.9,147.9c0.4-0.1,1-0.1,1.5-0.1c0.8,0,2.2,0.1,2.2,1.2c0,0.6-0.5,1-1,1.1v0c0.7,0.1,1.2,0.5,1.2,1.2
		c0,1.3-1.6,1.4-2.5,1.4c-0.5,0-1.1,0-1.4-0.1V147.9z M-692,152.1c0.3,0,0.4,0,0.7,0c0.6,0,1.5-0.1,1.5-0.8c0-0.7-0.7-0.8-1.5-0.8
		h-0.6V152.1z M-692,149.9h0.7c0.6,0,1.3-0.2,1.3-0.8c0-0.5-0.4-0.7-1.3-0.7c-0.3,0-0.5,0-0.7,0V149.9z"/>
	<path d="M-683.5,150.2c0,1.8-1.3,2.6-2.4,2.6c-1.3,0-2.3-1-2.3-2.5c0-1.6,1.1-2.6,2.4-2.6C-684.4,147.8-683.5,148.8-683.5,150.2z
		 M-687.3,150.3c0,1.1,0.6,1.9,1.5,1.9c0.8,0,1.5-0.8,1.5-1.9c0-0.8-0.4-1.8-1.4-1.8C-686.8,148.4-687.3,149.4-687.3,150.3z"/>
</g>
<g>
	<g>
		<path class="st1" d="M-12.1-81.2c-6.7,0-12.1-5.4-12.1-12.1s5.4-12.1,12.1-12.1S0-100,0-93.4S-5.4-81.2-12.1-81.2z M-12.1-103
			c-5.3,0-9.6,4.3-9.6,9.6s4.3,9.6,9.6,9.6s9.6-4.3,9.6-9.6S-6.8-103-12.1-103z"/>
	</g>
	<g>
		<rect x="-17.8" y="-80.3" class="st1" width="11.3" height="2.5"/>
	</g>
	<g>
		<rect x="-17.1" y="-76.8" class="st1" width="10" height="2.5"/>
	</g>
	<g>
		<rect x="-16.3" y="-73.2" class="st1" width="8.3" height="2.5"/>
	</g>
</g>
<g>
	<g>
		<path class="st1" d="M-12.1-156.8c-6.7,0-12.1-5.4-12.1-12.1s5.4-12.1,12.1-12.1S0-175.7,0-169S-5.4-156.8-12.1-156.8z
			 M-12.1-178.6c-5.3,0-9.6,4.3-9.6,9.6s4.3,9.6,9.6,9.6s9.6-4.3,9.6-9.6S-6.8-178.6-12.1-178.6z"/>
	</g>
	<g>
		<rect x="-17.8" y="-156" class="st1" width="11.3" height="2.5"/>
	</g>
	<g>
		<rect x="-17.1" y="-152.4" class="st1" width="10" height="2.5"/>
	</g>
	<g>
		<rect x="-16.3" y="-148.9" class="st1" width="8.3" height="2.5"/>
	</g>
</g>
<circle class="st8" cx="-12.1" cy="-239.8" r="31.4"/>
<g>
	<g>
		<path class="st1" d="M-12.1-232.9c-6.7,0-12.1-5.4-12.1-12.1s5.4-12.1,12.1-12.1S0-251.7,0-245S-5.4-232.9-12.1-232.9z
			 M-12.1-254.6c-5.3,0-9.6,4.3-9.6,9.6s4.3,9.6,9.6,9.6s9.6-4.3,9.6-9.6S-6.8-254.6-12.1-254.6z"/>
	</g>
	<g>
		<rect x="-17.8" y="-232" class="st1" width="11.3" height="2.5"/>
	</g>
	<g>
		<rect x="-17.1" y="-228.5" class="st1" width="10" height="2.5"/>
	</g>
	<g>
		<rect x="-16.3" y="-224.9" class="st1" width="8.3" height="2.5"/>
	</g>
</g>
<circle class="st7" cx="71.9" cy="-87.7" r="31.4"/>
<circle class="st5" cx="71.9" cy="-163.7" r="31.4"/>
<circle class="st8" cx="71.9" cy="-239.8" r="31.4"/>
<g>
	<g>
		<g>
			<path class="st1" d="M71.9-232.9c-6.7,0-12.1-5.4-12.1-12.1s5.4-12.1,12.1-12.1S84-251.7,84-245S78.6-232.9,71.9-232.9z
				 M71.9-254.6c-5.3,0-9.6,4.3-9.6,9.6s4.3,9.6,9.6,9.6s9.6-4.3,9.6-9.6S77.2-254.6,71.9-254.6z"/>
		</g>
		<g>
			<rect x="66.2" y="-232" class="st1" width="11.3" height="2.5"/>
		</g>
		<g>
			<rect x="66.9" y="-228.5" class="st1" width="10" height="2.5"/>
		</g>
		<g>
			<rect x="67.7" y="-224.9" class="st1" width="8.3" height="2.5"/>
		</g>
	</g>
	<g>
		<rect x="70.6" y="-266" class="st1" width="2.5" height="6.6"/>
	</g>
	<g>
		
			<rect x="57.5" y="-260.7" transform="matrix(0.7071 -0.7071 0.7071 0.7071 199.2128 -33.8768)" class="st1" width="2.5" height="6.6"/>
	</g>
	<g>
		<rect x="50.3" y="-245.8" class="st1" width="6.6" height="2.5"/>
	</g>
	<g>
		
			<rect x="81.7" y="-258.7" transform="matrix(0.7071 -0.7071 0.7071 0.7071 206.9172 -15.3122)" class="st1" width="6.6" height="2.5"/>
	</g>
	<g>
		<rect x="86.7" y="-245.8" class="st1" width="6.6" height="2.5"/>
	</g>
</g>
<g>
	<g>
		<g>
			<path class="st1" d="M71.9-156.8c-6.7,0-12.1-5.4-12.1-12.1s5.4-12.1,12.1-12.1S84-175.7,84-169S78.6-156.8,71.9-156.8z
				 M71.9-178.6c-5.3,0-9.6,4.3-9.6,9.6s4.3,9.6,9.6,9.6s9.6-4.3,9.6-9.6S77.2-178.6,71.9-178.6z"/>
		</g>
		<g>
			<rect x="66.2" y="-156" class="st1" width="11.3" height="2.5"/>
		</g>
		<g>
			<rect x="66.9" y="-152.4" class="st1" width="10" height="2.5"/>
		</g>
		<g>
			<rect x="67.7" y="-148.9" class="st1" width="8.3" height="2.5"/>
		</g>
	</g>
	<g>
		<rect x="70.6" y="-189.9" class="st1" width="2.5" height="6.6"/>
	</g>
	<g>
		
			<rect x="57.5" y="-184.7" transform="matrix(0.7071 -0.7071 0.7071 0.7071 145.4461 -11.6076)" class="st1" width="2.5" height="6.6"/>
	</g>
	<g>
		<rect x="50.3" y="-169.7" class="st1" width="6.6" height="2.5"/>
	</g>
	<g>
		
			<rect x="81.7" y="-182.6" transform="matrix(0.7071 -0.7071 0.7071 0.7071 153.1477 6.9598)" class="st1" width="6.6" height="2.5"/>
	</g>
	<g>
		<rect x="86.7" y="-169.7" class="st1" width="6.6" height="2.5"/>
	</g>
</g>
<g>
	<g>
		<g>
			<path class="st1" d="M71.9-81.2c-6.7,0-12.1-5.4-12.1-12.1s5.4-12.1,12.1-12.1S84-100,84-93.4S78.6-81.2,71.9-81.2z M71.9-103
				c-5.3,0-9.6,4.3-9.6,9.6s4.3,9.6,9.6,9.6s9.6-4.3,9.6-9.6S77.2-103,71.9-103z"/>
		</g>
		<g>
			<rect x="66.2" y="-80.3" class="st1" width="11.3" height="2.5"/>
		</g>
		<g>
			<rect x="66.9" y="-76.8" class="st1" width="10" height="2.5"/>
		</g>
		<g>
			<rect x="67.7" y="-73.2" class="st1" width="8.3" height="2.5"/>
		</g>
	</g>
	<g>
		<rect x="70.6" y="-114.3" class="st1" width="2.5" height="6.6"/>
	</g>
	<g>
		
			<rect x="57.5" y="-109.1" transform="matrix(0.7071 -0.7071 0.7071 0.7071 91.9757 10.539)" class="st1" width="2.5" height="6.6"/>
	</g>
	<g>
		<rect x="50.3" y="-94.1" class="st1" width="6.6" height="2.5"/>
	</g>
	<g>
		
			<rect x="81.7" y="-107" transform="matrix(0.7071 -0.7071 0.7071 0.7071 99.6745 29.1091)" class="st1" width="6.6" height="2.5"/>
	</g>
	<g>
		<rect x="86.7" y="-94.1" class="st1" width="6.6" height="2.5"/>
	</g>
</g>
</svg>
