<?xml version="1.0" encoding="utf-8"?>
<!-- Generator: Adobe Illustrator 20.1.0, SVG Export Plug-In . SVG Version: 6.00 Build 0)  -->
<svg version="1.1" id="Layer_1" xmlns="http://www.w3.org/2000/svg" xmlns:xlink="http://www.w3.org/1999/xlink" x="0px" y="0px"
	 viewBox="0 0 30 30" style="enable-background:new 0 0 30 30;" xml:space="preserve">
<style type="text/css">
	.st0{fill:#FFFFFF;}
</style>
<path class="st0" d="M26.2,3.1H11c-1.2,0-2.2,1-2.2,2.2v1.8H3.8c-1.2,0-2.2,1-2.2,2.2v10.3c0,1.2,1,2.2,2.2,2.2h1.5l-2,6.4l6.9-6.4
	H19c1.2,0,2.2-1,2.2-2.2v-1.2l6.3,5.8l-2-6.4h0.6c1.2,0,2.2-1,2.2-2.2V5.3C28.4,4.1,27.4,3.1,26.2,3.1z M20.4,19.7
	c0,0.7-0.6,1.3-1.3,1.3H9.9l-4.7,4.4L6.5,21H3.8c-0.7,0-1.3-0.6-1.3-1.3V9.4C2.5,8.6,3.1,8,3.8,8H19c0.7,0,1.3,0.6,1.3,1.3V19.7z
	 M27.5,15.6c0,0.7-0.6,1.3-1.3,1.3h-1.8l1.3,4.4l-4.5-4.1V9.4c0-1.2-1-2.2-2.2-2.2H9.6V5.3C9.6,4.6,10.2,4,11,4h15.2
	c0.7,0,1.3,0.6,1.3,1.3V15.6z"/>
</svg>
