<svg id="icon_filter" xmlns="http://www.w3.org/2000/svg" viewBox="0 0 24 24"><defs><style>.cls-1,.cls-2{fill:#fff;}.cls-1{opacity:0.8;}.cls-3{fill:#1b2449;opacity:0.2;}</style></defs><title>24_icon_send</title><path class="cls-1" d="M7.25,13.65l.56,6.08a1.29,1.29,0,0,0,2.42.49l6.41-9.91Z"/><path class="cls-2" d="M21.83,4.82,18,17.63a1.29,1.29,0,0,1-1.84.79l-3.9-2.07-5-2.64L2.81,11.34A1.34,1.34,0,0,1,3,8.9L20.18,3.17A1.31,1.31,0,0,1,21.83,4.82Z"/><path class="cls-3" d="M14.11,10.4,8.82,14.53l-1.54-.82,0-.06,6-4.25A.66.66,0,0,1,14.11,10.4Z"/></svg>