<?xml version="1.0" encoding="utf-8"?>
<!-- Generator: Adobe Illustrator 21.1.0, SVG Export Plug-In . SVG Version: 6.00 Build 0)  -->
<svg version="1.1" id="Layer_1" xmlns="http://www.w3.org/2000/svg" xmlns:xlink="http://www.w3.org/1999/xlink" x="0px" y="0px"
	 viewBox="0 0 200 200" style="enable-background:new 0 0 200 200;" xml:space="preserve">
<path d="M200,200v-21c0-10.2-6.6-18.8-15.7-21.9l0,0c-0.7-0.2-47.6-12.2-54.3-25.5c-3.1-6.1,0-13.9,3-19.2c1.4-1.9,2.8-3.9,4.1-6
	c0,0,0,0,0,0l0,0c7.9-12.7,14-29.4,14.6-50c0.9-31.1-23.1-56.3-51.6-56.3l0,0c0,0,0,0-0.1,0c0,0,0,0-0.1,0l0,0
	C71.4,0.1,47.4,25.3,48.3,56.3c0.6,20.6,6.7,37.3,14.6,50l0,0c0,0,0,0,0,0c1.3,2.1,2.7,4.1,4.1,6c3.1,5.4,6.1,13.2,3,19.2
	c-6.7,13.3-53.5,25.3-54.3,25.5l0,0C6.6,160.2,0,168.8,0,179v21L200,200L200,200z"/>
</svg>
