<?xml version="1.0" encoding="utf-8"?>
<!-- Generator: Adobe Illustrator 21.1.0, SVG Export Plug-In . SVG Version: 6.00 Build 0)  -->
<svg version="1.1"
	 id="Layer_1" xmlns:cc="http://creativecommons.org/ns#" xmlns:dc="http://purl.org/dc/elements/1.1/" xmlns:inkscape="http://www.inkscape.org/namespaces/inkscape" xmlns:rdf="http://www.w3.org/1999/02/22-rdf-syntax-ns#" xmlns:sodipodi="http://sodipodi.sourceforge.net/DTD/sodipodi-0.dtd" xmlns:svg="http://www.w3.org/2000/svg"
	 xmlns="http://www.w3.org/2000/svg" xmlns:xlink="http://www.w3.org/1999/xlink" x="0px" y="0px" viewBox="0 0 140 140"
	 style="enable-background:new 0 0 140 140;" xml:space="preserve">
<g transform="translate(0,-952.36218)">
	<path d="M70,952.4c-38.7,0-70,31.3-70,70c0,38.7,31.3,70,70,70c38.7,0,70-31.3,70-70C140,983.7,108.7,952.4,70,952.4z M70,970.4
		c2.2,0,4,1.8,4,4v45.7l36.1,20.9c1.9,1.1,2.5,3.5,1.4,5.4c-1.1,1.9-3.5,2.5-5.4,1.4c-12.7-7.3-25.5-14.7-38.1-22
		c-1.2-0.7-2-2-2-3.4v-48C66,972.2,67.8,970.4,70,970.4z"/>
</g>
</svg>
