<?xml version="1.0" encoding="utf-8"?>
<!-- Generator: Adobe Illustrator 21.1.0, SVG Export Plug-In . SVG Version: 6.00 Build 0)  -->
<svg version="1.1" id="Layer_1" xmlns="http://www.w3.org/2000/svg" xmlns:xlink="http://www.w3.org/1999/xlink" x="0px" y="0px"
	 viewBox="0 0 156 105.3" style="enable-background:new 0 0 156 105.3;" xml:space="preserve">
<g>
	<g>
		<path d="M135.9,0H20.1C9,0,0,9,0,20.1v65c0,11.1,9,20.1,20.1,20.1h115.7c11.1,0,20.1-9,20.1-20.1v-65C156,9,147,0,135.9,0z
			 M135.3,18.1c0.8,0.8,1.1,1.9,0.8,2.9l-3,11.4c-0.3,1-1.1,1.8-2.1,2.1c-0.3,0.1-0.5,0.1-0.8,0.1c-0.8,0-1.6-0.3-2.1-0.9l-1.9-1.9
			l-24.4,23.7c-1.1,1.1-3,1.1-4.1,0L88.5,47L63.3,71.4c-1.1,1.1-3,1.1-4.1,0L50,62.8L24.9,87.2c-0.6,0.6-1.3,0.8-2.1,0.8
			c-0.8,0-1.6-0.3-2.2-0.9c-1.2-1.2-1.1-3.1,0.1-4.2l27.2-26.4c1.1-1.1,3-1.1,4.1,0l9.1,8.6l25.2-24.4c1.1-1.1,3-1.1,4.1,0l9.1,8.6
			l22.3-21.6l-1.8-1.8c-0.7-0.7-1-1.8-0.8-2.8c0.2-1,1-1.8,2-2.1l11-3.5C133.4,17.1,134.5,17.3,135.3,18.1z"/>
	</g>
</g>
</svg>
