<?xml version="1.0" encoding="utf-8"?>
<!-- Generator: Adobe Illustrator 21.1.0, SVG Export Plug-In . SVG Version: 6.00 Build 0)  -->
<svg version="1.1" id="Layer_1" xmlns="http://www.w3.org/2000/svg" xmlns:xlink="http://www.w3.org/1999/xlink" x="0px" y="0px"
	 viewBox="0 0 192.5 172.1" style="enable-background:new 0 0 192.5 172.1;" xml:space="preserve">
<g>
	<path d="M92.2,1.9C78,16.1,63.9,30.3,49.8,44.6c-14.4,0-28.8,0-43.2,0c-3.6,0-6.6,3-6.6,6.6C0,74.4,0,97.7,0,121
		c0,3.6,3,6.6,6.6,6.6c14.4,0,28.8,0,43.2,0C63.9,141.8,78,156,92.2,170.2c4.1,4.1,11.3,1.1,11.3-4.7c0-53,0-106,0-159
		C103.4,0.8,96.2-2.2,92.2,1.9z"/>
</g>
<path d="M168.5,86l22.1-22.1c2.6-2.6,2.6-6.8,0-9.3c-2.6-2.6-6.8-2.6-9.3,0l-22.1,22.1l-22.1-22.1c-2.6-2.6-6.8-2.6-9.3,0
	c-2.6,2.6-2.6,6.8,0,9.3L149.8,86l-22.1,22.2c-2.6,2.6-2.6,6.8,0,9.3c2.6,2.6,6.8,2.6,9.3,0l22.1-22.1l22.1,22.1
	c1.3,1.3,3,1.9,4.7,1.9c1.7,0,3.4-0.6,4.7-1.9c2.6-2.6,2.6-6.8,0-9.3L168.5,86z"/>
</svg>
