<?xml version="1.0" encoding="utf-8"?>
<!-- Generator: Adobe Illustrator 21.1.0, SVG Export Plug-In . SVG Version: 6.00 Build 0)  -->
<svg version="1.1" id="Layer_1" xmlns="http://www.w3.org/2000/svg" xmlns:xlink="http://www.w3.org/1999/xlink" x="0px" y="0px"
	 viewBox="0 0 198.9 174.7" style="enable-background:new 0 0 198.9 174.7;" xml:space="preserve">
<g>
	<path d="M92.2,1.9C78,16.1,63.9,30.3,49.8,44.6c-14.4,0-28.8,0-43.2,0c-3.6,0-6.6,3-6.6,6.6c0,23.2,0,46.5,0,69.8
		c0,3.6,3,6.6,6.6,6.6c14.4,0,28.8,0,43.2,0C63.9,141.8,78,156,92.2,170.2c4.1,4.1,11.3,1.1,11.3-4.7c0-53,0-106,0-159
		C103.4,0.8,96.2-2.2,92.2,1.9z"/>
	<path d="M126.6,29.7c-8-3-11.4,9.8-3.5,12.7c44.5,16.5,44.5,77.1,0,93.6c-7.9,2.9-4.5,15.7,3.5,12.7
		C183.6,127.6,183.6,50.8,126.6,29.7z"/>
	<path d="M136.8,4.2c-8-2.9-11.5,9.9-3.5,12.8c68.9,24.7,69,119.9,0,144.6c-8,2.9-4.5,15.6,3.5,12.7
		C218.2,145.1,218.2,33.4,136.8,4.2z"/>
</g>
</svg>
