<svg id="icon_filter" xmlns="http://www.w3.org/2000/svg" viewBox="0 0 16 16"><defs><style>.cls-1{fill:#5294de;}</style></defs><title>icon_load_16x16</title><polygon class="cls-1" points="13.39 5.33 16 8.14 10.84 8.14 13.39 5.33"/><polygon class="cls-1" points="2.77 10.95 0.16 8.14 5.32 8.14 2.77 10.95"/><path class="cls-1" d="M8,3a4.77,4.77,0,0,1,3.43,1.46l.69-.71A5.73,5.73,0,0,0,8,2,5.91,5.91,0,0,0,2.16,8c0,.17,0,.33,0,.49l1-.1c0-.13,0-.26,0-.39A4.93,4.93,0,0,1,8,3Z"/><path class="cls-1" d="M12.8,7.51c0,.17,0,.32,0,.49A4.93,4.93,0,0,1,8,13a4.77,4.77,0,0,1-3.43-1.46l-.69.71A5.72,5.72,0,0,0,8,14a5.91,5.91,0,0,0,5.83-6c0-.2,0-.4,0-.6Z"/></svg>