<?xml version="1.0" encoding="utf-8"?>
<!-- Generator: Adobe Illustrator 21.1.0, SVG Export Plug-In . SVG Version: 6.00 Build 0)  -->
<svg version="1.1" id="Layer_1" xmlns="http://www.w3.org/2000/svg" xmlns:xlink="http://www.w3.org/1999/xlink" x="0px" y="0px"
	 viewBox="0 0 503 379.1" fill="#ffffff" xml:space="preserve">
<g>
	<g>
		<g>
			<path d="M80.3,53.7C96,61.6,97.9,76.3,96.5,85c-2.9,18.4-15.4,29.6-40.7,29.6H9V0.2H55c21.8,0,37.8,13.1,37.2,34.9
				C92,40.2,88.6,49.5,80.3,53.7z M55,44.9c14.1,0,14.5-20.4,0-20.4H38.1v20.4H55z M55,89.2c17.5,0,17.1-23.4,0-23.4H38.1v23.4H55z"
				/>
			<path d="M139.1,45.1h46.4v25h-46.4v17.1h50.4v27.3h-79.7V0.2h79.7v27.2h-50.4V45.1z"/>
			<path d="M257.8,27.5v87.1h-29.3V27.5h-30.4V0h90v27.5H257.8z"/>
		</g>
	</g>
	<path d="M57.6,132.4C25.8,132.4,0,158.2,0,190s25.8,57.6,57.6,57.6c31.8,0,57.6-25.8,57.6-57.6S89.5,132.4,57.6,132.4z M57.6,216.2
		c-14.5,0-26.2-11.7-26.2-26.2c0-14.5,11.7-26.2,26.2-26.2c14.5,0,26.2,11.7,26.2,26.2C83.8,204.5,72.1,216.2,57.6,216.2z"/>
	<g>
		<g>
			<path d="M93.1,355c-9.5,18.6-26.8,25.7-41.2,25.7c-22.5,0-45.1-13.1-45.1-39.1v-39.4c0-25.9,22.6-39.1,45.6-39.1
				c14.1,0,31,6,40.2,26.3l-23.6,9.5c-7.8-14.2-33.3-11-33.3,3.2v39.4c0,13.7,25.9,17.6,32.2,1.8L93.1,355z"/>
			<path d="M132.7,379.1h-29.1V264.7h29.1V308h33v-43.3h29.1v114.4h-29.1v-43.2h-33V379.1z"/>
			<path d="M310,379.1h-31l-7.4-23H241l-7.1,23h-31l39.9-114.4h26.3L310,379.1z M264.6,330.4l-7.9-33.5h-0.8l-8.4,33.5H264.6z"/>
			<path d="M352,342.7h-5.2v36.4h-29.3V264.7h45.7c23.6,0,41.9,10.8,42.5,37.7c0,21.2-8.6,33.1-22.5,37.5l31.2,39.3h-36L352,342.7z
				 M363.8,317.8c18.3,0,18.3-26.2,0-26.2h-17v26.2H363.8z"/>
			<path d="M472.6,292v87.1h-29.3V292H413v-27.5h90V292H472.6z"/>
		</g>
	</g>
	<polygon points="115.3,219.9 205.5,132.4 270,196.5 319.9,146.1 306,131 357.8,131 357.8,185.7 343.6,170.1 270,247.4 205.5,182.8 
		141.6,247.4 	"/>
	<polygon points="170,247.4 205.4,210.3 243,247.4 	"/>
	<polygon points="305.9,131 270.4,168.1 232.9,131 	"/>
</g>
</svg>
