<svg id="Layer_1" data-name="Layer 1" xmlns="http://www.w3.org/2000/svg" xmlns:xlink="http://www.w3.org/1999/xlink" viewBox="0 0 620 401"><defs><style>.cls-1{fill:none;}.cls-2{clip-path:url(#clip-path);}.cls-3{fill:url(#radial-gradient);}.cls-4{fill:url(#radial-gradient-2);}</style><clipPath id="clip-path"><rect class="cls-1" y="1" width="620" height="400"/></clipPath><radialGradient id="radial-gradient" cx="1133.98" cy="2402.21" r="339.7" gradientTransform="matrix(0.63, 0.78, -0.78, 0.63, 1475.33, -2264.69)" gradientUnits="userSpaceOnUse"><stop offset="0" stop-color="#232c52" stop-opacity="0"/><stop offset="0.26" stop-color="#232c52" stop-opacity="0.5"/><stop offset="0.6" stop-color="#5395d9" stop-opacity="0.1"/><stop offset="0.81" stop-color="#000c2a" stop-opacity="0"/></radialGradient><radialGradient id="radial-gradient-2" cx="149.97" cy="424.26" r="339.7" gradientTransform="matrix(0.99, 0.11, -0.11, 0.99, 206.64, -316.18)" gradientUnits="userSpaceOnUse"><stop offset="0" stop-color="#232c52" stop-opacity="0"/><stop offset="0.26" stop-color="#232c52" stop-opacity="0.5"/><stop offset="0.64" stop-color="#000c2a" stop-opacity="0.3"/><stop offset="0.81" stop-color="#000c2a" stop-opacity="0"/></radialGradient></defs><title>Artboard 1</title><g class="cls-2"><polygon class="cls-3" points="483.92 417.33 561.48 354.55 326.25 134.5 608.16 290.33 643.93 197.18 330.65 124.33 652.26 120.03 637.19 21.39 328.52 113.46 605.29 -51.31 542.92 -129.2 321.64 104.86 478.95 -176.22 385.99 -212.48 311.39 100.86 307.08 -221.21 208.44 -206.14 300.63 102.95 134.18 -173.33 56.62 -110.55 291.85 109.5 9.94 -46.33 -25.84 46.82 287.44 119.67 -34.16 123.97 -19.09 222.61 289.57 130.54 12.8 295.31 75.17 373.2 296.45 139.14 139.15 420.22 232.11 456.48 306.71 143.14 311.02 465.21 409.66 450.14 317.47 141.05 483.92 417.33"/><polygon class="cls-4" points="641.53 207.18 651.98 107.94 330.06 118.68 639.57 29.52 599.01 -61.64 325.97 108.37 550.35 -122.08 469.94 -181.17 316.78 102.19 395.98 -210.03 296.8 -221 305.84 100.98 218.32 -209.01 126.94 -168.92 295.75 105.4 64.97 -119.3 5.88 -38.89 289.63 114.48 -23.43 36.82 -33.88 136.06 288.04 125.32 -21.48 214.48 19.09 305.64 292.12 135.63 67.75 366.08 148.16 425.17 301.32 141.81 222.12 454.03 321.3 465 312.26 143.02 399.78 453.01 491.16 412.92 322.34 138.6 553.13 363.3 612.22 282.89 328.47 129.52 641.53 207.18"/></g></svg>