<svg id="icon_filter" xmlns="http://www.w3.org/2000/svg" viewBox="0 0 16 16"><defs><style>.cls-1{fill:#fff;}</style></defs><title>xxxhicon_file</title><path class="cls-1" d="M11.21,13.29H6.49c-2.72,0-5.83-.53-5.83-4.64C.66,5.08,3,3.12,7.12,3.12a20.53,20.53,0,0,1,2.42.2.5.5,0,1,1,0,1,19.38,19.38,0,0,0-2.37-.2c-2.49,0-5.46.79-5.46,4.53,0,2.62,1.36,3.64,4.83,3.64h4.72a3.49,3.49,0,0,0,2.47-.66,2.41,2.41,0,0,0,.41-1.82c0-.14,0-.27,0-.39a1.7,1.7,0,0,0-.93-1.73,6.65,6.65,0,0,0-2.69-.4H6.53c-.45,0-1.9.11-1.9,1.5,0,1.18,1.2,1.5,1.9,1.5h4.63a.5.5,0,0,1,0,1H6.54a2.65,2.65,0,0,1-2.9-2.5c0-1.52,1.14-2.5,2.9-2.5h3.92a7.4,7.4,0,0,1,3.16.51,2.68,2.68,0,0,1,1.48,2.62c0,.12,0,.24,0,.37a3.3,3.3,0,0,1-.68,2.55A4.32,4.32,0,0,1,11.21,13.29Z"/></svg>