<?xml version="1.0" encoding="utf-8"?>
<!-- Generator: Adobe Illustrator 21.1.0, SVG Export Plug-In . SVG Version: 6.00 Build 0)  -->
<svg version="1.1" id="Layer_1" xmlns="http://www.w3.org/2000/svg" xmlns:xlink="http://www.w3.org/1999/xlink" x="0px" y="0px"
	 viewBox="0 0 264 264" style="enable-background:new 0 0 264 264;" xml:space="preserve">
<g>
	<path d="M132,0C59.2,0,0,59.2,0,132s59.2,132,132,132s132-59.2,132-132S204.8,0,132,0L132,0z M68,152c-11,0-20-9-20-20
		c0-11,9-20,20-20s20,9,20,20C88,143,79,152,68,152L68,152z M132,152c-11,0-20-9-20-20c0-11,9-20,20-20c11,0,20,9,20,20
		C152,143,143,152,132,152L132,152z M196,152c-11,0-20-9-20-20c0-11,9-20,20-20s20,9,20,20C216,143,207,152,196,152L196,152z
		 M196,152"/>
</g>
</svg>
