<svg xmlns="http://www.w3.org/2000/svg" viewBox="0 0 83 51"><defs><style>.cls-1{fill:#fbb231;}.cls-1,.cls-2,.cls-3{fill-rule:evenodd;}.cls-2{fill:#ec1b2e;}.cls-3,.cls-5{fill:#fff;}.cls-4{fill:none;stroke:#fff;stroke-miterlimit:2.61;stroke-width:0.22px;}</style></defs><title>mapLogo_Mastercard</title><g id="icon_filter"><polygon class="cls-1" points="56.49 47.95 57.65 47.91 58.79 47.83 59.91 47.69 61.03 47.49 62.11 47.24 63.18 46.94 64.23 46.58 65.25 46.18 66.25 45.72 67.22 45.23 68.16 44.69 69.08 44.1 69.96 43.47 70.81 42.8 71.62 42.1 72.41 41.35 73.16 40.57 73.86 39.75 74.53 38.9 75.16 38.02 75.74 37.1 76.29 36.16 76.78 35.19 77.23 34.19 77.64 33.17 77.99 32.12 78.3 31.05 78.55 29.97 78.74 28.86 78.89 27.73 78.97 26.59 79 25.43 78.97 24.28 78.89 23.14 78.74 22.02 78.55 20.92 78.3 19.84 77.99 18.77 77.64 17.73 77.23 16.71 76.78 15.72 76.29 14.75 75.74 13.82 75.16 12.9 74.53 12.02 73.86 11.18 73.16 10.36 72.41 9.58 71.62 8.84 70.81 8.13 69.96 7.46 69.08 6.84 68.16 6.25 67.22 5.71 66.25 5.22 65.25 4.77 64.23 4.37 63.18 4.01 62.11 3.71 61.03 3.46 59.91 3.26 58.79 3.11 57.65 3.03 56.49 3 55.33 3.03 54.19 3.11 53.07 3.26 51.96 3.46 50.88 3.71 49.81 4.01 48.77 4.37 47.74 4.77 46.75 5.22 45.79 5.71 44.85 6.25 43.94 6.84 43.06 7.46 42.21 8.13 41.4 8.84 40.62 9.58 39.88 10.36 39.17 11.18 38.51 12.02 37.88 12.9 37.3 13.82 36.76 14.75 36.26 15.72 35.81 16.71 35.41 17.73 35.06 18.77 34.76 19.84 34.51 20.92 34.31 22.02 34.17 23.14 34.09 24.28 34.05 25.43 34.09 26.59 34.17 27.73 34.31 28.86 34.51 29.97 34.76 31.05 35.06 32.12 35.41 33.17 35.81 34.19 36.26 35.19 36.76 36.16 37.3 37.1 37.88 38.02 38.51 38.9 39.17 39.75 39.88 40.57 40.62 41.35 41.4 42.1 42.21 42.8 43.06 43.47 43.94 44.1 44.85 44.69 45.79 45.23 46.75 45.72 47.74 46.18 48.77 46.58 49.81 46.94 50.88 47.24 51.96 47.49 53.07 47.69 54.19 47.83 55.33 47.91 56.49 47.95 56.49 47.95 56.49 47.95"/><polygon class="cls-2" points="26.42 47.95 27.57 47.91 28.72 47.83 29.84 47.69 30.95 47.49 32.03 47.24 33.1 46.94 34.14 46.58 35.16 46.18 36.16 45.72 37.12 45.23 38.06 44.69 38.97 44.1 39.85 43.47 40.7 42.8 41.51 42.1 42.29 41.35 43.03 40.57 43.73 39.75 44.4 38.9 45.02 38.02 45.61 37.1 46.15 36.16 46.65 35.19 47.09 34.19 47.49 33.17 47.84 32.12 48.15 31.05 48.4 29.97 48.59 28.86 48.74 27.73 48.82 26.59 48.85 25.43 48.82 24.28 48.74 23.14 48.59 22.02 48.4 20.92 48.15 19.84 47.84 18.77 47.49 17.73 47.09 16.71 46.65 15.72 46.15 14.75 45.61 13.82 45.02 12.9 44.4 12.02 43.73 11.18 43.03 10.36 42.29 9.58 41.51 8.84 40.7 8.13 39.85 7.46 38.97 6.84 38.06 6.25 37.12 5.71 36.16 5.22 35.16 4.77 34.14 4.37 33.1 4.01 32.03 3.71 30.95 3.46 29.84 3.26 28.72 3.11 27.57 3.03 26.42 3 25.26 3.03 24.12 3.11 23 3.26 21.88 3.46 20.8 3.71 19.73 4.01 18.68 4.37 17.66 4.77 16.66 5.22 15.69 5.71 14.75 6.25 13.83 6.84 12.95 7.46 12.1 8.13 11.28 8.84 10.5 9.58 9.75 10.36 9.05 11.18 8.38 12.02 7.75 12.9 7.17 13.82 6.62 14.75 6.13 15.72 5.67 16.71 5.27 17.73 4.92 18.77 4.61 19.84 4.36 20.92 4.17 22.02 4.02 23.14 3.94 24.28 3.91 25.43 3.94 26.59 4.02 27.73 4.17 28.86 4.36 29.97 4.61 31.05 4.92 32.12 5.27 33.17 5.67 34.19 6.13 35.19 6.62 36.16 7.17 37.1 7.75 38.02 8.38 38.9 9.05 39.75 9.75 40.57 10.5 41.35 11.28 42.1 12.1 42.8 12.95 43.47 13.83 44.1 14.75 44.69 15.69 45.23 16.66 45.72 17.66 46.18 18.68 46.58 19.73 46.94 20.8 47.24 21.88 47.49 23 47.69 24.12 47.83 25.26 47.91 26.42 47.95 26.42 47.95 26.42 47.95"/><polygon class="cls-1" points="38.82 11.62 50.76 11.62 50.76 10.4 39.85 10.4 38.82 11.62 38.82 11.62 38.82 11.62"/><polygon class="cls-1" points="37.03 14.33 50.76 14.33 50.76 13.11 37.75 13.11 37.03 14.33 37.03 14.33 37.03 14.33"/><polygon class="cls-1" points="35.7 17.04 50.76 17.04 50.76 15.82 36.23 15.82 35.7 17.04 35.7 17.04 35.7 17.04"/><polygon class="cls-1" points="34.78 19.75 50.76 19.75 50.76 18.53 35.16 18.53 34.78 19.75 34.78 19.75 34.78 19.75"/><polygon class="cls-1" points="35.31 32.87 50.8 32.87 50.8 31.65 34.93 31.65 35.31 32.87 35.31 32.87 35.31 32.87"/><polygon class="cls-1" points="36.46 35.58 50.8 35.58 50.8 34.36 35.89 34.36 36.46 35.58 36.46 35.58 36.46 35.58"/><polygon class="cls-1" points="38.06 38.29 50.8 38.29 50.8 37.07 37.3 37.07 38.06 38.29 38.06 38.29 38.06 38.29"/><polygon class="cls-1" points="40.28 41 50.8 41 50.8 39.77 39.21 39.77 40.28 41 40.28 41 40.28 41"/><polygon class="cls-1" points="34.24 22.46 50.76 22.46 50.76 21.24 34.48 21.24 34.24 22.46 34.24 22.46 34.24 22.46"/><polygon class="cls-1" points="44.31 30.16 50.61 30.16 50.61 28.94 44.54 28.94 44.31 30.16 44.31 30.16 44.31 30.16"/><polygon class="cls-1" points="44.81 27.45 50.61 27.45 50.61 26.23 45.04 26.23 44.81 27.45 44.81 27.45 44.81 27.45"/><polygon class="cls-1" points="33.83 26.23 35.47 26.23 35.47 27.45 33.9 27.45 33.83 26.23 33.83 26.23 33.83 26.23"/><polygon class="cls-3" points="30.77 24.75 30.67 24.74 30.56 24.73 30.46 24.71 30.36 24.7 30.27 24.68 30.17 24.66 30.07 24.65 29.97 24.64 29.86 24.62 29.74 24.61 29.61 24.6 29.46 24.6 29.3 24.6 29.13 24.6 28.93 24.62 28.71 24.64 28.56 24.66 28.41 24.68 28.29 24.73 28.17 24.77 28.07 24.82 27.97 24.89 27.89 24.96 27.82 25.03 27.78 25.11 27.74 25.2 27.73 25.29 27.73 25.38 27.75 25.48 27.78 25.57 27.84 25.67 27.91 25.77 28.07 25.92 28.25 26.03 28.46 26.13 28.69 26.21 28.93 26.29 29.18 26.37 29.43 26.46 29.67 26.56 29.9 26.69 30.11 26.85 30.3 27.04 30.46 27.27 30.58 27.56 30.66 27.9 30.69 28.31 30.66 28.79 30.61 29.14 30.52 29.46 30.39 29.74 30.24 29.99 30.07 30.21 29.87 30.4 29.66 30.57 29.42 30.71 29.18 30.83 28.93 30.93 28.67 31 28.41 31.06 28.15 31.11 27.9 31.13 27.65 31.15 27.41 31.15 27.09 31.15 26.79 31.15 26.52 31.15 26.27 31.14 26.04 31.13 25.84 31.12 25.66 31.1 25.48 31.08 25.32 31.06 25.18 31.03 25.03 31.01 24.91 30.97 24.78 30.94 24.66 30.9 24.53 30.85 24.41 30.8 24.75 29.13 24.82 29.14 24.9 29.17 25 29.2 25.13 29.23 25.27 29.26 25.42 29.29 25.59 29.33 25.77 29.36 25.96 29.39 26.16 29.42 26.36 29.44 26.57 29.46 26.79 29.47 27.01 29.48 27.23 29.48 27.45 29.47 27.67 29.43 27.85 29.36 27.98 29.28 28.09 29.18 28.16 29.07 28.23 28.95 28.26 28.83 28.29 28.71 28.31 28.49 28.24 28.3 28.11 28.15 27.92 28.02 27.7 27.91 27.43 27.8 27.13 27.69 26.84 27.57 26.54 27.43 26.25 27.27 25.98 27.08 25.74 26.84 25.55 26.55 25.41 26.21 25.34 25.8 25.35 25.32 25.39 25.02 25.44 24.74 25.52 24.48 25.61 24.24 25.73 24.01 25.87 23.82 26.03 23.63 26.22 23.46 26.44 23.32 26.68 23.2 26.95 23.08 27.25 23 27.6 22.93 27.97 22.88 28.38 22.85 28.82 22.84 29.11 22.84 29.36 22.85 29.6 22.85 29.81 22.86 30 22.88 30.17 22.89 30.33 22.91 30.46 22.92 30.59 22.94 30.7 22.96 30.8 22.98 30.89 22.99 30.96 23 31.03 23.01 31.1 23.03 31.16 23.04 30.77 24.75 30.77 24.75 30.77 24.75"/><polyline class="cls-4" points="30.77 24.75 30.77 24.75 30.67 24.74 30.56 24.73 30.46 24.71 30.36 24.7 30.27 24.68 30.17 24.66 30.07 24.65 29.97 24.64 29.86 24.62 29.74 24.61 29.61 24.6 29.46 24.6 29.3 24.6 29.13 24.6 28.93 24.62 28.71 24.64 28.71 24.64 28.56 24.66 28.41 24.68 28.29 24.73 28.17 24.77 28.07 24.82 27.97 24.89 27.89 24.96 27.82 25.03 27.78 25.11 27.74 25.2 27.73 25.29 27.73 25.38 27.75 25.48 27.78 25.57 27.84 25.67 27.91 25.77 27.91 25.77 28.07 25.92 28.25 26.03 28.46 26.13 28.69 26.21 28.93 26.29 29.18 26.37 29.43 26.46 29.67 26.56 29.9 26.69 30.11 26.85 30.3 27.04 30.46 27.27 30.58 27.56 30.66 27.9 30.69 28.31 30.66 28.79 30.66 28.79 30.61 29.14 30.52 29.46 30.39 29.74 30.24 29.99 30.07 30.21 29.87 30.4 29.66 30.57 29.42 30.71 29.18 30.83 28.93 30.93 28.67 31 28.41 31.06 28.15 31.11 27.9 31.13 27.65 31.15 27.41 31.15 27.41 31.15 27.09 31.15 26.79 31.15 26.52 31.15 26.27 31.14 26.04 31.13 25.84 31.12 25.66 31.1 25.48 31.08 25.32 31.06 25.18 31.03 25.03 31.01 24.91 30.97 24.78 30.94 24.66 30.9 24.53 30.85 24.41 30.8 24.75 29.13 24.75 29.13 24.82 29.14 24.9 29.17 25 29.2 25.13 29.23 25.27 29.26 25.42 29.29 25.59 29.33 25.77 29.36 25.96 29.39 26.16 29.42 26.36 29.44 26.57 29.46 26.79 29.47 27.01 29.48 27.23 29.48 27.45 29.47 27.45 29.47 27.67 29.43 27.85 29.36 27.98 29.28 28.09 29.18 28.16 29.07 28.23 28.95 28.26 28.83 28.29 28.71 28.29 28.71 28.31 28.49 28.24 28.3 28.11 28.15 27.92 28.02 27.7 27.91 27.43 27.8 27.13 27.69 26.84 27.57 26.54 27.43 26.25 27.27 25.98 27.08 25.74 26.84 25.55 26.55 25.41 26.21 25.34 25.8 25.35 25.32 25.35 25.32 25.39 25.02 25.44 24.74 25.52 24.48 25.61 24.24 25.73 24.01 25.87 23.82 26.03 23.63 26.22 23.46 26.44 23.32 26.68 23.2 26.95 23.08 27.25 23 27.6 22.93 27.97 22.88 28.38 22.85 28.82 22.84 28.82 22.84 29.11 22.84 29.36 22.85 29.6 22.85 29.81 22.86 30 22.88 30.17 22.89 30.33 22.91 30.46 22.92 30.59 22.94 30.7 22.96 30.8 22.98 30.89 22.99 30.96 23 31.03 23.01 31.1 23.03 31.16 23.04 30.77 24.75"/><polygon class="cls-3" points="32.57 21.16 34.67 21.16 34.36 23 35.62 23 35.35 24.71 34.02 24.67 33.29 28.9 33.28 29.05 33.32 29.18 33.4 29.28 33.49 29.36 33.63 29.42 33.78 29.46 33.95 29.49 34.13 29.51 34.3 29.5 34.45 29.49 34.59 29.46 34.71 29.43 34.81 29.4 34.87 29.38 34.92 29.36 34.93 29.36 34.67 30.77 34.62 30.8 34.56 30.84 34.51 30.87 34.46 30.9 34.4 30.92 34.34 30.94 34.27 30.96 34.21 30.99 34.13 31.01 34.05 31.02 33.96 31.04 33.87 31.05 33.77 31.07 33.66 31.09 33.54 31.1 33.41 31.12 32.84 31.12 32.53 31.09 32.27 31.06 32.02 31.02 31.82 30.96 31.64 30.9 31.5 30.82 31.37 30.73 31.27 30.63 31.2 30.52 31.14 30.4 31.11 30.27 31.08 30.12 31.08 29.96 31.08 29.8 31.1 29.62 31.12 29.43 32.57 21.16 32.57 21.16 32.57 21.16"/><polyline class="cls-4" points="32.57 21.16 34.67 21.16 34.36 23 35.62 23 35.35 24.71 34.02 24.67 33.29 28.9 33.29 28.9 33.28 29.05 33.32 29.18 33.4 29.28 33.49 29.36 33.63 29.42 33.78 29.46 33.95 29.49 34.13 29.51 34.13 29.51 34.3 29.5 34.45 29.49 34.59 29.46 34.71 29.43 34.81 29.4 34.87 29.38 34.92 29.36 34.93 29.36 34.67 30.77 34.67 30.77 34.62 30.8 34.56 30.84 34.51 30.87 34.46 30.9 34.4 30.92 34.34 30.94 34.27 30.96 34.21 30.99 34.13 31.01 34.05 31.02 33.96 31.04 33.87 31.05 33.77 31.07 33.66 31.09 33.54 31.1 33.41 31.12 32.84 31.12 32.84 31.12 32.53 31.09 32.27 31.06 32.02 31.02 31.82 30.96 31.64 30.9 31.5 30.82 31.37 30.73 31.27 30.63 31.2 30.52 31.14 30.4 31.11 30.27 31.08 30.12 31.08 29.96 31.08 29.8 31.1 29.62 31.12 29.43 32.57 21.16"/><polygon class="cls-3" points="37.3 27.57 37.28 27.7 37.27 27.83 37.28 27.98 37.31 28.12 37.37 28.27 37.43 28.4 37.51 28.55 37.6 28.68 37.71 28.8 37.82 28.92 37.94 29.03 38.08 29.12 38.22 29.21 38.37 29.27 38.52 29.33 38.67 29.36 38.87 29.39 39.06 29.41 39.26 29.43 39.45 29.45 39.65 29.46 39.85 29.46 40.05 29.45 40.26 29.43 40.46 29.4 40.66 29.36 40.88 29.32 41.08 29.25 41.29 29.17 41.51 29.08 41.73 28.96 41.95 28.83 41.64 30.69 41.52 30.75 41.4 30.81 41.28 30.86 41.17 30.9 41.05 30.94 40.93 30.98 40.81 31.01 40.68 31.03 40.54 31.05 40.39 31.07 40.23 31.09 40.06 31.1 39.86 31.11 39.66 31.11 39.42 31.12 39.17 31.12 38.8 31.11 38.42 31.07 38.04 31.02 37.66 30.93 37.29 30.81 36.94 30.67 36.59 30.48 36.28 30.26 35.98 30 35.72 29.69 35.5 29.34 35.32 28.94 35.19 28.49 35.11 27.98 35.09 27.42 35.12 26.8 35.15 26.56 35.2 26.28 35.26 25.98 35.34 25.67 35.46 25.34 35.59 25.01 35.77 24.68 35.98 24.36 36.22 24.06 36.52 23.77 36.85 23.51 37.23 23.29 37.67 23.1 38.16 22.96 38.71 22.87 39.32 22.84 39.62 22.85 39.93 22.88 40.24 22.93 40.55 23 40.85 23.12 41.15 23.25 41.42 23.44 41.67 23.65 41.9 23.91 42.09 24.21 42.24 24.56 42.35 24.96 42.41 25.42 42.42 25.93 42.36 26.51 42.25 27.14 42.21 27.61 36.69 27.61 37.03 26.11 40.35 26.11 40.37 25.92 40.36 25.74 40.35 25.57 40.32 25.42 40.26 25.28 40.21 25.15 40.13 25.04 40.06 24.93 39.97 24.84 39.87 24.76 39.76 24.7 39.64 24.64 39.52 24.59 39.4 24.56 39.27 24.54 39.13 24.52 38.99 24.53 38.85 24.55 38.73 24.58 38.6 24.63 38.47 24.69 38.35 24.76 38.24 24.84 38.14 24.93 38.04 25.04 37.95 25.15 37.87 25.27 37.8 25.4 37.73 25.54 37.68 25.69 37.63 25.84 37.6 26 37.3 27.57 37.3 27.57 37.3 27.57"/><polyline class="cls-4" points="37.3 27.57 37.3 27.57 37.28 27.7 37.27 27.83 37.28 27.98 37.31 28.12 37.37 28.27 37.43 28.4 37.51 28.55 37.6 28.68 37.71 28.8 37.82 28.92 37.94 29.03 38.08 29.12 38.22 29.21 38.37 29.27 38.52 29.33 38.67 29.36 38.67 29.36 38.87 29.39 39.06 29.41 39.26 29.43 39.45 29.45 39.65 29.46 39.85 29.46 40.05 29.45 40.26 29.43 40.46 29.4 40.66 29.36 40.88 29.32 41.08 29.25 41.29 29.17 41.51 29.08 41.73 28.96 41.95 28.83 41.64 30.69 41.64 30.69 41.52 30.75 41.4 30.81 41.28 30.86 41.17 30.9 41.05 30.94 40.93 30.98 40.81 31.01 40.68 31.03 40.54 31.05 40.39 31.07 40.23 31.09 40.06 31.1 39.86 31.11 39.66 31.11 39.42 31.12 39.17 31.12 39.17 31.12 38.8 31.11 38.42 31.07 38.04 31.02 37.66 30.93 37.29 30.81 36.94 30.67 36.59 30.48 36.28 30.26 35.98 30 35.72 29.69 35.5 29.34 35.32 28.94 35.19 28.49 35.11 27.98 35.09 27.42 35.12 26.8 35.12 26.8 35.15 26.56 35.2 26.28 35.26 25.98 35.34 25.67 35.46 25.34 35.59 25.01 35.77 24.68 35.98 24.36 36.22 24.06 36.52 23.77 36.85 23.51 37.23 23.29 37.67 23.1 38.16 22.96 38.71 22.87 39.32 22.84 39.32 22.84 39.62 22.85 39.93 22.88 40.24 22.93 40.55 23 40.85 23.12 41.15 23.25 41.42 23.44 41.67 23.65 41.9 23.91 42.09 24.21 42.24 24.56 42.35 24.96 42.41 25.42 42.42 25.93 42.36 26.51 42.25 27.14 42.21 27.61 36.69 27.61 37.03 26.11 40.35 26.11 40.35 26.11 40.37 25.92 40.36 25.74 40.35 25.57 40.32 25.42 40.26 25.28 40.21 25.15 40.13 25.04 40.06 24.93 39.97 24.84 39.87 24.76 39.76 24.7 39.64 24.64 39.52 24.59 39.4 24.56 39.27 24.54 39.13 24.52 39.13 24.52 38.99 24.53 38.85 24.55 38.73 24.58 38.6 24.63 38.47 24.69 38.35 24.76 38.24 24.84 38.14 24.93 38.04 25.04 37.95 25.15 37.87 25.27 37.8 25.4 37.73 25.54 37.68 25.69 37.63 25.84 37.6 26 37.3 27.57"/><polygon class="cls-3" points="55.38 23.45 55.28 23.4 55.18 23.35 55.08 23.3 54.96 23.25 54.85 23.2 54.72 23.16 54.59 23.11 54.45 23.07 54.31 23.03 54.17 23 54.01 22.97 53.85 22.94 53.67 22.93 53.5 22.91 53.32 22.91 53.13 22.91 52.94 22.91 52.74 22.93 52.54 22.95 52.32 22.99 52.11 23.05 51.9 23.13 51.69 23.24 51.48 23.38 51.27 23.54 51.07 23.74 50.88 23.98 50.7 24.26 50.53 24.6 50.38 24.98 50.23 25.4 50.11 25.89 50.06 26.16 50.03 26.42 50.02 26.69 50.03 26.95 50.05 27.2 50.1 27.45 50.17 27.68 50.26 27.9 50.37 28.11 50.51 28.3 50.66 28.48 50.85 28.64 51.05 28.77 51.29 28.89 51.54 28.99 51.83 29.05 51.93 29.08 52.04 29.1 52.18 29.11 52.33 29.13 52.5 29.14 52.67 29.14 52.86 29.14 53.05 29.13 53.25 29.11 53.45 29.07 53.64 29.02 53.83 28.96 54.02 28.87 54.19 28.77 54.35 28.65 54.5 28.52 54.16 30.54 54.11 30.58 54.07 30.62 54.01 30.68 53.94 30.72 53.85 30.78 53.75 30.84 53.63 30.89 53.49 30.93 53.32 30.99 53.12 31.02 52.89 31.05 52.63 31.09 52.33 31.1 51.99 31.11 51.6 31.1 51.18 31.08 50.83 31.04 50.48 30.96 50.13 30.85 49.78 30.7 49.45 30.52 49.13 30.29 48.83 30.02 48.55 29.72 48.3 29.38 48.09 29 47.91 28.58 47.77 28.11 47.68 27.61 47.65 27.07 47.66 26.48 47.74 25.85 47.81 25.54 47.87 25.23 47.95 24.94 48.03 24.66 48.11 24.39 48.21 24.13 48.31 23.88 48.41 23.64 48.53 23.41 48.64 23.19 48.77 22.98 48.91 22.78 49.04 22.59 49.19 22.41 49.34 22.24 49.5 22.08 49.68 21.93 49.85 21.79 50.03 21.66 50.22 21.53 50.43 21.42 50.63 21.32 50.85 21.23 51.07 21.15 51.3 21.07 51.54 21.01 51.78 20.96 52.04 20.91 52.29 20.88 52.57 20.84 52.84 20.83 53.13 20.82 53.37 20.83 53.6 20.84 53.83 20.87 54.06 20.9 54.27 20.93 54.48 20.97 54.67 21.01 54.86 21.06 55.03 21.1 55.18 21.15 55.33 21.19 55.45 21.24 55.55 21.28 55.64 21.31 55.71 21.34 55.76 21.35 55.38 23.45 55.38 23.45 55.38 23.45"/><polyline class="cls-4" points="55.38 23.45 55.38 23.45 55.28 23.4 55.18 23.35 55.08 23.3 54.96 23.25 54.85 23.2 54.72 23.16 54.59 23.11 54.45 23.07 54.31 23.03 54.17 23 54.01 22.97 53.85 22.94 53.67 22.93 53.5 22.91 53.32 22.91 53.13 22.91 53.13 22.91 52.94 22.91 52.74 22.93 52.54 22.95 52.32 22.99 52.11 23.05 51.9 23.13 51.69 23.24 51.48 23.38 51.27 23.54 51.07 23.74 50.88 23.98 50.7 24.26 50.53 24.6 50.38 24.98 50.23 25.4 50.11 25.89 50.11 25.89 50.06 26.16 50.03 26.42 50.02 26.69 50.03 26.95 50.05 27.2 50.1 27.45 50.17 27.68 50.26 27.9 50.37 28.11 50.51 28.3 50.66 28.48 50.85 28.64 51.05 28.77 51.29 28.89 51.54 28.99 51.83 29.05 51.83 29.05 51.93 29.08 52.04 29.1 52.18 29.11 52.33 29.13 52.5 29.14 52.67 29.14 52.86 29.14 53.05 29.13 53.25 29.11 53.45 29.07 53.64 29.02 53.83 28.96 54.02 28.87 54.19 28.77 54.35 28.65 54.5 28.52 54.16 30.54 54.16 30.54 54.11 30.58 54.07 30.62 54.01 30.68 53.94 30.72 53.85 30.78 53.75 30.84 53.63 30.89 53.49 30.93 53.32 30.99 53.12 31.02 52.89 31.05 52.63 31.09 52.33 31.1 51.99 31.11 51.6 31.1 51.18 31.08 51.18 31.08 50.83 31.04 50.48 30.96 50.13 30.85 49.78 30.7 49.45 30.52 49.13 30.29 48.83 30.02 48.55 29.72 48.3 29.38 48.09 29 47.91 28.58 47.77 28.11 47.68 27.61 47.65 27.07 47.66 26.48 47.74 25.85 47.74 25.85 47.81 25.54 47.87 25.23 47.95 24.94 48.03 24.66 48.11 24.39 48.21 24.13 48.31 23.88 48.41 23.64 48.53 23.41 48.64 23.19 48.77 22.98 48.91 22.78 49.04 22.59 49.19 22.41 49.34 22.24 49.5 22.08 49.68 21.93 49.85 21.79 50.03 21.66 50.22 21.53 50.43 21.42 50.63 21.32 50.85 21.23 51.07 21.15 51.3 21.07 51.54 21.01 51.78 20.96 52.04 20.91 52.29 20.88 52.57 20.84 52.84 20.83 53.13 20.82 53.13 20.82 53.37 20.83 53.6 20.84 53.83 20.87 54.06 20.9 54.27 20.93 54.48 20.97 54.67 21.01 54.86 21.06 55.03 21.1 55.18 21.15 55.33 21.19 55.45 21.24 55.55 21.28 55.64 21.31 55.71 21.34 55.76 21.35 55.38 23.45"/><polygon class="cls-3" points="74.04 31.12 71.94 31.12 72.09 30.27 72.09 30.2 71.97 30.35 71.84 30.49 71.72 30.61 71.58 30.71 71.44 30.81 71.31 30.9 71.17 30.96 71.03 31.03 70.88 31.09 70.74 31.12 70.59 31.16 70.44 31.18 70.29 31.21 70.15 31.22 69.99 31.23 69.84 31.23 69.45 31.2 69.08 31.12 68.75 30.99 68.45 30.81 68.17 30.59 67.93 30.34 67.72 30.05 67.54 29.74 67.39 29.39 67.27 29.04 67.18 28.67 67.12 28.28 67.1 27.89 67.11 27.5 67.14 27.11 67.21 26.73 67.33 26.28 67.46 25.86 67.62 25.47 67.81 25.11 68.01 24.76 68.24 24.46 68.47 24.19 68.72 23.94 68.99 23.72 69.27 23.53 69.56 23.36 69.84 23.23 70.15 23.13 70.45 23.06 70.75 23.01 71.06 23 71.28 23 71.5 23.03 71.69 23.07 71.87 23.12 72.05 23.18 72.2 23.25 72.35 23.33 72.49 23.41 72.61 23.5 72.72 23.6 72.82 23.7 72.91 23.8 72.99 23.9 73.06 24 73.12 24.09 73.16 24.18 73.16 24.18 73.69 21.2 75.76 21.2 74.04 31.12 74.04 31.12 74.04 31.12"/><polyline class="cls-4" points="74.04 31.12 71.94 31.12 72.09 30.27 72.09 30.2 72.09 30.2 71.97 30.35 71.84 30.49 71.72 30.61 71.58 30.71 71.44 30.81 71.31 30.9 71.17 30.96 71.03 31.03 70.88 31.09 70.74 31.12 70.59 31.16 70.44 31.18 70.29 31.21 70.15 31.22 69.99 31.23 69.84 31.23 69.84 31.23 69.45 31.2 69.08 31.12 68.75 30.99 68.45 30.81 68.17 30.59 67.93 30.34 67.72 30.05 67.54 29.74 67.39 29.39 67.27 29.04 67.18 28.67 67.12 28.28 67.1 27.89 67.11 27.5 67.14 27.11 67.21 26.73 67.21 26.73 67.33 26.28 67.46 25.86 67.62 25.47 67.81 25.11 68.01 24.76 68.24 24.46 68.47 24.19 68.72 23.94 68.99 23.72 69.27 23.53 69.56 23.36 69.84 23.23 70.15 23.13 70.45 23.06 70.75 23.01 71.06 23 71.06 23 71.28 23 71.5 23.03 71.69 23.07 71.87 23.12 72.05 23.18 72.2 23.25 72.35 23.33 72.49 23.41 72.61 23.5 72.72 23.6 72.82 23.7 72.91 23.8 72.99 23.9 73.06 24 73.12 24.09 73.16 24.18 73.16 24.18 73.69 21.2 75.76 21.2 74.04 31.12"/><polygon class="cls-1" points="70.61 29.28 70.82 29.27 71.02 29.22 71.2 29.17 71.37 29.09 71.53 28.99 71.69 28.88 71.83 28.75 71.96 28.61 72.07 28.46 72.18 28.3 72.28 28.12 72.36 27.94 72.44 27.75 72.5 27.55 72.55 27.35 72.59 27.14 72.63 26.93 72.65 26.71 72.65 26.51 72.64 26.3 72.62 26.1 72.59 25.91 72.53 25.73 72.47 25.55 72.4 25.4 72.31 25.26 72.21 25.14 72.09 25.03 71.97 24.94 71.83 24.88 71.69 24.84 71.53 24.82 71.32 24.84 71.13 24.87 70.96 24.93 70.78 25.01 70.63 25.11 70.48 25.23 70.35 25.36 70.22 25.5 70.11 25.67 70 25.84 69.9 26.02 69.82 26.22 69.74 26.42 69.68 26.63 69.62 26.85 69.58 27.07 69.54 27.4 69.56 27.77 69.61 28.14 69.71 28.49 69.86 28.8 70.06 29.05 70.31 29.22 70.61 29.28 70.61 29.28 70.61 29.28"/><polygon class="cls-3" points="24.06 29.43 23.75 31.12 21.84 31.12 21.9 30.8 21.93 30.52 21.96 30.31 22 30.2 21.89 30.32 21.77 30.44 21.62 30.55 21.46 30.66 21.28 30.77 21.09 30.86 20.89 30.95 20.69 31.02 20.47 31.09 20.25 31.15 20.03 31.19 19.8 31.22 19.58 31.24 19.36 31.25 19.15 31.22 18.95 31.19 18.68 31.12 18.44 31.05 18.23 30.95 18.04 30.84 17.87 30.71 17.72 30.58 17.6 30.43 17.49 30.28 17.4 30.12 17.32 29.96 17.26 29.79 17.22 29.62 17.19 29.45 17.17 29.27 17.15 29.11 17.15 28.94 17.17 28.64 17.22 28.36 17.3 28.1 17.39 27.84 17.51 27.6 17.65 27.38 17.81 27.17 17.99 26.98 18.18 26.8 18.39 26.64 18.61 26.5 18.84 26.38 19.08 26.27 19.33 26.19 19.59 26.12 19.86 26.07 19.87 26.07 19.91 26.07 19.96 26.06 20.05 26.05 20.14 26.04 20.24 26.03 20.36 26.01 20.49 26 20.61 25.98 20.74 25.97 20.88 25.96 21 25.95 21.12 25.94 21.24 25.93 21.34 25.92 21.43 25.92 21.6 25.92 21.78 25.93 21.95 25.94 22.12 25.94 22.25 25.95 22.36 25.95 22.43 25.96 22.46 25.96 22.47 25.91 22.52 25.77 22.55 25.61 22.57 25.47 22.54 25.3 22.47 25.15 22.38 25.01 22.26 24.9 22.12 24.8 21.96 24.73 21.77 24.69 21.58 24.67 21.36 24.66 21.14 24.66 20.9 24.66 20.66 24.66 20.41 24.68 20.17 24.7 19.93 24.73 19.69 24.76 19.46 24.79 19.24 24.82 19.05 24.86 18.86 24.9 18.7 24.95 18.56 24.99 18.45 25.04 18.37 25.09 18.91 23.26 19.08 23.2 19.24 23.13 19.43 23.08 19.61 23.04 19.79 23 19.99 22.98 20.18 22.94 20.39 22.93 20.6 22.91 20.82 22.91 21.05 22.9 21.28 22.9 21.52 22.9 21.77 22.9 22.04 22.91 22.3 22.91 22.52 22.93 22.75 22.97 22.98 23.02 23.22 23.09 23.46 23.18 23.68 23.29 23.91 23.41 24.13 23.56 24.31 23.73 24.48 23.91 24.63 24.11 24.75 24.34 24.82 24.58 24.87 24.84 24.87 25.13 24.82 25.43 24.06 29.43 24.06 29.43 24.06 29.43"/><polyline class="cls-4" points="24.06 29.43 23.75 31.12 21.84 31.12 21.84 31.12 21.9 30.8 21.93 30.52 21.96 30.31 22 30.2 22 30.2 21.89 30.32 21.77 30.44 21.62 30.55 21.46 30.66 21.28 30.77 21.09 30.86 20.89 30.95 20.69 31.02 20.47 31.09 20.25 31.15 20.03 31.19 19.8 31.22 19.58 31.24 19.36 31.25 19.15 31.22 18.95 31.19 18.95 31.19 18.68 31.12 18.44 31.05 18.23 30.95 18.04 30.84 17.87 30.71 17.72 30.58 17.6 30.43 17.49 30.28 17.4 30.12 17.32 29.96 17.26 29.79 17.22 29.62 17.19 29.45 17.17 29.27 17.15 29.11 17.15 28.94 17.15 28.94 17.17 28.64 17.22 28.36 17.3 28.1 17.39 27.84 17.51 27.6 17.65 27.38 17.81 27.17 17.99 26.98 18.18 26.8 18.39 26.64 18.61 26.5 18.84 26.38 19.08 26.27 19.33 26.19 19.59 26.12 19.86 26.07 19.86 26.07 19.87 26.07 19.91 26.07 19.96 26.06 20.05 26.05 20.14 26.04 20.24 26.03 20.36 26.01 20.49 26 20.61 25.98 20.74 25.97 20.88 25.96 21 25.95 21.12 25.94 21.24 25.93 21.34 25.92 21.43 25.92 21.43 25.92 21.6 25.92 21.78 25.93 21.95 25.94 22.12 25.94 22.25 25.95 22.36 25.95 22.43 25.96 22.46 25.96 22.46 25.96 22.47 25.91 22.52 25.77 22.55 25.61 22.57 25.47 22.57 25.47 22.54 25.3 22.47 25.15 22.38 25.01 22.26 24.9 22.12 24.8 21.96 24.73 21.77 24.69 21.58 24.67 21.58 24.67 21.36 24.66 21.14 24.66 20.9 24.66 20.66 24.66 20.41 24.68 20.17 24.7 19.93 24.73 19.69 24.76 19.46 24.79 19.24 24.82 19.05 24.86 18.86 24.9 18.7 24.95 18.56 24.99 18.45 25.04 18.37 25.09 18.91 23.26 18.91 23.26 19.08 23.2 19.24 23.13 19.43 23.08 19.61 23.04 19.79 23 19.99 22.98 20.18 22.94 20.39 22.93 20.6 22.91 20.82 22.91 21.05 22.9 21.28 22.9 21.52 22.9 21.77 22.9 22.04 22.91 22.3 22.91 22.3 22.91 22.52 22.93 22.75 22.97 22.98 23.02 23.22 23.09 23.46 23.18 23.68 23.29 23.91 23.41 24.13 23.56 24.31 23.73 24.48 23.91 24.63 24.11 24.75 24.34 24.82 24.58 24.87 24.84 24.87 25.13 24.82 25.43 24.06 29.43"/><polygon class="cls-2" points="22.23 27.45 22.22 27.42 22.19 27.38 22.15 27.36 22.07 27.34 21.99 27.33 21.89 27.32 21.77 27.32 21.66 27.32 21.54 27.33 21.41 27.34 21.29 27.36 21.17 27.37 21.05 27.39 20.95 27.41 20.86 27.43 20.77 27.45 20.72 27.47 20.66 27.49 20.58 27.52 20.49 27.56 20.39 27.61 20.3 27.66 20.19 27.71 20.09 27.77 19.99 27.85 19.89 27.93 19.8 28.02 19.71 28.11 19.64 28.2 19.58 28.31 19.54 28.43 19.52 28.55 19.51 28.81 19.55 29.02 19.62 29.17 19.72 29.28 19.83 29.36 19.96 29.4 20.08 29.43 20.21 29.43 20.43 29.43 20.64 29.4 20.84 29.37 21.01 29.33 21.16 29.27 21.3 29.21 21.43 29.14 21.55 29.05 21.65 28.98 21.74 28.89 21.81 28.8 21.87 28.71 21.93 28.62 21.97 28.53 22.01 28.45 22.03 28.36 22.09 28.14 22.15 27.89 22.19 27.65 22.23 27.45 22.23 27.45 22.23 27.45"/><polygon class="cls-3" points="8.11 31.12 6.04 31.12 7.77 21.16 11.35 21.16 11.69 27.07 14.17 21.16 17.92 21.16 16.16 31.12 14.1 31.12 15.4 23.68 15.32 23.68 12.23 31.12 9.9 31.12 9.89 30.8 9.84 29.98 9.77 28.8 9.69 27.45 9.62 26.1 9.55 24.91 9.49 24.04 9.48 23.68 9.46 23.68 9.41 23.68 9.37 23.68 9.37 23.68 8.11 31.12 8.11 31.12 8.11 31.12"/><polyline class="cls-4" points="8.11 31.12 6.04 31.12 7.77 21.16 11.35 21.16 11.69 27.07 14.17 21.16 17.92 21.16 16.16 31.12 14.1 31.12 15.4 23.68 15.32 23.68 12.23 31.12 9.9 31.12 9.9 31.12 9.89 30.8 9.84 29.98 9.77 28.8 9.69 27.45 9.62 26.1 9.55 24.91 9.49 24.04 9.48 23.68 9.48 23.68 9.46 23.68 9.41 23.68 9.37 23.68 9.37 23.68 8.11 31.12"/><polygon class="cls-3" points="61.68 29.43 61.37 31.12 59.47 31.12 59.48 30.8 59.49 30.53 59.49 30.33 59.5 30.24 59.4 30.35 59.29 30.46 59.15 30.57 59 30.68 58.84 30.77 58.66 30.87 58.47 30.96 58.28 31.03 58.08 31.09 57.87 31.15 57.65 31.19 57.44 31.22 57.22 31.24 57.01 31.25 56.8 31.22 56.6 31.19 56.33 31.12 56.08 31.05 55.87 30.95 55.67 30.84 55.51 30.71 55.36 30.58 55.24 30.43 55.14 30.28 55.05 30.12 54.98 29.96 54.92 29.79 54.88 29.62 54.85 29.45 54.83 29.27 54.81 29.11 54.81 28.94 54.83 28.64 54.87 28.36 54.94 28.1 55.04 27.84 55.15 27.6 55.3 27.38 55.45 27.17 55.63 26.98 55.83 26.8 56.03 26.64 56.25 26.5 56.49 26.38 56.72 26.27 56.97 26.19 57.22 26.12 57.48 26.07 57.49 26.07 57.53 26.07 57.59 26.06 57.66 26.05 57.76 26.04 57.87 26.03 57.98 26.01 58.1 26 58.23 25.98 58.37 25.97 58.49 25.96 58.62 25.95 58.74 25.94 58.85 25.93 58.96 25.92 59.04 25.92 59.22 25.92 59.4 25.93 59.58 25.94 59.75 25.94 59.89 25.95 60.01 25.95 60.08 25.96 60.11 25.96 60.12 25.91 60.15 25.77 60.17 25.61 60.19 25.47 60.16 25.3 60.09 25.15 60 25.01 59.88 24.9 59.75 24.8 59.59 24.73 59.42 24.69 59.24 24.67 59.02 24.66 58.8 24.66 58.56 24.66 58.32 24.66 58.07 24.68 57.83 24.7 57.59 24.73 57.35 24.76 57.12 24.79 56.9 24.82 56.71 24.86 56.52 24.9 56.36 24.95 56.22 24.99 56.11 25.04 56.03 25.09 56.56 23.26 56.73 23.2 56.9 23.13 57.08 23.08 57.26 23.04 57.45 23 57.64 22.98 57.84 22.94 58.04 22.93 58.25 22.91 58.47 22.91 58.69 22.9 58.93 22.9 59.16 22.9 59.4 22.9 59.66 22.91 59.92 22.91 60.13 22.93 60.36 22.97 60.59 23.02 60.84 23.09 61.07 23.18 61.31 23.29 61.53 23.41 61.75 23.56 61.94 23.73 62.11 23.91 62.26 24.11 62.38 24.34 62.46 24.58 62.51 24.84 62.51 25.13 62.47 25.43 61.68 29.43 61.68 29.43 61.68 29.43"/><polygon class="cls-1" points="59.84 27.45 59.83 27.41 59.8 27.37 59.75 27.35 59.67 27.33 59.59 27.32 59.49 27.31 59.37 27.31 59.26 27.32 59.14 27.33 59.02 27.35 58.9 27.36 58.78 27.38 58.67 27.4 58.57 27.42 58.47 27.44 58.4 27.45 58.34 27.46 58.28 27.48 58.21 27.51 58.12 27.54 58.02 27.58 57.93 27.63 57.83 27.68 57.73 27.75 57.63 27.82 57.53 27.9 57.45 27.98 57.37 28.08 57.3 28.19 57.24 28.3 57.2 28.43 57.18 28.55 57.17 28.81 57.21 29.02 57.27 29.17 57.36 29.28 57.47 29.36 57.6 29.4 57.73 29.43 57.86 29.43 58.09 29.43 58.3 29.4 58.49 29.36 58.67 29.31 58.84 29.25 58.98 29.18 59.12 29.11 59.24 29.02 59.34 28.93 59.44 28.83 59.52 28.74 59.59 28.64 59.64 28.55 59.68 28.46 59.71 28.37 59.73 28.29 59.76 28.08 59.8 27.86 59.83 27.64 59.84 27.45 59.84 27.45 59.84 27.45"/><path class="cls-5" d="M75.45,30.12h0l0-.22.06-.2.11-.18.13-.16.16-.13.18-.09.2-.06.21,0h0l.21,0,.2.06.18.09.16.13.13.16.11.18.06.2,0,.22h0l0,.22-.06.2-.11.18-.13.15-.16.13-.18.1-.2.06-.21,0h0l-.21,0-.2-.06-.18-.1-.16-.13-.13-.15-.11-.18-.06-.2,0-.22m.88.42h-.19v-.92h.51l.08,0,.06,0,.05,0,0,0,0,0,0,.05v.05h0V30l0,.05,0,0,0,0,0,0,0,0-.05,0h-.05l.23.38h-.15l-.23-.38h-.19v.38m.19-.45h0l.07,0h.05l0,0,0,0,0,0,0,0,0,0V29.9h0v0l0,0,0,0,0,0h-.39v.3h.19m0,.92h0l.17,0,.17-.05.14-.08.12-.11.1-.13.08-.14,0-.17,0-.18h0l0-.18,0-.17-.08-.15-.1-.13L77,29.39l-.14-.08-.17-.05-.17,0h0l-.17,0-.17.05-.14.08-.12.11-.1.13-.08.15,0,.17,0,.18h0l0,.18,0,.17.08.14.1.13.12.11.14.08.17.05.17,0"/><polygon class="cls-3" points="62.25 31.12 64.39 31.12 64.39 31.12 65.15 26.8 65.18 26.64 65.23 26.47 65.27 26.3 65.33 26.14 65.41 25.97 65.5 25.81 65.6 25.66 65.72 25.51 65.86 25.39 66.01 25.26 66.18 25.15 66.38 25.06 66.6 24.98 66.84 24.92 67.11 24.88 67.4 24.86 67.51 24.86 67.57 24.86 67.59 24.86 67.59 24.86 67.93 22.91 67.72 22.93 67.52 22.95 67.33 22.99 67.14 23.04 66.98 23.1 66.82 23.18 66.67 23.26 66.52 23.35 66.39 23.46 66.26 23.57 66.14 23.69 66.02 23.81 65.9 23.94 65.79 24.08 65.67 24.22 65.57 24.37 65.8 23 63.66 23 62.25 31.12 62.25 31.12 62.25 31.12 62.25 31.12"/><polyline class="cls-4" points="62.25 31.12 64.39 31.12 64.39 31.12 65.15 26.8 65.15 26.8 65.18 26.64 65.23 26.47 65.27 26.3 65.33 26.14 65.41 25.97 65.5 25.81 65.6 25.66 65.72 25.51 65.86 25.39 66.01 25.26 66.18 25.15 66.38 25.06 66.6 24.98 66.84 24.92 67.11 24.88 67.4 24.86 67.4 24.86 67.51 24.86 67.57 24.86 67.59 24.86 67.59 24.86 67.93 22.91 67.93 22.91 67.72 22.93 67.52 22.95 67.33 22.99 67.14 23.04 66.98 23.1 66.82 23.18 66.67 23.26 66.52 23.35 66.39 23.46 66.26 23.57 66.14 23.69 66.02 23.81 65.9 23.94 65.79 24.08 65.67 24.22 65.57 24.37 65.8 23 63.66 23 62.25 31.12 62.25 31.12"/><polygon class="cls-3" points="42.17 31.12 44.31 31.12 44.35 31.12 45.08 26.8 45.11 26.64 45.15 26.48 45.18 26.32 45.24 26.17 45.3 26.01 45.37 25.87 45.46 25.73 45.57 25.61 45.69 25.49 45.83 25.38 45.99 25.29 46.18 25.2 46.39 25.14 46.62 25.07 46.88 25.04 47.18 25.01 47.2 25.01 47.23 25.02 47.27 25.03 47.31 25.03 47.34 25.04 47.37 25.04 47.4 25.05 47.4 25.05 47.41 25.02 47.44 24.93 47.47 24.79 47.5 24.63 47.56 24.43 47.61 24.22 47.68 24.01 47.74 23.79 47.81 23.65 47.88 23.5 47.96 23.36 48.03 23.23 48.1 23.12 48.16 23.03 48.19 22.98 48.21 22.95 48.2 22.95 48.17 22.94 48.13 22.94 48.08 22.93 48.03 22.93 47.97 22.92 47.91 22.91 47.86 22.91 47.62 22.93 47.41 22.95 47.22 22.99 47.03 23.04 46.86 23.1 46.7 23.17 46.55 23.25 46.42 23.34 46.29 23.44 46.17 23.55 46.05 23.66 45.94 23.79 45.83 23.92 45.72 24.07 45.61 24.22 45.49 24.37 45.77 23 43.59 23 42.17 31.12 42.17 31.12 42.17 31.12 42.17 31.12"/><polyline class="cls-4" points="42.17 31.12 44.31 31.12 44.35 31.12 45.08 26.8 45.08 26.8 45.11 26.64 45.15 26.48 45.18 26.32 45.24 26.17 45.3 26.01 45.37 25.87 45.46 25.73 45.57 25.61 45.69 25.49 45.83 25.38 45.99 25.29 46.18 25.2 46.39 25.14 46.62 25.07 46.88 25.04 47.18 25.01 47.18 25.01 47.2 25.01 47.23 25.02 47.27 25.03 47.31 25.03 47.34 25.04 47.37 25.04 47.4 25.05 47.4 25.05 47.4 25.05 47.41 25.02 47.44 24.93 47.47 24.79 47.5 24.63 47.56 24.43 47.61 24.22 47.68 24.01 47.74 23.79 47.74 23.79 47.81 23.65 47.88 23.5 47.96 23.36 48.03 23.23 48.1 23.12 48.16 23.03 48.19 22.98 48.21 22.95 48.21 22.95 48.2 22.95 48.17 22.94 48.13 22.94 48.08 22.93 48.03 22.93 47.97 22.92 47.91 22.91 47.86 22.91 47.86 22.91 47.62 22.93 47.41 22.95 47.22 22.99 47.03 23.04 46.86 23.1 46.7 23.17 46.55 23.25 46.42 23.34 46.29 23.44 46.17 23.55 46.05 23.66 45.94 23.79 45.83 23.92 45.72 24.07 45.61 24.22 45.49 24.37 45.77 23 43.59 23 42.17 31.12 42.17 31.12"/><polygon class="cls-1" points="75.47 39.09 75.47 39.06 75.54 38.86 75.64 38.69 75.77 38.54 75.93 38.42 76.11 38.33 76.31 38.27 76.52 38.25 76.73 38.27 76.93 38.33 77.11 38.42 77.27 38.54 77.4 38.69 77.51 38.86 77.57 39.06 77.57 39.09 77.35 39.09 77.3 38.93 77.23 38.79 77.13 38.66 77.01 38.55 76.86 38.47 76.7 38.42 76.52 38.4 76.35 38.42 76.18 38.47 76.04 38.55 75.92 38.66 75.82 38.79 75.74 38.93 75.69 39.09 75.47 39.09 75.47 39.09 75.47 39.09"/><polygon class="cls-1" points="76.14 39.09 76.14 38.83 76.56 38.83 76.65 38.83 76.73 38.84 76.79 38.86 76.85 38.89 76.89 38.92 76.92 38.97 76.93 39.02 76.94 39.09 76.79 39.09 76.79 39.05 76.78 39.02 76.76 38.98 76.74 38.97 76.72 38.95 76.68 38.95 76.64 38.94 76.61 38.94 76.56 38.94 76.33 38.94 76.33 39.09 76.14 39.09 76.14 39.09 76.14 39.09"/><polygon class="cls-1" points="75.45 39.26 75.47 39.09 75.69 39.09 75.69 39.1 75.68 39.26 75.45 39.26 75.45 39.26 75.45 39.26"/><polygon class="cls-1" points="76.14 39.26 76.14 39.09 76.33 39.09 76.33 39.24 76.52 39.24 76.59 39.23 76.64 39.22 76.69 39.2 76.73 39.19 76.76 39.17 76.77 39.14 76.79 39.11 76.79 39.09 76.94 39.09 76.94 39.09 76.93 39.14 76.92 39.19 76.89 39.23 76.86 39.26 76.14 39.26 76.14 39.26 76.14 39.26"/><polygon class="cls-1" points="77.36 39.26 77.35 39.1 77.35 39.09 77.57 39.09 77.59 39.26 77.36 39.26 77.36 39.26 77.36 39.26"/><polygon class="cls-1" points="75.45 39.26 75.45 39.28 75.47 39.5 75.54 39.7 75.64 39.89 75.77 40.05 75.93 40.17 76.11 40.27 76.31 40.33 76.52 40.35 76.73 40.33 76.93 40.27 77.11 40.17 77.27 40.05 77.4 39.89 77.51 39.7 77.57 39.5 77.59 39.28 77.59 39.26 77.36 39.26 77.36 39.28 77.35 39.46 77.3 39.63 77.23 39.77 77.13 39.9 77.01 40.01 76.86 40.09 76.7 40.14 76.52 40.16 76.35 40.14 76.18 40.09 76.04 40.01 75.92 39.9 75.82 39.77 75.74 39.63 75.69 39.46 75.68 39.28 75.68 39.26 75.45 39.26 75.45 39.26 75.45 39.26"/><polygon class="cls-1" points="76.14 39.26 76.14 39.7 76.33 39.7 76.33 39.32 76.52 39.32 76.75 39.7 76.9 39.7 76.67 39.32 76.73 39.32 76.78 39.3 76.82 39.29 76.86 39.26 76.86 39.26 76.14 39.26 76.14 39.26 76.14 39.26"/></g></svg>