<svg xmlns="http://www.w3.org/2000/svg" viewBox="0 0 83 51"><defs><style>.cls-1{fill:#fff;}.cls-2{fill:#0066b2;}.cls-3{fill:#f9a533;}</style></defs><title>mapLogo_Visa</title><g id="icon_filter"><rect class="cls-1" y="5" width="83" height="40"/><polygon class="cls-2" points="35.26 36.55 29.49 36.55 33.09 14.4 38.86 14.4 35.26 36.55"/><path class="cls-2" d="M24.64,14.4l-5.5,15.23-.65-3.28h0l-1.94-10a2.47,2.47,0,0,0-2.74-2H4.73l-.11.37a21.54,21.54,0,0,1,6,2.53l5,19.24h6L30.84,14.4Z"/><path class="cls-2" d="M70,36.55h5.29L70.67,14.4H66A2.65,2.65,0,0,0,63.37,16l-8.6,20.5h6L62,33.26h7.33Zm-6.35-7.84,3-8.29,1.7,8.29Z"/><path class="cls-2" d="M55.23,19.72,56,15a16.65,16.65,0,0,0-5.19-1C48,14,41.2,15.25,41.2,21.33c0,5.72,8,5.79,8,8.8S42,32.6,39.67,30.7l-.86,5a16.15,16.15,0,0,0,6.51,1.25c3.93,0,9.87-2,9.87-7.58,0-5.76-8-6.29-8-8.8S52.76,18.36,55.23,19.72Z"/><path class="cls-3" d="M18.49,26.35l-1.94-10a2.47,2.47,0,0,0-2.74-2H4.73l-.11.37a22.35,22.35,0,0,1,8.56,4.3A17.27,17.27,0,0,1,18.49,26.35Z"/></g></svg>