<?xml version="1.0" encoding="utf-8"?>
<!-- Generator: Adobe Illustrator 21.1.0, SVG Export Plug-In . SVG Version: 6.00 Build 0)  -->
<svg version="1.1" id="Layer_1" xmlns="http://www.w3.org/2000/svg" xmlns:xlink="http://www.w3.org/1999/xlink" x="0px" y="0px"
	 viewBox="0 0 409.6 358" style="enable-background:new 0 0 409.6 358;" xml:space="preserve">
<g>
	<path d="M130.5,237.3C130.5,237.3,130.5,237.3,130.5,237.3c0.1,0.9,0.1,1.8,0.2,2.6c0,0.2,0,0.4,0.1,0.5c0.1,0.7,0.2,1.4,0.3,2.1
		c0,0.1,0,0.2,0,0.3c0,0,0,0,0,0c2.1,13.7,7.9,26.2,16.3,36.3c0.1,0.1,0.2,0.2,0.3,0.4c8.8,10.5,20.2,18.3,32.9,22.6
		c0.1,0,0.2,0.1,0.3,0.1c0.5,0.2,1.1,0.4,1.6,0.5c0.7,0.2,1.4,0.4,2,0.6c0.4,0.1,0.8,0.2,1.2,0.3c0.8,0.2,1.6,0.4,2.5,0.6
		c0.3,0.1,0.5,0.1,0.8,0.2c0.9,0.2,1.9,0.4,2.9,0.6c0.1,0,0.2,0,0.4,0.1c4.1,0.7,8.3,1.1,12.5,1.1c5.9,0,11.6-0.7,17.1-2
		c0,0,0.1,0,0.1,0c0.1,0,0.3-0.1,0.4-0.1c0.7-0.2,1.3-0.3,2-0.5c0.2-0.1,0.5-0.1,0.7-0.2c0.8-0.2,1.5-0.5,2.3-0.7
		c0.3-0.1,0.5-0.2,0.8-0.3c0.8-0.3,1.6-0.5,2.3-0.8c0.1-0.1,0.3-0.1,0.4-0.2c0.8-0.3,1.5-0.6,2.2-0.9c0.1-0.1,0.3-0.1,0.4-0.2
		c0.8-0.3,1.6-0.7,2.4-1.1c0.1-0.1,0.3-0.1,0.4-0.2c0.8-0.4,1.6-0.8,2.5-1.2c0,0,0.1-0.1,0.1-0.1c0.8-0.4,1.5-0.8,2.3-1.2
		c0.1-0.1,0.3-0.1,0.4-0.2c0.7-0.4,1.4-0.8,2.2-1.3c0.2-0.1,0.4-0.3,0.7-0.4c0.6-0.4,1.2-0.8,1.8-1.2c0.4-0.2,0.7-0.5,1-0.7
		c0.3-0.2,0.7-0.5,1-0.7c5.2-3.7,9.9-8.1,13.9-13c0.1-0.2,0.2-0.3,0.3-0.5c8.2-10.1,13.8-22.4,15.9-35.8c0,0,0,0,0,0
		c0-0.1,0-0.2,0-0.3c0.1-0.7,0.2-1.4,0.3-2.1c0-0.2,0-0.4,0.1-0.5c0.1-0.8,0.2-1.7,0.2-2.5c0,0,0-0.1,0-0.1c0.1-0.8,0.1-1.6,0.1-2.4
		c0-0.2,0-0.4,0-0.6c0-0.8,0-1.7,0-2.5c0-0.8,0-1.7,0-2.5c0-0.2,0-0.4,0-0.7c0-0.7-0.1-1.4-0.1-2.2c0-0.1,0-0.2,0-0.4
		c-0.1-0.8-0.1-1.6-0.2-2.3c0-0.3-0.1-0.6-0.1-0.9c-0.1-0.6-0.1-1.1-0.2-1.7c0-0.3-0.1-0.7-0.1-1c-0.1-0.6-0.2-1.2-0.3-1.8
		c-0.1-0.4-0.2-0.8-0.2-1.2c-0.1-0.3-0.1-0.6-0.2-1c-0.2-1-0.4-2-0.7-2.9c0,0,0,0,0-0.1c-0.1-0.6-0.3-1.1-0.5-1.7c0-0.1,0-0.1,0-0.2
		c-2.2-7.6-5.5-14.8-10.1-21.5c-0.1-0.1-0.2-0.3-0.3-0.4c-9.2-13.2-22.5-23.4-38.1-28.5c-0.1,0-0.1-0.1-0.2-0.1
		c-0.2-0.1-0.4-0.1-0.6-0.2c-0.5-0.2-1-0.3-1.5-0.5c-0.4-0.1-0.9-0.3-1.3-0.4c-0.5-0.1-1-0.3-1.6-0.4c-0.3-0.1-0.6-0.1-0.9-0.2
		c-0.7-0.2-1.5-0.3-2.2-0.5c-0.2-0.1-0.5-0.1-0.7-0.1c-0.7-0.1-1.3-0.2-2-0.4c-0.2,0-0.4-0.1-0.6-0.1c-0.8-0.1-1.6-0.2-2.4-0.3
		c-0.2,0-0.4-0.1-0.6-0.1c-0.8-0.1-1.5-0.2-2.3-0.2c-0.1,0-0.2,0-0.3,0c-0.9-0.1-1.7-0.1-2.6-0.1c-0.2,0-0.4,0-0.6,0
		c-0.9,0-1.7-0.1-2.6-0.1c-0.9,0-1.7,0-2.6,0.1c-0.2,0-0.4,0-0.6,0c-0.9,0-1.7,0.1-2.6,0.1c-0.1,0-0.2,0-0.3,0
		c-0.8,0.1-1.6,0.1-2.3,0.2c-0.2,0-0.4,0-0.6,0.1c-0.8,0.1-1.6,0.2-2.4,0.3c-0.2,0-0.4,0.1-0.6,0.1c-0.7,0.1-1.3,0.2-2,0.4
		c-0.2,0-0.5,0.1-0.7,0.1c-0.8,0.2-1.5,0.3-2.2,0.5c-0.3,0.1-0.6,0.1-0.9,0.2c-0.5,0.1-1,0.3-1.6,0.4c-0.4,0.1-0.9,0.2-1.3,0.4
		c-0.5,0.2-1,0.3-1.5,0.5c-0.2,0.1-0.4,0.1-0.6,0.2c-0.1,0-0.1,0.1-0.2,0.1c-15.6,5.1-28.9,15.3-38.1,28.5c-0.1,0.1-0.2,0.3-0.3,0.4
		c-4.5,6.6-7.9,13.8-10,21.4c0,0.1-0.1,0.2-0.1,0.3c-0.2,0.5-0.3,1.1-0.4,1.6c0,0.1-0.1,0.3-0.1,0.4c-0.2,0.9-0.4,1.7-0.6,2.6
		c-0.1,0.4-0.2,0.7-0.2,1.1c-0.1,0.4-0.2,0.8-0.2,1.2c-0.1,0.7-0.2,1.3-0.3,2c0,0.3-0.1,0.6-0.1,0.8c-0.1,0.6-0.2,1.1-0.2,1.7
		c0,0.3-0.1,0.5-0.1,0.8c-0.1,0.8-0.2,1.6-0.2,2.4c0,0.1,0,0.2,0,0.3c-0.1,0.7-0.1,1.4-0.1,2.2c0,0.2,0,0.4,0,0.7c0,0.8,0,1.7,0,2.5
		c0,0.8,0,1.7,0,2.5c0,0.2,0,0.4,0,0.6C130.4,235.7,130.4,236.5,130.5,237.3L130.5,237.3z M166.2,280.9l12.5-0.8l5.9,10.8
		C177.9,288.6,171.7,285.2,166.2,280.9L166.2,280.9z M239.8,283.6c-0.1,0-0.1,0.1-0.2,0.1c-0.7,0.5-1.5,1-2.3,1.4
		c-0.1,0.1-0.2,0.1-0.3,0.2c-0.8,0.5-1.6,0.9-2.4,1.4c-0.2,0.1-0.3,0.2-0.5,0.2c-0.7,0.4-1.4,0.7-2.1,1.1c-0.2,0.1-0.3,0.2-0.5,0.3
		c-0.1,0.1-0.2,0.1-0.4,0.2l4.4-10.5l9.5,1.6C243.5,280.9,241.7,282.3,239.8,283.6L239.8,283.6z M262.6,208c1.1,2.6,2,5.3,2.7,8.1
		c0,0.1,0,0.2,0.1,0.3c0.2,0.8,0.4,1.7,0.6,2.5c0,0.2,0.1,0.4,0.1,0.6c0.2,0.8,0.3,1.5,0.4,2.3c0,0.2,0.1,0.5,0.1,0.7
		c0.1,0.8,0.2,1.6,0.3,2.4c0,0.2,0,0.4,0.1,0.6c0.1,0.9,0.2,1.9,0.2,2.8l-8.8-8.7L262.6,208z M198.1,169.7c0.2,0,0.3,0,0.5-0.1
		c0.9-0.1,1.8-0.2,2.8-0.2c0.2,0,0.4,0,0.6,0c0.9,0,1.8-0.1,2.8-0.1h0.2c0.9,0,1.9,0,2.8,0.1c0.2,0,0.4,0,0.6,0
		c0.9,0.1,1.8,0.1,2.8,0.2c0.2,0,0.3,0,0.5,0.1c0.4,0,0.7,0.1,1.1,0.1l-7.7,6.3l-7.7-6.3C197.4,169.7,197.8,169.7,198.1,169.7
		L198.1,169.7z M182.5,173.4l18.5,15c1.1,0.9,2.4,1.3,3.8,1.3c1.3,0,2.7-0.4,3.8-1.3l18.5-15c11.1,4.2,20.6,11.5,27.6,20.8
		l-8.9,25.1c-0.8,2.2-0.2,4.7,1.4,6.3l18.8,18.5c-1.8,9.1-5.7,17.6-11,24.8l-22-3.7c-2.7-0.5-5.4,1-6.5,3.6l-10.3,24.4
		c-3.7,0.7-7.5,1.1-11.5,1.1c-1.6,0-3.2-0.1-4.8-0.2L187.5,271c-1.1-2.1-3.3-3.3-5.7-3.1l-26.8,1.7c-5.6-7.4-9.7-16.1-11.6-25.5
		l18.8-18.5c1.7-1.6,2.2-4.1,1.4-6.3l-8.9-25.1C161.9,184.9,171.5,177.7,182.5,173.4L182.5,173.4z M142.6,225.5c0-0.2,0-0.4,0.1-0.6
		c0.1-0.8,0.2-1.6,0.3-2.4c0-0.3,0.1-0.5,0.1-0.8c0.1-0.8,0.3-1.5,0.4-2.3c0-0.2,0.1-0.4,0.1-0.7c0.2-0.8,0.4-1.7,0.6-2.5
		c0-0.1,0.1-0.2,0.1-0.3c0.7-2.8,1.6-5.5,2.7-8.1l4.2,11.7l-8.8,8.7C142.5,227.4,142.5,226.5,142.6,225.5L142.6,225.5z M142.6,225.5
		"/>
	<path d="M186.1,257.5c1,2.1,3.1,3.5,5.4,3.5H218c2.3,0,4.5-1.4,5.4-3.5l13.3-28.6c1.1-2.4,0.5-5.3-1.5-7.1l-26.5-22.9
		c-2.3-2-5.6-2-7.9,0l-26.5,22.9c-2,1.8-2.6,4.6-1.5,7.1L186.1,257.5z M204.8,211.4l19.1,16.6l-9.7,21h-18.8l-9.7-21L204.8,211.4z
		 M204.8,211.4"/>
	<path d="M403.6,158.2c-3.3,0-6,2.7-6,6v160.4h-12.5v-207c0-3.3-2.7-6-6-6H30.5c-3.3,0-6,2.7-6,6v207H12V117c0-9.9,8.1-18,18-18
		h349.6c9.9,0,18,8.1,18,18v26.3c0,3.3,2.7,6,6,6c3.3,0,6-2.7,6-6V117c0-16.5-13.5-30-30-30H30c-16.5,0-30,13.5-30,30v213.5
		c0,3.3,2.7,6,6,6h24.5c3.3,0,6-2.7,6-6v-207h336.6v207c0,3.3,2.7,6,6,6h24.5c3.3,0,6-2.7,6-6V164.2
		C409.6,160.8,406.9,158.2,403.6,158.2L403.6,158.2z M403.6,158.2"/>
	<path d="M403.6,345.6H6c-3.3,0-6,2.7-6,6c0,3.3,2.7,6,6,6h397.6c3.3,0,6-2.7,6-6C409.6,348.3,406.9,345.6,403.6,345.6L403.6,345.6z
		 M403.6,345.6"/>
	<path d="M205,64.8c3.3,0,6-2.7,6-6V6c0-3.3-2.7-6-6-6c-3.3,0-6,2.7-6,6v52.8C199,62.1,201.7,64.8,205,64.8L205,64.8z M205,64.8"/>
	<path d="M254.5,73.1c0.9,0.4,1.8,0.6,2.6,0.6c2.2,0,4.3-1.2,5.4-3.4l23.3-47.4c1.5-3,0.2-6.6-2.7-8c-3-1.5-6.6-0.2-8,2.7
		l-23.3,47.4C250.3,68.1,251.6,71.7,254.5,73.1L254.5,73.1z M254.5,73.1"/>
	<path d="M147.5,70.4c1,2.1,3.2,3.3,5.4,3.3c0.9,0,1.8-0.2,2.6-0.6c3-1.5,4.2-5.1,2.7-8l-23.3-47.4c-1.5-3-5.1-4.2-8-2.7
		c-3,1.5-4.2,5.1-2.7,8L147.5,70.4z M147.5,70.4"/>
</g>
</svg>
