<?xml version="1.0" encoding="utf-8"?>
<!-- Generator: Adobe Illustrator 21.1.0, SVG Export Plug-In . SVG Version: 6.00 Build 0)  -->
<svg version="1.1" id="Layer_1" xmlns="http://www.w3.org/2000/svg" xmlns:xlink="http://www.w3.org/1999/xlink" x="0px" y="0px"
	 viewBox="0 0 409.6 404" style="enable-background:new 0 0 409.6 404;" xml:space="preserve">
<g>
	<path d="M241,333.7c14.8,0,28.7-2.6,41.7-7l4.3-1.7c0.9,0,1.7-0.9,3.5-0.9c0.9,0,1.7-0.9,2.6-0.9c6.9-3.5,13.9-6.9,20.9-11.3
		l0.9-0.9c6.9-4.3,13-9.6,19.1-15.6c2.6-2.6,5.2-6.1,7.8-8.7l2.6-3.5c17.4-22.6,27.8-49.5,27.8-79.9v-6.1c0-1.7,0-3.5-0.9-5.2v-2.6
		c0-3.5-0.9-7.8-1.7-11.3c0-0.9-0.9-1.7-0.9-3.5c-0.9-2.6-1.7-6.1-2.6-8.7c0-0.9-0.9-1.7-0.9-2.6c-0.9-3.5-2.6-7-3.5-10.4
		c0-0.9-0.9-1.7-0.9-2.6c-0.9-2.6-2.6-6.1-4.3-8.7c0-0.9-0.9-0.9-0.9-1.7c-1.7-2.6-3.5-6.1-5.2-8.7l-2.6-3.5
		c-16.5-23.5-40-40.8-67.8-49.5l-4.3-0.9c-2.6-0.9-5.2-0.9-6.9-1.7h-1.7c-3.5-0.9-7-0.9-10.4-1.7h-3.5c-3.5,0-6.9-0.9-10.4-0.9H241
		c-3.5,0-6.9,0-10.4,0.9h-3.5c-3.5,0-6.9,0.9-9.6,1.7c-0.9,0-1.7,0-2.6,0.9c-2.6,0.9-5.2,0.9-6.9,1.7l-4.3,0.9
		c-27.8,8.7-51.3,26.9-67.8,50.4l-2.6,4.3c-1.7,2.6-3.5,5.2-5.2,8.7l-0.9,0.9c-1.7,2.6-2.6,6.1-4.3,8.7c0,0.9-0.9,1.7-0.9,2.6
		c-1.7,3.5-2.6,6.9-3.5,10.4c0,0.9-0.9,1.7-0.9,2.6c-0.9,2.6-1.7,5.2-2.6,8.7c0,0.9-0.9,2.6-0.9,3.5c-0.9,3.5-0.9,7-1.7,10.4v2.6
		c0,1.7,0,4.3-0.9,6.1v5.2c0,33,12.2,63.4,33,86.9l6.9,6.9c5.2,5.2,11.3,10.4,17.4,14.8c0.9,0,0.9,0.9,1.7,0.9
		c3.5,1.7,6.1,4.3,9.6,6.1c3.5,1.7,7,3.5,10.4,5.2c0.9,0,1.7,0.9,1.7,0.9c3.5,1.7,7.8,2.6,11.3,4.3l4.3,1.7
		C217.6,331.9,228.9,333.7,241,333.7L241,333.7z M241,316.3c-6.1,0-12.2-0.9-17.4-1.7l3.5-2.6l35.6-1.7l4.3,3.5
		C258.4,314.5,249.7,316.3,241,316.3L241,316.3z M199.3,308.5c-1.7-0.9-3.5-1.7-5.2-2.6c-1.7-0.9-3.5-1.7-5.2-2.6
		c-1.7-0.9-3.5-1.7-5.2-2.6c-1.7-0.9-3.5-1.7-4.3-2.6c-1.7-0.9-3.5-2.6-5.2-3.5c-1.7-0.9-2.6-1.7-4.3-3.5c-1.7-1.7-3.5-2.6-5.2-4.3
		l-2.6-2.6l2.6-11.3l34.8-3.5l13.9,32.1l-9.6,8.7C201.9,308.5,201.1,308.5,199.3,308.5L199.3,308.5z M127.2,192
		c0-3.5,0.9-6.9,1.7-10.4v-1.7c1.7-7.8,4.3-15.6,6.9-23.5c0.9-0.9,0.9-2.6,1.7-3.5c0.9-2.6,2.6-5.2,3.5-7c0-0.9,0.9-0.9,0.9-1.7
		h10.4l9.6,33.9l-28.7,20l-6.1-5.2V192L127.2,192z M215.8,90.4c3.5-0.9,6.1-0.9,9.6-1.7h2.6c8.7-0.9,16.5-0.9,25.2,0h2.6
		c3.5,0,6.1,0.9,9.6,1.7h0.9l2.6,7l-28.7,20.9l-28.7-20.9l2.6-7C215,91.2,215.8,90.4,215.8,90.4L215.8,90.4z M340.1,146
		c0.9,1.7,1.7,3.5,2.6,6.1c0.9,1.7,1.7,3.5,2.6,4.3c0.9,2.6,1.7,5.2,2.6,7c0.9,0.9,0.9,2.6,1.7,3.5c0.9,3.5,2.6,7.8,3.5,11.3v1.7
		c0.9,3.5,0.9,7,1.7,10.4v0.9l-8.7,6.1l-27.8-20.9l11.3-33h9.6C339.2,144.2,340.1,145.1,340.1,146L340.1,146z M323.6,280.6l-3.5,3.5
		c-1.7,1.7-3.5,2.6-4.3,4.3c-1.7,0.9-2.6,2.6-4.3,3.5c-1.7,0.9-3.5,2.6-5.2,3.5c-1.7,0.9-3.5,2.6-5.2,3.5c-1.7,0.9-3.5,1.7-4.3,2.6
		c-1.7,0.9-4.3,2.6-6.1,3.5c-0.9,0.9-2.6,0.9-3.5,1.7l-10.4-8.7l12.2-33l34.8,1.7l2.6,10.4C325.3,278.9,324.4,279.8,323.6,280.6
		L323.6,280.6z M259.3,292.8l-30.4,1.7l-14.8-34.8l8.7-18.2H261l12.2,16.5L259.3,292.8z M241,170.3l28.7,20.9l-10.4,33h-34.8
		l-10.4-33L241,170.3z M323.6,249.4l-36.5-1.7l-12.2-16.5l12.2-36.5l20-5.2l29.5,22.6L323.6,249.4z M301,172.9l-20,5.2l-31.3-22.6
		v-20.9l29.5-21.7l33.9,25.2L301,172.9z M202.8,112.1l29.5,21.7v20.9l-33,24.3l-19.1-4.3L169.8,139L202.8,112.1z M174.1,191.2
		l21.7,5.2l11.3,35.6l-9.6,19.1l-36.5,3.5L142.9,212L174.1,191.2z M339.2,259.8v-0.9l14.8-45.2l0.9-0.9
		C353.1,230.3,347,245.9,339.2,259.8L339.2,259.8z M326.2,126l-34.8-26.1C304.5,106,316.6,115.6,326.2,126L326.2,126z M191.5,99
		l-34.8,27.8H155C164.6,115.6,177.6,106,191.5,99L191.5,99z M128.1,219l19.1,46.1v1.7C137.6,252.8,130.7,236.3,128.1,219L128.1,219z
		 M128.1,219"/>
	<path d="M231.5,0l-7.8,15.6c1.7,0.9,168.6,85.1,168.6,193.8c0,63.4-56.5,123.4-168.6,179l7.8,15.6
		c118.2-59.1,178.1-124.3,178.1-194.6C409.6,90.4,239.3,3.5,231.5,0L231.5,0z M231.5,0"/>
	<path d="M1.2,192.9h95.6v17.4H1.2V192.9z M91.6,137.2L0.3,103.4l6-16.3l91.2,33.8L91.6,137.2z M91.2,266.6l6,16.3L6,316.7l-6-16.3
		L91.2,266.6z M91.2,266.6"/>
</g>
</svg>
