<?xml version="1.0" encoding="utf-8"?>
<!-- Generator: Adobe Illustrator 21.1.0, SVG Export Plug-In . SVG Version: 6.00 Build 0)  -->
<svg version="1.1" id="Layer_1" xmlns="http://www.w3.org/2000/svg" xmlns:xlink="http://www.w3.org/1999/xlink" x="0px" y="0px"
	 viewBox="0 0 333.5 430.7" style="enable-background:new 0 0 333.5 430.7;" xml:space="preserve">
<style type="text/css">
	.st0{fill:none;stroke:#000000;stroke-width:9;stroke-linecap:round;stroke-linejoin:round;stroke-miterlimit:10;}
</style>
<g>
	<g>
		<path d="M271.2,291.1l10-17.3h19.9C292.5,281.7,282.3,287.6,271.2,291.1L271.2,291.1z M233.1,293.4l-13.3-23l14.6-25.2h26.3
			l14.6,25.2l-13.3,23C252.5,295.1,242.6,295.1,233.1,293.4L233.1,293.4z M213.8,273.8l10,17.3c-11-3.5-21.3-9.4-29.9-17.3H213.8
			L213.8,273.8z M223.8,140l-10,17.3H194C202.5,149.4,212.8,143.5,223.8,140L223.8,140z M262,137.7l13.3,23l-14.6,25.2h-26.3
			l-14.6-25.2l13.3-23C242.6,136,252.5,136,262,137.7L262,137.7z M301.1,157.3h-19.9l-10-17.3C282.3,143.5,292.5,149.4,301.1,157.3
			L301.1,157.3z M315.2,215.5l9.7-16.8c1.2,5.5,1.8,11.1,1.8,16.8c0,5.7-0.6,11.3-1.8,16.8L315.2,215.5L315.2,215.5z M234.4,238.3
			l-13.2-22.8l13.2-22.8h26.3l13.2,22.8l-13.2,22.8H234.4L234.4,238.3z M187.3,164.1h26.5l14.6,25.2l-13.2,22.8h-29.5l-13-22.6
			C176,180.2,180.9,171.7,187.3,164.1L187.3,164.1z M170.2,232.3c-1.2-5.5-1.8-11.1-1.8-16.8c0-5.7,0.6-11.3,1.8-16.8l9.7,16.8
			L170.2,232.3L170.2,232.3z M213.8,266.9h-26.5c-6.5-7.5-11.4-16.1-14.6-25.4l13-22.6h29.5l13.2,22.8L213.8,266.9L213.8,266.9z
			 M307.7,266.9h-26.5l-14.6-25.2l13.2-22.8h7.8c1.9,0,3.4-1.5,3.4-3.4s-1.5-3.4-3.4-3.4h-7.8l-13.2-22.8l14.6-25.2h26.5
			c6.5,7.5,11.4,16.1,14.6,25.4l-14,24.3c-0.6,1.1-0.6,2.4,0,3.4l14,24.3C319.1,250.9,314.2,259.4,307.7,266.9L307.7,266.9z
			 M329.3,188.9c-3.7-11.3-9.6-21.5-17.5-30.4c-12.3-13.8-29-23.5-47-27.2c-11.3-2.3-23.3-2.3-34.7,0c-18,3.7-34.7,13.3-47,27.2
			c-7.9,8.9-13.8,19.1-17.5,30.4c-2.8,8.6-4.2,17.6-4.2,26.7c0,9.1,1.4,18.1,4.2,26.7c3.7,11.3,9.6,21.5,17.5,30.4
			c12.3,13.8,29,23.5,47,27.1c5.7,1.2,11.5,1.7,17.3,1.7c5.8,0,11.7-0.6,17.3-1.7c18-3.7,34.7-13.3,47-27.1
			c7.9-8.9,13.8-19.1,17.5-30.4c2.8-8.6,4.2-17.6,4.2-26.7C333.5,206.4,332.1,197.5,329.3,188.9L329.3,188.9z"/>
	</g>
	<path d="M299.8,212.1h-0.9c-1.9,0-3.4,1.5-3.4,3.4s1.5,3.4,3.4,3.4h0.9c1.9,0,3.4-1.5,3.4-3.4S301.7,212.1,299.8,212.1L299.8,212.1
		z"/>
</g>
<polyline class="st0" points="247.5,106.7 247.5,4.9 4.5,4.9 4.5,426.2 247.5,426.2 247.5,321.3 "/>
<line class="st0" x1="161.5" y1="151.8" x2="93.5" y2="151.8"/>
<line class="st0" x1="161.5" y1="279.2" x2="93.5" y2="279.2"/>
<line class="st0" x1="142.3" y1="215.5" x2="74.3" y2="215.5"/>
<path class="st0" d="M51.9,426.2c0-41.8,33.9-75.7,75.7-75.7s75.7,33.9,75.7,75.7"/>
<path class="st0" d="M203.2,4.9c0,41.8-33.9,75.7-75.7,75.7S51.9,46.7,51.9,4.9"/>
</svg>
