<?xml version="1.0" encoding="utf-8"?>
<!-- Generator: Adobe Illustrator 21.1.0, SVG Export Plug-In . SVG Version: 6.00 Build 0)  -->
<svg version="1.1" id="Layer_1" xmlns="http://www.w3.org/2000/svg" xmlns:xlink="http://www.w3.org/1999/xlink" x="0px" y="0px"
	 viewBox="0 0 409.6 313.3" style="enable-background:new 0 0 409.6 313.3;" xml:space="preserve">
<g>
	<g>
		<path d="M407.5,123.6c-2.9-14.5-8.8-28.4-17.2-40.4c-1.9-2.7-5.6-3.4-8.4-1.5c-2.7,1.9-3.4,5.6-1.5,8.4c1.9,2.8,3.7,5.6,5.3,8.5
			c-1.8,0-5.2-0.4-7.1,3l-15.4,26.7h-42.1l-13.8-23.9l14.3-28.5h30.6c4.2,0,5.4-3.4,7.6-7.2c3,2.3,5.9,4.8,8.7,7.4
			c2.4,2.3,6.2,2.2,8.5-0.1c2.3-2.4,2.2-6.2-0.1-8.5c-60.3-58.3-160.4-27.3-178.7,53.2c-8.3-32.3-8-31.1-8.3-31.9
			c-0.1-0.2-0.3-0.8-0.5-1.1c-0.1-0.3-0.4-0.7-0.6-1.1c0,0,0,0,0-0.1c-2.5-4.1-7.2-6.9-13.2-6.1c-0.8,0.4-20.9,2.7-38.2-4.9
			c-3-1.3-6.6,0-7.9,3.1c-1.3,3,0,6.6,3.1,7.9c6,2.7,12.1,4.3,17.8,5.3l6.7,27.4c-42.3,6.8-29,4.7-71.5,11.5l-59.2-88l14.4-9.7
			C54,51.5,78.5,57.5,98.5,47.9c3.4,10.2,8.7,19.3,16.5,26.8c2.4,2.3,6.2,2.2,8.5-0.2c2.3-2.4,2.2-6.2-0.2-8.5
			c-2.5-2.3-4.7-5-6.6-7.9c-8.7-12.9-11.3-30-11.4-45.4c-0.1-7.2-6-13-13.3-12.8C61.8,0.9,34.5,22.7,5.7,42.1
			c-5.9,4-7.5,12-3.5,17.9l167.2,248.8c3.9,5.8,11.2,7,15.9,4.6c17.6-7.3,51.3-38.5,39.1-88.5c-0.8-3.3-1.6-6.7-2.5-10.1
			c13.7,15.6,30.8,25.1,36.7,27.2C337.5,277.5,424.2,208.7,407.5,123.6L407.5,123.6z M92.3,12c1.5,0,0.6,1.2,1.3,11
			c0.4,4.7,1,9.2,1.7,13.1c-15.2,8.6-34.4,4.3-44.5-9.8C67.6,15.8,84.6,12.3,92.3,12L92.3,12z M310.8,134.2l-13.7,23.7h-27.3
			l-13.7-23.7l13.7-23.7h27.3L310.8,134.2z M349.9,62l-1.1,1.8h-27.3l-8-13.8C324.1,50.9,337.9,55.1,349.9,62L349.9,62z M299.3,49.4
			L311.2,70l-14.3,28.5h-27.2l-20-33.1C264,55.8,281,50,299.3,49.4L299.3,49.4z M240.1,72.8l19.2,31.8l-13.6,23.6h-36.7
			C212.7,106.3,224,86.9,240.1,72.8L240.1,72.8z M178.9,93.8c2.2,8.6,13.6,52.6,24.3,95c-10.2-1.7-18.6-9.2-21.4-19.4
			c-13.3-54.5-9.3-38.1-18.7-76.5C179.1,93.4,178,90.5,178.9,93.8L178.9,93.8z M168.7,166.5l-53.2,8.6l-7.6-11.2l57.8-9.3
			L168.7,166.5z M160,130.8l2.9,12l-62.3,10l-7.6-11.3C98.1,140.7,125.9,136.3,160,130.8L160,130.8z M194.5,292.5l-19.9-29.7
			c-1.8-2.8-5.6-3.5-8.3-1.6c-2.8,1.8-3.5,5.6-1.6,8.3l20.5,30.4c-1.2,0.7-2.7,1.6-3.9,2.1c-0.7,0.3-1.3,0.7-1.8,0
			C2.7,39.3,11.3,52.8,12.4,52l4.2-2.8C35.2,77,145.5,241.1,154,253.7c1.8,2.8,5.6,3.5,8.3,1.6c2.7-1.9,3.5-5.6,1.6-8.3l-41-61
			l49.2-7.9c5.9,13.5,19.1,22.6,34.1,23.1c2.3,9.2,4.5,18.2,6.5,26.5C218.9,252.6,212.8,275,194.5,292.5L194.5,292.5z M224.6,198.5
			c-11.7-16.8-17.8-37.1-16.9-58.3h38l13.7,23.8l-18.3,34.5H224.6z M234.5,210.5h6.8l6.6,11.5C243.1,218.6,238.6,214.7,234.5,210.5
			L234.5,210.5z M298,237.2l1.2,2.1c-11.1-0.4-21.7-2.7-31.5-6.6c-0.3-1.1,0.8,0.9-16.1-28.3l18.3-34.5h26.9l16.7,34.4L298,231.2
			C296.9,233,296.9,235.3,298,237.2L298,237.2z M312.7,238.8l-2.6-4.6l13.7-23.7h27.3l6.5,11.2C343.8,231.5,328.1,237.2,312.7,238.8
			L312.7,238.8z M367,214l-7.2-12.5c-1.1-1.9-3-3-5.2-3h-30.5l-16.7-34.4l13.8-23.9h42.1l15.4,26.7c1.1,1.9,3.1,3,5.2,3H394
			C389.2,187,379.7,202.2,367,214L367,214z M396.6,157.9h-9.2l-13.7-23.7l13.7-23.7h4C397.2,125.8,398.8,142.1,396.6,157.9
			L396.6,157.9z M396.6,157.9"/>
	</g>
</g>
</svg>
