<?xml version="1.0" encoding="iso-8859-1"?>
<!-- Generator: Adobe Illustrator 21.1.0, SVG Export Plug-In . SVG Version: 6.00 Build 0)  -->
<svg version="1.1" id="Layer_1" xmlns="http://www.w3.org/2000/svg" xmlns:xlink="http://www.w3.org/1999/xlink" x="0px" y="0px"
	 viewBox="0 0 409.598 383.494" style="enable-background:new 0 0 409.598 383.494;" xml:space="preserve">
<g>
	<path d="M268.89,41.183c0.002,0.014,0.002,0.03,0.002,0.044c0.034,0.439,0.074,0.874,0.123,1.306c0.01,0.093,0.02,0.183,0.03,0.274
		c0.044,0.368,0.09,0.736,0.145,1.103c0.008,0.055,0.012,0.107,0.02,0.161c0.002,0.006,0.004,0.012,0.006,0.018
		c1.061,7.052,4.046,13.477,8.402,18.731c0.044,0.062,0.085,0.127,0.135,0.185c4.551,5.427,10.419,9.42,16.979,11.661
		c0.057,0.02,0.115,0.042,0.171,0.06c0.274,0.093,0.55,0.183,0.828,0.27c0.348,0.108,0.698,0.211,1.051,0.312
		c0.199,0.056,0.4,0.111,0.602,0.163c0.421,0.111,0.845,0.215,1.274,0.314c0.129,0.028,0.26,0.056,0.391,0.085
		c0.489,0.107,0.984,0.203,1.482,0.292c0.062,0.01,0.125,0.02,0.189,0.03c2.1,0.358,4.255,0.545,6.456,0.545
		c3.023,0,5.968-0.352,8.792-1.016c0.014-0.004,0.026-0.004,0.04-0.008c0.075-0.016,0.147-0.038,0.22-0.056
		c0.348-0.085,0.695-0.173,1.039-0.268c0.119-0.032,0.24-0.062,0.358-0.096c0.397-0.113,0.791-0.233,1.184-0.359
		c0.131-0.042,0.264-0.085,0.395-0.129c0.405-0.132,0.807-0.272,1.204-0.418c0.074-0.026,0.147-0.055,0.219-0.082
		c0.386-0.145,0.769-0.296,1.15-0.453c0.069-0.028,0.137-0.056,0.203-0.085c0.423-0.177,0.842-0.362,1.256-0.553
		c0.071-0.032,0.141-0.066,0.211-0.099c0.425-0.201,0.848-0.407,1.264-0.62c0.024-0.014,0.051-0.028,0.075-0.04
		c0.398-0.207,0.793-0.423,1.184-0.642c0.062-0.036,0.129-0.071,0.191-0.107c0.374-0.215,0.745-0.437,1.111-0.662
		c0.116-0.071,0.231-0.143,0.348-0.215c0.314-0.199,0.626-0.403,0.934-0.61c0.181-0.121,0.358-0.245,0.537-0.368
		c0.167-0.119,0.336-0.238,0.503-0.356c2.659-1.914,5.087-4.165,7.188-6.707c0.066-0.08,0.123-0.165,0.179-0.249
		c4.231-5.2,7.13-11.522,8.172-18.447c0-0.006,0.002-0.012,0.004-0.018c0.008-0.055,0.012-0.107,0.02-0.161
		c0.054-0.366,0.1-0.733,0.145-1.103c0.01-0.091,0.022-0.181,0.03-0.274c0.048-0.432,0.09-0.867,0.123-1.306
		c0-0.014,0.002-0.03,0.002-0.044c0.03-0.412,0.052-0.827,0.071-1.242c0.004-0.1,0.008-0.199,0.01-0.3
		c0.014-0.429,0.024-0.86,0.024-1.292c0-0.429-0.008-0.857-0.024-1.284c-0.004-0.114-0.008-0.231-0.012-0.346
		c-0.016-0.372-0.037-0.745-0.062-1.113c-0.004-0.062-0.006-0.125-0.012-0.185c-0.03-0.405-0.069-0.805-0.113-1.206
		c-0.014-0.145-0.032-0.292-0.05-0.439c-0.032-0.285-0.071-0.569-0.111-0.853c-0.024-0.175-0.051-0.352-0.077-0.527
		c-0.05-0.316-0.103-0.63-0.161-0.944c-0.038-0.212-0.078-0.423-0.121-0.632c-0.034-0.167-0.069-0.332-0.105-0.499
		c-0.107-0.507-0.225-1.014-0.354-1.518c-0.002-0.012-0.006-0.024-0.008-0.038c-0.076-0.294-0.157-0.588-0.24-0.88
		c-0.008-0.026-0.014-0.053-0.022-0.079c-1.117-3.915-2.853-7.643-5.182-11.059c-0.048-0.07-0.105-0.132-0.157-0.199
		c-4.727-6.822-11.603-12.046-19.64-14.682c-0.032-0.01-0.062-0.026-0.095-0.039c-0.103-0.032-0.207-0.06-0.312-0.092
		c-0.264-0.085-0.528-0.163-0.793-0.242c-0.23-0.066-0.459-0.131-0.691-0.193c-0.266-0.073-0.533-0.143-0.801-0.209
		c-0.157-0.039-0.312-0.077-0.471-0.115c-0.382-0.091-0.769-0.173-1.157-0.251c-0.125-0.026-0.254-0.048-0.38-0.073
		c-0.338-0.066-0.677-0.127-1.019-0.181c-0.098-0.019-0.199-0.035-0.298-0.05c-0.418-0.064-0.839-0.123-1.262-0.173
		c-0.111-0.014-0.222-0.026-0.334-0.038c-0.398-0.044-0.797-0.085-1.2-0.117c-0.046-0.004-0.09-0.01-0.137-0.014
		c-0.439-0.032-0.88-0.058-1.323-0.077c-0.107-0.004-0.213-0.008-0.32-0.012c-0.447-0.016-0.896-0.026-1.347-0.026
		c-0.449,0-0.898,0.01-1.344,0.026c-0.107,0.004-0.214,0.008-0.321,0.012c-0.443,0.019-0.883,0.042-1.322,0.077
		c-0.046,0.004-0.091,0.01-0.137,0.014c-0.402,0.032-0.801,0.073-1.2,0.117c-0.112,0.012-0.223,0.024-0.334,0.038
		c-0.423,0.05-0.844,0.109-1.262,0.173c-0.099,0.016-0.197,0.032-0.298,0.05c-0.34,0.054-0.68,0.114-1.018,0.181
		c-0.127,0.024-0.256,0.046-0.38,0.073c-0.389,0.078-0.775,0.163-1.157,0.251c-0.159,0.038-0.314,0.076-0.472,0.115
		c-0.267,0.066-0.535,0.137-0.801,0.209c-0.231,0.062-0.461,0.127-0.691,0.193c-0.266,0.078-0.529,0.157-0.793,0.242
		c-0.105,0.03-0.209,0.058-0.312,0.092c-0.032,0.012-0.062,0.026-0.094,0.039c-8.04,2.637-14.916,7.86-19.64,14.684
		c-0.055,0.064-0.109,0.129-0.157,0.197c-2.319,3.402-4.05,7.114-5.166,11.009c-0.016,0.054-0.032,0.109-0.046,0.161
		c-0.079,0.276-0.153,0.552-0.226,0.83c-0.018,0.07-0.034,0.143-0.053,0.213c-0.11,0.441-0.215,0.884-0.31,1.326
		c-0.038,0.185-0.078,0.371-0.115,0.556c-0.04,0.199-0.078,0.398-0.114,0.598c-0.062,0.346-0.123,0.691-0.175,1.039
		c-0.022,0.141-0.04,0.284-0.06,0.425c-0.042,0.294-0.081,0.588-0.117,0.886c-0.016,0.141-0.032,0.282-0.048,0.423
		c-0.044,0.402-0.082,0.805-0.112,1.212c-0.004,0.058-0.008,0.119-0.012,0.177c-0.026,0.373-0.046,0.745-0.062,1.121
		c-0.004,0.115-0.008,0.23-0.012,0.344c-0.014,0.427-0.024,0.855-0.024,1.286c0,0.431,0.01,0.862,0.024,1.292
		c0.004,0.098,0.008,0.197,0.012,0.298C268.837,40.356,268.859,40.771,268.89,41.183L268.89,41.183z M287.3,63.664l6.46-0.409
		l3.025,5.57C293.321,67.641,290.122,65.884,287.3,63.664L287.3,63.664z M325.198,65.025c-0.028,0.02-0.058,0.038-0.087,0.058
		c-0.382,0.256-0.771,0.506-1.163,0.747c-0.044,0.026-0.087,0.055-0.131,0.081c-0.405,0.245-0.815,0.481-1.232,0.711
		c-0.078,0.042-0.155,0.08-0.233,0.123c-0.348,0.187-0.7,0.368-1.057,0.544c-0.091,0.044-0.179,0.088-0.27,0.131
		c-0.061,0.028-0.123,0.054-0.183,0.082l2.285-5.429L328,62.885C327.104,63.646,326.172,64.365,325.198,65.025L325.198,65.025z
		 M336.938,26.066c0.561,1.357,1.036,2.756,1.411,4.197c0.012,0.048,0.024,0.096,0.036,0.145c0.111,0.433,0.209,0.868,0.302,1.304
		c0.022,0.107,0.044,0.214,0.064,0.321c0.078,0.39,0.147,0.783,0.211,1.175c0.02,0.127,0.042,0.251,0.06,0.378
		c0.061,0.411,0.113,0.826,0.159,1.24c0.01,0.097,0.024,0.193,0.034,0.292c0.048,0.483,0.085,0.97,0.111,1.461l-4.543-4.463
		L336.938,26.066z M303.736,6.331c0.08-0.008,0.161-0.019,0.24-0.026c0.471-0.046,0.944-0.082,1.419-0.109
		c0.103-0.004,0.203-0.008,0.306-0.012c0.475-0.022,0.952-0.036,1.434-0.038h0.078c0.481,0.002,0.958,0.016,1.433,0.038
		c0.103,0.004,0.204,0.008,0.306,0.012c0.475,0.026,0.948,0.062,1.419,0.109c0.078,0.008,0.159,0.018,0.24,0.026
		c0.181,0.02,0.362,0.046,0.543,0.068l-3.981,3.239l-3.982-3.239C303.374,6.377,303.554,6.351,303.736,6.331L303.736,6.331z
		 M295.69,8.269l9.533,7.752c0.567,0.463,1.258,0.695,1.948,0.695c0.693,0,1.383-0.231,1.95-0.695l9.533-7.752
		c5.695,2.182,10.619,5.93,14.236,10.723l-4.598,12.911c-0.405,1.133-0.113,2.399,0.747,3.243l9.709,9.533
		c-0.944,4.71-2.917,9.054-5.676,12.782l-11.341-1.892c-1.411-0.236-2.804,0.53-3.36,1.85l-5.292,12.583
		c-1.916,0.357-3.889,0.551-5.908,0.551c-0.831,0-1.653-0.042-2.468-0.103l-6.452-11.882c-0.576-1.059-1.715-1.683-2.913-1.61
		l-13.789,0.871c-2.905-3.81-4.98-8.283-5.954-13.15l9.709-9.533c0.86-0.844,1.152-2.11,0.747-3.243l-4.597-12.911
		C285.072,14.2,289.993,10.452,295.69,8.269L295.69,8.269z M275.132,35.118c0.01-0.099,0.024-0.197,0.035-0.298
		c0.046-0.413,0.096-0.823,0.157-1.23c0.02-0.131,0.042-0.26,0.062-0.389c0.062-0.389,0.131-0.777,0.208-1.162
		c0.022-0.111,0.046-0.223,0.07-0.336c0.089-0.427,0.188-0.852,0.294-1.274c0.016-0.058,0.028-0.119,0.044-0.177
		c0.374-1.437,0.847-2.834,1.409-4.187l2.154,6.051l-4.546,4.463C275.047,36.091,275.083,35.601,275.132,35.118L275.132,35.118z
		 M275.132,35.118"/>
	<path d="M297.542,51.604c0.508,1.093,1.603,1.792,2.806,1.792h13.65c1.206,0,2.301-0.699,2.806-1.792l6.828-14.745
		c0.578-1.25,0.26-2.734-0.783-3.638L309.197,21.4c-1.161-1.006-2.887-1.006-4.048,0l-13.65,11.822
		c-1.043,0.902-1.361,2.385-0.781,3.638L297.542,51.604z M307.174,27.827l9.867,8.545l-5.018,10.84h-9.698l-5.019-10.84
		L307.174,27.827z M307.174,27.827"/>
	<path d="M403.602,184.076c-3.317,0-6,2.688-6,6V350.44h-12.485V143.444c0-3.317-2.683-6-6-6H30.484c-3.316,0-6,2.683-6,6V350.44H12
		V142.955c0-9.922,8.07-17.996,17.992-17.996h349.613c9.922,0,17.993,8.074,17.993,17.996v26.317c0,3.312,2.687,6,6,6
		c3.312,0,6-2.688,6-6v-26.317c0-16.539-13.457-29.996-29.993-29.996H29.992C13.453,112.959,0,126.416,0,142.955V356.44
		c0,3.316,2.688,6,6,6h24.484c3.313,0,6-2.684,6-6V149.444h336.633V356.44c0,3.316,2.684,6,6,6h24.481c3.316,0,6-2.684,6-6V190.076
		C409.602,186.764,406.914,184.076,403.602,184.076L403.602,184.076z M403.602,184.076"/>
	<path d="M403.598,371.494H6c-3.312,0-6,2.684-6,6c0,3.313,2.688,6,6,6h397.598c3.316,0,6-2.687,6-6
		C409.598,374.178,406.914,371.494,403.598,371.494L403.598,371.494z M403.598,371.494"/>
</g>
<line style="fill:none;stroke:#000000;stroke-width:12;stroke-linecap:round;stroke-linejoin:round;stroke-miterlimit:10;" x1="250.407" y1="300.024" x2="159.191" y2="208.807"/>
<line style="fill:none;stroke:#000000;stroke-width:12;stroke-linecap:round;stroke-linejoin:round;stroke-miterlimit:10;" x1="250.407" y1="208.807" x2="159.191" y2="300.024"/>
</svg>
